<?xml version="1.0" encoding="utf-8" standalone="no"?>
<!DOCTYPE svg PUBLIC "-//W3C//DTD SVG 1.1//EN"
  "http://www.w3.org/Graphics/SVG/1.1/DTD/svg11.dtd">
<!-- Created with matplotlib (https://matplotlib.org/) -->
<svg height="280.512pt" version="1.1" viewBox="0 0 409.704687 280.512" width="409.704687pt" xmlns="http://www.w3.org/2000/svg" xmlns:xlink="http://www.w3.org/1999/xlink">
 <metadata>
  <rdf:RDF xmlns:cc="http://creativecommons.org/ns#" xmlns:dc="http://purl.org/dc/elements/1.1/" xmlns:rdf="http://www.w3.org/1999/02/22-rdf-syntax-ns#">
   <cc:Work>
    <dc:type rdf:resource="http://purl.org/dc/dcmitype/StillImage"/>
    <dc:date>2021-06-16T21:49:34.390049</dc:date>
    <dc:format>image/svg+xml</dc:format>
    <dc:creator>
     <cc:Agent>
      <dc:title>Matplotlib v3.3.4, https://matplotlib.org/</dc:title>
     </cc:Agent>
    </dc:creator>
   </cc:Work>
  </rdf:RDF>
 </metadata>
 <defs>
  <style type="text/css">*{stroke-linecap:butt;stroke-linejoin:round;}</style>
 </defs>
 <g id="figure_1">
  <g id="patch_1">
   <path d="M 0 280.512 
L 409.704687 280.512 
L 409.704687 0 
L 0 0 
z
" style="fill:none;"/>
  </g>
  <g id="axes_1">
   <g id="patch_2">
    <path d="M 35.304688 208.8 
L 402.504687 208.8 
L 402.504687 7.2 
L 35.304688 7.2 
z
" style="fill:#ffffff;"/>
   </g>
   <g id="matplotlib.axis_1">
    <g id="xtick_1">
     <g id="line2d_1">
      <defs>
       <path d="M 0 0 
L 0 3.5 
" id="m0e3a66c121" style="stroke:#000000;stroke-width:0.8;"/>
      </defs>
      <g>
       <use style="stroke:#000000;stroke-width:0.8;" x="51.995597" xlink:href="#m0e3a66c121" y="208.8"/>
      </g>
     </g>
     <g id="text_1">
      <!-- 0.0 -->
      <g transform="translate(44.044034 223.398437)scale(0.1 -0.1)">
       <defs>
        <path d="M 31.78125 66.40625 
Q 24.171875 66.40625 20.328125 58.90625 
Q 16.5 51.421875 16.5 36.375 
Q 16.5 21.390625 20.328125 13.890625 
Q 24.171875 6.390625 31.78125 6.390625 
Q 39.453125 6.390625 43.28125 13.890625 
Q 47.125 21.390625 47.125 36.375 
Q 47.125 51.421875 43.28125 58.90625 
Q 39.453125 66.40625 31.78125 66.40625 
z
M 31.78125 74.21875 
Q 44.046875 74.21875 50.515625 64.515625 
Q 56.984375 54.828125 56.984375 36.375 
Q 56.984375 17.96875 50.515625 8.265625 
Q 44.046875 -1.421875 31.78125 -1.421875 
Q 19.53125 -1.421875 13.0625 8.265625 
Q 6.59375 17.96875 6.59375 36.375 
Q 6.59375 54.828125 13.0625 64.515625 
Q 19.53125 74.21875 31.78125 74.21875 
z
" id="DejaVuSans-48"/>
        <path d="M 10.6875 12.40625 
L 21 12.40625 
L 21 0 
L 10.6875 0 
z
" id="DejaVuSans-46"/>
       </defs>
       <use xlink:href="#DejaVuSans-48"/>
       <use x="63.623047" xlink:href="#DejaVuSans-46"/>
       <use x="95.410156" xlink:href="#DejaVuSans-48"/>
      </g>
     </g>
    </g>
    <g id="xtick_2">
     <g id="line2d_2">
      <g>
       <use style="stroke:#000000;stroke-width:0.8;" x="118.759233" xlink:href="#m0e3a66c121" y="208.8"/>
      </g>
     </g>
     <g id="text_2">
      <!-- 0.2 -->
      <g transform="translate(110.80767 223.398437)scale(0.1 -0.1)">
       <defs>
        <path d="M 19.1875 8.296875 
L 53.609375 8.296875 
L 53.609375 0 
L 7.328125 0 
L 7.328125 8.296875 
Q 12.9375 14.109375 22.625 23.890625 
Q 32.328125 33.6875 34.8125 36.53125 
Q 39.546875 41.84375 41.421875 45.53125 
Q 43.3125 49.21875 43.3125 52.78125 
Q 43.3125 58.59375 39.234375 62.25 
Q 35.15625 65.921875 28.609375 65.921875 
Q 23.96875 65.921875 18.8125 64.3125 
Q 13.671875 62.703125 7.8125 59.421875 
L 7.8125 69.390625 
Q 13.765625 71.78125 18.9375 73 
Q 24.125 74.21875 28.421875 74.21875 
Q 39.75 74.21875 46.484375 68.546875 
Q 53.21875 62.890625 53.21875 53.421875 
Q 53.21875 48.921875 51.53125 44.890625 
Q 49.859375 40.875 45.40625 35.40625 
Q 44.1875 33.984375 37.640625 27.21875 
Q 31.109375 20.453125 19.1875 8.296875 
z
" id="DejaVuSans-50"/>
       </defs>
       <use xlink:href="#DejaVuSans-48"/>
       <use x="63.623047" xlink:href="#DejaVuSans-46"/>
       <use x="95.410156" xlink:href="#DejaVuSans-50"/>
      </g>
     </g>
    </g>
    <g id="xtick_3">
     <g id="line2d_3">
      <g>
       <use style="stroke:#000000;stroke-width:0.8;" x="185.522869" xlink:href="#m0e3a66c121" y="208.8"/>
      </g>
     </g>
     <g id="text_3">
      <!-- 0.4 -->
      <g transform="translate(177.571307 223.398437)scale(0.1 -0.1)">
       <defs>
        <path d="M 37.796875 64.3125 
L 12.890625 25.390625 
L 37.796875 25.390625 
z
M 35.203125 72.90625 
L 47.609375 72.90625 
L 47.609375 25.390625 
L 58.015625 25.390625 
L 58.015625 17.1875 
L 47.609375 17.1875 
L 47.609375 0 
L 37.796875 0 
L 37.796875 17.1875 
L 4.890625 17.1875 
L 4.890625 26.703125 
z
" id="DejaVuSans-52"/>
       </defs>
       <use xlink:href="#DejaVuSans-48"/>
       <use x="63.623047" xlink:href="#DejaVuSans-46"/>
       <use x="95.410156" xlink:href="#DejaVuSans-52"/>
      </g>
     </g>
    </g>
    <g id="xtick_4">
     <g id="line2d_4">
      <g>
       <use style="stroke:#000000;stroke-width:0.8;" x="252.286506" xlink:href="#m0e3a66c121" y="208.8"/>
      </g>
     </g>
     <g id="text_4">
      <!-- 0.6 -->
      <g transform="translate(244.334943 223.398437)scale(0.1 -0.1)">
       <defs>
        <path d="M 33.015625 40.375 
Q 26.375 40.375 22.484375 35.828125 
Q 18.609375 31.296875 18.609375 23.390625 
Q 18.609375 15.53125 22.484375 10.953125 
Q 26.375 6.390625 33.015625 6.390625 
Q 39.65625 6.390625 43.53125 10.953125 
Q 47.40625 15.53125 47.40625 23.390625 
Q 47.40625 31.296875 43.53125 35.828125 
Q 39.65625 40.375 33.015625 40.375 
z
M 52.59375 71.296875 
L 52.59375 62.3125 
Q 48.875 64.0625 45.09375 64.984375 
Q 41.3125 65.921875 37.59375 65.921875 
Q 27.828125 65.921875 22.671875 59.328125 
Q 17.53125 52.734375 16.796875 39.40625 
Q 19.671875 43.65625 24.015625 45.921875 
Q 28.375 48.1875 33.59375 48.1875 
Q 44.578125 48.1875 50.953125 41.515625 
Q 57.328125 34.859375 57.328125 23.390625 
Q 57.328125 12.15625 50.6875 5.359375 
Q 44.046875 -1.421875 33.015625 -1.421875 
Q 20.359375 -1.421875 13.671875 8.265625 
Q 6.984375 17.96875 6.984375 36.375 
Q 6.984375 53.65625 15.1875 63.9375 
Q 23.390625 74.21875 37.203125 74.21875 
Q 40.921875 74.21875 44.703125 73.484375 
Q 48.484375 72.75 52.59375 71.296875 
z
" id="DejaVuSans-54"/>
       </defs>
       <use xlink:href="#DejaVuSans-48"/>
       <use x="63.623047" xlink:href="#DejaVuSans-46"/>
       <use x="95.410156" xlink:href="#DejaVuSans-54"/>
      </g>
     </g>
    </g>
    <g id="xtick_5">
     <g id="line2d_5">
      <g>
       <use style="stroke:#000000;stroke-width:0.8;" x="319.050142" xlink:href="#m0e3a66c121" y="208.8"/>
      </g>
     </g>
     <g id="text_5">
      <!-- 0.8 -->
      <g transform="translate(311.09858 223.398437)scale(0.1 -0.1)">
       <defs>
        <path d="M 31.78125 34.625 
Q 24.75 34.625 20.71875 30.859375 
Q 16.703125 27.09375 16.703125 20.515625 
Q 16.703125 13.921875 20.71875 10.15625 
Q 24.75 6.390625 31.78125 6.390625 
Q 38.8125 6.390625 42.859375 10.171875 
Q 46.921875 13.96875 46.921875 20.515625 
Q 46.921875 27.09375 42.890625 30.859375 
Q 38.875 34.625 31.78125 34.625 
z
M 21.921875 38.8125 
Q 15.578125 40.375 12.03125 44.71875 
Q 8.5 49.078125 8.5 55.328125 
Q 8.5 64.0625 14.71875 69.140625 
Q 20.953125 74.21875 31.78125 74.21875 
Q 42.671875 74.21875 48.875 69.140625 
Q 55.078125 64.0625 55.078125 55.328125 
Q 55.078125 49.078125 51.53125 44.71875 
Q 48 40.375 41.703125 38.8125 
Q 48.828125 37.15625 52.796875 32.3125 
Q 56.78125 27.484375 56.78125 20.515625 
Q 56.78125 9.90625 50.3125 4.234375 
Q 43.84375 -1.421875 31.78125 -1.421875 
Q 19.734375 -1.421875 13.25 4.234375 
Q 6.78125 9.90625 6.78125 20.515625 
Q 6.78125 27.484375 10.78125 32.3125 
Q 14.796875 37.15625 21.921875 38.8125 
z
M 18.3125 54.390625 
Q 18.3125 48.734375 21.84375 45.5625 
Q 25.390625 42.390625 31.78125 42.390625 
Q 38.140625 42.390625 41.71875 45.5625 
Q 45.3125 48.734375 45.3125 54.390625 
Q 45.3125 60.0625 41.71875 63.234375 
Q 38.140625 66.40625 31.78125 66.40625 
Q 25.390625 66.40625 21.84375 63.234375 
Q 18.3125 60.0625 18.3125 54.390625 
z
" id="DejaVuSans-56"/>
       </defs>
       <use xlink:href="#DejaVuSans-48"/>
       <use x="63.623047" xlink:href="#DejaVuSans-46"/>
       <use x="95.410156" xlink:href="#DejaVuSans-56"/>
      </g>
     </g>
    </g>
    <g id="xtick_6">
     <g id="line2d_6">
      <g>
       <use style="stroke:#000000;stroke-width:0.8;" x="385.813778" xlink:href="#m0e3a66c121" y="208.8"/>
      </g>
     </g>
     <g id="text_6">
      <!-- 1.0 -->
      <g transform="translate(377.862216 223.398437)scale(0.1 -0.1)">
       <defs>
        <path d="M 12.40625 8.296875 
L 28.515625 8.296875 
L 28.515625 63.921875 
L 10.984375 60.40625 
L 10.984375 69.390625 
L 28.421875 72.90625 
L 38.28125 72.90625 
L 38.28125 8.296875 
L 54.390625 8.296875 
L 54.390625 0 
L 12.40625 0 
z
" id="DejaVuSans-49"/>
       </defs>
       <use xlink:href="#DejaVuSans-49"/>
       <use x="63.623047" xlink:href="#DejaVuSans-46"/>
       <use x="95.410156" xlink:href="#DejaVuSans-48"/>
      </g>
     </g>
    </g>
    <g id="text_7">
     <!-- Time (s) -->
     <g transform="translate(198.575781 237.076562)scale(0.1 -0.1)">
      <defs>
       <path d="M -0.296875 72.90625 
L 61.375 72.90625 
L 61.375 64.59375 
L 35.5 64.59375 
L 35.5 0 
L 25.59375 0 
L 25.59375 64.59375 
L -0.296875 64.59375 
z
" id="DejaVuSans-84"/>
       <path d="M 9.421875 54.6875 
L 18.40625 54.6875 
L 18.40625 0 
L 9.421875 0 
z
M 9.421875 75.984375 
L 18.40625 75.984375 
L 18.40625 64.59375 
L 9.421875 64.59375 
z
" id="DejaVuSans-105"/>
       <path d="M 52 44.1875 
Q 55.375 50.25 60.0625 53.125 
Q 64.75 56 71.09375 56 
Q 79.640625 56 84.28125 50.015625 
Q 88.921875 44.046875 88.921875 33.015625 
L 88.921875 0 
L 79.890625 0 
L 79.890625 32.71875 
Q 79.890625 40.578125 77.09375 44.375 
Q 74.3125 48.1875 68.609375 48.1875 
Q 61.625 48.1875 57.5625 43.546875 
Q 53.515625 38.921875 53.515625 30.90625 
L 53.515625 0 
L 44.484375 0 
L 44.484375 32.71875 
Q 44.484375 40.625 41.703125 44.40625 
Q 38.921875 48.1875 33.109375 48.1875 
Q 26.21875 48.1875 22.15625 43.53125 
Q 18.109375 38.875 18.109375 30.90625 
L 18.109375 0 
L 9.078125 0 
L 9.078125 54.6875 
L 18.109375 54.6875 
L 18.109375 46.1875 
Q 21.1875 51.21875 25.484375 53.609375 
Q 29.78125 56 35.6875 56 
Q 41.65625 56 45.828125 52.96875 
Q 50 49.953125 52 44.1875 
z
" id="DejaVuSans-109"/>
       <path d="M 56.203125 29.59375 
L 56.203125 25.203125 
L 14.890625 25.203125 
Q 15.484375 15.921875 20.484375 11.0625 
Q 25.484375 6.203125 34.421875 6.203125 
Q 39.59375 6.203125 44.453125 7.46875 
Q 49.3125 8.734375 54.109375 11.28125 
L 54.109375 2.78125 
Q 49.265625 0.734375 44.1875 -0.34375 
Q 39.109375 -1.421875 33.890625 -1.421875 
Q 20.796875 -1.421875 13.15625 6.1875 
Q 5.515625 13.8125 5.515625 26.8125 
Q 5.515625 40.234375 12.765625 48.109375 
Q 20.015625 56 32.328125 56 
Q 43.359375 56 49.78125 48.890625 
Q 56.203125 41.796875 56.203125 29.59375 
z
M 47.21875 32.234375 
Q 47.125 39.59375 43.09375 43.984375 
Q 39.0625 48.390625 32.421875 48.390625 
Q 24.90625 48.390625 20.390625 44.140625 
Q 15.875 39.890625 15.1875 32.171875 
z
" id="DejaVuSans-101"/>
       <path id="DejaVuSans-32"/>
       <path d="M 31 75.875 
Q 24.46875 64.65625 21.28125 53.65625 
Q 18.109375 42.671875 18.109375 31.390625 
Q 18.109375 20.125 21.3125 9.0625 
Q 24.515625 -2 31 -13.1875 
L 23.1875 -13.1875 
Q 15.875 -1.703125 12.234375 9.375 
Q 8.59375 20.453125 8.59375 31.390625 
Q 8.59375 42.28125 12.203125 53.3125 
Q 15.828125 64.359375 23.1875 75.875 
z
" id="DejaVuSans-40"/>
       <path d="M 44.28125 53.078125 
L 44.28125 44.578125 
Q 40.484375 46.53125 36.375 47.5 
Q 32.28125 48.484375 27.875 48.484375 
Q 21.1875 48.484375 17.84375 46.4375 
Q 14.5 44.390625 14.5 40.28125 
Q 14.5 37.15625 16.890625 35.375 
Q 19.28125 33.59375 26.515625 31.984375 
L 29.59375 31.296875 
Q 39.15625 29.25 43.1875 25.515625 
Q 47.21875 21.78125 47.21875 15.09375 
Q 47.21875 7.46875 41.1875 3.015625 
Q 35.15625 -1.421875 24.609375 -1.421875 
Q 20.21875 -1.421875 15.453125 -0.5625 
Q 10.6875 0.296875 5.421875 2 
L 5.421875 11.28125 
Q 10.40625 8.6875 15.234375 7.390625 
Q 20.0625 6.109375 24.8125 6.109375 
Q 31.15625 6.109375 34.5625 8.28125 
Q 37.984375 10.453125 37.984375 14.40625 
Q 37.984375 18.0625 35.515625 20.015625 
Q 33.0625 21.96875 24.703125 23.78125 
L 21.578125 24.515625 
Q 13.234375 26.265625 9.515625 29.90625 
Q 5.8125 33.546875 5.8125 39.890625 
Q 5.8125 47.609375 11.28125 51.796875 
Q 16.75 56 26.8125 56 
Q 31.78125 56 36.171875 55.265625 
Q 40.578125 54.546875 44.28125 53.078125 
z
" id="DejaVuSans-115"/>
       <path d="M 8.015625 75.875 
L 15.828125 75.875 
Q 23.140625 64.359375 26.78125 53.3125 
Q 30.421875 42.28125 30.421875 31.390625 
Q 30.421875 20.453125 26.78125 9.375 
Q 23.140625 -1.703125 15.828125 -13.1875 
L 8.015625 -13.1875 
Q 14.5 -2 17.703125 9.0625 
Q 20.90625 20.125 20.90625 31.390625 
Q 20.90625 42.671875 17.703125 53.65625 
Q 14.5 64.65625 8.015625 75.875 
z
" id="DejaVuSans-41"/>
      </defs>
      <use xlink:href="#DejaVuSans-84"/>
      <use x="57.958984" xlink:href="#DejaVuSans-105"/>
      <use x="85.742188" xlink:href="#DejaVuSans-109"/>
      <use x="183.154297" xlink:href="#DejaVuSans-101"/>
      <use x="244.677734" xlink:href="#DejaVuSans-32"/>
      <use x="276.464844" xlink:href="#DejaVuSans-40"/>
      <use x="315.478516" xlink:href="#DejaVuSans-115"/>
      <use x="367.578125" xlink:href="#DejaVuSans-41"/>
     </g>
    </g>
   </g>
   <g id="matplotlib.axis_2">
    <g id="ytick_1">
     <g id="line2d_7">
      <defs>
       <path d="M 0 0 
L -3.5 0 
" id="mcf10301bea" style="stroke:#000000;stroke-width:0.8;"/>
      </defs>
      <g>
       <use style="stroke:#000000;stroke-width:0.8;" x="35.304688" xlink:href="#mcf10301bea" y="191.548072"/>
      </g>
     </g>
     <g id="text_8">
      <!-- −10 -->
      <g transform="translate(7.2 195.347291)scale(0.1 -0.1)">
       <defs>
        <path d="M 10.59375 35.5 
L 73.1875 35.5 
L 73.1875 27.203125 
L 10.59375 27.203125 
z
" id="DejaVuSans-8722"/>
       </defs>
       <use xlink:href="#DejaVuSans-8722"/>
       <use x="83.789062" xlink:href="#DejaVuSans-49"/>
       <use x="147.412109" xlink:href="#DejaVuSans-48"/>
      </g>
     </g>
    </g>
    <g id="ytick_2">
     <g id="line2d_8">
      <g>
       <use style="stroke:#000000;stroke-width:0.8;" x="35.304688" xlink:href="#mcf10301bea" y="149.774036"/>
      </g>
     </g>
     <g id="text_9">
      <!-- −5 -->
      <g transform="translate(13.5625 153.573255)scale(0.1 -0.1)">
       <defs>
        <path d="M 10.796875 72.90625 
L 49.515625 72.90625 
L 49.515625 64.59375 
L 19.828125 64.59375 
L 19.828125 46.734375 
Q 21.96875 47.46875 24.109375 47.828125 
Q 26.265625 48.1875 28.421875 48.1875 
Q 40.625 48.1875 47.75 41.5 
Q 54.890625 34.8125 54.890625 23.390625 
Q 54.890625 11.625 47.5625 5.09375 
Q 40.234375 -1.421875 26.90625 -1.421875 
Q 22.3125 -1.421875 17.546875 -0.640625 
Q 12.796875 0.140625 7.71875 1.703125 
L 7.71875 11.625 
Q 12.109375 9.234375 16.796875 8.0625 
Q 21.484375 6.890625 26.703125 6.890625 
Q 35.15625 6.890625 40.078125 11.328125 
Q 45.015625 15.765625 45.015625 23.390625 
Q 45.015625 31 40.078125 35.4375 
Q 35.15625 39.890625 26.703125 39.890625 
Q 22.75 39.890625 18.8125 39.015625 
Q 14.890625 38.140625 10.796875 36.28125 
z
" id="DejaVuSans-53"/>
       </defs>
       <use xlink:href="#DejaVuSans-8722"/>
       <use x="83.789062" xlink:href="#DejaVuSans-53"/>
      </g>
     </g>
    </g>
    <g id="ytick_3">
     <g id="line2d_9">
      <g>
       <use style="stroke:#000000;stroke-width:0.8;" x="35.304688" xlink:href="#mcf10301bea" y="108"/>
      </g>
     </g>
     <g id="text_10">
      <!-- 0 -->
      <g transform="translate(21.942187 111.799219)scale(0.1 -0.1)">
       <use xlink:href="#DejaVuSans-48"/>
      </g>
     </g>
    </g>
    <g id="ytick_4">
     <g id="line2d_10">
      <g>
       <use style="stroke:#000000;stroke-width:0.8;" x="35.304688" xlink:href="#mcf10301bea" y="66.225964"/>
      </g>
     </g>
     <g id="text_11">
      <!-- 5 -->
      <g transform="translate(21.942187 70.025183)scale(0.1 -0.1)">
       <use xlink:href="#DejaVuSans-53"/>
      </g>
     </g>
    </g>
    <g id="ytick_5">
     <g id="line2d_11">
      <g>
       <use style="stroke:#000000;stroke-width:0.8;" x="35.304688" xlink:href="#mcf10301bea" y="24.451928"/>
      </g>
     </g>
     <g id="text_12">
      <!-- 10 -->
      <g transform="translate(15.579687 28.251147)scale(0.1 -0.1)">
       <use xlink:href="#DejaVuSans-49"/>
       <use x="63.623047" xlink:href="#DejaVuSans-48"/>
      </g>
     </g>
    </g>
   </g>
   <g id="line2d_12">
    <path clip-path="url(#pd4bc7b560f)" d="M 51.995597 108 
L 52.517909 23.807536 
L 52.699583 16.363636 
L 52.714722 16.412776 
L 52.78285 17.919013 
L 52.926675 27.787659 
L 53.184047 64.538703 
L 54.024288 196.071492 
L 54.107555 197.593899 
L 54.152974 197.119012 
L 54.25895 192.478884 
L 54.455764 171.832138 
L 54.84939 101.095106 
L 55.326284 29.113094 
L 55.507958 22.023906 
L 55.523098 22.073936 
L 55.591225 23.524666 
L 55.735051 32.942818 
L 55.992422 67.75615 
L 56.809954 187.959863 
L 56.900791 189.660944 
L 56.94621 189.217014 
L 57.052186 184.878149 
L 57.249 165.617712 
L 57.657766 97.463961 
L 58.11195 36.029717 
L 58.286055 30.210155 
L 58.308764 30.349699 
L 58.392031 32.634585 
L 58.558565 45.124774 
L 58.861355 88.415245 
L 59.497214 178.535591 
L 59.656178 183.49877 
L 59.686457 183.3145 
L 59.777294 180.594456 
L 59.951399 166.825519 
L 60.276898 119.089629 
L 60.859768 37.955363 
L 61.026302 32.50123 
L 61.049012 32.602192 
L 61.124709 34.412907 
L 61.276104 44.576376 
L 61.548615 80.725465 
L 62.28288 183.021508 
L 62.403996 185.789914 
L 62.441845 185.441711 
L 62.540251 181.842473 
L 62.729495 164.714454 
L 63.092843 106.247596 
L 63.607585 32.634448 
L 63.781689 26.339056 
L 63.804399 26.440904 
L 63.880096 28.336786 
L 64.031491 39.065379 
L 64.304002 77.541792 
L 65.060976 191.194668 
L 65.174523 193.976094 
L 65.219941 193.528868 
L 65.325917 189.035087 
L 65.522731 168.812366 
L 65.908788 100.020743 
L 66.400821 25.139793 
L 66.574925 18.406101 
L 66.597635 18.514425 
L 66.673332 20.535943 
L 66.824727 31.972566 
L 67.097238 72.99507 
L 67.869352 196.743593 
L 67.982898 199.636364 
L 68.028316 199.158631 
L 68.134293 194.440866 
L 68.331106 173.32662 
L 68.717163 101.814847 
L 69.209197 23.807536 
L 69.39087 16.363636 
L 69.40601 16.412776 
L 69.474138 17.919013 
L 69.617963 27.787659 
L 69.875334 64.538703 
L 70.715576 196.071492 
L 70.798843 197.593899 
L 70.844261 197.119012 
L 70.950238 192.478884 
L 71.147051 171.832138 
L 71.540678 101.095106 
L 72.017572 29.113094 
L 72.199246 22.023906 
L 72.214385 22.073936 
L 72.282513 23.524666 
L 72.426338 32.942818 
L 72.683709 67.75615 
L 73.501242 187.959863 
L 73.592079 189.660944 
L 73.637497 189.217014 
L 73.743474 184.878149 
L 73.940287 165.617712 
L 74.349053 97.463961 
L 74.803238 36.029717 
L 74.977342 30.210155 
L 75.000051 30.349699 
L 75.083319 32.634585 
L 75.249853 45.124774 
L 75.552643 88.415245 
L 76.188501 178.535591 
L 76.347466 183.49877 
L 76.377745 183.3145 
L 76.468582 180.594456 
L 76.642686 166.825519 
L 76.968185 119.089629 
L 77.551055 37.955363 
L 77.71759 32.50123 
L 77.740299 32.602192 
L 77.815997 34.412907 
L 77.967391 44.576376 
L 78.239902 80.725465 
L 78.974168 183.021508 
L 79.095283 185.789914 
L 79.133132 185.441711 
L 79.231539 181.842473 
L 79.420782 164.714454 
L 79.78413 106.247596 
L 80.298873 32.634448 
L 80.472977 26.339056 
L 80.495686 26.440904 
L 80.571384 28.336786 
L 80.722779 39.065379 
L 80.995289 77.541792 
L 81.752264 191.194668 
L 81.86581 193.976094 
L 81.911229 193.528868 
L 82.017205 189.035087 
L 82.214018 168.812366 
L 82.600075 100.020743 
L 83.092109 25.139793 
L 83.266213 18.406101 
L 83.288922 18.514425 
L 83.36462 20.535943 
L 83.516014 31.972566 
L 83.788525 72.99507 
L 84.560639 196.743593 
L 84.674185 199.636364 
L 84.719604 199.158631 
L 84.82558 194.440866 
L 85.022394 173.32662 
L 85.408451 101.814847 
L 85.900484 23.807536 
L 86.082158 16.363636 
L 86.097298 16.412776 
L 86.165425 17.919013 
L 86.30925 27.787659 
L 86.566622 64.538703 
L 87.406863 196.071492 
L 87.490131 197.593899 
L 87.535549 197.119012 
L 87.641525 192.478884 
L 87.838339 171.832138 
L 88.231966 101.095106 
L 88.70886 29.113094 
L 88.890533 22.023906 
L 88.905673 22.073936 
L 88.973801 23.524666 
L 89.117626 32.942818 
L 89.374997 67.75615 
L 90.19253 187.959863 
L 90.283366 189.660944 
L 90.328785 189.217014 
L 90.434761 184.878149 
L 90.631575 165.617712 
L 91.040341 97.463961 
L 91.494526 36.029717 
L 91.66863 30.210155 
L 91.691339 30.349699 
L 91.774606 32.634585 
L 91.941141 45.124774 
L 92.24393 88.415245 
L 92.879789 178.535591 
L 93.038754 183.49877 
L 93.069033 183.3145 
L 93.15987 180.594456 
L 93.333974 166.825519 
L 93.659473 119.089629 
L 94.242343 37.955363 
L 94.408877 32.50123 
L 94.431587 32.602192 
L 94.507284 34.412907 
L 94.658679 44.576376 
L 94.93119 80.725465 
L 95.665455 183.021508 
L 95.786571 185.789914 
L 95.82442 185.441711 
L 95.922826 181.842473 
L 96.11207 164.714454 
L 96.475418 106.247596 
L 96.99016 32.634448 
L 97.164265 26.339056 
L 97.186974 26.440904 
L 97.262671 28.336786 
L 97.414066 39.065379 
L 97.686577 77.541792 
L 98.443552 191.194668 
L 98.557098 193.976094 
L 98.602516 193.528868 
L 98.708493 189.035087 
L 98.905306 168.812366 
L 99.291363 100.020743 
L 99.783396 25.139793 
L 99.9575 18.406101 
L 99.98021 18.514425 
L 100.055907 20.535943 
L 100.207302 31.972566 
L 100.479813 72.99507 
L 101.251927 196.743593 
L 101.365473 199.636364 
L 101.410892 199.158631 
L 101.516868 194.440866 
L 101.713681 173.32662 
L 102.099738 101.814847 
L 102.591772 23.807536 
L 102.773446 16.363636 
L 102.788585 16.412776 
L 102.856713 17.919013 
L 103.000538 27.787659 
L 103.257909 64.538703 
L 104.098151 196.071492 
L 104.181418 197.593899 
L 104.226837 197.119012 
L 104.332813 192.478884 
L 104.529626 171.832138 
L 104.923253 101.095106 
L 105.400147 29.113094 
L 105.581821 22.023906 
L 105.59696 22.073936 
L 105.665088 23.524666 
L 105.808913 32.942818 
L 106.066285 67.75615 
L 106.883817 187.959863 
L 106.974654 189.660944 
L 107.020073 189.217014 
L 107.126049 184.878149 
L 107.322862 165.617712 
L 107.731629 97.463961 
L 108.185813 36.029717 
L 108.359917 30.210155 
L 108.382627 30.349699 
L 108.465894 32.634585 
L 108.632428 45.124774 
L 108.935218 88.415245 
L 109.571077 178.535591 
L 109.730041 183.49877 
L 109.76032 183.3145 
L 109.851157 180.594456 
L 110.025261 166.825519 
L 110.35076 119.089629 
L 110.933631 37.955363 
L 111.100165 32.50123 
L 111.122874 32.602192 
L 111.198572 34.412907 
L 111.349967 44.576376 
L 111.622477 80.725465 
L 112.356743 183.021508 
L 112.477859 185.789914 
L 112.515707 185.441711 
L 112.614114 181.842473 
L 112.803358 164.714454 
L 113.166705 106.247596 
L 113.681448 32.634448 
L 113.855552 26.339056 
L 113.878261 26.440904 
L 113.953959 28.336786 
L 114.105354 39.065379 
L 114.377865 77.541792 
L 115.134839 191.194668 
L 115.248385 193.976094 
L 115.293804 193.528868 
L 115.39978 189.035087 
L 115.596594 168.812366 
L 115.982651 100.020743 
L 116.474684 25.139793 
L 116.648788 18.406101 
L 116.671497 18.514425 
L 116.747195 20.535943 
L 116.89859 31.972566 
L 117.1711 72.99507 
L 117.943214 196.743593 
L 118.056761 199.636364 
L 118.102179 199.158631 
L 118.208156 194.440866 
L 118.404969 173.32662 
L 118.791026 101.814847 
L 119.283059 23.807536 
L 119.464733 16.363636 
L 119.479873 16.412776 
L 119.548 17.919013 
L 119.691826 27.787659 
L 119.949197 64.538703 
L 120.789439 196.071492 
L 120.872706 197.593899 
L 120.918124 197.119012 
L 121.024101 192.478884 
L 121.220914 171.832138 
L 121.614541 101.095106 
L 122.091435 29.113094 
L 122.273109 22.023906 
L 122.288248 22.073936 
L 122.356376 23.524666 
L 122.500201 32.942818 
L 122.757572 67.75615 
L 123.575105 187.959863 
L 123.665942 189.660944 
L 123.71136 189.217014 
L 123.817337 184.878149 
L 124.01415 165.617712 
L 124.422916 97.463961 
L 124.877101 36.029717 
L 125.051205 30.210155 
L 125.073914 30.349699 
L 125.157181 32.634585 
L 125.323716 45.124774 
L 125.626506 88.415245 
L 126.262364 178.535591 
L 126.421329 183.49877 
L 126.451608 183.3145 
L 126.542445 180.594456 
L 126.716549 166.825519 
L 127.042048 119.089629 
L 127.624918 37.955363 
L 127.791453 32.50123 
L 127.814162 32.602192 
L 127.889859 34.412907 
L 128.041254 44.576376 
L 128.313765 80.725465 
L 129.04803 183.021508 
L 129.169146 185.789914 
L 129.206995 185.441711 
L 129.305402 181.842473 
L 129.494645 164.714454 
L 129.857993 106.247596 
L 130.372736 32.634448 
L 130.54684 26.339056 
L 130.569549 26.440904 
L 130.645246 28.336786 
L 130.796641 39.065379 
L 131.069152 77.541792 
L 131.826127 191.194668 
L 131.939673 193.976094 
L 131.985091 193.528868 
L 132.091068 189.035087 
L 132.287881 168.812366 
L 132.673938 100.020743 
L 133.165972 25.139793 
L 133.340076 18.406101 
L 133.362785 18.514425 
L 133.438482 20.535943 
L 133.589877 31.972566 
L 133.862388 72.99507 
L 134.634502 196.743593 
L 134.748048 199.636364 
L 134.793467 199.158631 
L 134.899443 194.440866 
L 135.096256 173.32662 
L 135.482313 101.814847 
L 135.974347 23.807536 
L 136.156021 16.363636 
L 136.17116 16.412776 
L 136.239288 17.919013 
L 136.383113 27.787659 
L 136.640484 64.538703 
L 137.480726 196.071492 
L 137.563993 197.593899 
L 137.609412 197.119012 
L 137.715388 192.478884 
L 137.912202 171.832138 
L 138.305828 101.095106 
L 138.782722 29.113094 
L 138.964396 22.023906 
L 138.979536 22.073936 
L 139.047663 23.524666 
L 139.191488 32.942818 
L 139.44886 67.75615 
L 140.266392 187.959863 
L 140.357229 189.660944 
L 140.402648 189.217014 
L 140.508624 184.878149 
L 140.705437 165.617712 
L 141.114204 97.463961 
L 141.568388 36.029717 
L 141.742493 30.210155 
L 141.765202 30.349699 
L 141.848469 32.634585 
L 142.015003 45.124774 
L 142.317793 88.415245 
L 142.953652 178.535591 
L 143.112616 183.49877 
L 143.142895 183.3145 
L 143.233732 180.594456 
L 143.407836 166.825519 
L 143.733335 119.089629 
L 144.316206 37.955363 
L 144.48274 32.50123 
L 144.505449 32.602192 
L 144.581147 34.412907 
L 144.732542 44.576376 
L 145.005053 80.725465 
L 145.739318 183.021508 
L 145.860434 185.789914 
L 145.898282 185.441711 
L 145.996689 181.842473 
L 146.185933 164.714454 
L 146.549281 106.247596 
L 147.064023 32.634448 
L 147.238127 26.339056 
L 147.260837 26.440904 
L 147.336534 28.336786 
L 147.487929 39.065379 
L 147.76044 77.541792 
L 148.517414 191.194668 
L 148.63096 193.976094 
L 148.676379 193.528868 
L 148.782355 189.035087 
L 148.979169 168.812366 
L 149.365226 100.020743 
L 149.857259 25.139793 
L 150.031363 18.406101 
L 150.054072 18.514425 
L 150.12977 20.535943 
L 150.281165 31.972566 
L 150.553676 72.99507 
L 151.32579 196.743593 
L 151.439336 199.636364 
L 151.484754 199.158631 
L 151.590731 194.440866 
L 151.787544 173.32662 
L 152.173601 101.814847 
L 152.665634 23.807536 
L 152.847308 16.363636 
L 152.862448 16.412776 
L 152.930576 17.919013 
L 153.074401 27.787659 
L 153.331772 64.538703 
L 154.172014 196.071492 
L 154.255281 197.593899 
L 154.300699 197.119012 
L 154.406676 192.478884 
L 154.603489 171.832138 
L 154.997116 101.095106 
L 155.47401 29.113094 
L 155.655684 22.023906 
L 155.670823 22.073936 
L 155.738951 23.524666 
L 155.882776 32.942818 
L 156.140147 67.75615 
L 156.95768 187.959863 
L 157.048517 189.660944 
L 157.093935 189.217014 
L 157.199912 184.878149 
L 157.396725 165.617712 
L 157.805491 97.463961 
L 158.259676 36.029717 
L 158.43378 30.210155 
L 158.456489 30.349699 
L 158.539757 32.634585 
L 158.706291 45.124774 
L 159.009081 88.415245 
L 159.644939 178.535591 
L 159.803904 183.49877 
L 159.834183 183.3145 
L 159.92502 180.594456 
L 160.099124 166.825519 
L 160.424623 119.089629 
L 161.007493 37.955363 
L 161.174028 32.50123 
L 161.196737 32.602192 
L 161.272434 34.412907 
L 161.423829 44.576376 
L 161.69634 80.725465 
L 162.430605 183.021508 
L 162.551721 185.789914 
L 162.58957 185.441711 
L 162.687977 181.842473 
L 162.87722 164.714454 
L 163.240568 106.247596 
L 163.755311 32.634448 
L 163.929415 26.339056 
L 163.952124 26.440904 
L 164.027822 28.336786 
L 164.179217 39.065379 
L 164.451727 77.541792 
L 165.208702 191.194668 
L 165.322248 193.976094 
L 165.367666 193.528868 
L 165.473643 189.035087 
L 165.670456 168.812366 
L 166.056513 100.020743 
L 166.548547 25.139793 
L 166.722651 18.406101 
L 166.74536 18.514425 
L 166.821057 20.535943 
L 166.972452 31.972566 
L 167.244963 72.99507 
L 168.017077 196.743593 
L 168.130623 199.636364 
L 168.176042 199.158631 
L 168.282018 194.440866 
L 168.478832 173.32662 
L 168.864889 101.814847 
L 169.356922 23.807536 
L 169.538596 16.363636 
L 169.553735 16.412776 
L 169.621863 17.919013 
L 169.765688 27.787659 
L 170.02306 64.538703 
L 170.863301 196.071492 
L 170.946568 197.593899 
L 170.991987 197.119012 
L 171.097963 192.478884 
L 171.294777 171.832138 
L 171.688403 101.095106 
L 172.165297 29.113094 
L 172.346971 22.023906 
L 172.362111 22.073936 
L 172.430238 23.524666 
L 172.574064 32.942818 
L 172.831435 67.75615 
L 173.648967 187.959863 
L 173.739804 189.660944 
L 173.785223 189.217014 
L 173.891199 184.878149 
L 174.088013 165.617712 
L 174.496779 97.463961 
L 174.950964 36.029717 
L 175.125068 30.210155 
L 175.147777 30.349699 
L 175.231044 32.634585 
L 175.397578 45.124774 
L 175.700368 88.415245 
L 176.336227 178.535591 
L 176.495192 183.49877 
L 176.52547 183.3145 
L 176.616307 180.594456 
L 176.790412 166.825519 
L 177.115911 119.089629 
L 177.698781 37.955363 
L 177.865315 32.50123 
L 177.888025 32.602192 
L 177.963722 34.412907 
L 178.115117 44.576376 
L 178.387628 80.725465 
L 179.121893 183.021508 
L 179.243009 185.789914 
L 179.280858 185.441711 
L 179.379264 181.842473 
L 179.568508 164.714454 
L 179.931856 106.247596 
L 180.446598 32.634448 
L 180.620702 26.339056 
L 180.643412 26.440904 
L 180.719109 28.336786 
L 180.870504 39.065379 
L 181.143015 77.541792 
L 181.899989 191.194668 
L 182.013536 193.976094 
L 182.058954 193.528868 
L 182.16493 189.035087 
L 182.361744 168.812366 
L 182.747801 100.020743 
L 183.239834 25.139793 
L 183.413938 18.406101 
L 183.436648 18.514425 
L 183.512345 20.535943 
L 183.66374 31.972566 
L 183.936251 72.99507 
L 184.708365 196.743593 
L 184.821911 199.636364 
L 184.867329 199.158631 
L 184.973306 194.440866 
L 185.170119 173.32662 
L 185.556176 101.814847 
L 186.04821 23.807536 
L 186.229883 16.363636 
L 186.245023 16.412776 
L 186.313151 17.919013 
L 186.456976 27.787659 
L 186.714347 64.538703 
L 187.554589 196.071492 
L 187.637856 197.593899 
L 187.683275 197.119012 
L 187.789251 192.478884 
L 187.986064 171.832138 
L 188.379691 101.095106 
L 188.856585 29.113094 
L 189.038259 22.023906 
L 189.053398 22.073936 
L 189.121526 23.524666 
L 189.265351 32.942818 
L 189.522723 67.75615 
L 190.340255 187.959863 
L 190.431092 189.660944 
L 190.47651 189.217014 
L 190.582487 184.878149 
L 190.7793 165.617712 
L 191.188066 97.463961 
L 191.642251 36.029717 
L 191.816355 30.210155 
L 191.839064 30.349699 
L 191.922332 32.634585 
L 192.088866 45.124774 
L 192.391656 88.415245 
L 193.027514 178.535591 
L 193.186479 183.49877 
L 193.216758 183.3145 
L 193.307595 180.594456 
L 193.481699 166.825519 
L 193.807198 119.089629 
L 194.390069 37.955363 
L 194.556603 32.50123 
L 194.579312 32.602192 
L 194.65501 34.412907 
L 194.806405 44.576376 
L 195.078915 80.725465 
L 195.813181 183.021508 
L 195.934296 185.789914 
L 195.972145 185.441711 
L 196.070552 181.842473 
L 196.259796 164.714454 
L 196.623143 106.247596 
L 197.137886 32.634448 
L 197.31199 26.339056 
L 197.334699 26.440904 
L 197.410397 28.336786 
L 197.561792 39.065379 
L 197.834302 77.541792 
L 198.591277 191.194668 
L 198.704823 193.976094 
L 198.750242 193.528868 
L 198.856218 189.035087 
L 199.053031 168.812366 
L 199.439088 100.020743 
L 199.931122 25.139793 
L 200.105226 18.406101 
L 200.127935 18.514425 
L 200.203633 20.535943 
L 200.355028 31.972566 
L 200.627538 72.99507 
L 201.399652 196.743593 
L 201.513199 199.636364 
L 201.558617 199.158631 
L 201.664593 194.440866 
L 201.861407 173.32662 
L 202.247464 101.814847 
L 202.739497 23.807536 
L 202.921171 16.363636 
L 202.936311 16.412776 
L 203.004438 17.919013 
L 203.148263 27.787659 
L 203.405635 64.538703 
L 204.245876 196.071492 
L 204.329144 197.593899 
L 204.374562 197.119012 
L 204.480539 192.478884 
L 204.677352 171.832138 
L 205.070979 101.095106 
L 205.547873 29.113094 
L 205.729546 22.023906 
L 205.744686 22.073936 
L 205.812814 23.524666 
L 205.956639 32.942818 
L 206.21401 67.75615 
L 207.031543 187.959863 
L 207.12238 189.660944 
L 207.167798 189.217014 
L 207.273774 184.878149 
L 207.470588 165.617712 
L 207.879354 97.463961 
L 208.333539 36.029717 
L 208.507643 30.210155 
L 208.530352 30.349699 
L 208.613619 32.634585 
L 208.780154 45.124774 
L 209.082943 88.415245 
L 209.718802 178.535591 
L 209.877767 183.49877 
L 209.908046 183.3145 
L 209.998883 180.594456 
L 210.172987 166.825519 
L 210.498486 119.089629 
L 211.081356 37.955363 
L 211.24789 32.50123 
L 211.2706 32.602192 
L 211.346297 34.412907 
L 211.497692 44.576376 
L 211.770203 80.725465 
L 212.504468 183.021508 
L 212.625584 185.789914 
L 212.663433 185.441711 
L 212.761839 181.842473 
L 212.951083 164.714454 
L 213.314431 106.247596 
L 213.829174 32.634448 
L 214.003278 26.339056 
L 214.025987 26.440904 
L 214.101684 28.336786 
L 214.253079 39.065379 
L 214.52559 77.541792 
L 215.282565 191.194668 
L 215.396111 193.976094 
L 215.441529 193.528868 
L 215.547506 189.035087 
L 215.744319 168.812366 
L 216.130376 100.020743 
L 216.622409 25.139793 
L 216.796514 18.406101 
L 216.819223 18.514425 
L 216.89492 20.535943 
L 217.046315 31.972566 
L 217.318826 72.99507 
L 218.09094 196.743593 
L 218.204486 199.636364 
L 218.249905 199.158631 
L 218.355881 194.440866 
L 218.552694 173.32662 
L 218.938751 101.814847 
L 219.430785 23.807536 
L 219.612459 16.363636 
L 219.627598 16.412776 
L 219.695726 17.919013 
L 219.839551 27.787659 
L 220.096922 64.538703 
L 220.937164 196.071492 
L 221.020431 197.593899 
L 221.06585 197.119012 
L 221.171826 192.478884 
L 221.368639 171.832138 
L 221.762266 101.095106 
L 222.23916 29.113094 
L 222.420834 22.023906 
L 222.435974 22.073936 
L 222.504101 23.524666 
L 222.647926 32.942818 
L 222.905298 67.75615 
L 223.72283 187.959863 
L 223.813667 189.660944 
L 223.859086 189.217014 
L 223.965062 184.878149 
L 224.161875 165.617712 
L 224.570642 97.463961 
L 225.024826 36.029717 
L 225.19893 30.210155 
L 225.22164 30.349699 
L 225.304907 32.634585 
L 225.471441 45.124774 
L 225.774231 88.415245 
L 226.41009 178.535591 
L 226.569054 183.49877 
L 226.599333 183.3145 
L 226.69017 180.594456 
L 226.864274 166.825519 
L 227.189773 119.089629 
L 227.772644 37.955363 
L 227.939178 32.50123 
L 227.961887 32.602192 
L 228.037585 34.412907 
L 228.18898 44.576376 
L 228.46149 80.725465 
L 229.195756 183.021508 
L 229.316872 185.789914 
L 229.35472 185.441711 
L 229.453127 181.842473 
L 229.642371 164.714454 
L 230.005718 106.247596 
L 230.520461 32.634448 
L 230.694565 26.339056 
L 230.717274 26.440904 
L 230.792972 28.336786 
L 230.944367 39.065379 
L 231.216878 77.541792 
L 231.973852 191.194668 
L 232.087398 193.976094 
L 232.132817 193.528868 
L 232.238793 189.035087 
L 232.435607 168.812366 
L 232.821664 100.020743 
L 233.313697 25.139793 
L 233.487801 18.406101 
L 233.51051 18.514425 
L 233.586208 20.535943 
L 233.737603 31.972566 
L 234.010114 72.99507 
L 234.782227 196.743593 
L 234.895774 199.636364 
L 234.941192 199.158631 
L 235.047169 194.440866 
L 235.243982 173.32662 
L 235.630039 101.814847 
L 236.122072 23.807536 
L 236.303746 16.363636 
L 236.318886 16.412776 
L 236.387013 17.919013 
L 236.530839 27.787659 
L 236.78821 64.538703 
L 237.628452 196.071492 
L 237.711719 197.593899 
L 237.757137 197.119012 
L 237.863114 192.478884 
L 238.059927 171.832138 
L 238.453554 101.095106 
L 238.930448 29.113094 
L 239.112122 22.023906 
L 239.127261 22.073936 
L 239.195389 23.524666 
L 239.339214 32.942818 
L 239.596585 67.75615 
L 240.414118 187.959863 
L 240.504955 189.660944 
L 240.550373 189.217014 
L 240.65635 184.878149 
L 240.853163 165.617712 
L 241.261929 97.463961 
L 241.716114 36.029717 
L 241.890218 30.210155 
L 241.912927 30.349699 
L 241.996194 32.634585 
L 242.162729 45.124774 
L 242.465519 88.415245 
L 243.101377 178.535591 
L 243.260342 183.49877 
L 243.290621 183.3145 
L 243.381458 180.594456 
L 243.555562 166.825519 
L 243.881061 119.089629 
L 244.463931 37.955363 
L 244.630466 32.50123 
L 244.653175 32.602192 
L 244.728872 34.412907 
L 244.880267 44.576376 
L 245.152778 80.725465 
L 245.887043 183.021508 
L 246.008159 185.789914 
L 246.046008 185.441711 
L 246.144415 181.842473 
L 246.333658 164.714454 
L 246.697006 106.247596 
L 247.211749 32.634448 
L 247.385853 26.339056 
L 247.408562 26.440904 
L 247.484259 28.336786 
L 247.635654 39.065379 
L 247.908165 77.541792 
L 248.66514 191.194668 
L 248.778686 193.976094 
L 248.824104 193.528868 
L 248.930081 189.035087 
L 249.126894 168.812366 
L 249.512951 100.020743 
L 250.004985 25.139793 
L 250.179089 18.406101 
L 250.201798 18.514425 
L 250.277495 20.535943 
L 250.42889 31.972566 
L 250.701401 72.99507 
L 251.473515 196.743593 
L 251.587061 199.636364 
L 251.63248 199.158631 
L 251.738456 194.440866 
L 251.93527 173.32662 
L 252.321327 101.814847 
L 252.81336 23.807536 
L 252.995034 16.363636 
L 253.010173 16.412776 
L 253.078301 17.919013 
L 253.222126 27.787659 
L 253.479497 64.538703 
L 254.319739 196.071492 
L 254.403006 197.593899 
L 254.448425 197.119012 
L 254.554401 192.478884 
L 254.751215 171.832138 
L 255.144841 101.095106 
L 255.621735 29.113094 
L 255.803409 22.023906 
L 255.818549 22.073936 
L 255.886676 23.524666 
L 256.030502 32.942818 
L 256.287873 67.75615 
L 257.105405 187.959863 
L 257.196242 189.660944 
L 257.241661 189.217014 
L 257.347637 184.878149 
L 257.544451 165.617712 
L 257.953217 97.463961 
L 258.407401 36.029717 
L 258.581506 30.210155 
L 258.604215 30.349699 
L 258.687482 32.634585 
L 258.854016 45.124774 
L 259.156806 88.415245 
L 259.792665 178.535591 
L 259.951629 183.49877 
L 259.981908 183.3145 
L 260.072745 180.594456 
L 260.246849 166.825519 
L 260.572348 119.089629 
L 261.155219 37.955363 
L 261.321753 32.50123 
L 261.344462 32.602192 
L 261.42016 34.412907 
L 261.571555 44.576376 
L 261.844066 80.725465 
L 262.578331 183.021508 
L 262.699447 185.789914 
L 262.737296 185.441711 
L 262.835702 181.842473 
L 263.024946 164.714454 
L 263.388294 106.247596 
L 263.903036 32.634448 
L 264.07714 26.339056 
L 264.09985 26.440904 
L 264.175547 28.336786 
L 264.326942 39.065379 
L 264.599453 77.541792 
L 265.356427 191.194668 
L 265.469973 193.976094 
L 265.515392 193.528868 
L 265.621368 189.035087 
L 265.818182 168.812366 
L 266.204239 100.020743 
L 266.696272 25.139793 
L 266.870376 18.406101 
L 266.893086 18.514425 
L 266.968783 20.535943 
L 267.120178 31.972566 
L 267.392689 72.99507 
L 268.164803 196.743593 
L 268.278349 199.636364 
L 268.323767 199.158631 
L 268.429744 194.440866 
L 268.626557 173.32662 
L 269.012614 101.814847 
L 269.504648 23.807536 
L 269.686321 16.363636 
L 269.701461 16.412776 
L 269.769589 17.919013 
L 269.913414 27.787659 
L 270.170785 64.538703 
L 271.011027 196.071492 
L 271.094294 197.593899 
L 271.139712 197.119012 
L 271.245689 192.478884 
L 271.442502 171.832138 
L 271.836129 101.095106 
L 272.313023 29.113094 
L 272.494697 22.023906 
L 272.509836 22.073936 
L 272.577964 23.524666 
L 272.721789 32.942818 
L 272.97916 67.75615 
L 273.796693 187.959863 
L 273.88753 189.660944 
L 273.932948 189.217014 
L 274.038925 184.878149 
L 274.235738 165.617712 
L 274.644504 97.463961 
L 275.098689 36.029717 
L 275.272793 30.210155 
L 275.295502 30.349699 
L 275.37877 32.634585 
L 275.545304 45.124774 
L 275.848094 88.415245 
L 276.483952 178.535591 
L 276.642917 183.49877 
L 276.673196 183.3145 
L 276.764033 180.594456 
L 276.938137 166.825519 
L 277.263636 119.089629 
L 277.846506 37.955363 
L 278.013041 32.50123 
L 278.03575 32.602192 
L 278.111447 34.412907 
L 278.262842 44.576376 
L 278.535353 80.725465 
L 279.269618 183.021508 
L 279.390734 185.789914 
L 279.428583 185.441711 
L 279.52699 181.842473 
L 279.716233 164.714454 
L 280.079581 106.247596 
L 280.594324 32.634448 
L 280.768428 26.339056 
L 280.791137 26.440904 
L 280.866835 28.336786 
L 281.01823 39.065379 
L 281.29074 77.541792 
L 282.047715 191.194668 
L 282.161261 193.976094 
L 282.20668 193.528868 
L 282.312656 189.035087 
L 282.509469 168.812366 
L 282.895526 100.020743 
L 283.38756 25.139793 
L 283.561664 18.406101 
L 283.584373 18.514425 
L 283.660071 20.535943 
L 283.811465 31.972566 
L 284.083976 72.99507 
L 284.85609 196.743593 
L 284.969636 199.636364 
L 285.015055 199.158631 
L 285.121031 194.440866 
L 285.317845 173.32662 
L 285.703902 101.814847 
L 286.195935 23.807536 
L 286.377609 16.363636 
L 286.392748 16.412776 
L 286.460876 17.919013 
L 286.604701 27.787659 
L 286.862073 64.538703 
L 287.702314 196.071492 
L 287.785582 197.593899 
L 287.831 197.119012 
L 287.936976 192.478884 
L 288.13379 171.832138 
L 288.527417 101.095106 
L 289.00431 29.113094 
L 289.185984 22.023906 
L 289.201124 22.073936 
L 289.269252 23.524666 
L 289.413077 32.942818 
L 289.670448 67.75615 
L 290.48798 187.959863 
L 290.578817 189.660944 
L 290.624236 189.217014 
L 290.730212 184.878149 
L 290.927026 165.617712 
L 291.335792 97.463961 
L 291.789977 36.029717 
L 291.964081 30.210155 
L 291.98679 30.349699 
L 292.070057 32.634585 
L 292.236592 45.124774 
L 292.539381 88.415245 
L 293.17524 178.535591 
L 293.334205 183.49877 
L 293.364484 183.3145 
L 293.45532 180.594456 
L 293.629425 166.825519 
L 293.954924 119.089629 
L 294.537794 37.955363 
L 294.704328 32.50123 
L 294.727038 32.602192 
L 294.802735 34.412907 
L 294.95413 44.576376 
L 295.226641 80.725465 
L 295.960906 183.021508 
L 296.082022 185.789914 
L 296.119871 185.441711 
L 296.218277 181.842473 
L 296.407521 164.714454 
L 296.770869 106.247596 
L 297.285611 32.634448 
L 297.459716 26.339056 
L 297.482425 26.440904 
L 297.558122 28.336786 
L 297.709517 39.065379 
L 297.982028 77.541792 
L 298.739002 191.194668 
L 298.852549 193.976094 
L 298.897967 193.528868 
L 299.003944 189.035087 
L 299.200757 168.812366 
L 299.586814 100.020743 
L 300.078847 25.139793 
L 300.252951 18.406101 
L 300.275661 18.514425 
L 300.351358 20.535943 
L 300.502753 31.972566 
L 300.775264 72.99507 
L 301.547378 196.743593 
L 301.660924 199.636364 
L 301.706342 199.158631 
L 301.812319 194.440866 
L 302.009132 173.32662 
L 302.395189 101.814847 
L 302.887223 23.807536 
L 303.068897 16.363636 
L 303.084036 16.412776 
L 303.152164 17.919013 
L 303.295989 27.787659 
L 303.55336 64.538703 
L 304.393602 196.071492 
L 304.476869 197.593899 
L 304.522288 197.119012 
L 304.628264 192.478884 
L 304.825077 171.832138 
L 305.218704 101.095106 
L 305.695598 29.113094 
L 305.877272 22.023906 
L 305.892411 22.073936 
L 305.960539 23.524666 
L 306.104364 32.942818 
L 306.361736 67.75615 
L 307.179268 187.959863 
L 307.270105 189.660944 
L 307.315523 189.217014 
L 307.4215 184.878149 
L 307.618313 165.617712 
L 308.027079 97.463961 
L 308.481264 36.029717 
L 308.655368 30.210155 
L 308.678078 30.349699 
L 308.761345 32.634585 
L 308.927879 45.124774 
L 309.230669 88.415245 
L 309.866527 178.535591 
L 310.025492 183.49877 
L 310.055771 183.3145 
L 310.146608 180.594456 
L 310.320712 166.825519 
L 310.646211 119.089629 
L 311.229082 37.955363 
L 311.395616 32.50123 
L 311.418325 32.602192 
L 311.494023 34.412907 
L 311.645418 44.576376 
L 311.917928 80.725465 
L 312.652194 183.021508 
L 312.77331 185.789914 
L 312.811158 185.441711 
L 312.909565 181.842473 
L 313.098809 164.714454 
L 313.462156 106.247596 
L 313.976899 32.634448 
L 314.151003 26.339056 
L 314.173712 26.440904 
L 314.24941 28.336786 
L 314.400805 39.065379 
L 314.673316 77.541792 
L 315.43029 191.194668 
L 315.543836 193.976094 
L 315.589255 193.528868 
L 315.695231 189.035087 
L 315.892044 168.812366 
L 316.278101 100.020743 
L 316.770135 25.139793 
L 316.944239 18.406101 
L 316.966948 18.514425 
L 317.042646 20.535943 
L 317.194041 31.972566 
L 317.466551 72.99507 
L 318.238665 196.743593 
L 318.352212 199.636364 
L 318.39763 199.158631 
L 318.503606 194.440866 
L 318.70042 173.32662 
L 319.086477 101.814847 
L 319.57851 23.807536 
L 319.760184 16.363636 
L 319.775324 16.412776 
L 319.843451 17.919013 
L 319.987276 27.787659 
L 320.244648 64.538703 
L 321.084889 196.071492 
L 321.168157 197.593899 
L 321.213575 197.119012 
L 321.319552 192.478884 
L 321.516365 171.832138 
L 321.909992 101.095106 
L 322.386886 29.113094 
L 322.568559 22.023906 
L 322.583699 22.073936 
L 322.651827 23.524666 
L 322.795652 32.942818 
L 323.053023 67.75615 
L 323.870556 187.959863 
L 323.961393 189.660944 
L 324.006811 189.217014 
L 324.112787 184.878149 
L 324.309601 165.617712 
L 324.718367 97.463961 
L 325.172552 36.029717 
L 325.346656 30.210155 
L 325.369365 30.349699 
L 325.452632 32.634585 
L 325.619167 45.124774 
L 325.921956 88.415245 
L 326.557815 178.535591 
L 326.71678 183.49877 
L 326.747059 183.3145 
L 326.837896 180.594456 
L 327.012 166.825519 
L 327.337499 119.089629 
L 327.920369 37.955363 
L 328.086904 32.50123 
L 328.109613 32.602192 
L 328.18531 34.412907 
L 328.336705 44.576376 
L 328.609216 80.725465 
L 329.343481 183.021508 
L 329.464597 185.789914 
L 329.502446 185.441711 
L 329.600853 181.842473 
L 329.790096 164.714454 
L 330.153444 106.247596 
L 330.668187 32.634448 
L 330.842291 26.339056 
L 330.865 26.440904 
L 330.940697 28.336786 
L 331.092092 39.065379 
L 331.364603 77.541792 
L 332.121578 191.194668 
L 332.235124 193.976094 
L 332.280542 193.528868 
L 332.386519 189.035087 
L 332.583332 168.812366 
L 332.969389 100.020743 
L 333.461422 25.139793 
L 333.635527 18.406101 
L 333.658236 18.514425 
L 333.733933 20.535943 
L 333.885328 31.972566 
L 334.157839 72.99507 
L 334.929953 196.743593 
L 335.043499 199.636364 
L 335.088918 199.158631 
L 335.194894 194.440866 
L 335.391707 173.32662 
L 335.777764 101.814847 
L 336.269798 23.807536 
L 336.451472 16.363636 
L 336.466611 16.412776 
L 336.534739 17.919013 
L 336.678564 27.787659 
L 336.935935 64.538703 
L 337.776177 196.071492 
L 337.859444 197.593899 
L 337.904863 197.119012 
L 338.010839 192.478884 
L 338.207653 171.832138 
L 338.601279 101.095106 
L 339.078173 29.113094 
L 339.259847 22.023906 
L 339.274987 22.073936 
L 339.343114 23.524666 
L 339.486939 32.942818 
L 339.744311 67.75615 
L 340.561843 187.959863 
L 340.65268 189.660944 
L 340.698099 189.217014 
L 340.804075 184.878149 
L 341.000888 165.617712 
L 341.409655 97.463961 
L 341.863839 36.029717 
L 342.037943 30.210155 
L 342.060653 30.349699 
L 342.14392 32.634585 
L 342.310454 45.124774 
L 342.613244 88.415245 
L 343.249103 178.535591 
L 343.408067 183.49877 
L 343.438346 183.3145 
L 343.529183 180.594456 
L 343.703287 166.825519 
L 344.028786 119.089629 
L 344.611657 37.955363 
L 344.778191 32.50123 
L 344.8009 32.602192 
L 344.876598 34.412907 
L 345.027993 44.576376 
L 345.300504 80.725465 
L 346.034769 183.021508 
L 346.155885 185.789914 
L 346.193733 185.441711 
L 346.29214 181.842473 
L 346.481384 164.714454 
L 346.844731 106.247596 
L 347.359474 32.634448 
L 347.533578 26.339056 
L 347.556288 26.440904 
L 347.631985 28.336786 
L 347.78338 39.065379 
L 348.055891 77.541792 
L 348.812865 191.194668 
L 348.926411 193.976094 
L 348.97183 193.528868 
L 349.077806 189.035087 
L 349.27462 168.812366 
L 349.660677 100.020743 
L 350.15271 25.139793 
L 350.326814 18.406101 
L 350.349523 18.514425 
L 350.425221 20.535943 
L 350.576616 31.972566 
L 350.849127 72.99507 
L 351.621241 196.743593 
L 351.734787 199.636364 
L 351.780205 199.158631 
L 351.886182 194.440866 
L 352.082995 173.32662 
L 352.469052 101.814847 
L 352.961085 23.807536 
L 353.142759 16.363636 
L 353.157899 16.412776 
L 353.226026 17.919013 
L 353.369852 27.787659 
L 353.627223 64.538703 
L 354.467465 196.071492 
L 354.550732 197.593899 
L 354.59615 197.119012 
L 354.702127 192.478884 
L 354.89894 171.832138 
L 355.292567 101.095106 
L 355.769461 29.113094 
L 355.951135 22.023906 
L 355.966274 22.073936 
L 356.034402 23.524666 
L 356.178227 32.942818 
L 356.435598 67.75615 
L 357.253131 187.959863 
L 357.343968 189.660944 
L 357.389386 189.217014 
L 357.495363 184.878149 
L 357.692176 165.617712 
L 358.100942 97.463961 
L 358.555127 36.029717 
L 358.729231 30.210155 
L 358.75194 30.349699 
L 358.835207 32.634585 
L 359.001742 45.124774 
L 359.304532 88.415245 
L 359.94039 178.535591 
L 360.099355 183.49877 
L 360.129634 183.3145 
L 360.220471 180.594456 
L 360.394575 166.825519 
L 360.720074 119.089629 
L 361.302944 37.955363 
L 361.469479 32.50123 
L 361.492188 32.602192 
L 361.567885 34.412907 
L 361.71928 44.576376 
L 361.991791 80.725465 
L 362.726056 183.021508 
L 362.847172 185.789914 
L 362.885021 185.441711 
L 362.983428 181.842473 
L 363.172671 164.714454 
L 363.536019 106.247596 
L 364.050762 32.634448 
L 364.224866 26.339056 
L 364.247575 26.440904 
L 364.323273 28.336786 
L 364.474667 39.065379 
L 364.747178 77.541792 
L 365.504153 191.194668 
L 365.617699 193.976094 
L 365.663117 193.528868 
L 365.769094 189.035087 
L 365.965907 168.812366 
L 366.351964 100.020743 
L 366.843998 25.139793 
L 367.018102 18.406101 
L 367.040811 18.514425 
L 367.116508 20.535943 
L 367.267903 31.972566 
L 367.540414 72.99507 
L 368.312528 196.743593 
L 368.426074 199.636364 
L 368.471493 199.158631 
L 368.577469 194.440866 
L 368.774283 173.32662 
L 369.16034 101.814847 
L 369.652373 23.807536 
L 369.834047 16.363636 
L 369.849186 16.412776 
L 369.917314 17.919013 
L 370.061139 27.787659 
L 370.318511 64.538703 
L 371.158752 196.071492 
L 371.242019 197.593899 
L 371.287438 197.119012 
L 371.393414 192.478884 
L 371.590228 171.832138 
L 371.983854 101.095106 
L 372.460748 29.113094 
L 372.642422 22.023906 
L 372.657562 22.073936 
L 372.725689 23.524666 
L 372.869515 32.942818 
L 373.126886 67.75615 
L 373.944418 187.959863 
L 374.035255 189.660944 
L 374.080674 189.217014 
L 374.18665 184.878149 
L 374.383464 165.617712 
L 374.79223 97.463961 
L 375.246414 36.029717 
L 375.420519 30.210155 
L 375.443228 30.349699 
L 375.526495 32.634585 
L 375.693029 45.124774 
L 375.995819 88.415245 
L 376.631678 178.535591 
L 376.790642 183.49877 
L 376.820921 183.3145 
L 376.911758 180.594456 
L 377.085863 166.825519 
L 377.411362 119.089629 
L 377.994232 37.955363 
L 378.160766 32.50123 
L 378.183476 32.602192 
L 378.259173 34.412907 
L 378.410568 44.576376 
L 378.683079 80.725465 
L 379.417344 183.021508 
L 379.53846 185.789914 
L 379.576309 185.441711 
L 379.674715 181.842473 
L 379.863959 164.714454 
L 380.227307 106.247596 
L 380.742049 32.634448 
L 380.916153 26.339056 
L 380.938863 26.440904 
L 381.01456 28.336786 
L 381.165955 39.065379 
L 381.438466 77.541792 
L 382.19544 191.194668 
L 382.308987 193.976094 
L 382.354405 193.528868 
L 382.460381 189.035087 
L 382.657195 168.812366 
L 383.043252 100.020743 
L 383.535285 25.139793 
L 383.709389 18.406101 
L 383.732099 18.514425 
L 383.807796 20.535943 
L 383.959191 31.972566 
L 384.231702 72.99507 
L 385.003816 196.743593 
L 385.117362 199.636364 
L 385.16278 199.158631 
L 385.268757 194.440866 
L 385.46557 173.32662 
L 385.813778 109.547392 
L 385.813778 109.547392 
" style="fill:none;stroke:#1f77b4;stroke-linecap:square;stroke-width:1.5;"/>
   </g>
   <g id="patch_3">
    <path d="M 35.304688 208.8 
L 35.304688 7.2 
" style="fill:none;stroke:#000000;stroke-linecap:square;stroke-linejoin:miter;stroke-width:0.8;"/>
   </g>
   <g id="patch_4">
    <path d="M 402.504687 208.8 
L 402.504687 7.2 
" style="fill:none;stroke:#000000;stroke-linecap:square;stroke-linejoin:miter;stroke-width:0.8;"/>
   </g>
   <g id="patch_5">
    <path d="M 35.304688 208.8 
L 402.504687 208.8 
" style="fill:none;stroke:#000000;stroke-linecap:square;stroke-linejoin:miter;stroke-width:0.8;"/>
   </g>
   <g id="patch_6">
    <path d="M 35.304688 7.2 
L 402.504687 7.2 
" style="fill:none;stroke:#000000;stroke-linecap:square;stroke-linejoin:miter;stroke-width:0.8;"/>
   </g>
   <g id="legend_1">
    <g id="patch_7">
     <path d="M 55.664687 273.312 
L 197.994375 273.312 
Q 199.994375 273.312 199.994375 271.312 
L 199.994375 246.436062 
Q 199.994375 244.436062 197.994375 244.436062 
L 55.664687 244.436062 
Q 53.664687 244.436062 53.664687 246.436062 
L 53.664687 271.312 
Q 53.664687 273.312 55.664687 273.312 
z
" style="fill:#ffffff;opacity:0.8;stroke:#cccccc;stroke-linejoin:miter;"/>
    </g>
    <g id="line2d_13">
     <path d="M 57.664687 259.17325 
L 77.664687 259.17325 
" style="fill:none;stroke:#1f77b4;stroke-linecap:square;stroke-width:1.5;"/>
    </g>
    <g id="line2d_14"/>
    <g id="text_13">
     <!-- A length -->
     <g transform="translate(85.664687 256.0345)scale(0.1 -0.1)">
      <defs>
       <path d="M 34.1875 63.1875 
L 20.796875 26.90625 
L 47.609375 26.90625 
z
M 28.609375 72.90625 
L 39.796875 72.90625 
L 67.578125 0 
L 57.328125 0 
L 50.6875 18.703125 
L 17.828125 18.703125 
L 11.1875 0 
L 0.78125 0 
z
" id="DejaVuSans-65"/>
       <path d="M 9.421875 75.984375 
L 18.40625 75.984375 
L 18.40625 0 
L 9.421875 0 
z
" id="DejaVuSans-108"/>
       <path d="M 54.890625 33.015625 
L 54.890625 0 
L 45.90625 0 
L 45.90625 32.71875 
Q 45.90625 40.484375 42.875 44.328125 
Q 39.84375 48.1875 33.796875 48.1875 
Q 26.515625 48.1875 22.3125 43.546875 
Q 18.109375 38.921875 18.109375 30.90625 
L 18.109375 0 
L 9.078125 0 
L 9.078125 54.6875 
L 18.109375 54.6875 
L 18.109375 46.1875 
Q 21.34375 51.125 25.703125 53.5625 
Q 30.078125 56 35.796875 56 
Q 45.21875 56 50.046875 50.171875 
Q 54.890625 44.34375 54.890625 33.015625 
z
" id="DejaVuSans-110"/>
       <path d="M 45.40625 27.984375 
Q 45.40625 37.75 41.375 43.109375 
Q 37.359375 48.484375 30.078125 48.484375 
Q 22.859375 48.484375 18.828125 43.109375 
Q 14.796875 37.75 14.796875 27.984375 
Q 14.796875 18.265625 18.828125 12.890625 
Q 22.859375 7.515625 30.078125 7.515625 
Q 37.359375 7.515625 41.375 12.890625 
Q 45.40625 18.265625 45.40625 27.984375 
z
M 54.390625 6.78125 
Q 54.390625 -7.171875 48.1875 -13.984375 
Q 42 -20.796875 29.203125 -20.796875 
Q 24.46875 -20.796875 20.265625 -20.09375 
Q 16.0625 -19.390625 12.109375 -17.921875 
L 12.109375 -9.1875 
Q 16.0625 -11.328125 19.921875 -12.34375 
Q 23.78125 -13.375 27.78125 -13.375 
Q 36.625 -13.375 41.015625 -8.765625 
Q 45.40625 -4.15625 45.40625 5.171875 
L 45.40625 9.625 
Q 42.625 4.78125 38.28125 2.390625 
Q 33.9375 0 27.875 0 
Q 17.828125 0 11.671875 7.65625 
Q 5.515625 15.328125 5.515625 27.984375 
Q 5.515625 40.671875 11.671875 48.328125 
Q 17.828125 56 27.875 56 
Q 33.9375 56 38.28125 53.609375 
Q 42.625 51.21875 45.40625 46.390625 
L 45.40625 54.6875 
L 54.390625 54.6875 
z
" id="DejaVuSans-103"/>
       <path d="M 18.3125 70.21875 
L 18.3125 54.6875 
L 36.8125 54.6875 
L 36.8125 47.703125 
L 18.3125 47.703125 
L 18.3125 18.015625 
Q 18.3125 11.328125 20.140625 9.421875 
Q 21.96875 7.515625 27.59375 7.515625 
L 36.8125 7.515625 
L 36.8125 0 
L 27.59375 0 
Q 17.1875 0 13.234375 3.875 
Q 9.28125 7.765625 9.28125 18.015625 
L 9.28125 47.703125 
L 2.6875 47.703125 
L 2.6875 54.6875 
L 9.28125 54.6875 
L 9.28125 70.21875 
z
" id="DejaVuSans-116"/>
       <path d="M 54.890625 33.015625 
L 54.890625 0 
L 45.90625 0 
L 45.90625 32.71875 
Q 45.90625 40.484375 42.875 44.328125 
Q 39.84375 48.1875 33.796875 48.1875 
Q 26.515625 48.1875 22.3125 43.546875 
Q 18.109375 38.921875 18.109375 30.90625 
L 18.109375 0 
L 9.078125 0 
L 9.078125 75.984375 
L 18.109375 75.984375 
L 18.109375 46.1875 
Q 21.34375 51.125 25.703125 53.5625 
Q 30.078125 56 35.796875 56 
Q 45.21875 56 50.046875 50.171875 
Q 54.890625 44.34375 54.890625 33.015625 
z
" id="DejaVuSans-104"/>
      </defs>
      <use xlink:href="#DejaVuSans-65"/>
      <use x="68.408203" xlink:href="#DejaVuSans-32"/>
      <use x="100.195312" xlink:href="#DejaVuSans-108"/>
      <use x="127.978516" xlink:href="#DejaVuSans-101"/>
      <use x="189.501953" xlink:href="#DejaVuSans-110"/>
      <use x="252.880859" xlink:href="#DejaVuSans-103"/>
      <use x="316.357422" xlink:href="#DejaVuSans-116"/>
      <use x="355.566406" xlink:href="#DejaVuSans-104"/>
     </g>
     <!--  + Another length [m] -->
     <g transform="translate(85.664687 267.232312)scale(0.1 -0.1)">
      <defs>
       <path d="M 46 62.703125 
L 46 35.5 
L 73.1875 35.5 
L 73.1875 27.203125 
L 46 27.203125 
L 46 0 
L 37.796875 0 
L 37.796875 27.203125 
L 10.59375 27.203125 
L 10.59375 35.5 
L 37.796875 35.5 
L 37.796875 62.703125 
z
" id="DejaVuSans-43"/>
       <path d="M 30.609375 48.390625 
Q 23.390625 48.390625 19.1875 42.75 
Q 14.984375 37.109375 14.984375 27.296875 
Q 14.984375 17.484375 19.15625 11.84375 
Q 23.34375 6.203125 30.609375 6.203125 
Q 37.796875 6.203125 41.984375 11.859375 
Q 46.1875 17.53125 46.1875 27.296875 
Q 46.1875 37.015625 41.984375 42.703125 
Q 37.796875 48.390625 30.609375 48.390625 
z
M 30.609375 56 
Q 42.328125 56 49.015625 48.375 
Q 55.71875 40.765625 55.71875 27.296875 
Q 55.71875 13.875 49.015625 6.21875 
Q 42.328125 -1.421875 30.609375 -1.421875 
Q 18.84375 -1.421875 12.171875 6.21875 
Q 5.515625 13.875 5.515625 27.296875 
Q 5.515625 40.765625 12.171875 48.375 
Q 18.84375 56 30.609375 56 
z
" id="DejaVuSans-111"/>
       <path d="M 41.109375 46.296875 
Q 39.59375 47.171875 37.8125 47.578125 
Q 36.03125 48 33.890625 48 
Q 26.265625 48 22.1875 43.046875 
Q 18.109375 38.09375 18.109375 28.8125 
L 18.109375 0 
L 9.078125 0 
L 9.078125 54.6875 
L 18.109375 54.6875 
L 18.109375 46.1875 
Q 20.953125 51.171875 25.484375 53.578125 
Q 30.03125 56 36.53125 56 
Q 37.453125 56 38.578125 55.875 
Q 39.703125 55.765625 41.0625 55.515625 
z
" id="DejaVuSans-114"/>
       <path d="M 8.59375 75.984375 
L 29.296875 75.984375 
L 29.296875 69 
L 17.578125 69 
L 17.578125 -6.203125 
L 29.296875 -6.203125 
L 29.296875 -13.1875 
L 8.59375 -13.1875 
z
" id="DejaVuSans-91"/>
       <path d="M 30.421875 75.984375 
L 30.421875 -13.1875 
L 9.71875 -13.1875 
L 9.71875 -6.203125 
L 21.390625 -6.203125 
L 21.390625 69 
L 9.71875 69 
L 9.71875 75.984375 
z
" id="DejaVuSans-93"/>
      </defs>
      <use xlink:href="#DejaVuSans-32"/>
      <use x="31.787109" xlink:href="#DejaVuSans-43"/>
      <use x="115.576172" xlink:href="#DejaVuSans-32"/>
      <use x="147.363281" xlink:href="#DejaVuSans-65"/>
      <use x="215.771484" xlink:href="#DejaVuSans-110"/>
      <use x="279.150391" xlink:href="#DejaVuSans-111"/>
      <use x="340.332031" xlink:href="#DejaVuSans-116"/>
      <use x="379.541016" xlink:href="#DejaVuSans-104"/>
      <use x="442.919922" xlink:href="#DejaVuSans-101"/>
      <use x="504.443359" xlink:href="#DejaVuSans-114"/>
      <use x="545.556641" xlink:href="#DejaVuSans-32"/>
      <use x="577.34375" xlink:href="#DejaVuSans-108"/>
      <use x="605.126953" xlink:href="#DejaVuSans-101"/>
      <use x="666.650391" xlink:href="#DejaVuSans-110"/>
      <use x="730.029297" xlink:href="#DejaVuSans-103"/>
      <use x="793.505859" xlink:href="#DejaVuSans-116"/>
      <use x="832.714844" xlink:href="#DejaVuSans-104"/>
      <use x="896.09375" xlink:href="#DejaVuSans-32"/>
      <use x="927.880859" xlink:href="#DejaVuSans-91"/>
      <use x="966.894531" xlink:href="#DejaVuSans-109"/>
      <use x="1064.306641" xlink:href="#DejaVuSans-93"/>
     </g>
    </g>
   </g>
  </g>
 </g>
 <defs>
  <clipPath id="pd4bc7b560f">
   <rect height="201.6" width="367.2" x="35.304688" y="7.2"/>
  </clipPath>
 </defs>
</svg>
