<?xml version="1.0" encoding="utf-8" standalone="no"?>
<!DOCTYPE svg PUBLIC "-//W3C//DTD SVG 1.1//EN"
  "http://www.w3.org/Graphics/SVG/1.1/DTD/svg11.dtd">
<!-- Created with matplotlib (https://matplotlib.org/) -->
<svg height="280.512pt" version="1.1" viewBox="0 0 412.882812 280.512" width="412.882812pt" xmlns="http://www.w3.org/2000/svg" xmlns:xlink="http://www.w3.org/1999/xlink">
 <metadata>
  <rdf:RDF xmlns:cc="http://creativecommons.org/ns#" xmlns:dc="http://purl.org/dc/elements/1.1/" xmlns:rdf="http://www.w3.org/1999/02/22-rdf-syntax-ns#">
   <cc:Work>
    <dc:type rdf:resource="http://purl.org/dc/dcmitype/StillImage"/>
    <dc:date>2021-06-16T21:51:42.006961</dc:date>
    <dc:format>image/svg+xml</dc:format>
    <dc:creator>
     <cc:Agent>
      <dc:title>Matplotlib v3.3.4, https://matplotlib.org/</dc:title>
     </cc:Agent>
    </dc:creator>
   </cc:Work>
  </rdf:RDF>
 </metadata>
 <defs>
  <style type="text/css">*{stroke-linecap:butt;stroke-linejoin:round;}</style>
 </defs>
 <g id="figure_1">
  <g id="patch_1">
   <path d="M 0 280.512 
L 412.882812 280.512 
L 412.882812 0 
L 0 0 
z
" style="fill:none;"/>
  </g>
  <g id="axes_1">
   <g id="patch_2">
    <path d="M 38.482813 208.8 
L 405.682812 208.8 
L 405.682812 7.2 
L 38.482813 7.2 
z
" style="fill:#ffffff;"/>
   </g>
   <g id="matplotlib.axis_1">
    <g id="xtick_1">
     <g id="line2d_1">
      <defs>
       <path d="M 0 0 
L 0 3.5 
" id="mc36eae8fab" style="stroke:#000000;stroke-width:0.8;"/>
      </defs>
      <g>
       <use style="stroke:#000000;stroke-width:0.8;" x="55.173722" xlink:href="#mc36eae8fab" y="208.8"/>
      </g>
     </g>
     <g id="text_1">
      <!-- 0.0 -->
      <g transform="translate(47.222159 223.398437)scale(0.1 -0.1)">
       <defs>
        <path d="M 31.78125 66.40625 
Q 24.171875 66.40625 20.328125 58.90625 
Q 16.5 51.421875 16.5 36.375 
Q 16.5 21.390625 20.328125 13.890625 
Q 24.171875 6.390625 31.78125 6.390625 
Q 39.453125 6.390625 43.28125 13.890625 
Q 47.125 21.390625 47.125 36.375 
Q 47.125 51.421875 43.28125 58.90625 
Q 39.453125 66.40625 31.78125 66.40625 
z
M 31.78125 74.21875 
Q 44.046875 74.21875 50.515625 64.515625 
Q 56.984375 54.828125 56.984375 36.375 
Q 56.984375 17.96875 50.515625 8.265625 
Q 44.046875 -1.421875 31.78125 -1.421875 
Q 19.53125 -1.421875 13.0625 8.265625 
Q 6.59375 17.96875 6.59375 36.375 
Q 6.59375 54.828125 13.0625 64.515625 
Q 19.53125 74.21875 31.78125 74.21875 
z
" id="DejaVuSans-48"/>
        <path d="M 10.6875 12.40625 
L 21 12.40625 
L 21 0 
L 10.6875 0 
z
" id="DejaVuSans-46"/>
       </defs>
       <use xlink:href="#DejaVuSans-48"/>
       <use x="63.623047" xlink:href="#DejaVuSans-46"/>
       <use x="95.410156" xlink:href="#DejaVuSans-48"/>
      </g>
     </g>
    </g>
    <g id="xtick_2">
     <g id="line2d_2">
      <g>
       <use style="stroke:#000000;stroke-width:0.8;" x="121.937358" xlink:href="#mc36eae8fab" y="208.8"/>
      </g>
     </g>
     <g id="text_2">
      <!-- 0.2 -->
      <g transform="translate(113.985795 223.398437)scale(0.1 -0.1)">
       <defs>
        <path d="M 19.1875 8.296875 
L 53.609375 8.296875 
L 53.609375 0 
L 7.328125 0 
L 7.328125 8.296875 
Q 12.9375 14.109375 22.625 23.890625 
Q 32.328125 33.6875 34.8125 36.53125 
Q 39.546875 41.84375 41.421875 45.53125 
Q 43.3125 49.21875 43.3125 52.78125 
Q 43.3125 58.59375 39.234375 62.25 
Q 35.15625 65.921875 28.609375 65.921875 
Q 23.96875 65.921875 18.8125 64.3125 
Q 13.671875 62.703125 7.8125 59.421875 
L 7.8125 69.390625 
Q 13.765625 71.78125 18.9375 73 
Q 24.125 74.21875 28.421875 74.21875 
Q 39.75 74.21875 46.484375 68.546875 
Q 53.21875 62.890625 53.21875 53.421875 
Q 53.21875 48.921875 51.53125 44.890625 
Q 49.859375 40.875 45.40625 35.40625 
Q 44.1875 33.984375 37.640625 27.21875 
Q 31.109375 20.453125 19.1875 8.296875 
z
" id="DejaVuSans-50"/>
       </defs>
       <use xlink:href="#DejaVuSans-48"/>
       <use x="63.623047" xlink:href="#DejaVuSans-46"/>
       <use x="95.410156" xlink:href="#DejaVuSans-50"/>
      </g>
     </g>
    </g>
    <g id="xtick_3">
     <g id="line2d_3">
      <g>
       <use style="stroke:#000000;stroke-width:0.8;" x="188.700994" xlink:href="#mc36eae8fab" y="208.8"/>
      </g>
     </g>
     <g id="text_3">
      <!-- 0.4 -->
      <g transform="translate(180.749432 223.398437)scale(0.1 -0.1)">
       <defs>
        <path d="M 37.796875 64.3125 
L 12.890625 25.390625 
L 37.796875 25.390625 
z
M 35.203125 72.90625 
L 47.609375 72.90625 
L 47.609375 25.390625 
L 58.015625 25.390625 
L 58.015625 17.1875 
L 47.609375 17.1875 
L 47.609375 0 
L 37.796875 0 
L 37.796875 17.1875 
L 4.890625 17.1875 
L 4.890625 26.703125 
z
" id="DejaVuSans-52"/>
       </defs>
       <use xlink:href="#DejaVuSans-48"/>
       <use x="63.623047" xlink:href="#DejaVuSans-46"/>
       <use x="95.410156" xlink:href="#DejaVuSans-52"/>
      </g>
     </g>
    </g>
    <g id="xtick_4">
     <g id="line2d_4">
      <g>
       <use style="stroke:#000000;stroke-width:0.8;" x="255.464631" xlink:href="#mc36eae8fab" y="208.8"/>
      </g>
     </g>
     <g id="text_4">
      <!-- 0.6 -->
      <g transform="translate(247.513068 223.398437)scale(0.1 -0.1)">
       <defs>
        <path d="M 33.015625 40.375 
Q 26.375 40.375 22.484375 35.828125 
Q 18.609375 31.296875 18.609375 23.390625 
Q 18.609375 15.53125 22.484375 10.953125 
Q 26.375 6.390625 33.015625 6.390625 
Q 39.65625 6.390625 43.53125 10.953125 
Q 47.40625 15.53125 47.40625 23.390625 
Q 47.40625 31.296875 43.53125 35.828125 
Q 39.65625 40.375 33.015625 40.375 
z
M 52.59375 71.296875 
L 52.59375 62.3125 
Q 48.875 64.0625 45.09375 64.984375 
Q 41.3125 65.921875 37.59375 65.921875 
Q 27.828125 65.921875 22.671875 59.328125 
Q 17.53125 52.734375 16.796875 39.40625 
Q 19.671875 43.65625 24.015625 45.921875 
Q 28.375 48.1875 33.59375 48.1875 
Q 44.578125 48.1875 50.953125 41.515625 
Q 57.328125 34.859375 57.328125 23.390625 
Q 57.328125 12.15625 50.6875 5.359375 
Q 44.046875 -1.421875 33.015625 -1.421875 
Q 20.359375 -1.421875 13.671875 8.265625 
Q 6.984375 17.96875 6.984375 36.375 
Q 6.984375 53.65625 15.1875 63.9375 
Q 23.390625 74.21875 37.203125 74.21875 
Q 40.921875 74.21875 44.703125 73.484375 
Q 48.484375 72.75 52.59375 71.296875 
z
" id="DejaVuSans-54"/>
       </defs>
       <use xlink:href="#DejaVuSans-48"/>
       <use x="63.623047" xlink:href="#DejaVuSans-46"/>
       <use x="95.410156" xlink:href="#DejaVuSans-54"/>
      </g>
     </g>
    </g>
    <g id="xtick_5">
     <g id="line2d_5">
      <g>
       <use style="stroke:#000000;stroke-width:0.8;" x="322.228267" xlink:href="#mc36eae8fab" y="208.8"/>
      </g>
     </g>
     <g id="text_5">
      <!-- 0.8 -->
      <g transform="translate(314.276705 223.398437)scale(0.1 -0.1)">
       <defs>
        <path d="M 31.78125 34.625 
Q 24.75 34.625 20.71875 30.859375 
Q 16.703125 27.09375 16.703125 20.515625 
Q 16.703125 13.921875 20.71875 10.15625 
Q 24.75 6.390625 31.78125 6.390625 
Q 38.8125 6.390625 42.859375 10.171875 
Q 46.921875 13.96875 46.921875 20.515625 
Q 46.921875 27.09375 42.890625 30.859375 
Q 38.875 34.625 31.78125 34.625 
z
M 21.921875 38.8125 
Q 15.578125 40.375 12.03125 44.71875 
Q 8.5 49.078125 8.5 55.328125 
Q 8.5 64.0625 14.71875 69.140625 
Q 20.953125 74.21875 31.78125 74.21875 
Q 42.671875 74.21875 48.875 69.140625 
Q 55.078125 64.0625 55.078125 55.328125 
Q 55.078125 49.078125 51.53125 44.71875 
Q 48 40.375 41.703125 38.8125 
Q 48.828125 37.15625 52.796875 32.3125 
Q 56.78125 27.484375 56.78125 20.515625 
Q 56.78125 9.90625 50.3125 4.234375 
Q 43.84375 -1.421875 31.78125 -1.421875 
Q 19.734375 -1.421875 13.25 4.234375 
Q 6.78125 9.90625 6.78125 20.515625 
Q 6.78125 27.484375 10.78125 32.3125 
Q 14.796875 37.15625 21.921875 38.8125 
z
M 18.3125 54.390625 
Q 18.3125 48.734375 21.84375 45.5625 
Q 25.390625 42.390625 31.78125 42.390625 
Q 38.140625 42.390625 41.71875 45.5625 
Q 45.3125 48.734375 45.3125 54.390625 
Q 45.3125 60.0625 41.71875 63.234375 
Q 38.140625 66.40625 31.78125 66.40625 
Q 25.390625 66.40625 21.84375 63.234375 
Q 18.3125 60.0625 18.3125 54.390625 
z
" id="DejaVuSans-56"/>
       </defs>
       <use xlink:href="#DejaVuSans-48"/>
       <use x="63.623047" xlink:href="#DejaVuSans-46"/>
       <use x="95.410156" xlink:href="#DejaVuSans-56"/>
      </g>
     </g>
    </g>
    <g id="xtick_6">
     <g id="line2d_6">
      <g>
       <use style="stroke:#000000;stroke-width:0.8;" x="388.991903" xlink:href="#mc36eae8fab" y="208.8"/>
      </g>
     </g>
     <g id="text_6">
      <!-- 1.0 -->
      <g transform="translate(381.040341 223.398437)scale(0.1 -0.1)">
       <defs>
        <path d="M 12.40625 8.296875 
L 28.515625 8.296875 
L 28.515625 63.921875 
L 10.984375 60.40625 
L 10.984375 69.390625 
L 28.421875 72.90625 
L 38.28125 72.90625 
L 38.28125 8.296875 
L 54.390625 8.296875 
L 54.390625 0 
L 12.40625 0 
z
" id="DejaVuSans-49"/>
       </defs>
       <use xlink:href="#DejaVuSans-49"/>
       <use x="63.623047" xlink:href="#DejaVuSans-46"/>
       <use x="95.410156" xlink:href="#DejaVuSans-48"/>
      </g>
     </g>
    </g>
    <g id="text_7">
     <!-- Time (s) -->
     <g transform="translate(201.753906 237.076562)scale(0.1 -0.1)">
      <defs>
       <path d="M -0.296875 72.90625 
L 61.375 72.90625 
L 61.375 64.59375 
L 35.5 64.59375 
L 35.5 0 
L 25.59375 0 
L 25.59375 64.59375 
L -0.296875 64.59375 
z
" id="DejaVuSans-84"/>
       <path d="M 9.421875 54.6875 
L 18.40625 54.6875 
L 18.40625 0 
L 9.421875 0 
z
M 9.421875 75.984375 
L 18.40625 75.984375 
L 18.40625 64.59375 
L 9.421875 64.59375 
z
" id="DejaVuSans-105"/>
       <path d="M 52 44.1875 
Q 55.375 50.25 60.0625 53.125 
Q 64.75 56 71.09375 56 
Q 79.640625 56 84.28125 50.015625 
Q 88.921875 44.046875 88.921875 33.015625 
L 88.921875 0 
L 79.890625 0 
L 79.890625 32.71875 
Q 79.890625 40.578125 77.09375 44.375 
Q 74.3125 48.1875 68.609375 48.1875 
Q 61.625 48.1875 57.5625 43.546875 
Q 53.515625 38.921875 53.515625 30.90625 
L 53.515625 0 
L 44.484375 0 
L 44.484375 32.71875 
Q 44.484375 40.625 41.703125 44.40625 
Q 38.921875 48.1875 33.109375 48.1875 
Q 26.21875 48.1875 22.15625 43.53125 
Q 18.109375 38.875 18.109375 30.90625 
L 18.109375 0 
L 9.078125 0 
L 9.078125 54.6875 
L 18.109375 54.6875 
L 18.109375 46.1875 
Q 21.1875 51.21875 25.484375 53.609375 
Q 29.78125 56 35.6875 56 
Q 41.65625 56 45.828125 52.96875 
Q 50 49.953125 52 44.1875 
z
" id="DejaVuSans-109"/>
       <path d="M 56.203125 29.59375 
L 56.203125 25.203125 
L 14.890625 25.203125 
Q 15.484375 15.921875 20.484375 11.0625 
Q 25.484375 6.203125 34.421875 6.203125 
Q 39.59375 6.203125 44.453125 7.46875 
Q 49.3125 8.734375 54.109375 11.28125 
L 54.109375 2.78125 
Q 49.265625 0.734375 44.1875 -0.34375 
Q 39.109375 -1.421875 33.890625 -1.421875 
Q 20.796875 -1.421875 13.15625 6.1875 
Q 5.515625 13.8125 5.515625 26.8125 
Q 5.515625 40.234375 12.765625 48.109375 
Q 20.015625 56 32.328125 56 
Q 43.359375 56 49.78125 48.890625 
Q 56.203125 41.796875 56.203125 29.59375 
z
M 47.21875 32.234375 
Q 47.125 39.59375 43.09375 43.984375 
Q 39.0625 48.390625 32.421875 48.390625 
Q 24.90625 48.390625 20.390625 44.140625 
Q 15.875 39.890625 15.1875 32.171875 
z
" id="DejaVuSans-101"/>
       <path id="DejaVuSans-32"/>
       <path d="M 31 75.875 
Q 24.46875 64.65625 21.28125 53.65625 
Q 18.109375 42.671875 18.109375 31.390625 
Q 18.109375 20.125 21.3125 9.0625 
Q 24.515625 -2 31 -13.1875 
L 23.1875 -13.1875 
Q 15.875 -1.703125 12.234375 9.375 
Q 8.59375 20.453125 8.59375 31.390625 
Q 8.59375 42.28125 12.203125 53.3125 
Q 15.828125 64.359375 23.1875 75.875 
z
" id="DejaVuSans-40"/>
       <path d="M 44.28125 53.078125 
L 44.28125 44.578125 
Q 40.484375 46.53125 36.375 47.5 
Q 32.28125 48.484375 27.875 48.484375 
Q 21.1875 48.484375 17.84375 46.4375 
Q 14.5 44.390625 14.5 40.28125 
Q 14.5 37.15625 16.890625 35.375 
Q 19.28125 33.59375 26.515625 31.984375 
L 29.59375 31.296875 
Q 39.15625 29.25 43.1875 25.515625 
Q 47.21875 21.78125 47.21875 15.09375 
Q 47.21875 7.46875 41.1875 3.015625 
Q 35.15625 -1.421875 24.609375 -1.421875 
Q 20.21875 -1.421875 15.453125 -0.5625 
Q 10.6875 0.296875 5.421875 2 
L 5.421875 11.28125 
Q 10.40625 8.6875 15.234375 7.390625 
Q 20.0625 6.109375 24.8125 6.109375 
Q 31.15625 6.109375 34.5625 8.28125 
Q 37.984375 10.453125 37.984375 14.40625 
Q 37.984375 18.0625 35.515625 20.015625 
Q 33.0625 21.96875 24.703125 23.78125 
L 21.578125 24.515625 
Q 13.234375 26.265625 9.515625 29.90625 
Q 5.8125 33.546875 5.8125 39.890625 
Q 5.8125 47.609375 11.28125 51.796875 
Q 16.75 56 26.8125 56 
Q 31.78125 56 36.171875 55.265625 
Q 40.578125 54.546875 44.28125 53.078125 
z
" id="DejaVuSans-115"/>
       <path d="M 8.015625 75.875 
L 15.828125 75.875 
Q 23.140625 64.359375 26.78125 53.3125 
Q 30.421875 42.28125 30.421875 31.390625 
Q 30.421875 20.453125 26.78125 9.375 
Q 23.140625 -1.703125 15.828125 -13.1875 
L 8.015625 -13.1875 
Q 14.5 -2 17.703125 9.0625 
Q 20.90625 20.125 20.90625 31.390625 
Q 20.90625 42.671875 17.703125 53.65625 
Q 14.5 64.65625 8.015625 75.875 
z
" id="DejaVuSans-41"/>
      </defs>
      <use xlink:href="#DejaVuSans-84"/>
      <use x="57.958984" xlink:href="#DejaVuSans-105"/>
      <use x="85.742188" xlink:href="#DejaVuSans-109"/>
      <use x="183.154297" xlink:href="#DejaVuSans-101"/>
      <use x="244.677734" xlink:href="#DejaVuSans-32"/>
      <use x="276.464844" xlink:href="#DejaVuSans-40"/>
      <use x="315.478516" xlink:href="#DejaVuSans-115"/>
      <use x="367.578125" xlink:href="#DejaVuSans-41"/>
     </g>
    </g>
   </g>
   <g id="matplotlib.axis_2">
    <g id="ytick_1">
     <g id="line2d_7">
      <defs>
       <path d="M 0 0 
L -3.5 0 
" id="mefa23a6636" style="stroke:#000000;stroke-width:0.8;"/>
      </defs>
      <g>
       <use style="stroke:#000000;stroke-width:0.8;" x="38.482813" xlink:href="#mefa23a6636" y="199.636945"/>
      </g>
     </g>
     <g id="text_8">
      <!-- −2.0 -->
      <g transform="translate(7.2 203.436164)scale(0.1 -0.1)">
       <defs>
        <path d="M 10.59375 35.5 
L 73.1875 35.5 
L 73.1875 27.203125 
L 10.59375 27.203125 
z
" id="DejaVuSans-8722"/>
       </defs>
       <use xlink:href="#DejaVuSans-8722"/>
       <use x="83.789062" xlink:href="#DejaVuSans-50"/>
       <use x="147.412109" xlink:href="#DejaVuSans-46"/>
       <use x="179.199219" xlink:href="#DejaVuSans-48"/>
      </g>
     </g>
    </g>
    <g id="ytick_2">
     <g id="line2d_8">
      <g>
       <use style="stroke:#000000;stroke-width:0.8;" x="38.482813" xlink:href="#mefa23a6636" y="176.727709"/>
      </g>
     </g>
     <g id="text_9">
      <!-- −1.5 -->
      <g transform="translate(7.2 180.526927)scale(0.1 -0.1)">
       <defs>
        <path d="M 10.796875 72.90625 
L 49.515625 72.90625 
L 49.515625 64.59375 
L 19.828125 64.59375 
L 19.828125 46.734375 
Q 21.96875 47.46875 24.109375 47.828125 
Q 26.265625 48.1875 28.421875 48.1875 
Q 40.625 48.1875 47.75 41.5 
Q 54.890625 34.8125 54.890625 23.390625 
Q 54.890625 11.625 47.5625 5.09375 
Q 40.234375 -1.421875 26.90625 -1.421875 
Q 22.3125 -1.421875 17.546875 -0.640625 
Q 12.796875 0.140625 7.71875 1.703125 
L 7.71875 11.625 
Q 12.109375 9.234375 16.796875 8.0625 
Q 21.484375 6.890625 26.703125 6.890625 
Q 35.15625 6.890625 40.078125 11.328125 
Q 45.015625 15.765625 45.015625 23.390625 
Q 45.015625 31 40.078125 35.4375 
Q 35.15625 39.890625 26.703125 39.890625 
Q 22.75 39.890625 18.8125 39.015625 
Q 14.890625 38.140625 10.796875 36.28125 
z
" id="DejaVuSans-53"/>
       </defs>
       <use xlink:href="#DejaVuSans-8722"/>
       <use x="83.789062" xlink:href="#DejaVuSans-49"/>
       <use x="147.412109" xlink:href="#DejaVuSans-46"/>
       <use x="179.199219" xlink:href="#DejaVuSans-53"/>
      </g>
     </g>
    </g>
    <g id="ytick_3">
     <g id="line2d_9">
      <g>
       <use style="stroke:#000000;stroke-width:0.8;" x="38.482813" xlink:href="#mefa23a6636" y="153.818472"/>
      </g>
     </g>
     <g id="text_10">
      <!-- −1.0 -->
      <g transform="translate(7.2 157.617691)scale(0.1 -0.1)">
       <use xlink:href="#DejaVuSans-8722"/>
       <use x="83.789062" xlink:href="#DejaVuSans-49"/>
       <use x="147.412109" xlink:href="#DejaVuSans-46"/>
       <use x="179.199219" xlink:href="#DejaVuSans-48"/>
      </g>
     </g>
    </g>
    <g id="ytick_4">
     <g id="line2d_10">
      <g>
       <use style="stroke:#000000;stroke-width:0.8;" x="38.482813" xlink:href="#mefa23a6636" y="130.909236"/>
      </g>
     </g>
     <g id="text_11">
      <!-- −0.5 -->
      <g transform="translate(7.2 134.708455)scale(0.1 -0.1)">
       <use xlink:href="#DejaVuSans-8722"/>
       <use x="83.789062" xlink:href="#DejaVuSans-48"/>
       <use x="147.412109" xlink:href="#DejaVuSans-46"/>
       <use x="179.199219" xlink:href="#DejaVuSans-53"/>
      </g>
     </g>
    </g>
    <g id="ytick_5">
     <g id="line2d_11">
      <g>
       <use style="stroke:#000000;stroke-width:0.8;" x="38.482813" xlink:href="#mefa23a6636" y="108"/>
      </g>
     </g>
     <g id="text_12">
      <!-- 0.0 -->
      <g transform="translate(15.579688 111.799219)scale(0.1 -0.1)">
       <use xlink:href="#DejaVuSans-48"/>
       <use x="63.623047" xlink:href="#DejaVuSans-46"/>
       <use x="95.410156" xlink:href="#DejaVuSans-48"/>
      </g>
     </g>
    </g>
    <g id="ytick_6">
     <g id="line2d_12">
      <g>
       <use style="stroke:#000000;stroke-width:0.8;" x="38.482813" xlink:href="#mefa23a6636" y="85.090764"/>
      </g>
     </g>
     <g id="text_13">
      <!-- 0.5 -->
      <g transform="translate(15.579688 88.889983)scale(0.1 -0.1)">
       <use xlink:href="#DejaVuSans-48"/>
       <use x="63.623047" xlink:href="#DejaVuSans-46"/>
       <use x="95.410156" xlink:href="#DejaVuSans-53"/>
      </g>
     </g>
    </g>
    <g id="ytick_7">
     <g id="line2d_13">
      <g>
       <use style="stroke:#000000;stroke-width:0.8;" x="38.482813" xlink:href="#mefa23a6636" y="62.181528"/>
      </g>
     </g>
     <g id="text_14">
      <!-- 1.0 -->
      <g transform="translate(15.579688 65.980746)scale(0.1 -0.1)">
       <use xlink:href="#DejaVuSans-49"/>
       <use x="63.623047" xlink:href="#DejaVuSans-46"/>
       <use x="95.410156" xlink:href="#DejaVuSans-48"/>
      </g>
     </g>
    </g>
    <g id="ytick_8">
     <g id="line2d_14">
      <g>
       <use style="stroke:#000000;stroke-width:0.8;" x="38.482813" xlink:href="#mefa23a6636" y="39.272291"/>
      </g>
     </g>
     <g id="text_15">
      <!-- 1.5 -->
      <g transform="translate(15.579688 43.07151)scale(0.1 -0.1)">
       <use xlink:href="#DejaVuSans-49"/>
       <use x="63.623047" xlink:href="#DejaVuSans-46"/>
       <use x="95.410156" xlink:href="#DejaVuSans-53"/>
      </g>
     </g>
    </g>
    <g id="ytick_9">
     <g id="line2d_15">
      <g>
       <use style="stroke:#000000;stroke-width:0.8;" x="38.482813" xlink:href="#mefa23a6636" y="16.363055"/>
      </g>
     </g>
     <g id="text_16">
      <!-- 2.0 -->
      <g transform="translate(15.579688 20.162274)scale(0.1 -0.1)">
       <use xlink:href="#DejaVuSans-50"/>
       <use x="63.623047" xlink:href="#DejaVuSans-46"/>
       <use x="95.410156" xlink:href="#DejaVuSans-48"/>
      </g>
     </g>
    </g>
   </g>
   <g id="line2d_16">
    <path clip-path="url(#p423f93fbf9)" d="M 55.173722 108 
L 55.756592 26.454866 
L 55.991254 16.410137 
L 56.006394 16.363636 
L 56.044242 16.572826 
L 56.135079 18.960167 
L 56.309183 30.670371 
L 56.604403 68.24022 
L 57.535482 196.386511 
L 57.679307 199.636364 
L 57.709586 199.468999 
L 57.800423 197.191887 
L 57.974527 185.677924 
L 58.269747 148.346921 
L 59.208396 19.443409 
L 59.344651 16.363636 
L 59.3825 16.572826 
L 59.473337 18.960167 
L 59.647441 30.670371 
L 59.942661 68.24022 
L 60.87374 196.386511 
L 61.017565 199.636364 
L 61.047844 199.468999 
L 61.138681 197.191887 
L 61.312785 185.677924 
L 61.608005 148.346921 
L 62.546653 19.443409 
L 62.682909 16.363636 
L 62.720757 16.572826 
L 62.811594 18.960167 
L 62.985698 30.670371 
L 63.280918 68.24022 
L 64.211997 196.386511 
L 64.355822 199.636364 
L 64.386101 199.468999 
L 64.476938 197.191887 
L 64.651042 185.677924 
L 64.946262 148.346921 
L 65.884911 19.443409 
L 66.021166 16.363636 
L 66.059015 16.572826 
L 66.149852 18.960167 
L 66.323956 30.670371 
L 66.619176 68.24022 
L 67.550255 196.386511 
L 67.69408 199.636364 
L 67.724359 199.468999 
L 67.815196 197.191887 
L 67.9893 185.677924 
L 68.28452 148.346921 
L 69.223168 19.443409 
L 69.359424 16.363636 
L 69.397272 16.572826 
L 69.488109 18.960167 
L 69.662213 30.670371 
L 69.957433 68.24022 
L 70.888512 196.386511 
L 71.032337 199.636364 
L 71.062616 199.468999 
L 71.153453 197.191887 
L 71.327557 185.677924 
L 71.622777 148.346921 
L 72.561426 19.443409 
L 72.697681 16.363636 
L 72.73553 16.572826 
L 72.826367 18.960167 
L 73.000471 30.670371 
L 73.295691 68.24022 
L 74.22677 196.386511 
L 74.370595 199.636364 
L 74.400874 199.468999 
L 74.491711 197.191887 
L 74.665815 185.677924 
L 74.961035 148.346921 
L 75.899683 19.443409 
L 76.035939 16.363636 
L 76.073787 16.572826 
L 76.164624 18.960167 
L 76.338728 30.670371 
L 76.633948 68.24022 
L 77.565027 196.386511 
L 77.708852 199.636364 
L 77.739131 199.468999 
L 77.829968 197.191887 
L 78.004072 185.677924 
L 78.299292 148.346921 
L 79.237941 19.443409 
L 79.374196 16.363636 
L 79.412045 16.572826 
L 79.502882 18.960167 
L 79.676986 30.670371 
L 79.972206 68.24022 
L 80.903285 196.386511 
L 81.04711 199.636364 
L 81.077389 199.468999 
L 81.168226 197.191887 
L 81.34233 185.677924 
L 81.63755 148.346921 
L 82.576198 19.443409 
L 82.712454 16.363636 
L 82.750302 16.572826 
L 82.841139 18.960167 
L 83.015243 30.670371 
L 83.310464 68.24022 
L 84.241542 196.386511 
L 84.385367 199.636364 
L 84.415646 199.468999 
L 84.506483 197.191887 
L 84.680587 185.677924 
L 84.975807 148.346921 
L 85.914456 19.443409 
L 86.050711 16.363636 
L 86.08856 16.572826 
L 86.179397 18.960167 
L 86.353501 30.670371 
L 86.648721 68.24022 
L 87.5798 196.386511 
L 87.723625 199.636364 
L 87.753904 199.468999 
L 87.844741 197.191887 
L 88.018845 185.677924 
L 88.314065 148.346921 
L 89.252713 19.443409 
L 89.388969 16.363636 
L 89.426817 16.572826 
L 89.517654 18.960167 
L 89.691758 30.670371 
L 89.986979 68.24022 
L 90.918057 196.386511 
L 91.061882 199.636364 
L 91.092161 199.468999 
L 91.182998 197.191887 
L 91.357102 185.677924 
L 91.652322 148.346921 
L 92.590971 19.443409 
L 92.727226 16.363636 
L 92.765075 16.572826 
L 92.855912 18.960167 
L 93.030016 30.670371 
L 93.325236 68.24022 
L 94.256315 196.386511 
L 94.40014 199.636364 
L 94.430419 199.468999 
L 94.521256 197.191887 
L 94.69536 185.677924 
L 94.99058 148.346921 
L 95.929228 19.443409 
L 96.065484 16.363636 
L 96.103332 16.572826 
L 96.194169 18.960167 
L 96.368274 30.670371 
L 96.663494 68.24022 
L 97.594572 196.386511 
L 97.738397 199.636364 
L 97.768676 199.468999 
L 97.859513 197.191887 
L 98.033617 185.677924 
L 98.328837 148.346921 
L 99.267486 19.443409 
L 99.403741 16.363636 
L 99.44159 16.572826 
L 99.532427 18.960167 
L 99.706531 30.670371 
L 100.001751 68.24022 
L 100.93283 196.386511 
L 101.076655 199.636364 
L 101.106934 199.468999 
L 101.197771 197.191887 
L 101.371875 185.677924 
L 101.667095 148.346921 
L 102.605743 19.443409 
L 102.741999 16.363636 
L 102.779847 16.572826 
L 102.870684 18.960167 
L 103.044789 30.670371 
L 103.340009 68.24022 
L 104.271087 196.386511 
L 104.414912 199.636364 
L 104.445191 199.468999 
L 104.536028 197.191887 
L 104.710132 185.677924 
L 105.005352 148.346921 
L 105.944001 19.443409 
L 106.080256 16.363636 
L 106.118105 16.572826 
L 106.208942 18.960167 
L 106.383046 30.670371 
L 106.678266 68.24022 
L 107.609345 196.386511 
L 107.75317 199.636364 
L 107.783449 199.468999 
L 107.874286 197.191887 
L 108.04839 185.677924 
L 108.34361 148.346921 
L 109.282258 19.443409 
L 109.418514 16.363636 
L 109.456363 16.572826 
L 109.547199 18.960167 
L 109.721304 30.670371 
L 110.016524 68.24022 
L 110.947602 196.386511 
L 111.091427 199.636364 
L 111.121706 199.468999 
L 111.212543 197.191887 
L 111.386647 185.677924 
L 111.681868 148.346921 
L 112.620516 19.443409 
L 112.756771 16.363636 
L 112.79462 16.572826 
L 112.885457 18.960167 
L 113.059561 30.670371 
L 113.354781 68.24022 
L 114.28586 196.386511 
L 114.429685 199.636364 
L 114.459964 199.468999 
L 114.550801 197.191887 
L 114.724905 185.677924 
L 115.020125 148.346921 
L 115.958773 19.443409 
L 116.095029 16.363636 
L 116.132878 16.572826 
L 116.223714 18.960167 
L 116.397819 30.670371 
L 116.693039 68.24022 
L 117.624117 196.386511 
L 117.767942 199.636364 
L 117.798221 199.468999 
L 117.889058 197.191887 
L 118.063162 185.677924 
L 118.358383 148.346921 
L 119.297031 19.443409 
L 119.433286 16.363636 
L 119.471135 16.572826 
L 119.561972 18.960167 
L 119.736076 30.670371 
L 120.031296 68.24022 
L 120.962375 196.386511 
L 121.1062 199.636364 
L 121.136479 199.468999 
L 121.227316 197.191887 
L 121.40142 185.677924 
L 121.69664 148.346921 
L 122.635288 19.443409 
L 122.771544 16.363636 
L 122.809393 16.572826 
L 122.90023 18.960167 
L 123.074334 30.670371 
L 123.369554 68.24022 
L 124.300632 196.386511 
L 124.444457 199.636364 
L 124.474736 199.468999 
L 124.565573 197.191887 
L 124.739678 185.677924 
L 125.034898 148.346921 
L 125.973546 19.443409 
L 126.109801 16.363636 
L 126.14765 16.572826 
L 126.238487 18.960167 
L 126.412591 30.670371 
L 126.707811 68.24022 
L 127.63889 196.386511 
L 127.782715 199.636364 
L 127.812994 199.468999 
L 127.903831 197.191887 
L 128.077935 185.677924 
L 128.373155 148.346921 
L 129.311803 19.443409 
L 129.448059 16.363636 
L 129.485908 16.572826 
L 129.576745 18.960167 
L 129.750849 30.670371 
L 130.046069 68.24022 
L 130.977147 196.386511 
L 131.120973 199.636364 
L 131.151251 199.468999 
L 131.242088 197.191887 
L 131.416193 185.677924 
L 131.711413 148.346921 
L 132.650061 19.443409 
L 132.786316 16.363636 
L 132.824165 16.572826 
L 132.915002 18.960167 
L 133.089106 30.670371 
L 133.384326 68.24022 
L 134.315405 196.386511 
L 134.45923 199.636364 
L 134.489509 199.468999 
L 134.580346 197.191887 
L 134.75445 185.677924 
L 135.04967 148.346921 
L 135.988318 19.443409 
L 136.124574 16.363636 
L 136.162423 16.572826 
L 136.25326 18.960167 
L 136.427364 30.670371 
L 136.722584 68.24022 
L 137.653662 196.386511 
L 137.797488 199.636364 
L 137.827767 199.468999 
L 137.918603 197.191887 
L 138.092708 185.677924 
L 138.387928 148.346921 
L 139.326576 19.443409 
L 139.462831 16.363636 
L 139.50068 16.572826 
L 139.591517 18.960167 
L 139.765621 30.670371 
L 140.060841 68.24022 
L 140.99192 196.386511 
L 141.135745 199.636364 
L 141.166024 199.468999 
L 141.256861 197.191887 
L 141.430965 185.677924 
L 141.726185 148.346921 
L 142.664834 19.443409 
L 142.801089 16.363636 
L 142.838938 16.572826 
L 142.929775 18.960167 
L 143.103879 30.670371 
L 143.399099 68.24022 
L 144.330177 196.386511 
L 144.474003 199.636364 
L 144.504282 199.468999 
L 144.595118 197.191887 
L 144.769223 185.677924 
L 145.064443 148.346921 
L 146.003091 19.443409 
L 146.139346 16.363636 
L 146.177195 16.572826 
L 146.268032 18.960167 
L 146.442136 30.670371 
L 146.737356 68.24022 
L 147.668435 196.386511 
L 147.81226 199.636364 
L 147.842539 199.468999 
L 147.933376 197.191887 
L 148.10748 185.677924 
L 148.4027 148.346921 
L 149.341349 19.443409 
L 149.477604 16.363636 
L 149.515453 16.572826 
L 149.60629 18.960167 
L 149.780394 30.670371 
L 150.075614 68.24022 
L 151.006692 196.386511 
L 151.150518 199.636364 
L 151.180797 199.468999 
L 151.271634 197.191887 
L 151.445738 185.677924 
L 151.740958 148.346921 
L 152.679606 19.443409 
L 152.815861 16.363636 
L 152.85371 16.572826 
L 152.944547 18.960167 
L 153.118651 30.670371 
L 153.413871 68.24022 
L 154.34495 196.386511 
L 154.488775 199.636364 
L 154.519054 199.468999 
L 154.609891 197.191887 
L 154.783995 185.677924 
L 155.079215 148.346921 
L 156.017864 19.443409 
L 156.154119 16.363636 
L 156.191968 16.572826 
L 156.282805 18.960167 
L 156.456909 30.670371 
L 156.752129 68.24022 
L 157.683207 196.386511 
L 157.827033 199.636364 
L 157.857312 199.468999 
L 157.948149 197.191887 
L 158.122253 185.677924 
L 158.417473 148.346921 
L 159.356121 19.443409 
L 159.492377 16.363636 
L 159.530225 16.572826 
L 159.621062 18.960167 
L 159.795166 30.670371 
L 160.090386 68.24022 
L 161.021465 196.386511 
L 161.16529 199.636364 
L 161.195569 199.468999 
L 161.286406 197.191887 
L 161.46051 185.677924 
L 161.75573 148.346921 
L 162.694379 19.443409 
L 162.830634 16.363636 
L 162.868483 16.572826 
L 162.95932 18.960167 
L 163.133424 30.670371 
L 163.428644 68.24022 
L 164.359723 196.386511 
L 164.503548 199.636364 
L 164.533827 199.468999 
L 164.624664 197.191887 
L 164.798768 185.677924 
L 165.093988 148.346921 
L 166.032636 19.443409 
L 166.168892 16.363636 
L 166.20674 16.572826 
L 166.297577 18.960167 
L 166.471681 30.670371 
L 166.766901 68.24022 
L 167.69798 196.386511 
L 167.841805 199.636364 
L 167.872084 199.468999 
L 167.962921 197.191887 
L 168.137025 185.677924 
L 168.432245 148.346921 
L 169.370894 19.443409 
L 169.507149 16.363636 
L 169.544998 16.572826 
L 169.635835 18.960167 
L 169.809939 30.670371 
L 170.105159 68.24022 
L 171.036238 196.386511 
L 171.180063 199.636364 
L 171.210342 199.468999 
L 171.301179 197.191887 
L 171.475283 185.677924 
L 171.770503 148.346921 
L 172.709151 19.443409 
L 172.845407 16.363636 
L 172.883255 16.572826 
L 172.974092 18.960167 
L 173.148196 30.670371 
L 173.443416 68.24022 
L 174.374495 196.386511 
L 174.51832 199.636364 
L 174.548599 199.468999 
L 174.639436 197.191887 
L 174.81354 185.677924 
L 175.10876 148.346921 
L 176.047409 19.443409 
L 176.183664 16.363636 
L 176.221513 16.572826 
L 176.31235 18.960167 
L 176.486454 30.670371 
L 176.781674 68.24022 
L 177.712753 196.386511 
L 177.856578 199.636364 
L 177.886857 199.468999 
L 177.977694 197.191887 
L 178.151798 185.677924 
L 178.447018 148.346921 
L 179.385666 19.443409 
L 179.521922 16.363636 
L 179.55977 16.572826 
L 179.650607 18.960167 
L 179.824711 30.670371 
L 180.119931 68.24022 
L 181.05101 196.386511 
L 181.194835 199.636364 
L 181.225114 199.468999 
L 181.315951 197.191887 
L 181.490055 185.677924 
L 181.785275 148.346921 
L 182.723924 19.443409 
L 182.860179 16.363636 
L 182.898028 16.572826 
L 182.988865 18.960167 
L 183.162969 30.670371 
L 183.458189 68.24022 
L 184.389268 196.386511 
L 184.533093 199.636364 
L 184.563372 199.468999 
L 184.654209 197.191887 
L 184.828313 185.677924 
L 185.123533 148.346921 
L 186.062181 19.443409 
L 186.198437 16.363636 
L 186.236285 16.572826 
L 186.327122 18.960167 
L 186.501226 30.670371 
L 186.796446 68.24022 
L 187.727525 196.386511 
L 187.87135 199.636364 
L 187.901629 199.468999 
L 187.992466 197.191887 
L 188.16657 185.677924 
L 188.46179 148.346921 
L 189.400439 19.443409 
L 189.536694 16.363636 
L 189.574543 16.572826 
L 189.66538 18.960167 
L 189.839484 30.670371 
L 190.134704 68.24022 
L 191.065783 196.386511 
L 191.209608 199.636364 
L 191.239887 199.468999 
L 191.330724 197.191887 
L 191.504828 185.677924 
L 191.800048 148.346921 
L 192.738696 19.443409 
L 192.874952 16.363636 
L 192.9128 16.572826 
L 193.003637 18.960167 
L 193.177741 30.670371 
L 193.472962 68.24022 
L 194.40404 196.386511 
L 194.547865 199.636364 
L 194.578144 199.468999 
L 194.668981 197.191887 
L 194.843085 185.677924 
L 195.138305 148.346921 
L 196.076954 19.443409 
L 196.213209 16.363636 
L 196.251058 16.572826 
L 196.341895 18.960167 
L 196.515999 30.670371 
L 196.811219 68.24022 
L 197.742298 196.386511 
L 197.886123 199.636364 
L 197.916402 199.468999 
L 198.007239 197.191887 
L 198.181343 185.677924 
L 198.476563 148.346921 
L 199.415211 19.443409 
L 199.551467 16.363636 
L 199.589315 16.572826 
L 199.680152 18.960167 
L 199.854257 30.670371 
L 200.149477 68.24022 
L 201.080555 196.386511 
L 201.22438 199.636364 
L 201.254659 199.468999 
L 201.345496 197.191887 
L 201.5196 185.677924 
L 201.81482 148.346921 
L 202.753469 19.443409 
L 202.889724 16.363636 
L 202.927573 16.572826 
L 203.01841 18.960167 
L 203.192514 30.670371 
L 203.487734 68.24022 
L 204.418813 196.386511 
L 204.562638 199.636364 
L 204.592917 199.468999 
L 204.683754 197.191887 
L 204.857858 185.677924 
L 205.153078 148.346921 
L 206.091726 19.443409 
L 206.227982 16.363636 
L 206.26583 16.572826 
L 206.356667 18.960167 
L 206.530772 30.670371 
L 206.825992 68.24022 
L 207.75707 196.386511 
L 207.900895 199.636364 
L 207.931174 199.468999 
L 208.022011 197.191887 
L 208.196115 185.677924 
L 208.491335 148.346921 
L 209.429984 19.443409 
L 209.566239 16.363636 
L 209.604088 16.572826 
L 209.694925 18.960167 
L 209.869029 30.670371 
L 210.164249 68.24022 
L 211.095328 196.386511 
L 211.239153 199.636364 
L 211.269432 199.468999 
L 211.360269 197.191887 
L 211.534373 185.677924 
L 211.829593 148.346921 
L 212.768241 19.443409 
L 212.904497 16.363636 
L 212.942345 16.572826 
L 213.033182 18.960167 
L 213.207287 30.670371 
L 213.502507 68.24022 
L 214.433585 196.386511 
L 214.57741 199.636364 
L 214.607689 199.468999 
L 214.698526 197.191887 
L 214.87263 185.677924 
L 215.167851 148.346921 
L 216.106499 19.443409 
L 216.242754 16.363636 
L 216.280603 16.572826 
L 216.37144 18.960167 
L 216.545544 30.670371 
L 216.840764 68.24022 
L 217.771843 196.386511 
L 217.915668 199.636364 
L 217.945947 199.468999 
L 218.036784 197.191887 
L 218.210888 185.677924 
L 218.506108 148.346921 
L 219.444756 19.443409 
L 219.581012 16.363636 
L 219.618861 16.572826 
L 219.709697 18.960167 
L 219.883802 30.670371 
L 220.179022 68.24022 
L 221.1101 196.386511 
L 221.253925 199.636364 
L 221.284204 199.468999 
L 221.375041 197.191887 
L 221.549145 185.677924 
L 221.844366 148.346921 
L 222.783014 19.443409 
L 222.919269 16.363636 
L 222.957118 16.572826 
L 223.047955 18.960167 
L 223.222059 30.670371 
L 223.517279 68.24022 
L 224.448358 196.386511 
L 224.592183 199.636364 
L 224.622462 199.468999 
L 224.713299 197.191887 
L 224.887403 185.677924 
L 225.182623 148.346921 
L 226.121271 19.443409 
L 226.257527 16.363636 
L 226.295376 16.572826 
L 226.386212 18.960167 
L 226.560317 30.670371 
L 226.855537 68.24022 
L 227.786615 196.386511 
L 227.93044 199.636364 
L 227.960719 199.468999 
L 228.051556 197.191887 
L 228.225661 185.677924 
L 228.520881 148.346921 
L 229.459529 19.443409 
L 229.595784 16.363636 
L 229.633633 16.572826 
L 229.72447 18.960167 
L 229.898574 30.670371 
L 230.193794 68.24022 
L 231.124873 196.386511 
L 231.268698 199.636364 
L 231.298977 199.468999 
L 231.389814 197.191887 
L 231.563918 185.677924 
L 231.859138 148.346921 
L 232.797786 19.443409 
L 232.934042 16.363636 
L 232.971891 16.572826 
L 233.062728 18.960167 
L 233.236832 30.670371 
L 233.532052 68.24022 
L 234.46313 196.386511 
L 234.606955 199.636364 
L 234.637234 199.468999 
L 234.728071 197.191887 
L 234.902176 185.677924 
L 235.197396 148.346921 
L 236.136044 19.443409 
L 236.272299 16.363636 
L 236.310148 16.572826 
L 236.400985 18.960167 
L 236.575089 30.670371 
L 236.870309 68.24022 
L 237.801388 196.386511 
L 237.945213 199.636364 
L 237.975492 199.468999 
L 238.066329 197.191887 
L 238.240433 185.677924 
L 238.535653 148.346921 
L 239.474301 19.443409 
L 239.610557 16.363636 
L 239.648406 16.572826 
L 239.739243 18.960167 
L 239.913347 30.670371 
L 240.208567 68.24022 
L 241.139645 196.386511 
L 241.283471 199.636364 
L 241.31375 199.468999 
L 241.404586 197.191887 
L 241.578691 185.677924 
L 241.873911 148.346921 
L 242.812559 19.443409 
L 242.948814 16.363636 
L 242.986663 16.572826 
L 243.0775 18.960167 
L 243.251604 30.670371 
L 243.546824 68.24022 
L 244.477903 196.386511 
L 244.621728 199.636364 
L 244.652007 199.468999 
L 244.742844 197.191887 
L 244.916948 185.677924 
L 245.212168 148.346921 
L 246.150817 19.443409 
L 246.287072 16.363636 
L 246.324921 16.572826 
L 246.415758 18.960167 
L 246.589862 30.670371 
L 246.885082 68.24022 
L 247.81616 196.386511 
L 247.959986 199.636364 
L 247.990265 199.468999 
L 248.081101 197.191887 
L 248.255206 185.677924 
L 248.550426 148.346921 
L 249.489074 19.443409 
L 249.625329 16.363636 
L 249.663178 16.572826 
L 249.754015 18.960167 
L 249.928119 30.670371 
L 250.223339 68.24022 
L 251.154418 196.386511 
L 251.298243 199.636364 
L 251.328522 199.468999 
L 251.419359 197.191887 
L 251.593463 185.677924 
L 251.888683 148.346921 
L 252.827332 19.443409 
L 252.963587 16.363636 
L 253.001436 16.572826 
L 253.092273 18.960167 
L 253.266377 30.670371 
L 253.561597 68.24022 
L 254.492675 196.386511 
L 254.636501 199.636364 
L 254.66678 199.468999 
L 254.757617 197.191887 
L 254.931721 185.677924 
L 255.226941 148.346921 
L 256.165589 19.443409 
L 256.301844 16.363636 
L 256.339693 16.572826 
L 256.43053 18.960167 
L 256.604634 30.670371 
L 256.899854 68.24022 
L 257.830933 196.386511 
L 257.974758 199.636364 
L 258.005037 199.468999 
L 258.095874 197.191887 
L 258.269978 185.677924 
L 258.565198 148.346921 
L 259.503847 19.443409 
L 259.640102 16.363636 
L 259.677951 16.572826 
L 259.768788 18.960167 
L 259.942892 30.670371 
L 260.238112 68.24022 
L 261.16919 196.386511 
L 261.313016 199.636364 
L 261.343295 199.468999 
L 261.434132 197.191887 
L 261.608236 185.677924 
L 261.903456 148.346921 
L 262.842104 19.443409 
L 262.97836 16.363636 
L 263.016208 16.572826 
L 263.107045 18.960167 
L 263.281149 30.670371 
L 263.576369 68.24022 
L 264.507448 196.386511 
L 264.651273 199.636364 
L 264.681552 199.468999 
L 264.772389 197.191887 
L 264.946493 185.677924 
L 265.241713 148.346921 
L 266.180362 19.443409 
L 266.316617 16.363636 
L 266.354466 16.572826 
L 266.445303 18.960167 
L 266.619407 30.670371 
L 266.914627 68.24022 
L 267.845705 196.386511 
L 267.989531 199.636364 
L 268.01981 199.468999 
L 268.110647 197.191887 
L 268.284751 185.677924 
L 268.579971 148.346921 
L 269.518619 19.443409 
L 269.654875 16.363636 
L 269.692723 16.572826 
L 269.78356 18.960167 
L 269.957664 30.670371 
L 270.252884 68.24022 
L 271.183963 196.386511 
L 271.327788 199.636364 
L 271.358067 199.468999 
L 271.448904 197.191887 
L 271.623008 185.677924 
L 271.918228 148.346921 
L 272.856877 19.443409 
L 272.993132 16.363636 
L 273.030981 16.572826 
L 273.121818 18.960167 
L 273.295922 30.670371 
L 273.591142 68.24022 
L 274.522221 196.386511 
L 274.666046 199.636364 
L 274.696325 199.468999 
L 274.787162 197.191887 
L 274.961266 185.677924 
L 275.256486 148.346921 
L 276.195134 19.443409 
L 276.33139 16.363636 
L 276.369238 16.572826 
L 276.460075 18.960167 
L 276.634179 30.670371 
L 276.929399 68.24022 
L 277.860478 196.386511 
L 278.004303 199.636364 
L 278.034582 199.468999 
L 278.125419 197.191887 
L 278.299523 185.677924 
L 278.594743 148.346921 
L 279.533392 19.443409 
L 279.669647 16.363636 
L 279.707496 16.572826 
L 279.798333 18.960167 
L 279.972437 30.670371 
L 280.267657 68.24022 
L 281.198736 196.386511 
L 281.342561 199.636364 
L 281.37284 199.468999 
L 281.463677 197.191887 
L 281.637781 185.677924 
L 281.933001 148.346921 
L 282.871649 19.443409 
L 283.007905 16.363636 
L 283.045753 16.572826 
L 283.13659 18.960167 
L 283.310694 30.670371 
L 283.605914 68.24022 
L 284.536993 196.386511 
L 284.680818 199.636364 
L 284.711097 199.468999 
L 284.801934 197.191887 
L 284.976038 185.677924 
L 285.271258 148.346921 
L 286.209907 19.443409 
L 286.346162 16.363636 
L 286.384011 16.572826 
L 286.474848 18.960167 
L 286.648952 30.670371 
L 286.944172 68.24022 
L 287.875251 196.386511 
L 288.019076 199.636364 
L 288.049355 199.468999 
L 288.140192 197.191887 
L 288.314296 185.677924 
L 288.609516 148.346921 
L 289.548164 19.443409 
L 289.68442 16.363636 
L 289.722268 16.572826 
L 289.813105 18.960167 
L 289.987209 30.670371 
L 290.282429 68.24022 
L 291.213508 196.386511 
L 291.357333 199.636364 
L 291.387612 199.468999 
L 291.478449 197.191887 
L 291.652553 185.677924 
L 291.947773 148.346921 
L 292.886422 19.443409 
L 293.022677 16.363636 
L 293.060526 16.572826 
L 293.151363 18.960167 
L 293.325467 30.670371 
L 293.620687 68.24022 
L 294.551766 196.386511 
L 294.695591 199.636364 
L 294.72587 199.468999 
L 294.816707 197.191887 
L 294.990811 185.677924 
L 295.286031 148.346921 
L 296.224679 19.443409 
L 296.360935 16.363636 
L 296.398783 16.572826 
L 296.48962 18.960167 
L 296.663724 30.670371 
L 296.958945 68.24022 
L 297.890023 196.386511 
L 298.033848 199.636364 
L 298.064127 199.468999 
L 298.154964 197.191887 
L 298.329068 185.677924 
L 298.624288 148.346921 
L 299.562937 19.443409 
L 299.699192 16.363636 
L 299.737041 16.572826 
L 299.827878 18.960167 
L 300.001982 30.670371 
L 300.297202 68.24022 
L 301.228281 196.386511 
L 301.372106 199.636364 
L 301.402385 199.468999 
L 301.493222 197.191887 
L 301.667326 185.677924 
L 301.962546 148.346921 
L 302.901194 19.443409 
L 303.03745 16.363636 
L 303.075298 16.572826 
L 303.166135 18.960167 
L 303.340239 30.670371 
L 303.63546 68.24022 
L 304.566538 196.386511 
L 304.710363 199.636364 
L 304.740642 199.468999 
L 304.831479 197.191887 
L 305.005583 185.677924 
L 305.300803 148.346921 
L 306.239452 19.443409 
L 306.375707 16.363636 
L 306.413556 16.572826 
L 306.504393 18.960167 
L 306.678497 30.670371 
L 306.973717 68.24022 
L 307.904796 196.386511 
L 308.048621 199.636364 
L 308.0789 199.468999 
L 308.169737 197.191887 
L 308.343841 185.677924 
L 308.639061 148.346921 
L 309.577709 19.443409 
L 309.713965 16.363636 
L 309.751813 16.572826 
L 309.84265 18.960167 
L 310.016755 30.670371 
L 310.311975 68.24022 
L 311.243053 196.386511 
L 311.386878 199.636364 
L 311.417157 199.468999 
L 311.507994 197.191887 
L 311.682098 185.677924 
L 311.977318 148.346921 
L 312.915967 19.443409 
L 313.052222 16.363636 
L 313.090071 16.572826 
L 313.180908 18.960167 
L 313.355012 30.670371 
L 313.650232 68.24022 
L 314.581311 196.386511 
L 314.725136 199.636364 
L 314.755415 199.468999 
L 314.846252 197.191887 
L 315.020356 185.677924 
L 315.315576 148.346921 
L 316.254224 19.443409 
L 316.39048 16.363636 
L 316.428328 16.572826 
L 316.519165 18.960167 
L 316.69327 30.670371 
L 316.98849 68.24022 
L 317.919568 196.386511 
L 318.063393 199.636364 
L 318.093672 199.468999 
L 318.184509 197.191887 
L 318.358613 185.677924 
L 318.653833 148.346921 
L 319.592482 19.443409 
L 319.728737 16.363636 
L 319.766586 16.572826 
L 319.857423 18.960167 
L 320.031527 30.670371 
L 320.326747 68.24022 
L 321.257826 196.386511 
L 321.401651 199.636364 
L 321.43193 199.468999 
L 321.522767 197.191887 
L 321.696871 185.677924 
L 321.992091 148.346921 
L 322.930739 19.443409 
L 323.066995 16.363636 
L 323.104844 16.572826 
L 323.19568 18.960167 
L 323.369785 30.670371 
L 323.665005 68.24022 
L 324.596083 196.386511 
L 324.739908 199.636364 
L 324.770187 199.468999 
L 324.861024 197.191887 
L 325.035128 185.677924 
L 325.330349 148.346921 
L 326.268997 19.443409 
L 326.405252 16.363636 
L 326.443101 16.572826 
L 326.533938 18.960167 
L 326.708042 30.670371 
L 327.003262 68.24022 
L 327.934341 196.386511 
L 328.078166 199.636364 
L 328.108445 199.468999 
L 328.199282 197.191887 
L 328.373386 185.677924 
L 328.668606 148.346921 
L 329.607254 19.443409 
L 329.74351 16.363636 
L 329.781359 16.572826 
L 329.872195 18.960167 
L 330.0463 30.670371 
L 330.34152 68.24022 
L 331.272598 196.386511 
L 331.416423 199.636364 
L 331.446702 199.468999 
L 331.537539 197.191887 
L 331.711643 185.677924 
L 332.006864 148.346921 
L 332.945512 19.443409 
L 333.081767 16.363636 
L 333.119616 16.572826 
L 333.210453 18.960167 
L 333.384557 30.670371 
L 333.679777 68.24022 
L 334.610856 196.386511 
L 334.754681 199.636364 
L 334.78496 199.468999 
L 334.875797 197.191887 
L 335.049901 185.677924 
L 335.345121 148.346921 
L 336.283769 19.443409 
L 336.420025 16.363636 
L 336.457874 16.572826 
L 336.548711 18.960167 
L 336.722815 30.670371 
L 337.018035 68.24022 
L 337.949113 196.386511 
L 338.092938 199.636364 
L 338.123217 199.468999 
L 338.214054 197.191887 
L 338.388159 185.677924 
L 338.683379 148.346921 
L 339.622027 19.443409 
L 339.758282 16.363636 
L 339.796131 16.572826 
L 339.886968 18.960167 
L 340.061072 30.670371 
L 340.356292 68.24022 
L 341.287371 196.386511 
L 341.431196 199.636364 
L 341.461475 199.468999 
L 341.552312 197.191887 
L 341.726416 185.677924 
L 342.021636 148.346921 
L 342.960284 19.443409 
L 343.09654 16.363636 
L 343.134389 16.572826 
L 343.225226 18.960167 
L 343.39933 30.670371 
L 343.69455 68.24022 
L 344.625628 196.386511 
L 344.769454 199.636364 
L 344.799732 199.468999 
L 344.890569 197.191887 
L 345.064674 185.677924 
L 345.359894 148.346921 
L 346.298542 19.443409 
L 346.434797 16.363636 
L 346.472646 16.572826 
L 346.563483 18.960167 
L 346.737587 30.670371 
L 347.032807 68.24022 
L 347.963886 196.386511 
L 348.107711 199.636364 
L 348.13799 199.468999 
L 348.228827 197.191887 
L 348.402931 185.677924 
L 348.698151 148.346921 
L 349.6368 19.443409 
L 349.773055 16.363636 
L 349.810904 16.572826 
L 349.901741 18.960167 
L 350.075845 30.670371 
L 350.371065 68.24022 
L 351.302143 196.386511 
L 351.445969 199.636364 
L 351.476248 199.468999 
L 351.567084 197.191887 
L 351.741189 185.677924 
L 352.036409 148.346921 
L 352.975057 19.443409 
L 353.111312 16.363636 
L 353.149161 16.572826 
L 353.239998 18.960167 
L 353.414102 30.670371 
L 353.709322 68.24022 
L 354.640401 196.386511 
L 354.784226 199.636364 
L 354.814505 199.468999 
L 354.905342 197.191887 
L 355.079446 185.677924 
L 355.374666 148.346921 
L 356.313315 19.443409 
L 356.44957 16.363636 
L 356.487419 16.572826 
L 356.578256 18.960167 
L 356.75236 30.670371 
L 357.04758 68.24022 
L 357.978658 196.386511 
L 358.122484 199.636364 
L 358.152763 199.468999 
L 358.243599 197.191887 
L 358.417704 185.677924 
L 358.712924 148.346921 
L 359.651572 19.443409 
L 359.787827 16.363636 
L 359.825676 16.572826 
L 359.916513 18.960167 
L 360.090617 30.670371 
L 360.385837 68.24022 
L 361.316916 196.386511 
L 361.460741 199.636364 
L 361.49102 199.468999 
L 361.581857 197.191887 
L 361.755961 185.677924 
L 362.051181 148.346921 
L 362.98983 19.443409 
L 363.126085 16.363636 
L 363.163934 16.572826 
L 363.254771 18.960167 
L 363.428875 30.670371 
L 363.724095 68.24022 
L 364.655173 196.386511 
L 364.798999 199.636364 
L 364.829278 199.468999 
L 364.920115 197.191887 
L 365.094219 185.677924 
L 365.389439 148.346921 
L 366.328087 19.443409 
L 366.464342 16.363636 
L 366.502191 16.572826 
L 366.593028 18.960167 
L 366.767132 30.670371 
L 367.062352 68.24022 
L 367.993431 196.386511 
L 368.137256 199.636364 
L 368.167535 199.468999 
L 368.258372 197.191887 
L 368.432476 185.677924 
L 368.727696 148.346921 
L 369.666345 19.443409 
L 369.8026 16.363636 
L 369.840449 16.572826 
L 369.931286 18.960167 
L 370.10539 30.670371 
L 370.40061 68.24022 
L 371.331688 196.386511 
L 371.475514 199.636364 
L 371.505793 199.468999 
L 371.59663 197.191887 
L 371.770734 185.677924 
L 372.065954 148.346921 
L 373.004602 19.443409 
L 373.140858 16.363636 
L 373.178706 16.572826 
L 373.269543 18.960167 
L 373.443647 30.670371 
L 373.738867 68.24022 
L 374.669946 196.386511 
L 374.813771 199.636364 
L 374.84405 199.468999 
L 374.934887 197.191887 
L 375.108991 185.677924 
L 375.404211 148.346921 
L 376.34286 19.443409 
L 376.479115 16.363636 
L 376.516964 16.572826 
L 376.607801 18.960167 
L 376.781905 30.670371 
L 377.077125 68.24022 
L 378.008204 196.386511 
L 378.152029 199.636364 
L 378.182308 199.468999 
L 378.273145 197.191887 
L 378.447249 185.677924 
L 378.742469 148.346921 
L 379.681117 19.443409 
L 379.817373 16.363636 
L 379.855221 16.572826 
L 379.946058 18.960167 
L 380.120162 30.670371 
L 380.415382 68.24022 
L 381.346461 196.386511 
L 381.490286 199.636364 
L 381.520565 199.468999 
L 381.611402 197.191887 
L 381.785506 185.677924 
L 382.080726 148.346921 
L 383.019375 19.443409 
L 383.15563 16.363636 
L 383.193479 16.572826 
L 383.284316 18.960167 
L 383.45842 30.670371 
L 383.75364 68.24022 
L 384.684719 196.386511 
L 384.828544 199.636364 
L 384.858823 199.468999 
L 384.94966 197.191887 
L 385.123764 185.677924 
L 385.418984 148.346921 
L 386.357632 19.443409 
L 386.493888 16.363636 
L 386.531736 16.572826 
L 386.622573 18.960167 
L 386.796677 30.670371 
L 387.091897 68.24022 
L 388.022976 196.386511 
L 388.166801 199.636364 
L 388.19708 199.468999 
L 388.287917 197.191887 
L 388.462021 185.677924 
L 388.757241 148.346921 
L 388.991903 109.305561 
L 388.991903 109.305561 
" style="fill:none;stroke:#1f77b4;stroke-linecap:square;stroke-width:1.5;"/>
   </g>
   <g id="patch_3">
    <path d="M 38.482813 208.8 
L 38.482813 7.2 
" style="fill:none;stroke:#000000;stroke-linecap:square;stroke-linejoin:miter;stroke-width:0.8;"/>
   </g>
   <g id="patch_4">
    <path d="M 405.682812 208.8 
L 405.682812 7.2 
" style="fill:none;stroke:#000000;stroke-linecap:square;stroke-linejoin:miter;stroke-width:0.8;"/>
   </g>
   <g id="patch_5">
    <path d="M 38.482813 208.8 
L 405.682812 208.8 
" style="fill:none;stroke:#000000;stroke-linecap:square;stroke-linejoin:miter;stroke-width:0.8;"/>
   </g>
   <g id="patch_6">
    <path d="M 38.482813 7.2 
L 405.682812 7.2 
" style="fill:none;stroke:#000000;stroke-linecap:square;stroke-linejoin:miter;stroke-width:0.8;"/>
   </g>
   <g id="legend_1">
    <g id="patch_7">
     <path d="M 58.842812 273.312 
L 297.086563 273.312 
Q 299.086563 273.312 299.086563 271.312 
L 299.086563 235.23825 
Q 299.086563 233.23825 297.086563 233.23825 
L 58.842812 233.23825 
Q 56.842812 233.23825 56.842812 235.23825 
L 56.842812 271.312 
Q 56.842812 273.312 58.842812 273.312 
z
" style="fill:#ffffff;opacity:0.8;stroke:#cccccc;stroke-linejoin:miter;"/>
    </g>
    <g id="line2d_17">
     <path d="M 60.842812 253.574344 
L 80.842812 253.574344 
" style="fill:none;stroke:#1f77b4;stroke-linecap:square;stroke-width:1.5;"/>
    </g>
    <g id="line2d_18"/>
    <g id="text_17">
     <!-- 100Hz sinusoidal force -->
     <g transform="translate(88.842812 244.836687)scale(0.1 -0.1)">
      <defs>
       <path d="M 9.8125 72.90625 
L 19.671875 72.90625 
L 19.671875 43.015625 
L 55.515625 43.015625 
L 55.515625 72.90625 
L 65.375 72.90625 
L 65.375 0 
L 55.515625 0 
L 55.515625 34.71875 
L 19.671875 34.71875 
L 19.671875 0 
L 9.8125 0 
z
" id="DejaVuSans-72"/>
       <path d="M 5.515625 54.6875 
L 48.1875 54.6875 
L 48.1875 46.484375 
L 14.40625 7.171875 
L 48.1875 7.171875 
L 48.1875 0 
L 4.296875 0 
L 4.296875 8.203125 
L 38.09375 47.515625 
L 5.515625 47.515625 
z
" id="DejaVuSans-122"/>
       <path d="M 54.890625 33.015625 
L 54.890625 0 
L 45.90625 0 
L 45.90625 32.71875 
Q 45.90625 40.484375 42.875 44.328125 
Q 39.84375 48.1875 33.796875 48.1875 
Q 26.515625 48.1875 22.3125 43.546875 
Q 18.109375 38.921875 18.109375 30.90625 
L 18.109375 0 
L 9.078125 0 
L 9.078125 54.6875 
L 18.109375 54.6875 
L 18.109375 46.1875 
Q 21.34375 51.125 25.703125 53.5625 
Q 30.078125 56 35.796875 56 
Q 45.21875 56 50.046875 50.171875 
Q 54.890625 44.34375 54.890625 33.015625 
z
" id="DejaVuSans-110"/>
       <path d="M 8.5 21.578125 
L 8.5 54.6875 
L 17.484375 54.6875 
L 17.484375 21.921875 
Q 17.484375 14.15625 20.5 10.265625 
Q 23.53125 6.390625 29.59375 6.390625 
Q 36.859375 6.390625 41.078125 11.03125 
Q 45.3125 15.671875 45.3125 23.6875 
L 45.3125 54.6875 
L 54.296875 54.6875 
L 54.296875 0 
L 45.3125 0 
L 45.3125 8.40625 
Q 42.046875 3.421875 37.71875 1 
Q 33.40625 -1.421875 27.6875 -1.421875 
Q 18.265625 -1.421875 13.375 4.4375 
Q 8.5 10.296875 8.5 21.578125 
z
M 31.109375 56 
z
" id="DejaVuSans-117"/>
       <path d="M 30.609375 48.390625 
Q 23.390625 48.390625 19.1875 42.75 
Q 14.984375 37.109375 14.984375 27.296875 
Q 14.984375 17.484375 19.15625 11.84375 
Q 23.34375 6.203125 30.609375 6.203125 
Q 37.796875 6.203125 41.984375 11.859375 
Q 46.1875 17.53125 46.1875 27.296875 
Q 46.1875 37.015625 41.984375 42.703125 
Q 37.796875 48.390625 30.609375 48.390625 
z
M 30.609375 56 
Q 42.328125 56 49.015625 48.375 
Q 55.71875 40.765625 55.71875 27.296875 
Q 55.71875 13.875 49.015625 6.21875 
Q 42.328125 -1.421875 30.609375 -1.421875 
Q 18.84375 -1.421875 12.171875 6.21875 
Q 5.515625 13.875 5.515625 27.296875 
Q 5.515625 40.765625 12.171875 48.375 
Q 18.84375 56 30.609375 56 
z
" id="DejaVuSans-111"/>
       <path d="M 45.40625 46.390625 
L 45.40625 75.984375 
L 54.390625 75.984375 
L 54.390625 0 
L 45.40625 0 
L 45.40625 8.203125 
Q 42.578125 3.328125 38.25 0.953125 
Q 33.9375 -1.421875 27.875 -1.421875 
Q 17.96875 -1.421875 11.734375 6.484375 
Q 5.515625 14.40625 5.515625 27.296875 
Q 5.515625 40.1875 11.734375 48.09375 
Q 17.96875 56 27.875 56 
Q 33.9375 56 38.25 53.625 
Q 42.578125 51.265625 45.40625 46.390625 
z
M 14.796875 27.296875 
Q 14.796875 17.390625 18.875 11.75 
Q 22.953125 6.109375 30.078125 6.109375 
Q 37.203125 6.109375 41.296875 11.75 
Q 45.40625 17.390625 45.40625 27.296875 
Q 45.40625 37.203125 41.296875 42.84375 
Q 37.203125 48.484375 30.078125 48.484375 
Q 22.953125 48.484375 18.875 42.84375 
Q 14.796875 37.203125 14.796875 27.296875 
z
" id="DejaVuSans-100"/>
       <path d="M 34.28125 27.484375 
Q 23.390625 27.484375 19.1875 25 
Q 14.984375 22.515625 14.984375 16.5 
Q 14.984375 11.71875 18.140625 8.90625 
Q 21.296875 6.109375 26.703125 6.109375 
Q 34.1875 6.109375 38.703125 11.40625 
Q 43.21875 16.703125 43.21875 25.484375 
L 43.21875 27.484375 
z
M 52.203125 31.203125 
L 52.203125 0 
L 43.21875 0 
L 43.21875 8.296875 
Q 40.140625 3.328125 35.546875 0.953125 
Q 30.953125 -1.421875 24.3125 -1.421875 
Q 15.921875 -1.421875 10.953125 3.296875 
Q 6 8.015625 6 15.921875 
Q 6 25.140625 12.171875 29.828125 
Q 18.359375 34.515625 30.609375 34.515625 
L 43.21875 34.515625 
L 43.21875 35.40625 
Q 43.21875 41.609375 39.140625 45 
Q 35.0625 48.390625 27.6875 48.390625 
Q 23 48.390625 18.546875 47.265625 
Q 14.109375 46.140625 10.015625 43.890625 
L 10.015625 52.203125 
Q 14.9375 54.109375 19.578125 55.046875 
Q 24.21875 56 28.609375 56 
Q 40.484375 56 46.34375 49.84375 
Q 52.203125 43.703125 52.203125 31.203125 
z
" id="DejaVuSans-97"/>
       <path d="M 9.421875 75.984375 
L 18.40625 75.984375 
L 18.40625 0 
L 9.421875 0 
z
" id="DejaVuSans-108"/>
       <path d="M 37.109375 75.984375 
L 37.109375 68.5 
L 28.515625 68.5 
Q 23.6875 68.5 21.796875 66.546875 
Q 19.921875 64.59375 19.921875 59.515625 
L 19.921875 54.6875 
L 34.71875 54.6875 
L 34.71875 47.703125 
L 19.921875 47.703125 
L 19.921875 0 
L 10.890625 0 
L 10.890625 47.703125 
L 2.296875 47.703125 
L 2.296875 54.6875 
L 10.890625 54.6875 
L 10.890625 58.5 
Q 10.890625 67.625 15.140625 71.796875 
Q 19.390625 75.984375 28.609375 75.984375 
z
" id="DejaVuSans-102"/>
       <path d="M 41.109375 46.296875 
Q 39.59375 47.171875 37.8125 47.578125 
Q 36.03125 48 33.890625 48 
Q 26.265625 48 22.1875 43.046875 
Q 18.109375 38.09375 18.109375 28.8125 
L 18.109375 0 
L 9.078125 0 
L 9.078125 54.6875 
L 18.109375 54.6875 
L 18.109375 46.1875 
Q 20.953125 51.171875 25.484375 53.578125 
Q 30.03125 56 36.53125 56 
Q 37.453125 56 38.578125 55.875 
Q 39.703125 55.765625 41.0625 55.515625 
z
" id="DejaVuSans-114"/>
       <path d="M 48.78125 52.59375 
L 48.78125 44.1875 
Q 44.96875 46.296875 41.140625 47.34375 
Q 37.3125 48.390625 33.40625 48.390625 
Q 24.65625 48.390625 19.8125 42.84375 
Q 14.984375 37.3125 14.984375 27.296875 
Q 14.984375 17.28125 19.8125 11.734375 
Q 24.65625 6.203125 33.40625 6.203125 
Q 37.3125 6.203125 41.140625 7.25 
Q 44.96875 8.296875 48.78125 10.40625 
L 48.78125 2.09375 
Q 45.015625 0.34375 40.984375 -0.53125 
Q 36.96875 -1.421875 32.421875 -1.421875 
Q 20.0625 -1.421875 12.78125 6.34375 
Q 5.515625 14.109375 5.515625 27.296875 
Q 5.515625 40.671875 12.859375 48.328125 
Q 20.21875 56 33.015625 56 
Q 37.15625 56 41.109375 55.140625 
Q 45.0625 54.296875 48.78125 52.59375 
z
" id="DejaVuSans-99"/>
      </defs>
      <use xlink:href="#DejaVuSans-49"/>
      <use x="63.623047" xlink:href="#DejaVuSans-48"/>
      <use x="127.246094" xlink:href="#DejaVuSans-48"/>
      <use x="190.869141" xlink:href="#DejaVuSans-72"/>
      <use x="266.064453" xlink:href="#DejaVuSans-122"/>
      <use x="318.554688" xlink:href="#DejaVuSans-32"/>
      <use x="350.341797" xlink:href="#DejaVuSans-115"/>
      <use x="402.441406" xlink:href="#DejaVuSans-105"/>
      <use x="430.224609" xlink:href="#DejaVuSans-110"/>
      <use x="493.603516" xlink:href="#DejaVuSans-117"/>
      <use x="556.982422" xlink:href="#DejaVuSans-115"/>
      <use x="609.082031" xlink:href="#DejaVuSans-111"/>
      <use x="670.263672" xlink:href="#DejaVuSans-105"/>
      <use x="698.046875" xlink:href="#DejaVuSans-100"/>
      <use x="761.523438" xlink:href="#DejaVuSans-97"/>
      <use x="822.802734" xlink:href="#DejaVuSans-108"/>
      <use x="850.585938" xlink:href="#DejaVuSans-32"/>
      <use x="882.373047" xlink:href="#DejaVuSans-102"/>
      <use x="917.578125" xlink:href="#DejaVuSans-111"/>
      <use x="978.759766" xlink:href="#DejaVuSans-114"/>
      <use x="1017.623047" xlink:href="#DejaVuSans-99"/>
      <use x="1072.603516" xlink:href="#DejaVuSans-101"/>
     </g>
     <!--  + 100Hz sinusoidal force at fs=48000Hz -->
     <g transform="translate(88.842812 256.0345)scale(0.1 -0.1)">
      <defs>
       <path d="M 46 62.703125 
L 46 35.5 
L 73.1875 35.5 
L 73.1875 27.203125 
L 46 27.203125 
L 46 0 
L 37.796875 0 
L 37.796875 27.203125 
L 10.59375 27.203125 
L 10.59375 35.5 
L 37.796875 35.5 
L 37.796875 62.703125 
z
" id="DejaVuSans-43"/>
       <path d="M 18.3125 70.21875 
L 18.3125 54.6875 
L 36.8125 54.6875 
L 36.8125 47.703125 
L 18.3125 47.703125 
L 18.3125 18.015625 
Q 18.3125 11.328125 20.140625 9.421875 
Q 21.96875 7.515625 27.59375 7.515625 
L 36.8125 7.515625 
L 36.8125 0 
L 27.59375 0 
Q 17.1875 0 13.234375 3.875 
Q 9.28125 7.765625 9.28125 18.015625 
L 9.28125 47.703125 
L 2.6875 47.703125 
L 2.6875 54.6875 
L 9.28125 54.6875 
L 9.28125 70.21875 
z
" id="DejaVuSans-116"/>
       <path d="M 10.59375 45.40625 
L 73.1875 45.40625 
L 73.1875 37.203125 
L 10.59375 37.203125 
z
M 10.59375 25.484375 
L 73.1875 25.484375 
L 73.1875 17.1875 
L 10.59375 17.1875 
z
" id="DejaVuSans-61"/>
      </defs>
      <use xlink:href="#DejaVuSans-32"/>
      <use x="31.787109" xlink:href="#DejaVuSans-43"/>
      <use x="115.576172" xlink:href="#DejaVuSans-32"/>
      <use x="147.363281" xlink:href="#DejaVuSans-49"/>
      <use x="210.986328" xlink:href="#DejaVuSans-48"/>
      <use x="274.609375" xlink:href="#DejaVuSans-48"/>
      <use x="338.232422" xlink:href="#DejaVuSans-72"/>
      <use x="413.427734" xlink:href="#DejaVuSans-122"/>
      <use x="465.917969" xlink:href="#DejaVuSans-32"/>
      <use x="497.705078" xlink:href="#DejaVuSans-115"/>
      <use x="549.804688" xlink:href="#DejaVuSans-105"/>
      <use x="577.587891" xlink:href="#DejaVuSans-110"/>
      <use x="640.966797" xlink:href="#DejaVuSans-117"/>
      <use x="704.345703" xlink:href="#DejaVuSans-115"/>
      <use x="756.445312" xlink:href="#DejaVuSans-111"/>
      <use x="817.626953" xlink:href="#DejaVuSans-105"/>
      <use x="845.410156" xlink:href="#DejaVuSans-100"/>
      <use x="908.886719" xlink:href="#DejaVuSans-97"/>
      <use x="970.166016" xlink:href="#DejaVuSans-108"/>
      <use x="997.949219" xlink:href="#DejaVuSans-32"/>
      <use x="1029.736328" xlink:href="#DejaVuSans-102"/>
      <use x="1064.941406" xlink:href="#DejaVuSans-111"/>
      <use x="1126.123047" xlink:href="#DejaVuSans-114"/>
      <use x="1164.986328" xlink:href="#DejaVuSans-99"/>
      <use x="1219.966797" xlink:href="#DejaVuSans-101"/>
      <use x="1281.490234" xlink:href="#DejaVuSans-32"/>
      <use x="1313.277344" xlink:href="#DejaVuSans-97"/>
      <use x="1374.556641" xlink:href="#DejaVuSans-116"/>
      <use x="1413.765625" xlink:href="#DejaVuSans-32"/>
      <use x="1445.552734" xlink:href="#DejaVuSans-102"/>
      <use x="1480.757812" xlink:href="#DejaVuSans-115"/>
      <use x="1532.857422" xlink:href="#DejaVuSans-61"/>
      <use x="1616.646484" xlink:href="#DejaVuSans-52"/>
      <use x="1680.269531" xlink:href="#DejaVuSans-56"/>
      <use x="1743.892578" xlink:href="#DejaVuSans-48"/>
      <use x="1807.515625" xlink:href="#DejaVuSans-48"/>
      <use x="1871.138672" xlink:href="#DejaVuSans-48"/>
      <use x="1934.761719" xlink:href="#DejaVuSans-72"/>
      <use x="2009.957031" xlink:href="#DejaVuSans-122"/>
     </g>
     <!--  - -&gt;resampled to 44100Hz [N] -->
     <g transform="translate(88.842812 267.232312)scale(0.1 -0.1)">
      <defs>
       <path d="M 4.890625 31.390625 
L 31.203125 31.390625 
L 31.203125 23.390625 
L 4.890625 23.390625 
z
" id="DejaVuSans-45"/>
       <path d="M 10.59375 49.21875 
L 10.59375 58.109375 
L 73.1875 35.40625 
L 73.1875 27.296875 
L 10.59375 4.59375 
L 10.59375 13.484375 
L 60.890625 31.296875 
z
" id="DejaVuSans-62"/>
       <path d="M 18.109375 8.203125 
L 18.109375 -20.796875 
L 9.078125 -20.796875 
L 9.078125 54.6875 
L 18.109375 54.6875 
L 18.109375 46.390625 
Q 20.953125 51.265625 25.265625 53.625 
Q 29.59375 56 35.59375 56 
Q 45.5625 56 51.78125 48.09375 
Q 58.015625 40.1875 58.015625 27.296875 
Q 58.015625 14.40625 51.78125 6.484375 
Q 45.5625 -1.421875 35.59375 -1.421875 
Q 29.59375 -1.421875 25.265625 0.953125 
Q 20.953125 3.328125 18.109375 8.203125 
z
M 48.6875 27.296875 
Q 48.6875 37.203125 44.609375 42.84375 
Q 40.53125 48.484375 33.40625 48.484375 
Q 26.265625 48.484375 22.1875 42.84375 
Q 18.109375 37.203125 18.109375 27.296875 
Q 18.109375 17.390625 22.1875 11.75 
Q 26.265625 6.109375 33.40625 6.109375 
Q 40.53125 6.109375 44.609375 11.75 
Q 48.6875 17.390625 48.6875 27.296875 
z
" id="DejaVuSans-112"/>
       <path d="M 8.59375 75.984375 
L 29.296875 75.984375 
L 29.296875 69 
L 17.578125 69 
L 17.578125 -6.203125 
L 29.296875 -6.203125 
L 29.296875 -13.1875 
L 8.59375 -13.1875 
z
" id="DejaVuSans-91"/>
       <path d="M 9.8125 72.90625 
L 23.09375 72.90625 
L 55.421875 11.921875 
L 55.421875 72.90625 
L 64.984375 72.90625 
L 64.984375 0 
L 51.703125 0 
L 19.390625 60.984375 
L 19.390625 0 
L 9.8125 0 
z
" id="DejaVuSans-78"/>
       <path d="M 30.421875 75.984375 
L 30.421875 -13.1875 
L 9.71875 -13.1875 
L 9.71875 -6.203125 
L 21.390625 -6.203125 
L 21.390625 69 
L 9.71875 69 
L 9.71875 75.984375 
z
" id="DejaVuSans-93"/>
      </defs>
      <use xlink:href="#DejaVuSans-32"/>
      <use x="31.787109" xlink:href="#DejaVuSans-45"/>
      <use x="67.871094" xlink:href="#DejaVuSans-45"/>
      <use x="103.955078" xlink:href="#DejaVuSans-62"/>
      <use x="187.744141" xlink:href="#DejaVuSans-114"/>
      <use x="226.607422" xlink:href="#DejaVuSans-101"/>
      <use x="288.130859" xlink:href="#DejaVuSans-115"/>
      <use x="340.230469" xlink:href="#DejaVuSans-97"/>
      <use x="401.509766" xlink:href="#DejaVuSans-109"/>
      <use x="498.921875" xlink:href="#DejaVuSans-112"/>
      <use x="562.398438" xlink:href="#DejaVuSans-108"/>
      <use x="590.181641" xlink:href="#DejaVuSans-101"/>
      <use x="651.705078" xlink:href="#DejaVuSans-100"/>
      <use x="715.181641" xlink:href="#DejaVuSans-32"/>
      <use x="746.96875" xlink:href="#DejaVuSans-116"/>
      <use x="786.177734" xlink:href="#DejaVuSans-111"/>
      <use x="847.359375" xlink:href="#DejaVuSans-32"/>
      <use x="879.146484" xlink:href="#DejaVuSans-52"/>
      <use x="942.769531" xlink:href="#DejaVuSans-52"/>
      <use x="1006.392578" xlink:href="#DejaVuSans-49"/>
      <use x="1070.015625" xlink:href="#DejaVuSans-48"/>
      <use x="1133.638672" xlink:href="#DejaVuSans-48"/>
      <use x="1197.261719" xlink:href="#DejaVuSans-72"/>
      <use x="1272.457031" xlink:href="#DejaVuSans-122"/>
      <use x="1324.947266" xlink:href="#DejaVuSans-32"/>
      <use x="1356.734375" xlink:href="#DejaVuSans-91"/>
      <use x="1395.748047" xlink:href="#DejaVuSans-78"/>
      <use x="1470.552734" xlink:href="#DejaVuSans-93"/>
     </g>
    </g>
   </g>
  </g>
 </g>
 <defs>
  <clipPath id="p423f93fbf9">
   <rect height="201.6" width="367.2" x="38.482813" y="7.2"/>
  </clipPath>
 </defs>
</svg>
