<?xml version="1.0" encoding="utf-8" standalone="no"?>
<!DOCTYPE svg PUBLIC "-//W3C//DTD SVG 1.1//EN"
  "http://www.w3.org/Graphics/SVG/1.1/DTD/svg11.dtd">
<!-- Created with matplotlib (https://matplotlib.org/) -->
<svg height="280.512pt" version="1.1" viewBox="0 0 428.792187 280.512" width="428.792187pt" xmlns="http://www.w3.org/2000/svg" xmlns:xlink="http://www.w3.org/1999/xlink">
 <metadata>
  <rdf:RDF xmlns:cc="http://creativecommons.org/ns#" xmlns:dc="http://purl.org/dc/elements/1.1/" xmlns:rdf="http://www.w3.org/1999/02/22-rdf-syntax-ns#">
   <cc:Work>
    <dc:type rdf:resource="http://purl.org/dc/dcmitype/StillImage"/>
    <dc:date>2021-06-16T21:49:38.588743</dc:date>
    <dc:format>image/svg+xml</dc:format>
    <dc:creator>
     <cc:Agent>
      <dc:title>Matplotlib v3.3.4, https://matplotlib.org/</dc:title>
     </cc:Agent>
    </dc:creator>
   </cc:Work>
  </rdf:RDF>
 </metadata>
 <defs>
  <style type="text/css">*{stroke-linecap:butt;stroke-linejoin:round;}</style>
 </defs>
 <g id="figure_1">
  <g id="patch_1">
   <path d="M 0 280.512 
L 428.792187 280.512 
L 428.792187 0 
L 0 0 
z
" style="fill:none;"/>
  </g>
  <g id="axes_1">
   <g id="patch_2">
    <path d="M 54.392188 208.8 
L 421.592187 208.8 
L 421.592187 7.2 
L 54.392188 7.2 
z
" style="fill:#ffffff;"/>
   </g>
   <g id="matplotlib.axis_1">
    <g id="xtick_1">
     <g id="line2d_1">
      <defs>
       <path d="M 0 0 
L 0 3.5 
" id="m5c0cfd4003" style="stroke:#000000;stroke-width:0.8;"/>
      </defs>
      <g>
       <use style="stroke:#000000;stroke-width:0.8;" x="71.083097" xlink:href="#m5c0cfd4003" y="208.8"/>
      </g>
     </g>
     <g id="text_1">
      <!-- 0.0 -->
      <g transform="translate(63.131534 223.398437)scale(0.1 -0.1)">
       <defs>
        <path d="M 31.78125 66.40625 
Q 24.171875 66.40625 20.328125 58.90625 
Q 16.5 51.421875 16.5 36.375 
Q 16.5 21.390625 20.328125 13.890625 
Q 24.171875 6.390625 31.78125 6.390625 
Q 39.453125 6.390625 43.28125 13.890625 
Q 47.125 21.390625 47.125 36.375 
Q 47.125 51.421875 43.28125 58.90625 
Q 39.453125 66.40625 31.78125 66.40625 
z
M 31.78125 74.21875 
Q 44.046875 74.21875 50.515625 64.515625 
Q 56.984375 54.828125 56.984375 36.375 
Q 56.984375 17.96875 50.515625 8.265625 
Q 44.046875 -1.421875 31.78125 -1.421875 
Q 19.53125 -1.421875 13.0625 8.265625 
Q 6.59375 17.96875 6.59375 36.375 
Q 6.59375 54.828125 13.0625 64.515625 
Q 19.53125 74.21875 31.78125 74.21875 
z
" id="DejaVuSans-48"/>
        <path d="M 10.6875 12.40625 
L 21 12.40625 
L 21 0 
L 10.6875 0 
z
" id="DejaVuSans-46"/>
       </defs>
       <use xlink:href="#DejaVuSans-48"/>
       <use x="63.623047" xlink:href="#DejaVuSans-46"/>
       <use x="95.410156" xlink:href="#DejaVuSans-48"/>
      </g>
     </g>
    </g>
    <g id="xtick_2">
     <g id="line2d_2">
      <g>
       <use style="stroke:#000000;stroke-width:0.8;" x="137.846733" xlink:href="#m5c0cfd4003" y="208.8"/>
      </g>
     </g>
     <g id="text_2">
      <!-- 0.2 -->
      <g transform="translate(129.89517 223.398437)scale(0.1 -0.1)">
       <defs>
        <path d="M 19.1875 8.296875 
L 53.609375 8.296875 
L 53.609375 0 
L 7.328125 0 
L 7.328125 8.296875 
Q 12.9375 14.109375 22.625 23.890625 
Q 32.328125 33.6875 34.8125 36.53125 
Q 39.546875 41.84375 41.421875 45.53125 
Q 43.3125 49.21875 43.3125 52.78125 
Q 43.3125 58.59375 39.234375 62.25 
Q 35.15625 65.921875 28.609375 65.921875 
Q 23.96875 65.921875 18.8125 64.3125 
Q 13.671875 62.703125 7.8125 59.421875 
L 7.8125 69.390625 
Q 13.765625 71.78125 18.9375 73 
Q 24.125 74.21875 28.421875 74.21875 
Q 39.75 74.21875 46.484375 68.546875 
Q 53.21875 62.890625 53.21875 53.421875 
Q 53.21875 48.921875 51.53125 44.890625 
Q 49.859375 40.875 45.40625 35.40625 
Q 44.1875 33.984375 37.640625 27.21875 
Q 31.109375 20.453125 19.1875 8.296875 
z
" id="DejaVuSans-50"/>
       </defs>
       <use xlink:href="#DejaVuSans-48"/>
       <use x="63.623047" xlink:href="#DejaVuSans-46"/>
       <use x="95.410156" xlink:href="#DejaVuSans-50"/>
      </g>
     </g>
    </g>
    <g id="xtick_3">
     <g id="line2d_3">
      <g>
       <use style="stroke:#000000;stroke-width:0.8;" x="204.610369" xlink:href="#m5c0cfd4003" y="208.8"/>
      </g>
     </g>
     <g id="text_3">
      <!-- 0.4 -->
      <g transform="translate(196.658807 223.398437)scale(0.1 -0.1)">
       <defs>
        <path d="M 37.796875 64.3125 
L 12.890625 25.390625 
L 37.796875 25.390625 
z
M 35.203125 72.90625 
L 47.609375 72.90625 
L 47.609375 25.390625 
L 58.015625 25.390625 
L 58.015625 17.1875 
L 47.609375 17.1875 
L 47.609375 0 
L 37.796875 0 
L 37.796875 17.1875 
L 4.890625 17.1875 
L 4.890625 26.703125 
z
" id="DejaVuSans-52"/>
       </defs>
       <use xlink:href="#DejaVuSans-48"/>
       <use x="63.623047" xlink:href="#DejaVuSans-46"/>
       <use x="95.410156" xlink:href="#DejaVuSans-52"/>
      </g>
     </g>
    </g>
    <g id="xtick_4">
     <g id="line2d_4">
      <g>
       <use style="stroke:#000000;stroke-width:0.8;" x="271.374006" xlink:href="#m5c0cfd4003" y="208.8"/>
      </g>
     </g>
     <g id="text_4">
      <!-- 0.6 -->
      <g transform="translate(263.422443 223.398437)scale(0.1 -0.1)">
       <defs>
        <path d="M 33.015625 40.375 
Q 26.375 40.375 22.484375 35.828125 
Q 18.609375 31.296875 18.609375 23.390625 
Q 18.609375 15.53125 22.484375 10.953125 
Q 26.375 6.390625 33.015625 6.390625 
Q 39.65625 6.390625 43.53125 10.953125 
Q 47.40625 15.53125 47.40625 23.390625 
Q 47.40625 31.296875 43.53125 35.828125 
Q 39.65625 40.375 33.015625 40.375 
z
M 52.59375 71.296875 
L 52.59375 62.3125 
Q 48.875 64.0625 45.09375 64.984375 
Q 41.3125 65.921875 37.59375 65.921875 
Q 27.828125 65.921875 22.671875 59.328125 
Q 17.53125 52.734375 16.796875 39.40625 
Q 19.671875 43.65625 24.015625 45.921875 
Q 28.375 48.1875 33.59375 48.1875 
Q 44.578125 48.1875 50.953125 41.515625 
Q 57.328125 34.859375 57.328125 23.390625 
Q 57.328125 12.15625 50.6875 5.359375 
Q 44.046875 -1.421875 33.015625 -1.421875 
Q 20.359375 -1.421875 13.671875 8.265625 
Q 6.984375 17.96875 6.984375 36.375 
Q 6.984375 53.65625 15.1875 63.9375 
Q 23.390625 74.21875 37.203125 74.21875 
Q 40.921875 74.21875 44.703125 73.484375 
Q 48.484375 72.75 52.59375 71.296875 
z
" id="DejaVuSans-54"/>
       </defs>
       <use xlink:href="#DejaVuSans-48"/>
       <use x="63.623047" xlink:href="#DejaVuSans-46"/>
       <use x="95.410156" xlink:href="#DejaVuSans-54"/>
      </g>
     </g>
    </g>
    <g id="xtick_5">
     <g id="line2d_5">
      <g>
       <use style="stroke:#000000;stroke-width:0.8;" x="338.137642" xlink:href="#m5c0cfd4003" y="208.8"/>
      </g>
     </g>
     <g id="text_5">
      <!-- 0.8 -->
      <g transform="translate(330.18608 223.398437)scale(0.1 -0.1)">
       <defs>
        <path d="M 31.78125 34.625 
Q 24.75 34.625 20.71875 30.859375 
Q 16.703125 27.09375 16.703125 20.515625 
Q 16.703125 13.921875 20.71875 10.15625 
Q 24.75 6.390625 31.78125 6.390625 
Q 38.8125 6.390625 42.859375 10.171875 
Q 46.921875 13.96875 46.921875 20.515625 
Q 46.921875 27.09375 42.890625 30.859375 
Q 38.875 34.625 31.78125 34.625 
z
M 21.921875 38.8125 
Q 15.578125 40.375 12.03125 44.71875 
Q 8.5 49.078125 8.5 55.328125 
Q 8.5 64.0625 14.71875 69.140625 
Q 20.953125 74.21875 31.78125 74.21875 
Q 42.671875 74.21875 48.875 69.140625 
Q 55.078125 64.0625 55.078125 55.328125 
Q 55.078125 49.078125 51.53125 44.71875 
Q 48 40.375 41.703125 38.8125 
Q 48.828125 37.15625 52.796875 32.3125 
Q 56.78125 27.484375 56.78125 20.515625 
Q 56.78125 9.90625 50.3125 4.234375 
Q 43.84375 -1.421875 31.78125 -1.421875 
Q 19.734375 -1.421875 13.25 4.234375 
Q 6.78125 9.90625 6.78125 20.515625 
Q 6.78125 27.484375 10.78125 32.3125 
Q 14.796875 37.15625 21.921875 38.8125 
z
M 18.3125 54.390625 
Q 18.3125 48.734375 21.84375 45.5625 
Q 25.390625 42.390625 31.78125 42.390625 
Q 38.140625 42.390625 41.71875 45.5625 
Q 45.3125 48.734375 45.3125 54.390625 
Q 45.3125 60.0625 41.71875 63.234375 
Q 38.140625 66.40625 31.78125 66.40625 
Q 25.390625 66.40625 21.84375 63.234375 
Q 18.3125 60.0625 18.3125 54.390625 
z
" id="DejaVuSans-56"/>
       </defs>
       <use xlink:href="#DejaVuSans-48"/>
       <use x="63.623047" xlink:href="#DejaVuSans-46"/>
       <use x="95.410156" xlink:href="#DejaVuSans-56"/>
      </g>
     </g>
    </g>
    <g id="xtick_6">
     <g id="line2d_6">
      <g>
       <use style="stroke:#000000;stroke-width:0.8;" x="404.901278" xlink:href="#m5c0cfd4003" y="208.8"/>
      </g>
     </g>
     <g id="text_6">
      <!-- 1.0 -->
      <g transform="translate(396.949716 223.398437)scale(0.1 -0.1)">
       <defs>
        <path d="M 12.40625 8.296875 
L 28.515625 8.296875 
L 28.515625 63.921875 
L 10.984375 60.40625 
L 10.984375 69.390625 
L 28.421875 72.90625 
L 38.28125 72.90625 
L 38.28125 8.296875 
L 54.390625 8.296875 
L 54.390625 0 
L 12.40625 0 
z
" id="DejaVuSans-49"/>
       </defs>
       <use xlink:href="#DejaVuSans-49"/>
       <use x="63.623047" xlink:href="#DejaVuSans-46"/>
       <use x="95.410156" xlink:href="#DejaVuSans-48"/>
      </g>
     </g>
    </g>
    <g id="text_7">
     <!-- Time (s) -->
     <g transform="translate(217.663281 237.076562)scale(0.1 -0.1)">
      <defs>
       <path d="M -0.296875 72.90625 
L 61.375 72.90625 
L 61.375 64.59375 
L 35.5 64.59375 
L 35.5 0 
L 25.59375 0 
L 25.59375 64.59375 
L -0.296875 64.59375 
z
" id="DejaVuSans-84"/>
       <path d="M 9.421875 54.6875 
L 18.40625 54.6875 
L 18.40625 0 
L 9.421875 0 
z
M 9.421875 75.984375 
L 18.40625 75.984375 
L 18.40625 64.59375 
L 9.421875 64.59375 
z
" id="DejaVuSans-105"/>
       <path d="M 52 44.1875 
Q 55.375 50.25 60.0625 53.125 
Q 64.75 56 71.09375 56 
Q 79.640625 56 84.28125 50.015625 
Q 88.921875 44.046875 88.921875 33.015625 
L 88.921875 0 
L 79.890625 0 
L 79.890625 32.71875 
Q 79.890625 40.578125 77.09375 44.375 
Q 74.3125 48.1875 68.609375 48.1875 
Q 61.625 48.1875 57.5625 43.546875 
Q 53.515625 38.921875 53.515625 30.90625 
L 53.515625 0 
L 44.484375 0 
L 44.484375 32.71875 
Q 44.484375 40.625 41.703125 44.40625 
Q 38.921875 48.1875 33.109375 48.1875 
Q 26.21875 48.1875 22.15625 43.53125 
Q 18.109375 38.875 18.109375 30.90625 
L 18.109375 0 
L 9.078125 0 
L 9.078125 54.6875 
L 18.109375 54.6875 
L 18.109375 46.1875 
Q 21.1875 51.21875 25.484375 53.609375 
Q 29.78125 56 35.6875 56 
Q 41.65625 56 45.828125 52.96875 
Q 50 49.953125 52 44.1875 
z
" id="DejaVuSans-109"/>
       <path d="M 56.203125 29.59375 
L 56.203125 25.203125 
L 14.890625 25.203125 
Q 15.484375 15.921875 20.484375 11.0625 
Q 25.484375 6.203125 34.421875 6.203125 
Q 39.59375 6.203125 44.453125 7.46875 
Q 49.3125 8.734375 54.109375 11.28125 
L 54.109375 2.78125 
Q 49.265625 0.734375 44.1875 -0.34375 
Q 39.109375 -1.421875 33.890625 -1.421875 
Q 20.796875 -1.421875 13.15625 6.1875 
Q 5.515625 13.8125 5.515625 26.8125 
Q 5.515625 40.234375 12.765625 48.109375 
Q 20.015625 56 32.328125 56 
Q 43.359375 56 49.78125 48.890625 
Q 56.203125 41.796875 56.203125 29.59375 
z
M 47.21875 32.234375 
Q 47.125 39.59375 43.09375 43.984375 
Q 39.0625 48.390625 32.421875 48.390625 
Q 24.90625 48.390625 20.390625 44.140625 
Q 15.875 39.890625 15.1875 32.171875 
z
" id="DejaVuSans-101"/>
       <path id="DejaVuSans-32"/>
       <path d="M 31 75.875 
Q 24.46875 64.65625 21.28125 53.65625 
Q 18.109375 42.671875 18.109375 31.390625 
Q 18.109375 20.125 21.3125 9.0625 
Q 24.515625 -2 31 -13.1875 
L 23.1875 -13.1875 
Q 15.875 -1.703125 12.234375 9.375 
Q 8.59375 20.453125 8.59375 31.390625 
Q 8.59375 42.28125 12.203125 53.3125 
Q 15.828125 64.359375 23.1875 75.875 
z
" id="DejaVuSans-40"/>
       <path d="M 44.28125 53.078125 
L 44.28125 44.578125 
Q 40.484375 46.53125 36.375 47.5 
Q 32.28125 48.484375 27.875 48.484375 
Q 21.1875 48.484375 17.84375 46.4375 
Q 14.5 44.390625 14.5 40.28125 
Q 14.5 37.15625 16.890625 35.375 
Q 19.28125 33.59375 26.515625 31.984375 
L 29.59375 31.296875 
Q 39.15625 29.25 43.1875 25.515625 
Q 47.21875 21.78125 47.21875 15.09375 
Q 47.21875 7.46875 41.1875 3.015625 
Q 35.15625 -1.421875 24.609375 -1.421875 
Q 20.21875 -1.421875 15.453125 -0.5625 
Q 10.6875 0.296875 5.421875 2 
L 5.421875 11.28125 
Q 10.40625 8.6875 15.234375 7.390625 
Q 20.0625 6.109375 24.8125 6.109375 
Q 31.15625 6.109375 34.5625 8.28125 
Q 37.984375 10.453125 37.984375 14.40625 
Q 37.984375 18.0625 35.515625 20.015625 
Q 33.0625 21.96875 24.703125 23.78125 
L 21.578125 24.515625 
Q 13.234375 26.265625 9.515625 29.90625 
Q 5.8125 33.546875 5.8125 39.890625 
Q 5.8125 47.609375 11.28125 51.796875 
Q 16.75 56 26.8125 56 
Q 31.78125 56 36.171875 55.265625 
Q 40.578125 54.546875 44.28125 53.078125 
z
" id="DejaVuSans-115"/>
       <path d="M 8.015625 75.875 
L 15.828125 75.875 
Q 23.140625 64.359375 26.78125 53.3125 
Q 30.421875 42.28125 30.421875 31.390625 
Q 30.421875 20.453125 26.78125 9.375 
Q 23.140625 -1.703125 15.828125 -13.1875 
L 8.015625 -13.1875 
Q 14.5 -2 17.703125 9.0625 
Q 20.90625 20.125 20.90625 31.390625 
Q 20.90625 42.671875 17.703125 53.65625 
Q 14.5 64.65625 8.015625 75.875 
z
" id="DejaVuSans-41"/>
      </defs>
      <use xlink:href="#DejaVuSans-84"/>
      <use x="57.958984" xlink:href="#DejaVuSans-105"/>
      <use x="85.742188" xlink:href="#DejaVuSans-109"/>
      <use x="183.154297" xlink:href="#DejaVuSans-101"/>
      <use x="244.677734" xlink:href="#DejaVuSans-32"/>
      <use x="276.464844" xlink:href="#DejaVuSans-40"/>
      <use x="315.478516" xlink:href="#DejaVuSans-115"/>
      <use x="367.578125" xlink:href="#DejaVuSans-41"/>
     </g>
    </g>
   </g>
   <g id="matplotlib.axis_2">
    <g id="ytick_1">
     <g id="line2d_7">
      <defs>
       <path d="M 0 0 
L -3.5 0 
" id="m806a0af861" style="stroke:#000000;stroke-width:0.8;"/>
      </defs>
      <g>
       <use style="stroke:#000000;stroke-width:0.8;" x="54.392188" xlink:href="#m806a0af861" y="191.548072"/>
      </g>
     </g>
     <g id="text_8">
      <!-- −10000 -->
      <g transform="translate(7.2 195.347291)scale(0.1 -0.1)">
       <defs>
        <path d="M 10.59375 35.5 
L 73.1875 35.5 
L 73.1875 27.203125 
L 10.59375 27.203125 
z
" id="DejaVuSans-8722"/>
       </defs>
       <use xlink:href="#DejaVuSans-8722"/>
       <use x="83.789062" xlink:href="#DejaVuSans-49"/>
       <use x="147.412109" xlink:href="#DejaVuSans-48"/>
       <use x="211.035156" xlink:href="#DejaVuSans-48"/>
       <use x="274.658203" xlink:href="#DejaVuSans-48"/>
       <use x="338.28125" xlink:href="#DejaVuSans-48"/>
      </g>
     </g>
    </g>
    <g id="ytick_2">
     <g id="line2d_8">
      <g>
       <use style="stroke:#000000;stroke-width:0.8;" x="54.392188" xlink:href="#m806a0af861" y="149.774036"/>
      </g>
     </g>
     <g id="text_9">
      <!-- −5000 -->
      <g transform="translate(13.5625 153.573255)scale(0.1 -0.1)">
       <defs>
        <path d="M 10.796875 72.90625 
L 49.515625 72.90625 
L 49.515625 64.59375 
L 19.828125 64.59375 
L 19.828125 46.734375 
Q 21.96875 47.46875 24.109375 47.828125 
Q 26.265625 48.1875 28.421875 48.1875 
Q 40.625 48.1875 47.75 41.5 
Q 54.890625 34.8125 54.890625 23.390625 
Q 54.890625 11.625 47.5625 5.09375 
Q 40.234375 -1.421875 26.90625 -1.421875 
Q 22.3125 -1.421875 17.546875 -0.640625 
Q 12.796875 0.140625 7.71875 1.703125 
L 7.71875 11.625 
Q 12.109375 9.234375 16.796875 8.0625 
Q 21.484375 6.890625 26.703125 6.890625 
Q 35.15625 6.890625 40.078125 11.328125 
Q 45.015625 15.765625 45.015625 23.390625 
Q 45.015625 31 40.078125 35.4375 
Q 35.15625 39.890625 26.703125 39.890625 
Q 22.75 39.890625 18.8125 39.015625 
Q 14.890625 38.140625 10.796875 36.28125 
z
" id="DejaVuSans-53"/>
       </defs>
       <use xlink:href="#DejaVuSans-8722"/>
       <use x="83.789062" xlink:href="#DejaVuSans-53"/>
       <use x="147.412109" xlink:href="#DejaVuSans-48"/>
       <use x="211.035156" xlink:href="#DejaVuSans-48"/>
       <use x="274.658203" xlink:href="#DejaVuSans-48"/>
      </g>
     </g>
    </g>
    <g id="ytick_3">
     <g id="line2d_9">
      <g>
       <use style="stroke:#000000;stroke-width:0.8;" x="54.392188" xlink:href="#m806a0af861" y="108"/>
      </g>
     </g>
     <g id="text_10">
      <!-- 0 -->
      <g transform="translate(41.029688 111.799219)scale(0.1 -0.1)">
       <use xlink:href="#DejaVuSans-48"/>
      </g>
     </g>
    </g>
    <g id="ytick_4">
     <g id="line2d_10">
      <g>
       <use style="stroke:#000000;stroke-width:0.8;" x="54.392188" xlink:href="#m806a0af861" y="66.225964"/>
      </g>
     </g>
     <g id="text_11">
      <!-- 5000 -->
      <g transform="translate(21.942188 70.025183)scale(0.1 -0.1)">
       <use xlink:href="#DejaVuSans-53"/>
       <use x="63.623047" xlink:href="#DejaVuSans-48"/>
       <use x="127.246094" xlink:href="#DejaVuSans-48"/>
       <use x="190.869141" xlink:href="#DejaVuSans-48"/>
      </g>
     </g>
    </g>
    <g id="ytick_5">
     <g id="line2d_11">
      <g>
       <use style="stroke:#000000;stroke-width:0.8;" x="54.392188" xlink:href="#m806a0af861" y="24.451928"/>
      </g>
     </g>
     <g id="text_12">
      <!-- 10000 -->
      <g transform="translate(15.579688 28.251147)scale(0.1 -0.1)">
       <use xlink:href="#DejaVuSans-49"/>
       <use x="63.623047" xlink:href="#DejaVuSans-48"/>
       <use x="127.246094" xlink:href="#DejaVuSans-48"/>
       <use x="190.869141" xlink:href="#DejaVuSans-48"/>
       <use x="254.492188" xlink:href="#DejaVuSans-48"/>
      </g>
     </g>
    </g>
   </g>
   <g id="line2d_12">
    <path clip-path="url(#p777f0fefeb)" d="M 71.083097 108 
L 71.605409 23.807536 
L 71.787083 16.363636 
L 71.802222 16.412776 
L 71.87035 17.919013 
L 72.014175 27.787659 
L 72.271547 64.538703 
L 73.111788 196.071492 
L 73.195055 197.593899 
L 73.240474 197.119012 
L 73.34645 192.478884 
L 73.543264 171.832138 
L 73.93689 101.095106 
L 74.413784 29.113094 
L 74.595458 22.023906 
L 74.610598 22.073936 
L 74.678725 23.524666 
L 74.822551 32.942818 
L 75.079922 67.75615 
L 75.897454 187.959863 
L 75.988291 189.660944 
L 76.03371 189.217014 
L 76.139686 184.878149 
L 76.3365 165.617712 
L 76.745266 97.463961 
L 77.19945 36.029717 
L 77.373555 30.210155 
L 77.396264 30.349699 
L 77.479531 32.634585 
L 77.646065 45.124774 
L 77.948855 88.415245 
L 78.584714 178.535591 
L 78.743678 183.49877 
L 78.773957 183.3145 
L 78.864794 180.594456 
L 79.038899 166.825519 
L 79.364398 119.089629 
L 79.947268 37.955363 
L 80.113802 32.50123 
L 80.136512 32.602192 
L 80.212209 34.412907 
L 80.363604 44.576376 
L 80.636115 80.725465 
L 81.37038 183.021508 
L 81.491496 185.789914 
L 81.529345 185.441711 
L 81.627751 181.842473 
L 81.816995 164.714454 
L 82.180343 106.247596 
L 82.695085 32.634448 
L 82.869189 26.339056 
L 82.891899 26.440904 
L 82.967596 28.336786 
L 83.118991 39.065379 
L 83.391502 77.541792 
L 84.148476 191.194668 
L 84.262023 193.976094 
L 84.307441 193.528868 
L 84.413417 189.035087 
L 84.610231 168.812366 
L 84.996288 100.020743 
L 85.488321 25.139793 
L 85.662425 18.406101 
L 85.685135 18.514425 
L 85.760832 20.535943 
L 85.912227 31.972566 
L 86.184738 72.99507 
L 86.956852 196.743593 
L 87.070398 199.636364 
L 87.115816 199.158631 
L 87.221793 194.440866 
L 87.418606 173.32662 
L 87.804663 101.814847 
L 88.296697 23.807536 
L 88.47837 16.363636 
L 88.49351 16.412776 
L 88.561638 17.919013 
L 88.705463 27.787659 
L 88.962834 64.538703 
L 89.803076 196.071492 
L 89.886343 197.593899 
L 89.931761 197.119012 
L 90.037738 192.478884 
L 90.234551 171.832138 
L 90.628178 101.095106 
L 91.105072 29.113094 
L 91.286746 22.023906 
L 91.301885 22.073936 
L 91.370013 23.524666 
L 91.513838 32.942818 
L 91.771209 67.75615 
L 92.588742 187.959863 
L 92.679579 189.660944 
L 92.724997 189.217014 
L 92.830974 184.878149 
L 93.027787 165.617712 
L 93.436553 97.463961 
L 93.890738 36.029717 
L 94.064842 30.210155 
L 94.087551 30.349699 
L 94.170819 32.634585 
L 94.337353 45.124774 
L 94.640143 88.415245 
L 95.276001 178.535591 
L 95.434966 183.49877 
L 95.465245 183.3145 
L 95.556082 180.594456 
L 95.730186 166.825519 
L 96.055685 119.089629 
L 96.638555 37.955363 
L 96.80509 32.50123 
L 96.827799 32.602192 
L 96.903497 34.412907 
L 97.054891 44.576376 
L 97.327402 80.725465 
L 98.061668 183.021508 
L 98.182783 185.789914 
L 98.220632 185.441711 
L 98.319039 181.842473 
L 98.508282 164.714454 
L 98.87163 106.247596 
L 99.386373 32.634448 
L 99.560477 26.339056 
L 99.583186 26.440904 
L 99.658884 28.336786 
L 99.810279 39.065379 
L 100.082789 77.541792 
L 100.839764 191.194668 
L 100.95331 193.976094 
L 100.998729 193.528868 
L 101.104705 189.035087 
L 101.301518 168.812366 
L 101.687575 100.020743 
L 102.179609 25.139793 
L 102.353713 18.406101 
L 102.376422 18.514425 
L 102.45212 20.535943 
L 102.603514 31.972566 
L 102.876025 72.99507 
L 103.648139 196.743593 
L 103.761685 199.636364 
L 103.807104 199.158631 
L 103.91308 194.440866 
L 104.109894 173.32662 
L 104.495951 101.814847 
L 104.987984 23.807536 
L 105.169658 16.363636 
L 105.184798 16.412776 
L 105.252925 17.919013 
L 105.39675 27.787659 
L 105.654122 64.538703 
L 106.494363 196.071492 
L 106.577631 197.593899 
L 106.623049 197.119012 
L 106.729025 192.478884 
L 106.925839 171.832138 
L 107.319466 101.095106 
L 107.79636 29.113094 
L 107.978033 22.023906 
L 107.993173 22.073936 
L 108.061301 23.524666 
L 108.205126 32.942818 
L 108.462497 67.75615 
L 109.28003 187.959863 
L 109.370866 189.660944 
L 109.416285 189.217014 
L 109.522261 184.878149 
L 109.719075 165.617712 
L 110.127841 97.463961 
L 110.582026 36.029717 
L 110.75613 30.210155 
L 110.778839 30.349699 
L 110.862106 32.634585 
L 111.028641 45.124774 
L 111.33143 88.415245 
L 111.967289 178.535591 
L 112.126254 183.49877 
L 112.156533 183.3145 
L 112.24737 180.594456 
L 112.421474 166.825519 
L 112.746973 119.089629 
L 113.329843 37.955363 
L 113.496377 32.50123 
L 113.519087 32.602192 
L 113.594784 34.412907 
L 113.746179 44.576376 
L 114.01869 80.725465 
L 114.752955 183.021508 
L 114.874071 185.789914 
L 114.91192 185.441711 
L 115.010326 181.842473 
L 115.19957 164.714454 
L 115.562918 106.247596 
L 116.07766 32.634448 
L 116.251765 26.339056 
L 116.274474 26.440904 
L 116.350171 28.336786 
L 116.501566 39.065379 
L 116.774077 77.541792 
L 117.531052 191.194668 
L 117.644598 193.976094 
L 117.690016 193.528868 
L 117.795993 189.035087 
L 117.992806 168.812366 
L 118.378863 100.020743 
L 118.870896 25.139793 
L 119.045 18.406101 
L 119.06771 18.514425 
L 119.143407 20.535943 
L 119.294802 31.972566 
L 119.567313 72.99507 
L 120.339427 196.743593 
L 120.452973 199.636364 
L 120.498392 199.158631 
L 120.604368 194.440866 
L 120.801181 173.32662 
L 121.187238 101.814847 
L 121.679272 23.807536 
L 121.860946 16.363636 
L 121.876085 16.412776 
L 121.944213 17.919013 
L 122.088038 27.787659 
L 122.345409 64.538703 
L 123.185651 196.071492 
L 123.268918 197.593899 
L 123.314337 197.119012 
L 123.420313 192.478884 
L 123.617126 171.832138 
L 124.010753 101.095106 
L 124.487647 29.113094 
L 124.669321 22.023906 
L 124.68446 22.073936 
L 124.752588 23.524666 
L 124.896413 32.942818 
L 125.153785 67.75615 
L 125.971317 187.959863 
L 126.062154 189.660944 
L 126.107573 189.217014 
L 126.213549 184.878149 
L 126.410362 165.617712 
L 126.819129 97.463961 
L 127.273313 36.029717 
L 127.447417 30.210155 
L 127.470127 30.349699 
L 127.553394 32.634585 
L 127.719928 45.124774 
L 128.022718 88.415245 
L 128.658577 178.535591 
L 128.817541 183.49877 
L 128.84782 183.3145 
L 128.938657 180.594456 
L 129.112761 166.825519 
L 129.43826 119.089629 
L 130.021131 37.955363 
L 130.187665 32.50123 
L 130.210374 32.602192 
L 130.286072 34.412907 
L 130.437467 44.576376 
L 130.709977 80.725465 
L 131.444243 183.021508 
L 131.565359 185.789914 
L 131.603207 185.441711 
L 131.701614 181.842473 
L 131.890858 164.714454 
L 132.254205 106.247596 
L 132.768948 32.634448 
L 132.943052 26.339056 
L 132.965761 26.440904 
L 133.041459 28.336786 
L 133.192854 39.065379 
L 133.465365 77.541792 
L 134.222339 191.194668 
L 134.335885 193.976094 
L 134.381304 193.528868 
L 134.48728 189.035087 
L 134.684094 168.812366 
L 135.070151 100.020743 
L 135.562184 25.139793 
L 135.736288 18.406101 
L 135.758997 18.514425 
L 135.834695 20.535943 
L 135.98609 31.972566 
L 136.2586 72.99507 
L 137.030714 196.743593 
L 137.144261 199.636364 
L 137.189679 199.158631 
L 137.295656 194.440866 
L 137.492469 173.32662 
L 137.878526 101.814847 
L 138.370559 23.807536 
L 138.552233 16.363636 
L 138.567373 16.412776 
L 138.6355 17.919013 
L 138.779326 27.787659 
L 139.036697 64.538703 
L 139.876939 196.071492 
L 139.960206 197.593899 
L 140.005624 197.119012 
L 140.111601 192.478884 
L 140.308414 171.832138 
L 140.702041 101.095106 
L 141.178935 29.113094 
L 141.360609 22.023906 
L 141.375748 22.073936 
L 141.443876 23.524666 
L 141.587701 32.942818 
L 141.845072 67.75615 
L 142.662605 187.959863 
L 142.753442 189.660944 
L 142.79886 189.217014 
L 142.904837 184.878149 
L 143.10165 165.617712 
L 143.510416 97.463961 
L 143.964601 36.029717 
L 144.138705 30.210155 
L 144.161414 30.349699 
L 144.244681 32.634585 
L 144.411216 45.124774 
L 144.714006 88.415245 
L 145.349864 178.535591 
L 145.508829 183.49877 
L 145.539108 183.3145 
L 145.629945 180.594456 
L 145.804049 166.825519 
L 146.129548 119.089629 
L 146.712418 37.955363 
L 146.878953 32.50123 
L 146.901662 32.602192 
L 146.977359 34.412907 
L 147.128754 44.576376 
L 147.401265 80.725465 
L 148.13553 183.021508 
L 148.256646 185.789914 
L 148.294495 185.441711 
L 148.392902 181.842473 
L 148.582145 164.714454 
L 148.945493 106.247596 
L 149.460236 32.634448 
L 149.63434 26.339056 
L 149.657049 26.440904 
L 149.732746 28.336786 
L 149.884141 39.065379 
L 150.156652 77.541792 
L 150.913627 191.194668 
L 151.027173 193.976094 
L 151.072591 193.528868 
L 151.178568 189.035087 
L 151.375381 168.812366 
L 151.761438 100.020743 
L 152.253472 25.139793 
L 152.427576 18.406101 
L 152.450285 18.514425 
L 152.525982 20.535943 
L 152.677377 31.972566 
L 152.949888 72.99507 
L 153.722002 196.743593 
L 153.835548 199.636364 
L 153.880967 199.158631 
L 153.986943 194.440866 
L 154.183756 173.32662 
L 154.569813 101.814847 
L 155.061847 23.807536 
L 155.243521 16.363636 
L 155.25866 16.412776 
L 155.326788 17.919013 
L 155.470613 27.787659 
L 155.727984 64.538703 
L 156.568226 196.071492 
L 156.651493 197.593899 
L 156.696912 197.119012 
L 156.802888 192.478884 
L 156.999702 171.832138 
L 157.393328 101.095106 
L 157.870222 29.113094 
L 158.051896 22.023906 
L 158.067036 22.073936 
L 158.135163 23.524666 
L 158.278988 32.942818 
L 158.53636 67.75615 
L 159.353892 187.959863 
L 159.444729 189.660944 
L 159.490148 189.217014 
L 159.596124 184.878149 
L 159.792937 165.617712 
L 160.201704 97.463961 
L 160.655888 36.029717 
L 160.829993 30.210155 
L 160.852702 30.349699 
L 160.935969 32.634585 
L 161.102503 45.124774 
L 161.405293 88.415245 
L 162.041152 178.535591 
L 162.200116 183.49877 
L 162.230395 183.3145 
L 162.321232 180.594456 
L 162.495336 166.825519 
L 162.820835 119.089629 
L 163.403706 37.955363 
L 163.57024 32.50123 
L 163.592949 32.602192 
L 163.668647 34.412907 
L 163.820042 44.576376 
L 164.092553 80.725465 
L 164.826818 183.021508 
L 164.947934 185.789914 
L 164.985782 185.441711 
L 165.084189 181.842473 
L 165.273433 164.714454 
L 165.636781 106.247596 
L 166.151523 32.634448 
L 166.325627 26.339056 
L 166.348337 26.440904 
L 166.424034 28.336786 
L 166.575429 39.065379 
L 166.84794 77.541792 
L 167.604914 191.194668 
L 167.71846 193.976094 
L 167.763879 193.528868 
L 167.869855 189.035087 
L 168.066669 168.812366 
L 168.452726 100.020743 
L 168.944759 25.139793 
L 169.118863 18.406101 
L 169.141572 18.514425 
L 169.21727 20.535943 
L 169.368665 31.972566 
L 169.641176 72.99507 
L 170.41329 196.743593 
L 170.526836 199.636364 
L 170.572254 199.158631 
L 170.678231 194.440866 
L 170.875044 173.32662 
L 171.261101 101.814847 
L 171.753134 23.807536 
L 171.934808 16.363636 
L 171.949948 16.412776 
L 172.018076 17.919013 
L 172.161901 27.787659 
L 172.419272 64.538703 
L 173.259514 196.071492 
L 173.342781 197.593899 
L 173.388199 197.119012 
L 173.494176 192.478884 
L 173.690989 171.832138 
L 174.084616 101.095106 
L 174.56151 29.113094 
L 174.743184 22.023906 
L 174.758323 22.073936 
L 174.826451 23.524666 
L 174.970276 32.942818 
L 175.227647 67.75615 
L 176.04518 187.959863 
L 176.136017 189.660944 
L 176.181435 189.217014 
L 176.287412 184.878149 
L 176.484225 165.617712 
L 176.892991 97.463961 
L 177.347176 36.029717 
L 177.52128 30.210155 
L 177.543989 30.349699 
L 177.627257 32.634585 
L 177.793791 45.124774 
L 178.096581 88.415245 
L 178.732439 178.535591 
L 178.891404 183.49877 
L 178.921683 183.3145 
L 179.01252 180.594456 
L 179.186624 166.825519 
L 179.512123 119.089629 
L 180.094993 37.955363 
L 180.261528 32.50123 
L 180.284237 32.602192 
L 180.359934 34.412907 
L 180.511329 44.576376 
L 180.78384 80.725465 
L 181.518105 183.021508 
L 181.639221 185.789914 
L 181.67707 185.441711 
L 181.775477 181.842473 
L 181.96472 164.714454 
L 182.328068 106.247596 
L 182.842811 32.634448 
L 183.016915 26.339056 
L 183.039624 26.440904 
L 183.115322 28.336786 
L 183.266717 39.065379 
L 183.539227 77.541792 
L 184.296202 191.194668 
L 184.409748 193.976094 
L 184.455166 193.528868 
L 184.561143 189.035087 
L 184.757956 168.812366 
L 185.144013 100.020743 
L 185.636047 25.139793 
L 185.810151 18.406101 
L 185.83286 18.514425 
L 185.908557 20.535943 
L 186.059952 31.972566 
L 186.332463 72.99507 
L 187.104577 196.743593 
L 187.218123 199.636364 
L 187.263542 199.158631 
L 187.369518 194.440866 
L 187.566332 173.32662 
L 187.952389 101.814847 
L 188.444422 23.807536 
L 188.626096 16.363636 
L 188.641235 16.412776 
L 188.709363 17.919013 
L 188.853188 27.787659 
L 189.11056 64.538703 
L 189.950801 196.071492 
L 190.034068 197.593899 
L 190.079487 197.119012 
L 190.185463 192.478884 
L 190.382277 171.832138 
L 190.775903 101.095106 
L 191.252797 29.113094 
L 191.434471 22.023906 
L 191.449611 22.073936 
L 191.517738 23.524666 
L 191.661564 32.942818 
L 191.918935 67.75615 
L 192.736467 187.959863 
L 192.827304 189.660944 
L 192.872723 189.217014 
L 192.978699 184.878149 
L 193.175513 165.617712 
L 193.584279 97.463961 
L 194.038464 36.029717 
L 194.212568 30.210155 
L 194.235277 30.349699 
L 194.318544 32.634585 
L 194.485078 45.124774 
L 194.787868 88.415245 
L 195.423727 178.535591 
L 195.582692 183.49877 
L 195.61297 183.3145 
L 195.703807 180.594456 
L 195.877912 166.825519 
L 196.203411 119.089629 
L 196.786281 37.955363 
L 196.952815 32.50123 
L 196.975525 32.602192 
L 197.051222 34.412907 
L 197.202617 44.576376 
L 197.475128 80.725465 
L 198.209393 183.021508 
L 198.330509 185.789914 
L 198.368358 185.441711 
L 198.466764 181.842473 
L 198.656008 164.714454 
L 199.019356 106.247596 
L 199.534098 32.634448 
L 199.708202 26.339056 
L 199.730912 26.440904 
L 199.806609 28.336786 
L 199.958004 39.065379 
L 200.230515 77.541792 
L 200.987489 191.194668 
L 201.101036 193.976094 
L 201.146454 193.528868 
L 201.25243 189.035087 
L 201.449244 168.812366 
L 201.835301 100.020743 
L 202.327334 25.139793 
L 202.501438 18.406101 
L 202.524148 18.514425 
L 202.599845 20.535943 
L 202.75124 31.972566 
L 203.023751 72.99507 
L 203.795865 196.743593 
L 203.909411 199.636364 
L 203.954829 199.158631 
L 204.060806 194.440866 
L 204.257619 173.32662 
L 204.643676 101.814847 
L 205.13571 23.807536 
L 205.317383 16.363636 
L 205.332523 16.412776 
L 205.400651 17.919013 
L 205.544476 27.787659 
L 205.801847 64.538703 
L 206.642089 196.071492 
L 206.725356 197.593899 
L 206.770775 197.119012 
L 206.876751 192.478884 
L 207.073564 171.832138 
L 207.467191 101.095106 
L 207.944085 29.113094 
L 208.125759 22.023906 
L 208.140898 22.073936 
L 208.209026 23.524666 
L 208.352851 32.942818 
L 208.610223 67.75615 
L 209.427755 187.959863 
L 209.518592 189.660944 
L 209.56401 189.217014 
L 209.669987 184.878149 
L 209.8668 165.617712 
L 210.275566 97.463961 
L 210.729751 36.029717 
L 210.903855 30.210155 
L 210.926564 30.349699 
L 211.009832 32.634585 
L 211.176366 45.124774 
L 211.479156 88.415245 
L 212.115014 178.535591 
L 212.273979 183.49877 
L 212.304258 183.3145 
L 212.395095 180.594456 
L 212.569199 166.825519 
L 212.894698 119.089629 
L 213.477569 37.955363 
L 213.644103 32.50123 
L 213.666812 32.602192 
L 213.74251 34.412907 
L 213.893905 44.576376 
L 214.166415 80.725465 
L 214.900681 183.021508 
L 215.021796 185.789914 
L 215.059645 185.441711 
L 215.158052 181.842473 
L 215.347296 164.714454 
L 215.710643 106.247596 
L 216.225386 32.634448 
L 216.39949 26.339056 
L 216.422199 26.440904 
L 216.497897 28.336786 
L 216.649292 39.065379 
L 216.921802 77.541792 
L 217.678777 191.194668 
L 217.792323 193.976094 
L 217.837742 193.528868 
L 217.943718 189.035087 
L 218.140531 168.812366 
L 218.526588 100.020743 
L 219.018622 25.139793 
L 219.192726 18.406101 
L 219.215435 18.514425 
L 219.291133 20.535943 
L 219.442528 31.972566 
L 219.715038 72.99507 
L 220.487152 196.743593 
L 220.600699 199.636364 
L 220.646117 199.158631 
L 220.752093 194.440866 
L 220.948907 173.32662 
L 221.334964 101.814847 
L 221.826997 23.807536 
L 222.008671 16.363636 
L 222.023811 16.412776 
L 222.091938 17.919013 
L 222.235763 27.787659 
L 222.493135 64.538703 
L 223.333376 196.071492 
L 223.416644 197.593899 
L 223.462062 197.119012 
L 223.568039 192.478884 
L 223.764852 171.832138 
L 224.158479 101.095106 
L 224.635373 29.113094 
L 224.817046 22.023906 
L 224.832186 22.073936 
L 224.900314 23.524666 
L 225.044139 32.942818 
L 225.30151 67.75615 
L 226.119043 187.959863 
L 226.20988 189.660944 
L 226.255298 189.217014 
L 226.361274 184.878149 
L 226.558088 165.617712 
L 226.966854 97.463961 
L 227.421039 36.029717 
L 227.595143 30.210155 
L 227.617852 30.349699 
L 227.701119 32.634585 
L 227.867654 45.124774 
L 228.170443 88.415245 
L 228.806302 178.535591 
L 228.965267 183.49877 
L 228.995546 183.3145 
L 229.086383 180.594456 
L 229.260487 166.825519 
L 229.585986 119.089629 
L 230.168856 37.955363 
L 230.33539 32.50123 
L 230.3581 32.602192 
L 230.433797 34.412907 
L 230.585192 44.576376 
L 230.857703 80.725465 
L 231.591968 183.021508 
L 231.713084 185.789914 
L 231.750933 185.441711 
L 231.849339 181.842473 
L 232.038583 164.714454 
L 232.401931 106.247596 
L 232.916674 32.634448 
L 233.090778 26.339056 
L 233.113487 26.440904 
L 233.189184 28.336786 
L 233.340579 39.065379 
L 233.61309 77.541792 
L 234.370065 191.194668 
L 234.483611 193.976094 
L 234.529029 193.528868 
L 234.635006 189.035087 
L 234.831819 168.812366 
L 235.217876 100.020743 
L 235.709909 25.139793 
L 235.884014 18.406101 
L 235.906723 18.514425 
L 235.98242 20.535943 
L 236.133815 31.972566 
L 236.406326 72.99507 
L 237.17844 196.743593 
L 237.291986 199.636364 
L 237.337405 199.158631 
L 237.443381 194.440866 
L 237.640194 173.32662 
L 238.026251 101.814847 
L 238.518285 23.807536 
L 238.699959 16.363636 
L 238.715098 16.412776 
L 238.783226 17.919013 
L 238.927051 27.787659 
L 239.184422 64.538703 
L 240.024664 196.071492 
L 240.107931 197.593899 
L 240.15335 197.119012 
L 240.259326 192.478884 
L 240.456139 171.832138 
L 240.849766 101.095106 
L 241.32666 29.113094 
L 241.508334 22.023906 
L 241.523474 22.073936 
L 241.591601 23.524666 
L 241.735426 32.942818 
L 241.992798 67.75615 
L 242.81033 187.959863 
L 242.901167 189.660944 
L 242.946586 189.217014 
L 243.052562 184.878149 
L 243.249375 165.617712 
L 243.658142 97.463961 
L 244.112326 36.029717 
L 244.28643 30.210155 
L 244.30914 30.349699 
L 244.392407 32.634585 
L 244.558941 45.124774 
L 244.861731 88.415245 
L 245.49759 178.535591 
L 245.656554 183.49877 
L 245.686833 183.3145 
L 245.77767 180.594456 
L 245.951774 166.825519 
L 246.277273 119.089629 
L 246.860144 37.955363 
L 247.026678 32.50123 
L 247.049387 32.602192 
L 247.125085 34.412907 
L 247.27648 44.576376 
L 247.54899 80.725465 
L 248.283256 183.021508 
L 248.404372 185.789914 
L 248.44222 185.441711 
L 248.540627 181.842473 
L 248.729871 164.714454 
L 249.093218 106.247596 
L 249.607961 32.634448 
L 249.782065 26.339056 
L 249.804774 26.440904 
L 249.880472 28.336786 
L 250.031867 39.065379 
L 250.304378 77.541792 
L 251.061352 191.194668 
L 251.174898 193.976094 
L 251.220317 193.528868 
L 251.326293 189.035087 
L 251.523107 168.812366 
L 251.909164 100.020743 
L 252.401197 25.139793 
L 252.575301 18.406101 
L 252.59801 18.514425 
L 252.673708 20.535943 
L 252.825103 31.972566 
L 253.097614 72.99507 
L 253.869727 196.743593 
L 253.983274 199.636364 
L 254.028692 199.158631 
L 254.134669 194.440866 
L 254.331482 173.32662 
L 254.717539 101.814847 
L 255.209572 23.807536 
L 255.391246 16.363636 
L 255.406386 16.412776 
L 255.474513 17.919013 
L 255.618339 27.787659 
L 255.87571 64.538703 
L 256.715952 196.071492 
L 256.799219 197.593899 
L 256.844637 197.119012 
L 256.950614 192.478884 
L 257.147427 171.832138 
L 257.541054 101.095106 
L 258.017948 29.113094 
L 258.199622 22.023906 
L 258.214761 22.073936 
L 258.282889 23.524666 
L 258.426714 32.942818 
L 258.684085 67.75615 
L 259.501618 187.959863 
L 259.592455 189.660944 
L 259.637873 189.217014 
L 259.74385 184.878149 
L 259.940663 165.617712 
L 260.349429 97.463961 
L 260.803614 36.029717 
L 260.977718 30.210155 
L 261.000427 30.349699 
L 261.083694 32.634585 
L 261.250229 45.124774 
L 261.553019 88.415245 
L 262.188877 178.535591 
L 262.347842 183.49877 
L 262.378121 183.3145 
L 262.468958 180.594456 
L 262.643062 166.825519 
L 262.968561 119.089629 
L 263.551431 37.955363 
L 263.717966 32.50123 
L 263.740675 32.602192 
L 263.816372 34.412907 
L 263.967767 44.576376 
L 264.240278 80.725465 
L 264.974543 183.021508 
L 265.095659 185.789914 
L 265.133508 185.441711 
L 265.231915 181.842473 
L 265.421158 164.714454 
L 265.784506 106.247596 
L 266.299249 32.634448 
L 266.473353 26.339056 
L 266.496062 26.440904 
L 266.571759 28.336786 
L 266.723154 39.065379 
L 266.995665 77.541792 
L 267.75264 191.194668 
L 267.866186 193.976094 
L 267.911604 193.528868 
L 268.017581 189.035087 
L 268.214394 168.812366 
L 268.600451 100.020743 
L 269.092485 25.139793 
L 269.266589 18.406101 
L 269.289298 18.514425 
L 269.364995 20.535943 
L 269.51639 31.972566 
L 269.788901 72.99507 
L 270.561015 196.743593 
L 270.674561 199.636364 
L 270.71998 199.158631 
L 270.825956 194.440866 
L 271.02277 173.32662 
L 271.408827 101.814847 
L 271.90086 23.807536 
L 272.082534 16.363636 
L 272.097673 16.412776 
L 272.165801 17.919013 
L 272.309626 27.787659 
L 272.566997 64.538703 
L 273.407239 196.071492 
L 273.490506 197.593899 
L 273.535925 197.119012 
L 273.641901 192.478884 
L 273.838715 171.832138 
L 274.232341 101.095106 
L 274.709235 29.113094 
L 274.890909 22.023906 
L 274.906049 22.073936 
L 274.974176 23.524666 
L 275.118002 32.942818 
L 275.375373 67.75615 
L 276.192905 187.959863 
L 276.283742 189.660944 
L 276.329161 189.217014 
L 276.435137 184.878149 
L 276.631951 165.617712 
L 277.040717 97.463961 
L 277.494901 36.029717 
L 277.669006 30.210155 
L 277.691715 30.349699 
L 277.774982 32.634585 
L 277.941516 45.124774 
L 278.244306 88.415245 
L 278.880165 178.535591 
L 279.039129 183.49877 
L 279.069408 183.3145 
L 279.160245 180.594456 
L 279.334349 166.825519 
L 279.659848 119.089629 
L 280.242719 37.955363 
L 280.409253 32.50123 
L 280.431962 32.602192 
L 280.50766 34.412907 
L 280.659055 44.576376 
L 280.931566 80.725465 
L 281.665831 183.021508 
L 281.786947 185.789914 
L 281.824796 185.441711 
L 281.923202 181.842473 
L 282.112446 164.714454 
L 282.475794 106.247596 
L 282.990536 32.634448 
L 283.16464 26.339056 
L 283.18735 26.440904 
L 283.263047 28.336786 
L 283.414442 39.065379 
L 283.686953 77.541792 
L 284.443927 191.194668 
L 284.557473 193.976094 
L 284.602892 193.528868 
L 284.708868 189.035087 
L 284.905682 168.812366 
L 285.291739 100.020743 
L 285.783772 25.139793 
L 285.957876 18.406101 
L 285.980586 18.514425 
L 286.056283 20.535943 
L 286.207678 31.972566 
L 286.480189 72.99507 
L 287.252303 196.743593 
L 287.365849 199.636364 
L 287.411267 199.158631 
L 287.517244 194.440866 
L 287.714057 173.32662 
L 288.100114 101.814847 
L 288.592148 23.807536 
L 288.773821 16.363636 
L 288.788961 16.412776 
L 288.857089 17.919013 
L 289.000914 27.787659 
L 289.258285 64.538703 
L 290.098527 196.071492 
L 290.181794 197.593899 
L 290.227212 197.119012 
L 290.333189 192.478884 
L 290.530002 171.832138 
L 290.923629 101.095106 
L 291.400523 29.113094 
L 291.582197 22.023906 
L 291.597336 22.073936 
L 291.665464 23.524666 
L 291.809289 32.942818 
L 292.06666 67.75615 
L 292.884193 187.959863 
L 292.97503 189.660944 
L 293.020448 189.217014 
L 293.126425 184.878149 
L 293.323238 165.617712 
L 293.732004 97.463961 
L 294.186189 36.029717 
L 294.360293 30.210155 
L 294.383002 30.349699 
L 294.46627 32.634585 
L 294.632804 45.124774 
L 294.935594 88.415245 
L 295.571452 178.535591 
L 295.730417 183.49877 
L 295.760696 183.3145 
L 295.851533 180.594456 
L 296.025637 166.825519 
L 296.351136 119.089629 
L 296.934006 37.955363 
L 297.100541 32.50123 
L 297.12325 32.602192 
L 297.198947 34.412907 
L 297.350342 44.576376 
L 297.622853 80.725465 
L 298.357118 183.021508 
L 298.478234 185.789914 
L 298.516083 185.441711 
L 298.61449 181.842473 
L 298.803733 164.714454 
L 299.167081 106.247596 
L 299.681824 32.634448 
L 299.855928 26.339056 
L 299.878637 26.440904 
L 299.954335 28.336786 
L 300.10573 39.065379 
L 300.37824 77.541792 
L 301.135215 191.194668 
L 301.248761 193.976094 
L 301.29418 193.528868 
L 301.400156 189.035087 
L 301.596969 168.812366 
L 301.983026 100.020743 
L 302.47506 25.139793 
L 302.649164 18.406101 
L 302.671873 18.514425 
L 302.747571 20.535943 
L 302.898965 31.972566 
L 303.171476 72.99507 
L 303.94359 196.743593 
L 304.057136 199.636364 
L 304.102555 199.158631 
L 304.208531 194.440866 
L 304.405345 173.32662 
L 304.791402 101.814847 
L 305.283435 23.807536 
L 305.465109 16.363636 
L 305.480248 16.412776 
L 305.548376 17.919013 
L 305.692201 27.787659 
L 305.949573 64.538703 
L 306.789814 196.071492 
L 306.873082 197.593899 
L 306.9185 197.119012 
L 307.024476 192.478884 
L 307.22129 171.832138 
L 307.614917 101.095106 
L 308.09181 29.113094 
L 308.273484 22.023906 
L 308.288624 22.073936 
L 308.356752 23.524666 
L 308.500577 32.942818 
L 308.757948 67.75615 
L 309.57548 187.959863 
L 309.666317 189.660944 
L 309.711736 189.217014 
L 309.817712 184.878149 
L 310.014526 165.617712 
L 310.423292 97.463961 
L 310.877477 36.029717 
L 311.051581 30.210155 
L 311.07429 30.349699 
L 311.157557 32.634585 
L 311.324092 45.124774 
L 311.626881 88.415245 
L 312.26274 178.535591 
L 312.421705 183.49877 
L 312.451984 183.3145 
L 312.54282 180.594456 
L 312.716925 166.825519 
L 313.042424 119.089629 
L 313.625294 37.955363 
L 313.791828 32.50123 
L 313.814538 32.602192 
L 313.890235 34.412907 
L 314.04163 44.576376 
L 314.314141 80.725465 
L 315.048406 183.021508 
L 315.169522 185.789914 
L 315.207371 185.441711 
L 315.305777 181.842473 
L 315.495021 164.714454 
L 315.858369 106.247596 
L 316.373111 32.634448 
L 316.547216 26.339056 
L 316.569925 26.440904 
L 316.645622 28.336786 
L 316.797017 39.065379 
L 317.069528 77.541792 
L 317.826502 191.194668 
L 317.940049 193.976094 
L 317.985467 193.528868 
L 318.091444 189.035087 
L 318.288257 168.812366 
L 318.674314 100.020743 
L 319.166347 25.139793 
L 319.340451 18.406101 
L 319.363161 18.514425 
L 319.438858 20.535943 
L 319.590253 31.972566 
L 319.862764 72.99507 
L 320.634878 196.743593 
L 320.748424 199.636364 
L 320.793842 199.158631 
L 320.899819 194.440866 
L 321.096632 173.32662 
L 321.482689 101.814847 
L 321.974723 23.807536 
L 322.156397 16.363636 
L 322.171536 16.412776 
L 322.239664 17.919013 
L 322.383489 27.787659 
L 322.64086 64.538703 
L 323.481102 196.071492 
L 323.564369 197.593899 
L 323.609788 197.119012 
L 323.715764 192.478884 
L 323.912577 171.832138 
L 324.306204 101.095106 
L 324.783098 29.113094 
L 324.964772 22.023906 
L 324.979911 22.073936 
L 325.048039 23.524666 
L 325.191864 32.942818 
L 325.449236 67.75615 
L 326.266768 187.959863 
L 326.357605 189.660944 
L 326.403023 189.217014 
L 326.509 184.878149 
L 326.705813 165.617712 
L 327.114579 97.463961 
L 327.568764 36.029717 
L 327.742868 30.210155 
L 327.765578 30.349699 
L 327.848845 32.634585 
L 328.015379 45.124774 
L 328.318169 88.415245 
L 328.954027 178.535591 
L 329.112992 183.49877 
L 329.143271 183.3145 
L 329.234108 180.594456 
L 329.408212 166.825519 
L 329.733711 119.089629 
L 330.316582 37.955363 
L 330.483116 32.50123 
L 330.505825 32.602192 
L 330.581523 34.412907 
L 330.732918 44.576376 
L 331.005428 80.725465 
L 331.739694 183.021508 
L 331.86081 185.789914 
L 331.898658 185.441711 
L 331.997065 181.842473 
L 332.186309 164.714454 
L 332.549656 106.247596 
L 333.064399 32.634448 
L 333.238503 26.339056 
L 333.261212 26.440904 
L 333.33691 28.336786 
L 333.488305 39.065379 
L 333.760816 77.541792 
L 334.51779 191.194668 
L 334.631336 193.976094 
L 334.676755 193.528868 
L 334.782731 189.035087 
L 334.979544 168.812366 
L 335.365601 100.020743 
L 335.857635 25.139793 
L 336.031739 18.406101 
L 336.054448 18.514425 
L 336.130146 20.535943 
L 336.281541 31.972566 
L 336.554051 72.99507 
L 337.326165 196.743593 
L 337.439712 199.636364 
L 337.48513 199.158631 
L 337.591106 194.440866 
L 337.78792 173.32662 
L 338.173977 101.814847 
L 338.66601 23.807536 
L 338.847684 16.363636 
L 338.862824 16.412776 
L 338.930951 17.919013 
L 339.074776 27.787659 
L 339.332148 64.538703 
L 340.172389 196.071492 
L 340.255657 197.593899 
L 340.301075 197.119012 
L 340.407052 192.478884 
L 340.603865 171.832138 
L 340.997492 101.095106 
L 341.474386 29.113094 
L 341.656059 22.023906 
L 341.671199 22.073936 
L 341.739327 23.524666 
L 341.883152 32.942818 
L 342.140523 67.75615 
L 342.958056 187.959863 
L 343.048893 189.660944 
L 343.094311 189.217014 
L 343.200287 184.878149 
L 343.397101 165.617712 
L 343.805867 97.463961 
L 344.260052 36.029717 
L 344.434156 30.210155 
L 344.456865 30.349699 
L 344.540132 32.634585 
L 344.706667 45.124774 
L 345.009456 88.415245 
L 345.645315 178.535591 
L 345.80428 183.49877 
L 345.834559 183.3145 
L 345.925396 180.594456 
L 346.0995 166.825519 
L 346.424999 119.089629 
L 347.007869 37.955363 
L 347.174404 32.50123 
L 347.197113 32.602192 
L 347.27281 34.412907 
L 347.424205 44.576376 
L 347.696716 80.725465 
L 348.430981 183.021508 
L 348.552097 185.789914 
L 348.589946 185.441711 
L 348.688353 181.842473 
L 348.877596 164.714454 
L 349.240944 106.247596 
L 349.755687 32.634448 
L 349.929791 26.339056 
L 349.9525 26.440904 
L 350.028197 28.336786 
L 350.179592 39.065379 
L 350.452103 77.541792 
L 351.209078 191.194668 
L 351.322624 193.976094 
L 351.368042 193.528868 
L 351.474019 189.035087 
L 351.670832 168.812366 
L 352.056889 100.020743 
L 352.548922 25.139793 
L 352.723027 18.406101 
L 352.745736 18.514425 
L 352.821433 20.535943 
L 352.972828 31.972566 
L 353.245339 72.99507 
L 354.017453 196.743593 
L 354.130999 199.636364 
L 354.176418 199.158631 
L 354.282394 194.440866 
L 354.479207 173.32662 
L 354.865264 101.814847 
L 355.357298 23.807536 
L 355.538972 16.363636 
L 355.554111 16.412776 
L 355.622239 17.919013 
L 355.766064 27.787659 
L 356.023435 64.538703 
L 356.863677 196.071492 
L 356.946944 197.593899 
L 356.992363 197.119012 
L 357.098339 192.478884 
L 357.295153 171.832138 
L 357.688779 101.095106 
L 358.165673 29.113094 
L 358.347347 22.023906 
L 358.362487 22.073936 
L 358.430614 23.524666 
L 358.574439 32.942818 
L 358.831811 67.75615 
L 359.649343 187.959863 
L 359.74018 189.660944 
L 359.785599 189.217014 
L 359.891575 184.878149 
L 360.088388 165.617712 
L 360.497155 97.463961 
L 360.951339 36.029717 
L 361.125443 30.210155 
L 361.148153 30.349699 
L 361.23142 32.634585 
L 361.397954 45.124774 
L 361.700744 88.415245 
L 362.336603 178.535591 
L 362.495567 183.49877 
L 362.525846 183.3145 
L 362.616683 180.594456 
L 362.790787 166.825519 
L 363.116286 119.089629 
L 363.699157 37.955363 
L 363.865691 32.50123 
L 363.8884 32.602192 
L 363.964098 34.412907 
L 364.115493 44.576376 
L 364.388004 80.725465 
L 365.122269 183.021508 
L 365.243385 185.789914 
L 365.281233 185.441711 
L 365.37964 181.842473 
L 365.568884 164.714454 
L 365.932231 106.247596 
L 366.446974 32.634448 
L 366.621078 26.339056 
L 366.643788 26.440904 
L 366.719485 28.336786 
L 366.87088 39.065379 
L 367.143391 77.541792 
L 367.900365 191.194668 
L 368.013911 193.976094 
L 368.05933 193.528868 
L 368.165306 189.035087 
L 368.36212 168.812366 
L 368.748177 100.020743 
L 369.24021 25.139793 
L 369.414314 18.406101 
L 369.437023 18.514425 
L 369.512721 20.535943 
L 369.664116 31.972566 
L 369.936627 72.99507 
L 370.708741 196.743593 
L 370.822287 199.636364 
L 370.867705 199.158631 
L 370.973682 194.440866 
L 371.170495 173.32662 
L 371.556552 101.814847 
L 372.048585 23.807536 
L 372.230259 16.363636 
L 372.245399 16.412776 
L 372.313526 17.919013 
L 372.457352 27.787659 
L 372.714723 64.538703 
L 373.554965 196.071492 
L 373.638232 197.593899 
L 373.68365 197.119012 
L 373.789627 192.478884 
L 373.98644 171.832138 
L 374.380067 101.095106 
L 374.856961 29.113094 
L 375.038635 22.023906 
L 375.053774 22.073936 
L 375.121902 23.524666 
L 375.265727 32.942818 
L 375.523098 67.75615 
L 376.340631 187.959863 
L 376.431468 189.660944 
L 376.476886 189.217014 
L 376.582863 184.878149 
L 376.779676 165.617712 
L 377.188442 97.463961 
L 377.642627 36.029717 
L 377.816731 30.210155 
L 377.83944 30.349699 
L 377.922707 32.634585 
L 378.089242 45.124774 
L 378.392032 88.415245 
L 379.02789 178.535591 
L 379.186855 183.49877 
L 379.217134 183.3145 
L 379.307971 180.594456 
L 379.482075 166.825519 
L 379.807574 119.089629 
L 380.390444 37.955363 
L 380.556979 32.50123 
L 380.579688 32.602192 
L 380.655385 34.412907 
L 380.80678 44.576376 
L 381.079291 80.725465 
L 381.813556 183.021508 
L 381.934672 185.789914 
L 381.972521 185.441711 
L 382.070928 181.842473 
L 382.260171 164.714454 
L 382.623519 106.247596 
L 383.138262 32.634448 
L 383.312366 26.339056 
L 383.335075 26.440904 
L 383.410773 28.336786 
L 383.562167 39.065379 
L 383.834678 77.541792 
L 384.591653 191.194668 
L 384.705199 193.976094 
L 384.750617 193.528868 
L 384.856594 189.035087 
L 385.053407 168.812366 
L 385.439464 100.020743 
L 385.931498 25.139793 
L 386.105602 18.406101 
L 386.128311 18.514425 
L 386.204008 20.535943 
L 386.355403 31.972566 
L 386.627914 72.99507 
L 387.400028 196.743593 
L 387.513574 199.636364 
L 387.558993 199.158631 
L 387.664969 194.440866 
L 387.861783 173.32662 
L 388.24784 101.814847 
L 388.739873 23.807536 
L 388.921547 16.363636 
L 388.936686 16.412776 
L 389.004814 17.919013 
L 389.148639 27.787659 
L 389.406011 64.538703 
L 390.246252 196.071492 
L 390.329519 197.593899 
L 390.374938 197.119012 
L 390.480914 192.478884 
L 390.677728 171.832138 
L 391.071354 101.095106 
L 391.548248 29.113094 
L 391.729922 22.023906 
L 391.745062 22.073936 
L 391.813189 23.524666 
L 391.957015 32.942818 
L 392.214386 67.75615 
L 393.031918 187.959863 
L 393.122755 189.660944 
L 393.168174 189.217014 
L 393.27415 184.878149 
L 393.470964 165.617712 
L 393.87973 97.463961 
L 394.333914 36.029717 
L 394.508019 30.210155 
L 394.530728 30.349699 
L 394.613995 32.634585 
L 394.780529 45.124774 
L 395.083319 88.415245 
L 395.719178 178.535591 
L 395.878142 183.49877 
L 395.908421 183.3145 
L 395.999258 180.594456 
L 396.173363 166.825519 
L 396.498862 119.089629 
L 397.081732 37.955363 
L 397.248266 32.50123 
L 397.270976 32.602192 
L 397.346673 34.412907 
L 397.498068 44.576376 
L 397.770579 80.725465 
L 398.504844 183.021508 
L 398.62596 185.789914 
L 398.663809 185.441711 
L 398.762215 181.842473 
L 398.951459 164.714454 
L 399.314807 106.247596 
L 399.829549 32.634448 
L 400.003653 26.339056 
L 400.026363 26.440904 
L 400.10206 28.336786 
L 400.253455 39.065379 
L 400.525966 77.541792 
L 401.28294 191.194668 
L 401.396487 193.976094 
L 401.441905 193.528868 
L 401.547881 189.035087 
L 401.744695 168.812366 
L 402.130752 100.020743 
L 402.622785 25.139793 
L 402.796889 18.406101 
L 402.819599 18.514425 
L 402.895296 20.535943 
L 403.046691 31.972566 
L 403.319202 72.99507 
L 404.091316 196.743593 
L 404.204862 199.636364 
L 404.25028 199.158631 
L 404.356257 194.440866 
L 404.55307 173.32662 
L 404.901278 109.547392 
L 404.901278 109.547392 
" style="fill:none;stroke:#1f77b4;stroke-linecap:square;stroke-width:1.5;"/>
   </g>
   <g id="patch_3">
    <path d="M 54.392188 208.8 
L 54.392188 7.2 
" style="fill:none;stroke:#000000;stroke-linecap:square;stroke-linejoin:miter;stroke-width:0.8;"/>
   </g>
   <g id="patch_4">
    <path d="M 421.592187 208.8 
L 421.592187 7.2 
" style="fill:none;stroke:#000000;stroke-linecap:square;stroke-linejoin:miter;stroke-width:0.8;"/>
   </g>
   <g id="patch_5">
    <path d="M 54.392188 208.8 
L 421.592187 208.8 
" style="fill:none;stroke:#000000;stroke-linecap:square;stroke-linejoin:miter;stroke-width:0.8;"/>
   </g>
   <g id="patch_6">
    <path d="M 54.392188 7.2 
L 421.592187 7.2 
" style="fill:none;stroke:#000000;stroke-linecap:square;stroke-linejoin:miter;stroke-width:0.8;"/>
   </g>
   <g id="legend_1">
    <g id="patch_7">
     <path d="M 74.752188 273.312 
L 212.219375 273.312 
Q 214.219375 273.312 214.219375 271.312 
L 214.219375 235.23825 
Q 214.219375 233.23825 212.219375 233.23825 
L 74.752188 233.23825 
Q 72.752188 233.23825 72.752188 235.23825 
L 72.752188 271.312 
Q 72.752188 273.312 74.752188 273.312 
z
" style="fill:#ffffff;opacity:0.8;stroke:#cccccc;stroke-linejoin:miter;"/>
    </g>
    <g id="line2d_13">
     <path d="M 76.752188 253.574344 
L 96.752188 253.574344 
" style="fill:none;stroke:#1f77b4;stroke-linecap:square;stroke-width:1.5;"/>
    </g>
    <g id="line2d_14"/>
    <g id="text_13">
     <!-- Another length -->
     <g transform="translate(104.752188 244.836687)scale(0.1 -0.1)">
      <defs>
       <path d="M 34.1875 63.1875 
L 20.796875 26.90625 
L 47.609375 26.90625 
z
M 28.609375 72.90625 
L 39.796875 72.90625 
L 67.578125 0 
L 57.328125 0 
L 50.6875 18.703125 
L 17.828125 18.703125 
L 11.1875 0 
L 0.78125 0 
z
" id="DejaVuSans-65"/>
       <path d="M 54.890625 33.015625 
L 54.890625 0 
L 45.90625 0 
L 45.90625 32.71875 
Q 45.90625 40.484375 42.875 44.328125 
Q 39.84375 48.1875 33.796875 48.1875 
Q 26.515625 48.1875 22.3125 43.546875 
Q 18.109375 38.921875 18.109375 30.90625 
L 18.109375 0 
L 9.078125 0 
L 9.078125 54.6875 
L 18.109375 54.6875 
L 18.109375 46.1875 
Q 21.34375 51.125 25.703125 53.5625 
Q 30.078125 56 35.796875 56 
Q 45.21875 56 50.046875 50.171875 
Q 54.890625 44.34375 54.890625 33.015625 
z
" id="DejaVuSans-110"/>
       <path d="M 30.609375 48.390625 
Q 23.390625 48.390625 19.1875 42.75 
Q 14.984375 37.109375 14.984375 27.296875 
Q 14.984375 17.484375 19.15625 11.84375 
Q 23.34375 6.203125 30.609375 6.203125 
Q 37.796875 6.203125 41.984375 11.859375 
Q 46.1875 17.53125 46.1875 27.296875 
Q 46.1875 37.015625 41.984375 42.703125 
Q 37.796875 48.390625 30.609375 48.390625 
z
M 30.609375 56 
Q 42.328125 56 49.015625 48.375 
Q 55.71875 40.765625 55.71875 27.296875 
Q 55.71875 13.875 49.015625 6.21875 
Q 42.328125 -1.421875 30.609375 -1.421875 
Q 18.84375 -1.421875 12.171875 6.21875 
Q 5.515625 13.875 5.515625 27.296875 
Q 5.515625 40.765625 12.171875 48.375 
Q 18.84375 56 30.609375 56 
z
" id="DejaVuSans-111"/>
       <path d="M 18.3125 70.21875 
L 18.3125 54.6875 
L 36.8125 54.6875 
L 36.8125 47.703125 
L 18.3125 47.703125 
L 18.3125 18.015625 
Q 18.3125 11.328125 20.140625 9.421875 
Q 21.96875 7.515625 27.59375 7.515625 
L 36.8125 7.515625 
L 36.8125 0 
L 27.59375 0 
Q 17.1875 0 13.234375 3.875 
Q 9.28125 7.765625 9.28125 18.015625 
L 9.28125 47.703125 
L 2.6875 47.703125 
L 2.6875 54.6875 
L 9.28125 54.6875 
L 9.28125 70.21875 
z
" id="DejaVuSans-116"/>
       <path d="M 54.890625 33.015625 
L 54.890625 0 
L 45.90625 0 
L 45.90625 32.71875 
Q 45.90625 40.484375 42.875 44.328125 
Q 39.84375 48.1875 33.796875 48.1875 
Q 26.515625 48.1875 22.3125 43.546875 
Q 18.109375 38.921875 18.109375 30.90625 
L 18.109375 0 
L 9.078125 0 
L 9.078125 75.984375 
L 18.109375 75.984375 
L 18.109375 46.1875 
Q 21.34375 51.125 25.703125 53.5625 
Q 30.078125 56 35.796875 56 
Q 45.21875 56 50.046875 50.171875 
Q 54.890625 44.34375 54.890625 33.015625 
z
" id="DejaVuSans-104"/>
       <path d="M 41.109375 46.296875 
Q 39.59375 47.171875 37.8125 47.578125 
Q 36.03125 48 33.890625 48 
Q 26.265625 48 22.1875 43.046875 
Q 18.109375 38.09375 18.109375 28.8125 
L 18.109375 0 
L 9.078125 0 
L 9.078125 54.6875 
L 18.109375 54.6875 
L 18.109375 46.1875 
Q 20.953125 51.171875 25.484375 53.578125 
Q 30.03125 56 36.53125 56 
Q 37.453125 56 38.578125 55.875 
Q 39.703125 55.765625 41.0625 55.515625 
z
" id="DejaVuSans-114"/>
       <path d="M 9.421875 75.984375 
L 18.40625 75.984375 
L 18.40625 0 
L 9.421875 0 
z
" id="DejaVuSans-108"/>
       <path d="M 45.40625 27.984375 
Q 45.40625 37.75 41.375 43.109375 
Q 37.359375 48.484375 30.078125 48.484375 
Q 22.859375 48.484375 18.828125 43.109375 
Q 14.796875 37.75 14.796875 27.984375 
Q 14.796875 18.265625 18.828125 12.890625 
Q 22.859375 7.515625 30.078125 7.515625 
Q 37.359375 7.515625 41.375 12.890625 
Q 45.40625 18.265625 45.40625 27.984375 
z
M 54.390625 6.78125 
Q 54.390625 -7.171875 48.1875 -13.984375 
Q 42 -20.796875 29.203125 -20.796875 
Q 24.46875 -20.796875 20.265625 -20.09375 
Q 16.0625 -19.390625 12.109375 -17.921875 
L 12.109375 -9.1875 
Q 16.0625 -11.328125 19.921875 -12.34375 
Q 23.78125 -13.375 27.78125 -13.375 
Q 36.625 -13.375 41.015625 -8.765625 
Q 45.40625 -4.15625 45.40625 5.171875 
L 45.40625 9.625 
Q 42.625 4.78125 38.28125 2.390625 
Q 33.9375 0 27.875 0 
Q 17.828125 0 11.671875 7.65625 
Q 5.515625 15.328125 5.515625 27.984375 
Q 5.515625 40.671875 11.671875 48.328125 
Q 17.828125 56 27.875 56 
Q 33.9375 56 38.28125 53.609375 
Q 42.625 51.21875 45.40625 46.390625 
L 45.40625 54.6875 
L 54.390625 54.6875 
z
" id="DejaVuSans-103"/>
      </defs>
      <use xlink:href="#DejaVuSans-65"/>
      <use x="68.408203" xlink:href="#DejaVuSans-110"/>
      <use x="131.787109" xlink:href="#DejaVuSans-111"/>
      <use x="192.96875" xlink:href="#DejaVuSans-116"/>
      <use x="232.177734" xlink:href="#DejaVuSans-104"/>
      <use x="295.556641" xlink:href="#DejaVuSans-101"/>
      <use x="357.080078" xlink:href="#DejaVuSans-114"/>
      <use x="398.193359" xlink:href="#DejaVuSans-32"/>
      <use x="429.980469" xlink:href="#DejaVuSans-108"/>
      <use x="457.763672" xlink:href="#DejaVuSans-101"/>
      <use x="519.287109" xlink:href="#DejaVuSans-110"/>
      <use x="582.666016" xlink:href="#DejaVuSans-103"/>
      <use x="646.142578" xlink:href="#DejaVuSans-116"/>
      <use x="685.351562" xlink:href="#DejaVuSans-104"/>
     </g>
     <!--  + A length -->
     <g transform="translate(104.752188 256.0345)scale(0.1 -0.1)">
      <defs>
       <path d="M 46 62.703125 
L 46 35.5 
L 73.1875 35.5 
L 73.1875 27.203125 
L 46 27.203125 
L 46 0 
L 37.796875 0 
L 37.796875 27.203125 
L 10.59375 27.203125 
L 10.59375 35.5 
L 37.796875 35.5 
L 37.796875 62.703125 
z
" id="DejaVuSans-43"/>
      </defs>
      <use xlink:href="#DejaVuSans-32"/>
      <use x="31.787109" xlink:href="#DejaVuSans-43"/>
      <use x="115.576172" xlink:href="#DejaVuSans-32"/>
      <use x="147.363281" xlink:href="#DejaVuSans-65"/>
      <use x="215.771484" xlink:href="#DejaVuSans-32"/>
      <use x="247.558594" xlink:href="#DejaVuSans-108"/>
      <use x="275.341797" xlink:href="#DejaVuSans-101"/>
      <use x="336.865234" xlink:href="#DejaVuSans-110"/>
      <use x="400.244141" xlink:href="#DejaVuSans-103"/>
      <use x="463.720703" xlink:href="#DejaVuSans-116"/>
      <use x="502.929688" xlink:href="#DejaVuSans-104"/>
     </g>
     <!--  - -&gt;Unit to mm [mm] -->
     <g transform="translate(104.752188 267.232312)scale(0.1 -0.1)">
      <defs>
       <path d="M 4.890625 31.390625 
L 31.203125 31.390625 
L 31.203125 23.390625 
L 4.890625 23.390625 
z
" id="DejaVuSans-45"/>
       <path d="M 10.59375 49.21875 
L 10.59375 58.109375 
L 73.1875 35.40625 
L 73.1875 27.296875 
L 10.59375 4.59375 
L 10.59375 13.484375 
L 60.890625 31.296875 
z
" id="DejaVuSans-62"/>
       <path d="M 8.6875 72.90625 
L 18.609375 72.90625 
L 18.609375 28.609375 
Q 18.609375 16.890625 22.84375 11.734375 
Q 27.09375 6.59375 36.625 6.59375 
Q 46.09375 6.59375 50.34375 11.734375 
Q 54.59375 16.890625 54.59375 28.609375 
L 54.59375 72.90625 
L 64.5 72.90625 
L 64.5 27.390625 
Q 64.5 13.140625 57.4375 5.859375 
Q 50.390625 -1.421875 36.625 -1.421875 
Q 22.796875 -1.421875 15.734375 5.859375 
Q 8.6875 13.140625 8.6875 27.390625 
z
" id="DejaVuSans-85"/>
       <path d="M 8.59375 75.984375 
L 29.296875 75.984375 
L 29.296875 69 
L 17.578125 69 
L 17.578125 -6.203125 
L 29.296875 -6.203125 
L 29.296875 -13.1875 
L 8.59375 -13.1875 
z
" id="DejaVuSans-91"/>
       <path d="M 30.421875 75.984375 
L 30.421875 -13.1875 
L 9.71875 -13.1875 
L 9.71875 -6.203125 
L 21.390625 -6.203125 
L 21.390625 69 
L 9.71875 69 
L 9.71875 75.984375 
z
" id="DejaVuSans-93"/>
      </defs>
      <use xlink:href="#DejaVuSans-32"/>
      <use x="31.787109" xlink:href="#DejaVuSans-45"/>
      <use x="67.871094" xlink:href="#DejaVuSans-45"/>
      <use x="103.955078" xlink:href="#DejaVuSans-62"/>
      <use x="187.744141" xlink:href="#DejaVuSans-85"/>
      <use x="260.9375" xlink:href="#DejaVuSans-110"/>
      <use x="324.316406" xlink:href="#DejaVuSans-105"/>
      <use x="352.099609" xlink:href="#DejaVuSans-116"/>
      <use x="391.308594" xlink:href="#DejaVuSans-32"/>
      <use x="423.095703" xlink:href="#DejaVuSans-116"/>
      <use x="462.304688" xlink:href="#DejaVuSans-111"/>
      <use x="523.486328" xlink:href="#DejaVuSans-32"/>
      <use x="555.273438" xlink:href="#DejaVuSans-109"/>
      <use x="652.685547" xlink:href="#DejaVuSans-109"/>
      <use x="750.097656" xlink:href="#DejaVuSans-32"/>
      <use x="781.884766" xlink:href="#DejaVuSans-91"/>
      <use x="820.898438" xlink:href="#DejaVuSans-109"/>
      <use x="918.310547" xlink:href="#DejaVuSans-109"/>
      <use x="1015.722656" xlink:href="#DejaVuSans-93"/>
     </g>
    </g>
   </g>
  </g>
 </g>
 <defs>
  <clipPath id="p777f0fefeb">
   <rect height="201.6" width="367.2" x="54.392188" y="7.2"/>
  </clipPath>
 </defs>
</svg>
