<?xml version="1.0" encoding="utf-8" standalone="no"?>
<!DOCTYPE svg PUBLIC "-//W3C//DTD SVG 1.1//EN"
  "http://www.w3.org/Graphics/SVG/1.1/DTD/svg11.dtd">
<!-- Created with matplotlib (https://matplotlib.org/) -->
<svg height="280.512pt" version="1.1" viewBox="0 0 403.342187 280.512" width="403.342187pt" xmlns="http://www.w3.org/2000/svg" xmlns:xlink="http://www.w3.org/1999/xlink">
 <metadata>
  <rdf:RDF xmlns:cc="http://creativecommons.org/ns#" xmlns:dc="http://purl.org/dc/elements/1.1/" xmlns:rdf="http://www.w3.org/1999/02/22-rdf-syntax-ns#">
   <cc:Work>
    <dc:type rdf:resource="http://purl.org/dc/dcmitype/StillImage"/>
    <dc:date>2021-06-16T21:57:20.114260</dc:date>
    <dc:format>image/svg+xml</dc:format>
    <dc:creator>
     <cc:Agent>
      <dc:title>Matplotlib v3.3.4, https://matplotlib.org/</dc:title>
     </cc:Agent>
    </dc:creator>
   </cc:Work>
  </rdf:RDF>
 </metadata>
 <defs>
  <style type="text/css">*{stroke-linecap:butt;stroke-linejoin:round;}</style>
 </defs>
 <g id="figure_1">
  <g id="patch_1">
   <path d="M -0 280.512 
L 403.342187 280.512 
L 403.342187 0 
L -0 0 
z
" style="fill:none;"/>
  </g>
  <g id="axes_1">
   <g id="patch_2">
    <path d="M 28.942188 208.8 
L 396.142187 208.8 
L 396.142187 7.2 
L 28.942188 7.2 
z
" style="fill:#ffffff;"/>
   </g>
   <g id="matplotlib.axis_1">
    <g id="xtick_1">
     <g id="line2d_1">
      <defs>
       <path d="M 0 0 
L 0 3.5 
" id="m827ceacd88" style="stroke:#000000;stroke-width:0.8;"/>
      </defs>
      <g>
       <use style="stroke:#000000;stroke-width:0.8;" x="45.633097" xlink:href="#m827ceacd88" y="208.8"/>
      </g>
     </g>
     <g id="text_1">
      <!-- 0.0 -->
      <g transform="translate(37.681534 223.398437)scale(0.1 -0.1)">
       <defs>
        <path d="M 31.78125 66.40625 
Q 24.171875 66.40625 20.328125 58.90625 
Q 16.5 51.421875 16.5 36.375 
Q 16.5 21.390625 20.328125 13.890625 
Q 24.171875 6.390625 31.78125 6.390625 
Q 39.453125 6.390625 43.28125 13.890625 
Q 47.125 21.390625 47.125 36.375 
Q 47.125 51.421875 43.28125 58.90625 
Q 39.453125 66.40625 31.78125 66.40625 
z
M 31.78125 74.21875 
Q 44.046875 74.21875 50.515625 64.515625 
Q 56.984375 54.828125 56.984375 36.375 
Q 56.984375 17.96875 50.515625 8.265625 
Q 44.046875 -1.421875 31.78125 -1.421875 
Q 19.53125 -1.421875 13.0625 8.265625 
Q 6.59375 17.96875 6.59375 36.375 
Q 6.59375 54.828125 13.0625 64.515625 
Q 19.53125 74.21875 31.78125 74.21875 
z
" id="DejaVuSans-48"/>
        <path d="M 10.6875 12.40625 
L 21 12.40625 
L 21 0 
L 10.6875 0 
z
" id="DejaVuSans-46"/>
       </defs>
       <use xlink:href="#DejaVuSans-48"/>
       <use x="63.623047" xlink:href="#DejaVuSans-46"/>
       <use x="95.410156" xlink:href="#DejaVuSans-48"/>
      </g>
     </g>
    </g>
    <g id="xtick_2">
     <g id="line2d_2">
      <g>
       <use style="stroke:#000000;stroke-width:0.8;" x="112.396733" xlink:href="#m827ceacd88" y="208.8"/>
      </g>
     </g>
     <g id="text_2">
      <!-- 0.2 -->
      <g transform="translate(104.44517 223.398437)scale(0.1 -0.1)">
       <defs>
        <path d="M 19.1875 8.296875 
L 53.609375 8.296875 
L 53.609375 0 
L 7.328125 0 
L 7.328125 8.296875 
Q 12.9375 14.109375 22.625 23.890625 
Q 32.328125 33.6875 34.8125 36.53125 
Q 39.546875 41.84375 41.421875 45.53125 
Q 43.3125 49.21875 43.3125 52.78125 
Q 43.3125 58.59375 39.234375 62.25 
Q 35.15625 65.921875 28.609375 65.921875 
Q 23.96875 65.921875 18.8125 64.3125 
Q 13.671875 62.703125 7.8125 59.421875 
L 7.8125 69.390625 
Q 13.765625 71.78125 18.9375 73 
Q 24.125 74.21875 28.421875 74.21875 
Q 39.75 74.21875 46.484375 68.546875 
Q 53.21875 62.890625 53.21875 53.421875 
Q 53.21875 48.921875 51.53125 44.890625 
Q 49.859375 40.875 45.40625 35.40625 
Q 44.1875 33.984375 37.640625 27.21875 
Q 31.109375 20.453125 19.1875 8.296875 
z
" id="DejaVuSans-50"/>
       </defs>
       <use xlink:href="#DejaVuSans-48"/>
       <use x="63.623047" xlink:href="#DejaVuSans-46"/>
       <use x="95.410156" xlink:href="#DejaVuSans-50"/>
      </g>
     </g>
    </g>
    <g id="xtick_3">
     <g id="line2d_3">
      <g>
       <use style="stroke:#000000;stroke-width:0.8;" x="179.160369" xlink:href="#m827ceacd88" y="208.8"/>
      </g>
     </g>
     <g id="text_3">
      <!-- 0.4 -->
      <g transform="translate(171.208807 223.398437)scale(0.1 -0.1)">
       <defs>
        <path d="M 37.796875 64.3125 
L 12.890625 25.390625 
L 37.796875 25.390625 
z
M 35.203125 72.90625 
L 47.609375 72.90625 
L 47.609375 25.390625 
L 58.015625 25.390625 
L 58.015625 17.1875 
L 47.609375 17.1875 
L 47.609375 0 
L 37.796875 0 
L 37.796875 17.1875 
L 4.890625 17.1875 
L 4.890625 26.703125 
z
" id="DejaVuSans-52"/>
       </defs>
       <use xlink:href="#DejaVuSans-48"/>
       <use x="63.623047" xlink:href="#DejaVuSans-46"/>
       <use x="95.410156" xlink:href="#DejaVuSans-52"/>
      </g>
     </g>
    </g>
    <g id="xtick_4">
     <g id="line2d_4">
      <g>
       <use style="stroke:#000000;stroke-width:0.8;" x="245.924006" xlink:href="#m827ceacd88" y="208.8"/>
      </g>
     </g>
     <g id="text_4">
      <!-- 0.6 -->
      <g transform="translate(237.972443 223.398437)scale(0.1 -0.1)">
       <defs>
        <path d="M 33.015625 40.375 
Q 26.375 40.375 22.484375 35.828125 
Q 18.609375 31.296875 18.609375 23.390625 
Q 18.609375 15.53125 22.484375 10.953125 
Q 26.375 6.390625 33.015625 6.390625 
Q 39.65625 6.390625 43.53125 10.953125 
Q 47.40625 15.53125 47.40625 23.390625 
Q 47.40625 31.296875 43.53125 35.828125 
Q 39.65625 40.375 33.015625 40.375 
z
M 52.59375 71.296875 
L 52.59375 62.3125 
Q 48.875 64.0625 45.09375 64.984375 
Q 41.3125 65.921875 37.59375 65.921875 
Q 27.828125 65.921875 22.671875 59.328125 
Q 17.53125 52.734375 16.796875 39.40625 
Q 19.671875 43.65625 24.015625 45.921875 
Q 28.375 48.1875 33.59375 48.1875 
Q 44.578125 48.1875 50.953125 41.515625 
Q 57.328125 34.859375 57.328125 23.390625 
Q 57.328125 12.15625 50.6875 5.359375 
Q 44.046875 -1.421875 33.015625 -1.421875 
Q 20.359375 -1.421875 13.671875 8.265625 
Q 6.984375 17.96875 6.984375 36.375 
Q 6.984375 53.65625 15.1875 63.9375 
Q 23.390625 74.21875 37.203125 74.21875 
Q 40.921875 74.21875 44.703125 73.484375 
Q 48.484375 72.75 52.59375 71.296875 
z
" id="DejaVuSans-54"/>
       </defs>
       <use xlink:href="#DejaVuSans-48"/>
       <use x="63.623047" xlink:href="#DejaVuSans-46"/>
       <use x="95.410156" xlink:href="#DejaVuSans-54"/>
      </g>
     </g>
    </g>
    <g id="xtick_5">
     <g id="line2d_5">
      <g>
       <use style="stroke:#000000;stroke-width:0.8;" x="312.687642" xlink:href="#m827ceacd88" y="208.8"/>
      </g>
     </g>
     <g id="text_5">
      <!-- 0.8 -->
      <g transform="translate(304.73608 223.398437)scale(0.1 -0.1)">
       <defs>
        <path d="M 31.78125 34.625 
Q 24.75 34.625 20.71875 30.859375 
Q 16.703125 27.09375 16.703125 20.515625 
Q 16.703125 13.921875 20.71875 10.15625 
Q 24.75 6.390625 31.78125 6.390625 
Q 38.8125 6.390625 42.859375 10.171875 
Q 46.921875 13.96875 46.921875 20.515625 
Q 46.921875 27.09375 42.890625 30.859375 
Q 38.875 34.625 31.78125 34.625 
z
M 21.921875 38.8125 
Q 15.578125 40.375 12.03125 44.71875 
Q 8.5 49.078125 8.5 55.328125 
Q 8.5 64.0625 14.71875 69.140625 
Q 20.953125 74.21875 31.78125 74.21875 
Q 42.671875 74.21875 48.875 69.140625 
Q 55.078125 64.0625 55.078125 55.328125 
Q 55.078125 49.078125 51.53125 44.71875 
Q 48 40.375 41.703125 38.8125 
Q 48.828125 37.15625 52.796875 32.3125 
Q 56.78125 27.484375 56.78125 20.515625 
Q 56.78125 9.90625 50.3125 4.234375 
Q 43.84375 -1.421875 31.78125 -1.421875 
Q 19.734375 -1.421875 13.25 4.234375 
Q 6.78125 9.90625 6.78125 20.515625 
Q 6.78125 27.484375 10.78125 32.3125 
Q 14.796875 37.15625 21.921875 38.8125 
z
M 18.3125 54.390625 
Q 18.3125 48.734375 21.84375 45.5625 
Q 25.390625 42.390625 31.78125 42.390625 
Q 38.140625 42.390625 41.71875 45.5625 
Q 45.3125 48.734375 45.3125 54.390625 
Q 45.3125 60.0625 41.71875 63.234375 
Q 38.140625 66.40625 31.78125 66.40625 
Q 25.390625 66.40625 21.84375 63.234375 
Q 18.3125 60.0625 18.3125 54.390625 
z
" id="DejaVuSans-56"/>
       </defs>
       <use xlink:href="#DejaVuSans-48"/>
       <use x="63.623047" xlink:href="#DejaVuSans-46"/>
       <use x="95.410156" xlink:href="#DejaVuSans-56"/>
      </g>
     </g>
    </g>
    <g id="xtick_6">
     <g id="line2d_6">
      <g>
       <use style="stroke:#000000;stroke-width:0.8;" x="379.451278" xlink:href="#m827ceacd88" y="208.8"/>
      </g>
     </g>
     <g id="text_6">
      <!-- 1.0 -->
      <g transform="translate(371.499716 223.398437)scale(0.1 -0.1)">
       <defs>
        <path d="M 12.40625 8.296875 
L 28.515625 8.296875 
L 28.515625 63.921875 
L 10.984375 60.40625 
L 10.984375 69.390625 
L 28.421875 72.90625 
L 38.28125 72.90625 
L 38.28125 8.296875 
L 54.390625 8.296875 
L 54.390625 0 
L 12.40625 0 
z
" id="DejaVuSans-49"/>
       </defs>
       <use xlink:href="#DejaVuSans-49"/>
       <use x="63.623047" xlink:href="#DejaVuSans-46"/>
       <use x="95.410156" xlink:href="#DejaVuSans-48"/>
      </g>
     </g>
    </g>
    <g id="text_7">
     <!-- Time (s) -->
     <g transform="translate(192.213281 237.076562)scale(0.1 -0.1)">
      <defs>
       <path d="M -0.296875 72.90625 
L 61.375 72.90625 
L 61.375 64.59375 
L 35.5 64.59375 
L 35.5 0 
L 25.59375 0 
L 25.59375 64.59375 
L -0.296875 64.59375 
z
" id="DejaVuSans-84"/>
       <path d="M 9.421875 54.6875 
L 18.40625 54.6875 
L 18.40625 0 
L 9.421875 0 
z
M 9.421875 75.984375 
L 18.40625 75.984375 
L 18.40625 64.59375 
L 9.421875 64.59375 
z
" id="DejaVuSans-105"/>
       <path d="M 52 44.1875 
Q 55.375 50.25 60.0625 53.125 
Q 64.75 56 71.09375 56 
Q 79.640625 56 84.28125 50.015625 
Q 88.921875 44.046875 88.921875 33.015625 
L 88.921875 0 
L 79.890625 0 
L 79.890625 32.71875 
Q 79.890625 40.578125 77.09375 44.375 
Q 74.3125 48.1875 68.609375 48.1875 
Q 61.625 48.1875 57.5625 43.546875 
Q 53.515625 38.921875 53.515625 30.90625 
L 53.515625 0 
L 44.484375 0 
L 44.484375 32.71875 
Q 44.484375 40.625 41.703125 44.40625 
Q 38.921875 48.1875 33.109375 48.1875 
Q 26.21875 48.1875 22.15625 43.53125 
Q 18.109375 38.875 18.109375 30.90625 
L 18.109375 0 
L 9.078125 0 
L 9.078125 54.6875 
L 18.109375 54.6875 
L 18.109375 46.1875 
Q 21.1875 51.21875 25.484375 53.609375 
Q 29.78125 56 35.6875 56 
Q 41.65625 56 45.828125 52.96875 
Q 50 49.953125 52 44.1875 
z
" id="DejaVuSans-109"/>
       <path d="M 56.203125 29.59375 
L 56.203125 25.203125 
L 14.890625 25.203125 
Q 15.484375 15.921875 20.484375 11.0625 
Q 25.484375 6.203125 34.421875 6.203125 
Q 39.59375 6.203125 44.453125 7.46875 
Q 49.3125 8.734375 54.109375 11.28125 
L 54.109375 2.78125 
Q 49.265625 0.734375 44.1875 -0.34375 
Q 39.109375 -1.421875 33.890625 -1.421875 
Q 20.796875 -1.421875 13.15625 6.1875 
Q 5.515625 13.8125 5.515625 26.8125 
Q 5.515625 40.234375 12.765625 48.109375 
Q 20.015625 56 32.328125 56 
Q 43.359375 56 49.78125 48.890625 
Q 56.203125 41.796875 56.203125 29.59375 
z
M 47.21875 32.234375 
Q 47.125 39.59375 43.09375 43.984375 
Q 39.0625 48.390625 32.421875 48.390625 
Q 24.90625 48.390625 20.390625 44.140625 
Q 15.875 39.890625 15.1875 32.171875 
z
" id="DejaVuSans-101"/>
       <path id="DejaVuSans-32"/>
       <path d="M 31 75.875 
Q 24.46875 64.65625 21.28125 53.65625 
Q 18.109375 42.671875 18.109375 31.390625 
Q 18.109375 20.125 21.3125 9.0625 
Q 24.515625 -2 31 -13.1875 
L 23.1875 -13.1875 
Q 15.875 -1.703125 12.234375 9.375 
Q 8.59375 20.453125 8.59375 31.390625 
Q 8.59375 42.28125 12.203125 53.3125 
Q 15.828125 64.359375 23.1875 75.875 
z
" id="DejaVuSans-40"/>
       <path d="M 44.28125 53.078125 
L 44.28125 44.578125 
Q 40.484375 46.53125 36.375 47.5 
Q 32.28125 48.484375 27.875 48.484375 
Q 21.1875 48.484375 17.84375 46.4375 
Q 14.5 44.390625 14.5 40.28125 
Q 14.5 37.15625 16.890625 35.375 
Q 19.28125 33.59375 26.515625 31.984375 
L 29.59375 31.296875 
Q 39.15625 29.25 43.1875 25.515625 
Q 47.21875 21.78125 47.21875 15.09375 
Q 47.21875 7.46875 41.1875 3.015625 
Q 35.15625 -1.421875 24.609375 -1.421875 
Q 20.21875 -1.421875 15.453125 -0.5625 
Q 10.6875 0.296875 5.421875 2 
L 5.421875 11.28125 
Q 10.40625 8.6875 15.234375 7.390625 
Q 20.0625 6.109375 24.8125 6.109375 
Q 31.15625 6.109375 34.5625 8.28125 
Q 37.984375 10.453125 37.984375 14.40625 
Q 37.984375 18.0625 35.515625 20.015625 
Q 33.0625 21.96875 24.703125 23.78125 
L 21.578125 24.515625 
Q 13.234375 26.265625 9.515625 29.90625 
Q 5.8125 33.546875 5.8125 39.890625 
Q 5.8125 47.609375 11.28125 51.796875 
Q 16.75 56 26.8125 56 
Q 31.78125 56 36.171875 55.265625 
Q 40.578125 54.546875 44.28125 53.078125 
z
" id="DejaVuSans-115"/>
       <path d="M 8.015625 75.875 
L 15.828125 75.875 
Q 23.140625 64.359375 26.78125 53.3125 
Q 30.421875 42.28125 30.421875 31.390625 
Q 30.421875 20.453125 26.78125 9.375 
Q 23.140625 -1.703125 15.828125 -13.1875 
L 8.015625 -13.1875 
Q 14.5 -2 17.703125 9.0625 
Q 20.90625 20.125 20.90625 31.390625 
Q 20.90625 42.671875 17.703125 53.65625 
Q 14.5 64.65625 8.015625 75.875 
z
" id="DejaVuSans-41"/>
      </defs>
      <use xlink:href="#DejaVuSans-84"/>
      <use x="57.958984" xlink:href="#DejaVuSans-105"/>
      <use x="85.742188" xlink:href="#DejaVuSans-109"/>
      <use x="183.154297" xlink:href="#DejaVuSans-101"/>
      <use x="244.677734" xlink:href="#DejaVuSans-32"/>
      <use x="276.464844" xlink:href="#DejaVuSans-40"/>
      <use x="315.478516" xlink:href="#DejaVuSans-115"/>
      <use x="367.578125" xlink:href="#DejaVuSans-41"/>
     </g>
    </g>
   </g>
   <g id="matplotlib.axis_2">
    <g id="ytick_1">
     <g id="line2d_7">
      <defs>
       <path d="M 0 0 
L -3.5 0 
" id="m03d0e75afa" style="stroke:#000000;stroke-width:0.8;"/>
      </defs>
      <g>
       <use style="stroke:#000000;stroke-width:0.8;" x="28.942188" xlink:href="#m03d0e75afa" y="181.309556"/>
      </g>
     </g>
     <g id="text_8">
      <!-- −2 -->
      <g transform="translate(7.2 185.108775)scale(0.1 -0.1)">
       <defs>
        <path d="M 10.59375 35.5 
L 73.1875 35.5 
L 73.1875 27.203125 
L 10.59375 27.203125 
z
" id="DejaVuSans-8722"/>
       </defs>
       <use xlink:href="#DejaVuSans-8722"/>
       <use x="83.789062" xlink:href="#DejaVuSans-50"/>
      </g>
     </g>
    </g>
    <g id="ytick_2">
     <g id="line2d_8">
      <g>
       <use style="stroke:#000000;stroke-width:0.8;" x="28.942188" xlink:href="#m03d0e75afa" y="144.654778"/>
      </g>
     </g>
     <g id="text_9">
      <!-- −1 -->
      <g transform="translate(7.2 148.453997)scale(0.1 -0.1)">
       <use xlink:href="#DejaVuSans-8722"/>
       <use x="83.789062" xlink:href="#DejaVuSans-49"/>
      </g>
     </g>
    </g>
    <g id="ytick_3">
     <g id="line2d_9">
      <g>
       <use style="stroke:#000000;stroke-width:0.8;" x="28.942188" xlink:href="#m03d0e75afa" y="108"/>
      </g>
     </g>
     <g id="text_10">
      <!-- 0 -->
      <g transform="translate(15.579688 111.799219)scale(0.1 -0.1)">
       <use xlink:href="#DejaVuSans-48"/>
      </g>
     </g>
    </g>
    <g id="ytick_4">
     <g id="line2d_10">
      <g>
       <use style="stroke:#000000;stroke-width:0.8;" x="28.942188" xlink:href="#m03d0e75afa" y="71.345222"/>
      </g>
     </g>
     <g id="text_11">
      <!-- 1 -->
      <g transform="translate(15.579688 75.144441)scale(0.1 -0.1)">
       <use xlink:href="#DejaVuSans-49"/>
      </g>
     </g>
    </g>
    <g id="ytick_5">
     <g id="line2d_11">
      <g>
       <use style="stroke:#000000;stroke-width:0.8;" x="28.942188" xlink:href="#m03d0e75afa" y="34.690444"/>
      </g>
     </g>
     <g id="text_12">
      <!-- 2 -->
      <g transform="translate(15.579688 38.489663)scale(0.1 -0.1)">
       <use xlink:href="#DejaVuSans-50"/>
      </g>
     </g>
    </g>
   </g>
   <g id="line2d_12">
    <path clip-path="url(#pe2eb3e8c5f)" d="M 45.633097 108 
L 46.215967 26.454866 
L 46.450629 16.410137 
L 46.465769 16.363636 
L 46.503617 16.572826 
L 46.594454 18.960167 
L 46.768558 30.670371 
L 47.063778 68.24022 
L 47.994857 196.386511 
L 48.138682 199.636364 
L 48.168961 199.468999 
L 48.259798 197.191887 
L 48.433902 185.677924 
L 48.729122 148.346921 
L 49.667771 19.443409 
L 49.804026 16.363636 
L 49.841875 16.572826 
L 49.932712 18.960167 
L 50.106816 30.670371 
L 50.402036 68.24022 
L 51.333115 196.386511 
L 51.47694 199.636364 
L 51.507219 199.468999 
L 51.598056 197.191887 
L 51.77216 185.677924 
L 52.06738 148.346921 
L 53.006028 19.443409 
L 53.142284 16.363636 
L 53.180132 16.572826 
L 53.270969 18.960167 
L 53.445073 30.670371 
L 53.740293 68.24022 
L 54.671372 196.386511 
L 54.815197 199.636364 
L 54.845476 199.468999 
L 54.936313 197.191887 
L 55.110417 185.677924 
L 55.405637 148.346921 
L 56.344286 19.443409 
L 56.480541 16.363636 
L 56.51839 16.572826 
L 56.609227 18.960167 
L 56.783331 30.670371 
L 57.078551 68.24022 
L 58.00963 196.386511 
L 58.153455 199.636364 
L 58.183734 199.468999 
L 58.274571 197.191887 
L 58.448675 185.677924 
L 58.743895 148.346921 
L 59.682543 19.443409 
L 59.818799 16.363636 
L 59.856647 16.572826 
L 59.947484 18.960167 
L 60.121588 30.670371 
L 60.416808 68.24022 
L 61.347887 196.386511 
L 61.491712 199.636364 
L 61.521991 199.468999 
L 61.612828 197.191887 
L 61.786932 185.677924 
L 62.082152 148.346921 
L 63.020801 19.443409 
L 63.157056 16.363636 
L 63.194905 16.572826 
L 63.285742 18.960167 
L 63.459846 30.670371 
L 63.755066 68.24022 
L 64.686145 196.386511 
L 64.82997 199.636364 
L 64.860249 199.468999 
L 64.951086 197.191887 
L 65.12519 185.677924 
L 65.42041 148.346921 
L 66.359058 19.443409 
L 66.495314 16.363636 
L 66.533162 16.572826 
L 66.623999 18.960167 
L 66.798103 30.670371 
L 67.093323 68.24022 
L 68.024402 196.386511 
L 68.168227 199.636364 
L 68.198506 199.468999 
L 68.289343 197.191887 
L 68.463447 185.677924 
L 68.758667 148.346921 
L 69.697316 19.443409 
L 69.833571 16.363636 
L 69.87142 16.572826 
L 69.962257 18.960167 
L 70.136361 30.670371 
L 70.431581 68.24022 
L 71.36266 196.386511 
L 71.506485 199.636364 
L 71.536764 199.468999 
L 71.627601 197.191887 
L 71.801705 185.677924 
L 72.096925 148.346921 
L 73.035573 19.443409 
L 73.171829 16.363636 
L 73.209677 16.572826 
L 73.300514 18.960167 
L 73.474618 30.670371 
L 73.769839 68.24022 
L 74.700917 196.386511 
L 74.844742 199.636364 
L 74.875021 199.468999 
L 74.965858 197.191887 
L 75.139962 185.677924 
L 75.435182 148.346921 
L 76.373831 19.443409 
L 76.510086 16.363636 
L 76.547935 16.572826 
L 76.638772 18.960167 
L 76.812876 30.670371 
L 77.108096 68.24022 
L 78.039175 196.386511 
L 78.183 199.636364 
L 78.213279 199.468999 
L 78.304116 197.191887 
L 78.47822 185.677924 
L 78.77344 148.346921 
L 79.712088 19.443409 
L 79.848344 16.363636 
L 79.886192 16.572826 
L 79.977029 18.960167 
L 80.151133 30.670371 
L 80.446354 68.24022 
L 81.377432 196.386511 
L 81.521257 199.636364 
L 81.551536 199.468999 
L 81.642373 197.191887 
L 81.816477 185.677924 
L 82.111697 148.346921 
L 83.050346 19.443409 
L 83.186601 16.363636 
L 83.22445 16.572826 
L 83.315287 18.960167 
L 83.489391 30.670371 
L 83.784611 68.24022 
L 84.71569 196.386511 
L 84.859515 199.636364 
L 84.889794 199.468999 
L 84.980631 197.191887 
L 85.154735 185.677924 
L 85.449955 148.346921 
L 86.388603 19.443409 
L 86.524859 16.363636 
L 86.562707 16.572826 
L 86.653544 18.960167 
L 86.827649 30.670371 
L 87.122869 68.24022 
L 88.053947 196.386511 
L 88.197772 199.636364 
L 88.228051 199.468999 
L 88.318888 197.191887 
L 88.492992 185.677924 
L 88.788212 148.346921 
L 89.726861 19.443409 
L 89.863116 16.363636 
L 89.900965 16.572826 
L 89.991802 18.960167 
L 90.165906 30.670371 
L 90.461126 68.24022 
L 91.392205 196.386511 
L 91.53603 199.636364 
L 91.566309 199.468999 
L 91.657146 197.191887 
L 91.83125 185.677924 
L 92.12647 148.346921 
L 93.065118 19.443409 
L 93.201374 16.363636 
L 93.239222 16.572826 
L 93.330059 18.960167 
L 93.504164 30.670371 
L 93.799384 68.24022 
L 94.730462 196.386511 
L 94.874287 199.636364 
L 94.904566 199.468999 
L 94.995403 197.191887 
L 95.169507 185.677924 
L 95.464727 148.346921 
L 96.403376 19.443409 
L 96.539631 16.363636 
L 96.57748 16.572826 
L 96.668317 18.960167 
L 96.842421 30.670371 
L 97.137641 68.24022 
L 98.06872 196.386511 
L 98.212545 199.636364 
L 98.242824 199.468999 
L 98.333661 197.191887 
L 98.507765 185.677924 
L 98.802985 148.346921 
L 99.741633 19.443409 
L 99.877889 16.363636 
L 99.915738 16.572826 
L 100.006574 18.960167 
L 100.180679 30.670371 
L 100.475899 68.24022 
L 101.406977 196.386511 
L 101.550802 199.636364 
L 101.581081 199.468999 
L 101.671918 197.191887 
L 101.846022 185.677924 
L 102.141243 148.346921 
L 103.079891 19.443409 
L 103.216146 16.363636 
L 103.253995 16.572826 
L 103.344832 18.960167 
L 103.518936 30.670371 
L 103.814156 68.24022 
L 104.745235 196.386511 
L 104.88906 199.636364 
L 104.919339 199.468999 
L 105.010176 197.191887 
L 105.18428 185.677924 
L 105.4795 148.346921 
L 106.418148 19.443409 
L 106.554404 16.363636 
L 106.592253 16.572826 
L 106.683089 18.960167 
L 106.857194 30.670371 
L 107.152414 68.24022 
L 108.083492 196.386511 
L 108.227317 199.636364 
L 108.257596 199.468999 
L 108.348433 197.191887 
L 108.522537 185.677924 
L 108.817758 148.346921 
L 109.756406 19.443409 
L 109.892661 16.363636 
L 109.93051 16.572826 
L 110.021347 18.960167 
L 110.195451 30.670371 
L 110.490671 68.24022 
L 111.42175 196.386511 
L 111.565575 199.636364 
L 111.595854 199.468999 
L 111.686691 197.191887 
L 111.860795 185.677924 
L 112.156015 148.346921 
L 113.094663 19.443409 
L 113.230919 16.363636 
L 113.268768 16.572826 
L 113.359605 18.960167 
L 113.533709 30.670371 
L 113.828929 68.24022 
L 114.760007 196.386511 
L 114.903832 199.636364 
L 114.934111 199.468999 
L 115.024948 197.191887 
L 115.199053 185.677924 
L 115.494273 148.346921 
L 116.432921 19.443409 
L 116.569176 16.363636 
L 116.607025 16.572826 
L 116.697862 18.960167 
L 116.871966 30.670371 
L 117.167186 68.24022 
L 118.098265 196.386511 
L 118.24209 199.636364 
L 118.272369 199.468999 
L 118.363206 197.191887 
L 118.53731 185.677924 
L 118.83253 148.346921 
L 119.771178 19.443409 
L 119.907434 16.363636 
L 119.945283 16.572826 
L 120.03612 18.960167 
L 120.210224 30.670371 
L 120.505444 68.24022 
L 121.436522 196.386511 
L 121.580348 199.636364 
L 121.610626 199.468999 
L 121.701463 197.191887 
L 121.875568 185.677924 
L 122.170788 148.346921 
L 123.109436 19.443409 
L 123.245691 16.363636 
L 123.28354 16.572826 
L 123.374377 18.960167 
L 123.548481 30.670371 
L 123.843701 68.24022 
L 124.77478 196.386511 
L 124.918605 199.636364 
L 124.948884 199.468999 
L 125.039721 197.191887 
L 125.213825 185.677924 
L 125.509045 148.346921 
L 126.447693 19.443409 
L 126.583949 16.363636 
L 126.621798 16.572826 
L 126.712635 18.960167 
L 126.886739 30.670371 
L 127.181959 68.24022 
L 128.113037 196.386511 
L 128.256863 199.636364 
L 128.287142 199.468999 
L 128.377978 197.191887 
L 128.552083 185.677924 
L 128.847303 148.346921 
L 129.785951 19.443409 
L 129.922206 16.363636 
L 129.960055 16.572826 
L 130.050892 18.960167 
L 130.224996 30.670371 
L 130.520216 68.24022 
L 131.451295 196.386511 
L 131.59512 199.636364 
L 131.625399 199.468999 
L 131.716236 197.191887 
L 131.89034 185.677924 
L 132.18556 148.346921 
L 133.124209 19.443409 
L 133.260464 16.363636 
L 133.298313 16.572826 
L 133.38915 18.960167 
L 133.563254 30.670371 
L 133.858474 68.24022 
L 134.789552 196.386511 
L 134.933378 199.636364 
L 134.963657 199.468999 
L 135.054493 197.191887 
L 135.228598 185.677924 
L 135.523818 148.346921 
L 136.462466 19.443409 
L 136.598721 16.363636 
L 136.63657 16.572826 
L 136.727407 18.960167 
L 136.901511 30.670371 
L 137.196731 68.24022 
L 138.12781 196.386511 
L 138.271635 199.636364 
L 138.301914 199.468999 
L 138.392751 197.191887 
L 138.566855 185.677924 
L 138.862075 148.346921 
L 139.800724 19.443409 
L 139.936979 16.363636 
L 139.974828 16.572826 
L 140.065665 18.960167 
L 140.239769 30.670371 
L 140.534989 68.24022 
L 141.466067 196.386511 
L 141.609893 199.636364 
L 141.640172 199.468999 
L 141.731009 197.191887 
L 141.905113 185.677924 
L 142.200333 148.346921 
L 143.138981 19.443409 
L 143.275236 16.363636 
L 143.313085 16.572826 
L 143.403922 18.960167 
L 143.578026 30.670371 
L 143.873246 68.24022 
L 144.804325 196.386511 
L 144.94815 199.636364 
L 144.978429 199.468999 
L 145.069266 197.191887 
L 145.24337 185.677924 
L 145.53859 148.346921 
L 146.477239 19.443409 
L 146.613494 16.363636 
L 146.651343 16.572826 
L 146.74218 18.960167 
L 146.916284 30.670371 
L 147.211504 68.24022 
L 148.142582 196.386511 
L 148.286408 199.636364 
L 148.316687 199.468999 
L 148.407524 197.191887 
L 148.581628 185.677924 
L 148.876848 148.346921 
L 149.815496 19.443409 
L 149.951752 16.363636 
L 149.9896 16.572826 
L 150.080437 18.960167 
L 150.254541 30.670371 
L 150.549761 68.24022 
L 151.48084 196.386511 
L 151.624665 199.636364 
L 151.654944 199.468999 
L 151.745781 197.191887 
L 151.919885 185.677924 
L 152.215105 148.346921 
L 153.153754 19.443409 
L 153.290009 16.363636 
L 153.327858 16.572826 
L 153.418695 18.960167 
L 153.592799 30.670371 
L 153.888019 68.24022 
L 154.819098 196.386511 
L 154.962923 199.636364 
L 154.993202 199.468999 
L 155.084039 197.191887 
L 155.258143 185.677924 
L 155.553363 148.346921 
L 156.492011 19.443409 
L 156.628267 16.363636 
L 156.666115 16.572826 
L 156.756952 18.960167 
L 156.931056 30.670371 
L 157.226276 68.24022 
L 158.157355 196.386511 
L 158.30118 199.636364 
L 158.331459 199.468999 
L 158.422296 197.191887 
L 158.5964 185.677924 
L 158.89162 148.346921 
L 159.830269 19.443409 
L 159.966524 16.363636 
L 160.004373 16.572826 
L 160.09521 18.960167 
L 160.269314 30.670371 
L 160.564534 68.24022 
L 161.495613 196.386511 
L 161.639438 199.636364 
L 161.669717 199.468999 
L 161.760554 197.191887 
L 161.934658 185.677924 
L 162.229878 148.346921 
L 163.168526 19.443409 
L 163.304782 16.363636 
L 163.34263 16.572826 
L 163.433467 18.960167 
L 163.607571 30.670371 
L 163.902791 68.24022 
L 164.83387 196.386511 
L 164.977695 199.636364 
L 165.007974 199.468999 
L 165.098811 197.191887 
L 165.272915 185.677924 
L 165.568135 148.346921 
L 166.506784 19.443409 
L 166.643039 16.363636 
L 166.680888 16.572826 
L 166.771725 18.960167 
L 166.945829 30.670371 
L 167.241049 68.24022 
L 168.172128 196.386511 
L 168.315953 199.636364 
L 168.346232 199.468999 
L 168.437069 197.191887 
L 168.611173 185.677924 
L 168.906393 148.346921 
L 169.845041 19.443409 
L 169.981297 16.363636 
L 170.019145 16.572826 
L 170.109982 18.960167 
L 170.284086 30.670371 
L 170.579306 68.24022 
L 171.510385 196.386511 
L 171.65421 199.636364 
L 171.684489 199.468999 
L 171.775326 197.191887 
L 171.94943 185.677924 
L 172.24465 148.346921 
L 173.183299 19.443409 
L 173.319554 16.363636 
L 173.357403 16.572826 
L 173.44824 18.960167 
L 173.622344 30.670371 
L 173.917564 68.24022 
L 174.848643 196.386511 
L 174.992468 199.636364 
L 175.022747 199.468999 
L 175.113584 197.191887 
L 175.287688 185.677924 
L 175.582908 148.346921 
L 176.521556 19.443409 
L 176.657812 16.363636 
L 176.69566 16.572826 
L 176.786497 18.960167 
L 176.960601 30.670371 
L 177.255821 68.24022 
L 178.1869 196.386511 
L 178.330725 199.636364 
L 178.361004 199.468999 
L 178.451841 197.191887 
L 178.625945 185.677924 
L 178.921165 148.346921 
L 179.859814 19.443409 
L 179.996069 16.363636 
L 180.033918 16.572826 
L 180.124755 18.960167 
L 180.298859 30.670371 
L 180.594079 68.24022 
L 181.525158 196.386511 
L 181.668983 199.636364 
L 181.699262 199.468999 
L 181.790099 197.191887 
L 181.964203 185.677924 
L 182.259423 148.346921 
L 183.198071 19.443409 
L 183.334327 16.363636 
L 183.372175 16.572826 
L 183.463012 18.960167 
L 183.637116 30.670371 
L 183.932337 68.24022 
L 184.863415 196.386511 
L 185.00724 199.636364 
L 185.037519 199.468999 
L 185.128356 197.191887 
L 185.30246 185.677924 
L 185.59768 148.346921 
L 186.536329 19.443409 
L 186.672584 16.363636 
L 186.710433 16.572826 
L 186.80127 18.960167 
L 186.975374 30.670371 
L 187.270594 68.24022 
L 188.201673 196.386511 
L 188.345498 199.636364 
L 188.375777 199.468999 
L 188.466614 197.191887 
L 188.640718 185.677924 
L 188.935938 148.346921 
L 189.874586 19.443409 
L 190.010842 16.363636 
L 190.04869 16.572826 
L 190.139527 18.960167 
L 190.313632 30.670371 
L 190.608852 68.24022 
L 191.53993 196.386511 
L 191.683755 199.636364 
L 191.714034 199.468999 
L 191.804871 197.191887 
L 191.978975 185.677924 
L 192.274195 148.346921 
L 193.212844 19.443409 
L 193.349099 16.363636 
L 193.386948 16.572826 
L 193.477785 18.960167 
L 193.651889 30.670371 
L 193.947109 68.24022 
L 194.878188 196.386511 
L 195.022013 199.636364 
L 195.052292 199.468999 
L 195.143129 197.191887 
L 195.317233 185.677924 
L 195.612453 148.346921 
L 196.551101 19.443409 
L 196.687357 16.363636 
L 196.725205 16.572826 
L 196.816042 18.960167 
L 196.990147 30.670371 
L 197.285367 68.24022 
L 198.216445 196.386511 
L 198.36027 199.636364 
L 198.390549 199.468999 
L 198.481386 197.191887 
L 198.65549 185.677924 
L 198.95071 148.346921 
L 199.889359 19.443409 
L 200.025614 16.363636 
L 200.063463 16.572826 
L 200.1543 18.960167 
L 200.328404 30.670371 
L 200.623624 68.24022 
L 201.554703 196.386511 
L 201.698528 199.636364 
L 201.728807 199.468999 
L 201.819644 197.191887 
L 201.993748 185.677924 
L 202.288968 148.346921 
L 203.227616 19.443409 
L 203.363872 16.363636 
L 203.40172 16.572826 
L 203.492557 18.960167 
L 203.666662 30.670371 
L 203.961882 68.24022 
L 204.89296 196.386511 
L 205.036785 199.636364 
L 205.067064 199.468999 
L 205.157901 197.191887 
L 205.332005 185.677924 
L 205.627226 148.346921 
L 206.565874 19.443409 
L 206.702129 16.363636 
L 206.739978 16.572826 
L 206.830815 18.960167 
L 207.004919 30.670371 
L 207.300139 68.24022 
L 208.231218 196.386511 
L 208.375043 199.636364 
L 208.405322 199.468999 
L 208.496159 197.191887 
L 208.670263 185.677924 
L 208.965483 148.346921 
L 209.904131 19.443409 
L 210.040387 16.363636 
L 210.078236 16.572826 
L 210.169072 18.960167 
L 210.343177 30.670371 
L 210.638397 68.24022 
L 211.569475 196.386511 
L 211.7133 199.636364 
L 211.743579 199.468999 
L 211.834416 197.191887 
L 212.00852 185.677924 
L 212.303741 148.346921 
L 213.242389 19.443409 
L 213.378644 16.363636 
L 213.416493 16.572826 
L 213.50733 18.960167 
L 213.681434 30.670371 
L 213.976654 68.24022 
L 214.907733 196.386511 
L 215.051558 199.636364 
L 215.081837 199.468999 
L 215.172674 197.191887 
L 215.346778 185.677924 
L 215.641998 148.346921 
L 216.580646 19.443409 
L 216.716902 16.363636 
L 216.754751 16.572826 
L 216.845587 18.960167 
L 217.019692 30.670371 
L 217.314912 68.24022 
L 218.24599 196.386511 
L 218.389815 199.636364 
L 218.420094 199.468999 
L 218.510931 197.191887 
L 218.685036 185.677924 
L 218.980256 148.346921 
L 219.918904 19.443409 
L 220.055159 16.363636 
L 220.093008 16.572826 
L 220.183845 18.960167 
L 220.357949 30.670371 
L 220.653169 68.24022 
L 221.584248 196.386511 
L 221.728073 199.636364 
L 221.758352 199.468999 
L 221.849189 197.191887 
L 222.023293 185.677924 
L 222.318513 148.346921 
L 223.257161 19.443409 
L 223.393417 16.363636 
L 223.431266 16.572826 
L 223.522103 18.960167 
L 223.696207 30.670371 
L 223.991427 68.24022 
L 224.922505 196.386511 
L 225.06633 199.636364 
L 225.096609 199.468999 
L 225.187446 197.191887 
L 225.361551 185.677924 
L 225.656771 148.346921 
L 226.595419 19.443409 
L 226.731674 16.363636 
L 226.769523 16.572826 
L 226.86036 18.960167 
L 227.034464 30.670371 
L 227.329684 68.24022 
L 228.260763 196.386511 
L 228.404588 199.636364 
L 228.434867 199.468999 
L 228.525704 197.191887 
L 228.699808 185.677924 
L 228.995028 148.346921 
L 229.933676 19.443409 
L 230.069932 16.363636 
L 230.107781 16.572826 
L 230.198618 18.960167 
L 230.372722 30.670371 
L 230.667942 68.24022 
L 231.59902 196.386511 
L 231.742846 199.636364 
L 231.773125 199.468999 
L 231.863961 197.191887 
L 232.038066 185.677924 
L 232.333286 148.346921 
L 233.271934 19.443409 
L 233.408189 16.363636 
L 233.446038 16.572826 
L 233.536875 18.960167 
L 233.710979 30.670371 
L 234.006199 68.24022 
L 234.937278 196.386511 
L 235.081103 199.636364 
L 235.111382 199.468999 
L 235.202219 197.191887 
L 235.376323 185.677924 
L 235.671543 148.346921 
L 236.610192 19.443409 
L 236.746447 16.363636 
L 236.784296 16.572826 
L 236.875133 18.960167 
L 237.049237 30.670371 
L 237.344457 68.24022 
L 238.275535 196.386511 
L 238.419361 199.636364 
L 238.44964 199.468999 
L 238.540476 197.191887 
L 238.714581 185.677924 
L 239.009801 148.346921 
L 239.948449 19.443409 
L 240.084704 16.363636 
L 240.122553 16.572826 
L 240.21339 18.960167 
L 240.387494 30.670371 
L 240.682714 68.24022 
L 241.613793 196.386511 
L 241.757618 199.636364 
L 241.787897 199.468999 
L 241.878734 197.191887 
L 242.052838 185.677924 
L 242.348058 148.346921 
L 243.286707 19.443409 
L 243.422962 16.363636 
L 243.460811 16.572826 
L 243.551648 18.960167 
L 243.725752 30.670371 
L 244.020972 68.24022 
L 244.95205 196.386511 
L 245.095876 199.636364 
L 245.126155 199.468999 
L 245.216992 197.191887 
L 245.391096 185.677924 
L 245.686316 148.346921 
L 246.624964 19.443409 
L 246.761219 16.363636 
L 246.799068 16.572826 
L 246.889905 18.960167 
L 247.064009 30.670371 
L 247.359229 68.24022 
L 248.290308 196.386511 
L 248.434133 199.636364 
L 248.464412 199.468999 
L 248.555249 197.191887 
L 248.729353 185.677924 
L 249.024573 148.346921 
L 249.963222 19.443409 
L 250.099477 16.363636 
L 250.137326 16.572826 
L 250.228163 18.960167 
L 250.402267 30.670371 
L 250.697487 68.24022 
L 251.628565 196.386511 
L 251.772391 199.636364 
L 251.80267 199.468999 
L 251.893507 197.191887 
L 252.067611 185.677924 
L 252.362831 148.346921 
L 253.301479 19.443409 
L 253.437735 16.363636 
L 253.475583 16.572826 
L 253.56642 18.960167 
L 253.740524 30.670371 
L 254.035744 68.24022 
L 254.966823 196.386511 
L 255.110648 199.636364 
L 255.140927 199.468999 
L 255.231764 197.191887 
L 255.405868 185.677924 
L 255.701088 148.346921 
L 256.639737 19.443409 
L 256.775992 16.363636 
L 256.813841 16.572826 
L 256.904678 18.960167 
L 257.078782 30.670371 
L 257.374002 68.24022 
L 258.30508 196.386511 
L 258.448906 199.636364 
L 258.479185 199.468999 
L 258.570022 197.191887 
L 258.744126 185.677924 
L 259.039346 148.346921 
L 259.977994 19.443409 
L 260.11425 16.363636 
L 260.152098 16.572826 
L 260.242935 18.960167 
L 260.417039 30.670371 
L 260.712259 68.24022 
L 261.643338 196.386511 
L 261.787163 199.636364 
L 261.817442 199.468999 
L 261.908279 197.191887 
L 262.082383 185.677924 
L 262.377603 148.346921 
L 263.316252 19.443409 
L 263.452507 16.363636 
L 263.490356 16.572826 
L 263.581193 18.960167 
L 263.755297 30.670371 
L 264.050517 68.24022 
L 264.981596 196.386511 
L 265.125421 199.636364 
L 265.1557 199.468999 
L 265.246537 197.191887 
L 265.420641 185.677924 
L 265.715861 148.346921 
L 266.654509 19.443409 
L 266.790765 16.363636 
L 266.828613 16.572826 
L 266.91945 18.960167 
L 267.093554 30.670371 
L 267.388774 68.24022 
L 268.319853 196.386511 
L 268.463678 199.636364 
L 268.493957 199.468999 
L 268.584794 197.191887 
L 268.758898 185.677924 
L 269.054118 148.346921 
L 269.992767 19.443409 
L 270.129022 16.363636 
L 270.166871 16.572826 
L 270.257708 18.960167 
L 270.431812 30.670371 
L 270.727032 68.24022 
L 271.658111 196.386511 
L 271.801936 199.636364 
L 271.832215 199.468999 
L 271.923052 197.191887 
L 272.097156 185.677924 
L 272.392376 148.346921 
L 273.331024 19.443409 
L 273.46728 16.363636 
L 273.505128 16.572826 
L 273.595965 18.960167 
L 273.770069 30.670371 
L 274.065289 68.24022 
L 274.996368 196.386511 
L 275.140193 199.636364 
L 275.170472 199.468999 
L 275.261309 197.191887 
L 275.435413 185.677924 
L 275.730633 148.346921 
L 276.669282 19.443409 
L 276.805537 16.363636 
L 276.843386 16.572826 
L 276.934223 18.960167 
L 277.108327 30.670371 
L 277.403547 68.24022 
L 278.334626 196.386511 
L 278.478451 199.636364 
L 278.50873 199.468999 
L 278.599567 197.191887 
L 278.773671 185.677924 
L 279.068891 148.346921 
L 280.007539 19.443409 
L 280.143795 16.363636 
L 280.181643 16.572826 
L 280.27248 18.960167 
L 280.446584 30.670371 
L 280.741804 68.24022 
L 281.672883 196.386511 
L 281.816708 199.636364 
L 281.846987 199.468999 
L 281.937824 197.191887 
L 282.111928 185.677924 
L 282.407148 148.346921 
L 283.345797 19.443409 
L 283.482052 16.363636 
L 283.519901 16.572826 
L 283.610738 18.960167 
L 283.784842 30.670371 
L 284.080062 68.24022 
L 285.011141 196.386511 
L 285.154966 199.636364 
L 285.185245 199.468999 
L 285.276082 197.191887 
L 285.450186 185.677924 
L 285.745406 148.346921 
L 286.684054 19.443409 
L 286.82031 16.363636 
L 286.858158 16.572826 
L 286.948995 18.960167 
L 287.123099 30.670371 
L 287.41832 68.24022 
L 288.349398 196.386511 
L 288.493223 199.636364 
L 288.523502 199.468999 
L 288.614339 197.191887 
L 288.788443 185.677924 
L 289.083663 148.346921 
L 290.022312 19.443409 
L 290.158567 16.363636 
L 290.196416 16.572826 
L 290.287253 18.960167 
L 290.461357 30.670371 
L 290.756577 68.24022 
L 291.687656 196.386511 
L 291.831481 199.636364 
L 291.86176 199.468999 
L 291.952597 197.191887 
L 292.126701 185.677924 
L 292.421921 148.346921 
L 293.360569 19.443409 
L 293.496825 16.363636 
L 293.534673 16.572826 
L 293.62551 18.960167 
L 293.799614 30.670371 
L 294.094835 68.24022 
L 295.025913 196.386511 
L 295.169738 199.636364 
L 295.200017 199.468999 
L 295.290854 197.191887 
L 295.464958 185.677924 
L 295.760178 148.346921 
L 296.698827 19.443409 
L 296.835082 16.363636 
L 296.872931 16.572826 
L 296.963768 18.960167 
L 297.137872 30.670371 
L 297.433092 68.24022 
L 298.364171 196.386511 
L 298.507996 199.636364 
L 298.538275 199.468999 
L 298.629112 197.191887 
L 298.803216 185.677924 
L 299.098436 148.346921 
L 300.037084 19.443409 
L 300.17334 16.363636 
L 300.211188 16.572826 
L 300.302025 18.960167 
L 300.47613 30.670371 
L 300.77135 68.24022 
L 301.702428 196.386511 
L 301.846253 199.636364 
L 301.876532 199.468999 
L 301.967369 197.191887 
L 302.141473 185.677924 
L 302.436693 148.346921 
L 303.375342 19.443409 
L 303.511597 16.363636 
L 303.549446 16.572826 
L 303.640283 18.960167 
L 303.814387 30.670371 
L 304.109607 68.24022 
L 305.040686 196.386511 
L 305.184511 199.636364 
L 305.21479 199.468999 
L 305.305627 197.191887 
L 305.479731 185.677924 
L 305.774951 148.346921 
L 306.713599 19.443409 
L 306.849855 16.363636 
L 306.887703 16.572826 
L 306.97854 18.960167 
L 307.152645 30.670371 
L 307.447865 68.24022 
L 308.378943 196.386511 
L 308.522768 199.636364 
L 308.553047 199.468999 
L 308.643884 197.191887 
L 308.817988 185.677924 
L 309.113208 148.346921 
L 310.051857 19.443409 
L 310.188112 16.363636 
L 310.225961 16.572826 
L 310.316798 18.960167 
L 310.490902 30.670371 
L 310.786122 68.24022 
L 311.717201 196.386511 
L 311.861026 199.636364 
L 311.891305 199.468999 
L 311.982142 197.191887 
L 312.156246 185.677924 
L 312.451466 148.346921 
L 313.390114 19.443409 
L 313.52637 16.363636 
L 313.564219 16.572826 
L 313.655055 18.960167 
L 313.82916 30.670371 
L 314.12438 68.24022 
L 315.055458 196.386511 
L 315.199283 199.636364 
L 315.229562 199.468999 
L 315.320399 197.191887 
L 315.494503 185.677924 
L 315.789724 148.346921 
L 316.728372 19.443409 
L 316.864627 16.363636 
L 316.902476 16.572826 
L 316.993313 18.960167 
L 317.167417 30.670371 
L 317.462637 68.24022 
L 318.393716 196.386511 
L 318.537541 199.636364 
L 318.56782 199.468999 
L 318.658657 197.191887 
L 318.832761 185.677924 
L 319.127981 148.346921 
L 320.066629 19.443409 
L 320.202885 16.363636 
L 320.240734 16.572826 
L 320.33157 18.960167 
L 320.505675 30.670371 
L 320.800895 68.24022 
L 321.731973 196.386511 
L 321.875798 199.636364 
L 321.906077 199.468999 
L 321.996914 197.191887 
L 322.171018 185.677924 
L 322.466239 148.346921 
L 323.404887 19.443409 
L 323.541142 16.363636 
L 323.578991 16.572826 
L 323.669828 18.960167 
L 323.843932 30.670371 
L 324.139152 68.24022 
L 325.070231 196.386511 
L 325.214056 199.636364 
L 325.244335 199.468999 
L 325.335172 197.191887 
L 325.509276 185.677924 
L 325.804496 148.346921 
L 326.743144 19.443409 
L 326.8794 16.363636 
L 326.917249 16.572826 
L 327.008086 18.960167 
L 327.18219 30.670371 
L 327.47741 68.24022 
L 328.408488 196.386511 
L 328.552313 199.636364 
L 328.582592 199.468999 
L 328.673429 197.191887 
L 328.847534 185.677924 
L 329.142754 148.346921 
L 330.081402 19.443409 
L 330.217657 16.363636 
L 330.255506 16.572826 
L 330.346343 18.960167 
L 330.520447 30.670371 
L 330.815667 68.24022 
L 331.746746 196.386511 
L 331.890571 199.636364 
L 331.92085 199.468999 
L 332.011687 197.191887 
L 332.185791 185.677924 
L 332.481011 148.346921 
L 333.419659 19.443409 
L 333.555915 16.363636 
L 333.593764 16.572826 
L 333.684601 18.960167 
L 333.858705 30.670371 
L 334.153925 68.24022 
L 335.085003 196.386511 
L 335.228829 199.636364 
L 335.259107 199.468999 
L 335.349944 197.191887 
L 335.524049 185.677924 
L 335.819269 148.346921 
L 336.757917 19.443409 
L 336.894172 16.363636 
L 336.932021 16.572826 
L 337.022858 18.960167 
L 337.196962 30.670371 
L 337.492182 68.24022 
L 338.423261 196.386511 
L 338.567086 199.636364 
L 338.597365 199.468999 
L 338.688202 197.191887 
L 338.862306 185.677924 
L 339.157526 148.346921 
L 340.096175 19.443409 
L 340.23243 16.363636 
L 340.270279 16.572826 
L 340.361116 18.960167 
L 340.53522 30.670371 
L 340.83044 68.24022 
L 341.761518 196.386511 
L 341.905344 199.636364 
L 341.935623 199.468999 
L 342.026459 197.191887 
L 342.200564 185.677924 
L 342.495784 148.346921 
L 343.434432 19.443409 
L 343.570687 16.363636 
L 343.608536 16.572826 
L 343.699373 18.960167 
L 343.873477 30.670371 
L 344.168697 68.24022 
L 345.099776 196.386511 
L 345.243601 199.636364 
L 345.27388 199.468999 
L 345.364717 197.191887 
L 345.538821 185.677924 
L 345.834041 148.346921 
L 346.77269 19.443409 
L 346.908945 16.363636 
L 346.946794 16.572826 
L 347.037631 18.960167 
L 347.211735 30.670371 
L 347.506955 68.24022 
L 348.438033 196.386511 
L 348.581859 199.636364 
L 348.612138 199.468999 
L 348.702974 197.191887 
L 348.877079 185.677924 
L 349.172299 148.346921 
L 350.110947 19.443409 
L 350.247202 16.363636 
L 350.285051 16.572826 
L 350.375888 18.960167 
L 350.549992 30.670371 
L 350.845212 68.24022 
L 351.776291 196.386511 
L 351.920116 199.636364 
L 351.950395 199.468999 
L 352.041232 197.191887 
L 352.215336 185.677924 
L 352.510556 148.346921 
L 353.449205 19.443409 
L 353.58546 16.363636 
L 353.623309 16.572826 
L 353.714146 18.960167 
L 353.88825 30.670371 
L 354.18347 68.24022 
L 355.114548 196.386511 
L 355.258374 199.636364 
L 355.288653 199.468999 
L 355.37949 197.191887 
L 355.553594 185.677924 
L 355.848814 148.346921 
L 356.787462 19.443409 
L 356.923717 16.363636 
L 356.961566 16.572826 
L 357.052403 18.960167 
L 357.226507 30.670371 
L 357.521727 68.24022 
L 358.452806 196.386511 
L 358.596631 199.636364 
L 358.62691 199.468999 
L 358.717747 197.191887 
L 358.891851 185.677924 
L 359.187071 148.346921 
L 360.12572 19.443409 
L 360.261975 16.363636 
L 360.299824 16.572826 
L 360.390661 18.960167 
L 360.564765 30.670371 
L 360.859985 68.24022 
L 361.791063 196.386511 
L 361.934889 199.636364 
L 361.965168 199.468999 
L 362.056005 197.191887 
L 362.230109 185.677924 
L 362.525329 148.346921 
L 363.463977 19.443409 
L 363.600233 16.363636 
L 363.638081 16.572826 
L 363.728918 18.960167 
L 363.903022 30.670371 
L 364.198242 68.24022 
L 365.129321 196.386511 
L 365.273146 199.636364 
L 365.303425 199.468999 
L 365.394262 197.191887 
L 365.568366 185.677924 
L 365.863586 148.346921 
L 366.802235 19.443409 
L 366.93849 16.363636 
L 366.976339 16.572826 
L 367.067176 18.960167 
L 367.24128 30.670371 
L 367.5365 68.24022 
L 368.467579 196.386511 
L 368.611404 199.636364 
L 368.641683 199.468999 
L 368.73252 197.191887 
L 368.906624 185.677924 
L 369.201844 148.346921 
L 370.140492 19.443409 
L 370.276748 16.363636 
L 370.314596 16.572826 
L 370.405433 18.960167 
L 370.579537 30.670371 
L 370.874757 68.24022 
L 371.805836 196.386511 
L 371.949661 199.636364 
L 371.97994 199.468999 
L 372.070777 197.191887 
L 372.244881 185.677924 
L 372.540101 148.346921 
L 373.47875 19.443409 
L 373.615005 16.363636 
L 373.652854 16.572826 
L 373.743691 18.960167 
L 373.917795 30.670371 
L 374.213015 68.24022 
L 375.144094 196.386511 
L 375.287919 199.636364 
L 375.318198 199.468999 
L 375.409035 197.191887 
L 375.583139 185.677924 
L 375.878359 148.346921 
L 376.817007 19.443409 
L 376.953263 16.363636 
L 376.991111 16.572826 
L 377.081948 18.960167 
L 377.256052 30.670371 
L 377.551272 68.24022 
L 378.482351 196.386511 
L 378.626176 199.636364 
L 378.656455 199.468999 
L 378.747292 197.191887 
L 378.921396 185.677924 
L 379.216616 148.346921 
L 379.451278 109.305561 
L 379.451278 109.305561 
" style="fill:none;stroke:#1f77b4;stroke-linecap:square;stroke-width:1.5;"/>
   </g>
   <g id="patch_3">
    <path d="M 28.942188 208.8 
L 28.942188 7.2 
" style="fill:none;stroke:#000000;stroke-linecap:square;stroke-linejoin:miter;stroke-width:0.8;"/>
   </g>
   <g id="patch_4">
    <path d="M 396.142187 208.8 
L 396.142187 7.2 
" style="fill:none;stroke:#000000;stroke-linecap:square;stroke-linejoin:miter;stroke-width:0.8;"/>
   </g>
   <g id="patch_5">
    <path d="M 28.942187 208.8 
L 396.142187 208.8 
" style="fill:none;stroke:#000000;stroke-linecap:square;stroke-linejoin:miter;stroke-width:0.8;"/>
   </g>
   <g id="patch_6">
    <path d="M 28.942187 7.2 
L 396.142187 7.2 
" style="fill:none;stroke:#000000;stroke-linecap:square;stroke-linejoin:miter;stroke-width:0.8;"/>
   </g>
   <g id="legend_1">
    <g id="patch_7">
     <path d="M 49.302188 273.312 
L 237.9225 273.312 
Q 239.9225 273.312 239.9225 271.312 
L 239.9225 257.633875 
Q 239.9225 255.633875 237.9225 255.633875 
L 49.302188 255.633875 
Q 47.302188 255.633875 47.302188 257.633875 
L 47.302188 271.312 
Q 47.302188 273.312 49.302188 273.312 
z
" style="fill:#ffffff;opacity:0.8;stroke:#cccccc;stroke-linejoin:miter;"/>
    </g>
    <g id="line2d_13">
     <path d="M 51.302188 263.732312 
L 71.302188 263.732312 
" style="fill:none;stroke:#1f77b4;stroke-linecap:square;stroke-width:1.5;"/>
    </g>
    <g id="line2d_14"/>
    <g id="text_13">
     <!-- 100Hz sinusoidal velocity [m/s] -->
     <g transform="translate(79.302188 267.232312)scale(0.1 -0.1)">
      <defs>
       <path d="M 9.8125 72.90625 
L 19.671875 72.90625 
L 19.671875 43.015625 
L 55.515625 43.015625 
L 55.515625 72.90625 
L 65.375 72.90625 
L 65.375 0 
L 55.515625 0 
L 55.515625 34.71875 
L 19.671875 34.71875 
L 19.671875 0 
L 9.8125 0 
z
" id="DejaVuSans-72"/>
       <path d="M 5.515625 54.6875 
L 48.1875 54.6875 
L 48.1875 46.484375 
L 14.40625 7.171875 
L 48.1875 7.171875 
L 48.1875 0 
L 4.296875 0 
L 4.296875 8.203125 
L 38.09375 47.515625 
L 5.515625 47.515625 
z
" id="DejaVuSans-122"/>
       <path d="M 54.890625 33.015625 
L 54.890625 0 
L 45.90625 0 
L 45.90625 32.71875 
Q 45.90625 40.484375 42.875 44.328125 
Q 39.84375 48.1875 33.796875 48.1875 
Q 26.515625 48.1875 22.3125 43.546875 
Q 18.109375 38.921875 18.109375 30.90625 
L 18.109375 0 
L 9.078125 0 
L 9.078125 54.6875 
L 18.109375 54.6875 
L 18.109375 46.1875 
Q 21.34375 51.125 25.703125 53.5625 
Q 30.078125 56 35.796875 56 
Q 45.21875 56 50.046875 50.171875 
Q 54.890625 44.34375 54.890625 33.015625 
z
" id="DejaVuSans-110"/>
       <path d="M 8.5 21.578125 
L 8.5 54.6875 
L 17.484375 54.6875 
L 17.484375 21.921875 
Q 17.484375 14.15625 20.5 10.265625 
Q 23.53125 6.390625 29.59375 6.390625 
Q 36.859375 6.390625 41.078125 11.03125 
Q 45.3125 15.671875 45.3125 23.6875 
L 45.3125 54.6875 
L 54.296875 54.6875 
L 54.296875 0 
L 45.3125 0 
L 45.3125 8.40625 
Q 42.046875 3.421875 37.71875 1 
Q 33.40625 -1.421875 27.6875 -1.421875 
Q 18.265625 -1.421875 13.375 4.4375 
Q 8.5 10.296875 8.5 21.578125 
z
M 31.109375 56 
z
" id="DejaVuSans-117"/>
       <path d="M 30.609375 48.390625 
Q 23.390625 48.390625 19.1875 42.75 
Q 14.984375 37.109375 14.984375 27.296875 
Q 14.984375 17.484375 19.15625 11.84375 
Q 23.34375 6.203125 30.609375 6.203125 
Q 37.796875 6.203125 41.984375 11.859375 
Q 46.1875 17.53125 46.1875 27.296875 
Q 46.1875 37.015625 41.984375 42.703125 
Q 37.796875 48.390625 30.609375 48.390625 
z
M 30.609375 56 
Q 42.328125 56 49.015625 48.375 
Q 55.71875 40.765625 55.71875 27.296875 
Q 55.71875 13.875 49.015625 6.21875 
Q 42.328125 -1.421875 30.609375 -1.421875 
Q 18.84375 -1.421875 12.171875 6.21875 
Q 5.515625 13.875 5.515625 27.296875 
Q 5.515625 40.765625 12.171875 48.375 
Q 18.84375 56 30.609375 56 
z
" id="DejaVuSans-111"/>
       <path d="M 45.40625 46.390625 
L 45.40625 75.984375 
L 54.390625 75.984375 
L 54.390625 0 
L 45.40625 0 
L 45.40625 8.203125 
Q 42.578125 3.328125 38.25 0.953125 
Q 33.9375 -1.421875 27.875 -1.421875 
Q 17.96875 -1.421875 11.734375 6.484375 
Q 5.515625 14.40625 5.515625 27.296875 
Q 5.515625 40.1875 11.734375 48.09375 
Q 17.96875 56 27.875 56 
Q 33.9375 56 38.25 53.625 
Q 42.578125 51.265625 45.40625 46.390625 
z
M 14.796875 27.296875 
Q 14.796875 17.390625 18.875 11.75 
Q 22.953125 6.109375 30.078125 6.109375 
Q 37.203125 6.109375 41.296875 11.75 
Q 45.40625 17.390625 45.40625 27.296875 
Q 45.40625 37.203125 41.296875 42.84375 
Q 37.203125 48.484375 30.078125 48.484375 
Q 22.953125 48.484375 18.875 42.84375 
Q 14.796875 37.203125 14.796875 27.296875 
z
" id="DejaVuSans-100"/>
       <path d="M 34.28125 27.484375 
Q 23.390625 27.484375 19.1875 25 
Q 14.984375 22.515625 14.984375 16.5 
Q 14.984375 11.71875 18.140625 8.90625 
Q 21.296875 6.109375 26.703125 6.109375 
Q 34.1875 6.109375 38.703125 11.40625 
Q 43.21875 16.703125 43.21875 25.484375 
L 43.21875 27.484375 
z
M 52.203125 31.203125 
L 52.203125 0 
L 43.21875 0 
L 43.21875 8.296875 
Q 40.140625 3.328125 35.546875 0.953125 
Q 30.953125 -1.421875 24.3125 -1.421875 
Q 15.921875 -1.421875 10.953125 3.296875 
Q 6 8.015625 6 15.921875 
Q 6 25.140625 12.171875 29.828125 
Q 18.359375 34.515625 30.609375 34.515625 
L 43.21875 34.515625 
L 43.21875 35.40625 
Q 43.21875 41.609375 39.140625 45 
Q 35.0625 48.390625 27.6875 48.390625 
Q 23 48.390625 18.546875 47.265625 
Q 14.109375 46.140625 10.015625 43.890625 
L 10.015625 52.203125 
Q 14.9375 54.109375 19.578125 55.046875 
Q 24.21875 56 28.609375 56 
Q 40.484375 56 46.34375 49.84375 
Q 52.203125 43.703125 52.203125 31.203125 
z
" id="DejaVuSans-97"/>
       <path d="M 9.421875 75.984375 
L 18.40625 75.984375 
L 18.40625 0 
L 9.421875 0 
z
" id="DejaVuSans-108"/>
       <path d="M 2.984375 54.6875 
L 12.5 54.6875 
L 29.59375 8.796875 
L 46.6875 54.6875 
L 56.203125 54.6875 
L 35.6875 0 
L 23.484375 0 
z
" id="DejaVuSans-118"/>
       <path d="M 48.78125 52.59375 
L 48.78125 44.1875 
Q 44.96875 46.296875 41.140625 47.34375 
Q 37.3125 48.390625 33.40625 48.390625 
Q 24.65625 48.390625 19.8125 42.84375 
Q 14.984375 37.3125 14.984375 27.296875 
Q 14.984375 17.28125 19.8125 11.734375 
Q 24.65625 6.203125 33.40625 6.203125 
Q 37.3125 6.203125 41.140625 7.25 
Q 44.96875 8.296875 48.78125 10.40625 
L 48.78125 2.09375 
Q 45.015625 0.34375 40.984375 -0.53125 
Q 36.96875 -1.421875 32.421875 -1.421875 
Q 20.0625 -1.421875 12.78125 6.34375 
Q 5.515625 14.109375 5.515625 27.296875 
Q 5.515625 40.671875 12.859375 48.328125 
Q 20.21875 56 33.015625 56 
Q 37.15625 56 41.109375 55.140625 
Q 45.0625 54.296875 48.78125 52.59375 
z
" id="DejaVuSans-99"/>
       <path d="M 18.3125 70.21875 
L 18.3125 54.6875 
L 36.8125 54.6875 
L 36.8125 47.703125 
L 18.3125 47.703125 
L 18.3125 18.015625 
Q 18.3125 11.328125 20.140625 9.421875 
Q 21.96875 7.515625 27.59375 7.515625 
L 36.8125 7.515625 
L 36.8125 0 
L 27.59375 0 
Q 17.1875 0 13.234375 3.875 
Q 9.28125 7.765625 9.28125 18.015625 
L 9.28125 47.703125 
L 2.6875 47.703125 
L 2.6875 54.6875 
L 9.28125 54.6875 
L 9.28125 70.21875 
z
" id="DejaVuSans-116"/>
       <path d="M 32.171875 -5.078125 
Q 28.375 -14.84375 24.75 -17.8125 
Q 21.140625 -20.796875 15.09375 -20.796875 
L 7.90625 -20.796875 
L 7.90625 -13.28125 
L 13.1875 -13.28125 
Q 16.890625 -13.28125 18.9375 -11.515625 
Q 21 -9.765625 23.484375 -3.21875 
L 25.09375 0.875 
L 2.984375 54.6875 
L 12.5 54.6875 
L 29.59375 11.921875 
L 46.6875 54.6875 
L 56.203125 54.6875 
z
" id="DejaVuSans-121"/>
       <path d="M 8.59375 75.984375 
L 29.296875 75.984375 
L 29.296875 69 
L 17.578125 69 
L 17.578125 -6.203125 
L 29.296875 -6.203125 
L 29.296875 -13.1875 
L 8.59375 -13.1875 
z
" id="DejaVuSans-91"/>
       <path d="M 25.390625 72.90625 
L 33.6875 72.90625 
L 8.296875 -9.28125 
L 0 -9.28125 
z
" id="DejaVuSans-47"/>
       <path d="M 30.421875 75.984375 
L 30.421875 -13.1875 
L 9.71875 -13.1875 
L 9.71875 -6.203125 
L 21.390625 -6.203125 
L 21.390625 69 
L 9.71875 69 
L 9.71875 75.984375 
z
" id="DejaVuSans-93"/>
      </defs>
      <use xlink:href="#DejaVuSans-49"/>
      <use x="63.623047" xlink:href="#DejaVuSans-48"/>
      <use x="127.246094" xlink:href="#DejaVuSans-48"/>
      <use x="190.869141" xlink:href="#DejaVuSans-72"/>
      <use x="266.064453" xlink:href="#DejaVuSans-122"/>
      <use x="318.554688" xlink:href="#DejaVuSans-32"/>
      <use x="350.341797" xlink:href="#DejaVuSans-115"/>
      <use x="402.441406" xlink:href="#DejaVuSans-105"/>
      <use x="430.224609" xlink:href="#DejaVuSans-110"/>
      <use x="493.603516" xlink:href="#DejaVuSans-117"/>
      <use x="556.982422" xlink:href="#DejaVuSans-115"/>
      <use x="609.082031" xlink:href="#DejaVuSans-111"/>
      <use x="670.263672" xlink:href="#DejaVuSans-105"/>
      <use x="698.046875" xlink:href="#DejaVuSans-100"/>
      <use x="761.523438" xlink:href="#DejaVuSans-97"/>
      <use x="822.802734" xlink:href="#DejaVuSans-108"/>
      <use x="850.585938" xlink:href="#DejaVuSans-32"/>
      <use x="882.373047" xlink:href="#DejaVuSans-118"/>
      <use x="941.552734" xlink:href="#DejaVuSans-101"/>
      <use x="1003.076172" xlink:href="#DejaVuSans-108"/>
      <use x="1030.859375" xlink:href="#DejaVuSans-111"/>
      <use x="1092.041016" xlink:href="#DejaVuSans-99"/>
      <use x="1147.021484" xlink:href="#DejaVuSans-105"/>
      <use x="1174.804688" xlink:href="#DejaVuSans-116"/>
      <use x="1214.013672" xlink:href="#DejaVuSans-121"/>
      <use x="1273.193359" xlink:href="#DejaVuSans-32"/>
      <use x="1304.980469" xlink:href="#DejaVuSans-91"/>
      <use x="1343.994141" xlink:href="#DejaVuSans-109"/>
      <use x="1441.40625" xlink:href="#DejaVuSans-47"/>
      <use x="1475.097656" xlink:href="#DejaVuSans-115"/>
      <use x="1527.197266" xlink:href="#DejaVuSans-93"/>
     </g>
    </g>
   </g>
  </g>
 </g>
 <defs>
  <clipPath id="pe2eb3e8c5f">
   <rect height="201.6" width="367.2" x="28.942188" y="7.2"/>
  </clipPath>
 </defs>
</svg>
