<?xml version="1.0" encoding="utf-8" standalone="no"?>
<!DOCTYPE svg PUBLIC "-//W3C//DTD SVG 1.1//EN"
  "http://www.w3.org/Graphics/SVG/1.1/DTD/svg11.dtd">
<!-- Created with matplotlib (https://matplotlib.org/) -->
<svg height="280.512pt" version="1.1" viewBox="0 0 404.503125 280.512" width="404.503125pt" xmlns="http://www.w3.org/2000/svg" xmlns:xlink="http://www.w3.org/1999/xlink">
 <metadata>
  <rdf:RDF xmlns:cc="http://creativecommons.org/ns#" xmlns:dc="http://purl.org/dc/elements/1.1/" xmlns:rdf="http://www.w3.org/1999/02/22-rdf-syntax-ns#">
   <cc:Work>
    <dc:type rdf:resource="http://purl.org/dc/dcmitype/StillImage"/>
    <dc:date>2021-06-16T21:49:28.667742</dc:date>
    <dc:format>image/svg+xml</dc:format>
    <dc:creator>
     <cc:Agent>
      <dc:title>Matplotlib v3.3.4, https://matplotlib.org/</dc:title>
     </cc:Agent>
    </dc:creator>
   </cc:Work>
  </rdf:RDF>
 </metadata>
 <defs>
  <style type="text/css">*{stroke-linecap:butt;stroke-linejoin:round;}</style>
 </defs>
 <g id="figure_1">
  <g id="patch_1">
   <path d="M 0 280.512 
L 404.503125 280.512 
L 404.503125 0 
L 0 0 
z
" style="fill:none;"/>
  </g>
  <g id="axes_1">
   <g id="patch_2">
    <path d="M 30.103125 208.8 
L 397.303125 208.8 
L 397.303125 7.2 
L 30.103125 7.2 
z
" style="fill:#ffffff;"/>
   </g>
   <g id="matplotlib.axis_1">
    <g id="xtick_1">
     <g id="line2d_1">
      <defs>
       <path d="M 0 0 
L 0 3.5 
" id="m662cc3d17c" style="stroke:#000000;stroke-width:0.8;"/>
      </defs>
      <g>
       <use style="stroke:#000000;stroke-width:0.8;" x="46.794034" xlink:href="#m662cc3d17c" y="208.8"/>
      </g>
     </g>
     <g id="text_1">
      <!-- 0.0 -->
      <g transform="translate(38.842472 223.398437)scale(0.1 -0.1)">
       <defs>
        <path d="M 31.78125 66.40625 
Q 24.171875 66.40625 20.328125 58.90625 
Q 16.5 51.421875 16.5 36.375 
Q 16.5 21.390625 20.328125 13.890625 
Q 24.171875 6.390625 31.78125 6.390625 
Q 39.453125 6.390625 43.28125 13.890625 
Q 47.125 21.390625 47.125 36.375 
Q 47.125 51.421875 43.28125 58.90625 
Q 39.453125 66.40625 31.78125 66.40625 
z
M 31.78125 74.21875 
Q 44.046875 74.21875 50.515625 64.515625 
Q 56.984375 54.828125 56.984375 36.375 
Q 56.984375 17.96875 50.515625 8.265625 
Q 44.046875 -1.421875 31.78125 -1.421875 
Q 19.53125 -1.421875 13.0625 8.265625 
Q 6.59375 17.96875 6.59375 36.375 
Q 6.59375 54.828125 13.0625 64.515625 
Q 19.53125 74.21875 31.78125 74.21875 
z
" id="DejaVuSans-48"/>
        <path d="M 10.6875 12.40625 
L 21 12.40625 
L 21 0 
L 10.6875 0 
z
" id="DejaVuSans-46"/>
       </defs>
       <use xlink:href="#DejaVuSans-48"/>
       <use x="63.623047" xlink:href="#DejaVuSans-46"/>
       <use x="95.410156" xlink:href="#DejaVuSans-48"/>
      </g>
     </g>
    </g>
    <g id="xtick_2">
     <g id="line2d_2">
      <g>
       <use style="stroke:#000000;stroke-width:0.8;" x="113.55767" xlink:href="#m662cc3d17c" y="208.8"/>
      </g>
     </g>
     <g id="text_2">
      <!-- 0.2 -->
      <g transform="translate(105.606108 223.398437)scale(0.1 -0.1)">
       <defs>
        <path d="M 19.1875 8.296875 
L 53.609375 8.296875 
L 53.609375 0 
L 7.328125 0 
L 7.328125 8.296875 
Q 12.9375 14.109375 22.625 23.890625 
Q 32.328125 33.6875 34.8125 36.53125 
Q 39.546875 41.84375 41.421875 45.53125 
Q 43.3125 49.21875 43.3125 52.78125 
Q 43.3125 58.59375 39.234375 62.25 
Q 35.15625 65.921875 28.609375 65.921875 
Q 23.96875 65.921875 18.8125 64.3125 
Q 13.671875 62.703125 7.8125 59.421875 
L 7.8125 69.390625 
Q 13.765625 71.78125 18.9375 73 
Q 24.125 74.21875 28.421875 74.21875 
Q 39.75 74.21875 46.484375 68.546875 
Q 53.21875 62.890625 53.21875 53.421875 
Q 53.21875 48.921875 51.53125 44.890625 
Q 49.859375 40.875 45.40625 35.40625 
Q 44.1875 33.984375 37.640625 27.21875 
Q 31.109375 20.453125 19.1875 8.296875 
z
" id="DejaVuSans-50"/>
       </defs>
       <use xlink:href="#DejaVuSans-48"/>
       <use x="63.623047" xlink:href="#DejaVuSans-46"/>
       <use x="95.410156" xlink:href="#DejaVuSans-50"/>
      </g>
     </g>
    </g>
    <g id="xtick_3">
     <g id="line2d_3">
      <g>
       <use style="stroke:#000000;stroke-width:0.8;" x="180.321307" xlink:href="#m662cc3d17c" y="208.8"/>
      </g>
     </g>
     <g id="text_3">
      <!-- 0.4 -->
      <g transform="translate(172.369744 223.398437)scale(0.1 -0.1)">
       <defs>
        <path d="M 37.796875 64.3125 
L 12.890625 25.390625 
L 37.796875 25.390625 
z
M 35.203125 72.90625 
L 47.609375 72.90625 
L 47.609375 25.390625 
L 58.015625 25.390625 
L 58.015625 17.1875 
L 47.609375 17.1875 
L 47.609375 0 
L 37.796875 0 
L 37.796875 17.1875 
L 4.890625 17.1875 
L 4.890625 26.703125 
z
" id="DejaVuSans-52"/>
       </defs>
       <use xlink:href="#DejaVuSans-48"/>
       <use x="63.623047" xlink:href="#DejaVuSans-46"/>
       <use x="95.410156" xlink:href="#DejaVuSans-52"/>
      </g>
     </g>
    </g>
    <g id="xtick_4">
     <g id="line2d_4">
      <g>
       <use style="stroke:#000000;stroke-width:0.8;" x="247.084943" xlink:href="#m662cc3d17c" y="208.8"/>
      </g>
     </g>
     <g id="text_4">
      <!-- 0.6 -->
      <g transform="translate(239.133381 223.398437)scale(0.1 -0.1)">
       <defs>
        <path d="M 33.015625 40.375 
Q 26.375 40.375 22.484375 35.828125 
Q 18.609375 31.296875 18.609375 23.390625 
Q 18.609375 15.53125 22.484375 10.953125 
Q 26.375 6.390625 33.015625 6.390625 
Q 39.65625 6.390625 43.53125 10.953125 
Q 47.40625 15.53125 47.40625 23.390625 
Q 47.40625 31.296875 43.53125 35.828125 
Q 39.65625 40.375 33.015625 40.375 
z
M 52.59375 71.296875 
L 52.59375 62.3125 
Q 48.875 64.0625 45.09375 64.984375 
Q 41.3125 65.921875 37.59375 65.921875 
Q 27.828125 65.921875 22.671875 59.328125 
Q 17.53125 52.734375 16.796875 39.40625 
Q 19.671875 43.65625 24.015625 45.921875 
Q 28.375 48.1875 33.59375 48.1875 
Q 44.578125 48.1875 50.953125 41.515625 
Q 57.328125 34.859375 57.328125 23.390625 
Q 57.328125 12.15625 50.6875 5.359375 
Q 44.046875 -1.421875 33.015625 -1.421875 
Q 20.359375 -1.421875 13.671875 8.265625 
Q 6.984375 17.96875 6.984375 36.375 
Q 6.984375 53.65625 15.1875 63.9375 
Q 23.390625 74.21875 37.203125 74.21875 
Q 40.921875 74.21875 44.703125 73.484375 
Q 48.484375 72.75 52.59375 71.296875 
z
" id="DejaVuSans-54"/>
       </defs>
       <use xlink:href="#DejaVuSans-48"/>
       <use x="63.623047" xlink:href="#DejaVuSans-46"/>
       <use x="95.410156" xlink:href="#DejaVuSans-54"/>
      </g>
     </g>
    </g>
    <g id="xtick_5">
     <g id="line2d_5">
      <g>
       <use style="stroke:#000000;stroke-width:0.8;" x="313.84858" xlink:href="#m662cc3d17c" y="208.8"/>
      </g>
     </g>
     <g id="text_5">
      <!-- 0.8 -->
      <g transform="translate(305.897017 223.398437)scale(0.1 -0.1)">
       <defs>
        <path d="M 31.78125 34.625 
Q 24.75 34.625 20.71875 30.859375 
Q 16.703125 27.09375 16.703125 20.515625 
Q 16.703125 13.921875 20.71875 10.15625 
Q 24.75 6.390625 31.78125 6.390625 
Q 38.8125 6.390625 42.859375 10.171875 
Q 46.921875 13.96875 46.921875 20.515625 
Q 46.921875 27.09375 42.890625 30.859375 
Q 38.875 34.625 31.78125 34.625 
z
M 21.921875 38.8125 
Q 15.578125 40.375 12.03125 44.71875 
Q 8.5 49.078125 8.5 55.328125 
Q 8.5 64.0625 14.71875 69.140625 
Q 20.953125 74.21875 31.78125 74.21875 
Q 42.671875 74.21875 48.875 69.140625 
Q 55.078125 64.0625 55.078125 55.328125 
Q 55.078125 49.078125 51.53125 44.71875 
Q 48 40.375 41.703125 38.8125 
Q 48.828125 37.15625 52.796875 32.3125 
Q 56.78125 27.484375 56.78125 20.515625 
Q 56.78125 9.90625 50.3125 4.234375 
Q 43.84375 -1.421875 31.78125 -1.421875 
Q 19.734375 -1.421875 13.25 4.234375 
Q 6.78125 9.90625 6.78125 20.515625 
Q 6.78125 27.484375 10.78125 32.3125 
Q 14.796875 37.15625 21.921875 38.8125 
z
M 18.3125 54.390625 
Q 18.3125 48.734375 21.84375 45.5625 
Q 25.390625 42.390625 31.78125 42.390625 
Q 38.140625 42.390625 41.71875 45.5625 
Q 45.3125 48.734375 45.3125 54.390625 
Q 45.3125 60.0625 41.71875 63.234375 
Q 38.140625 66.40625 31.78125 66.40625 
Q 25.390625 66.40625 21.84375 63.234375 
Q 18.3125 60.0625 18.3125 54.390625 
z
" id="DejaVuSans-56"/>
       </defs>
       <use xlink:href="#DejaVuSans-48"/>
       <use x="63.623047" xlink:href="#DejaVuSans-46"/>
       <use x="95.410156" xlink:href="#DejaVuSans-56"/>
      </g>
     </g>
    </g>
    <g id="xtick_6">
     <g id="line2d_6">
      <g>
       <use style="stroke:#000000;stroke-width:0.8;" x="380.612216" xlink:href="#m662cc3d17c" y="208.8"/>
      </g>
     </g>
     <g id="text_6">
      <!-- 1.0 -->
      <g transform="translate(372.660653 223.398437)scale(0.1 -0.1)">
       <defs>
        <path d="M 12.40625 8.296875 
L 28.515625 8.296875 
L 28.515625 63.921875 
L 10.984375 60.40625 
L 10.984375 69.390625 
L 28.421875 72.90625 
L 38.28125 72.90625 
L 38.28125 8.296875 
L 54.390625 8.296875 
L 54.390625 0 
L 12.40625 0 
z
" id="DejaVuSans-49"/>
       </defs>
       <use xlink:href="#DejaVuSans-49"/>
       <use x="63.623047" xlink:href="#DejaVuSans-46"/>
       <use x="95.410156" xlink:href="#DejaVuSans-48"/>
      </g>
     </g>
    </g>
    <g id="text_7">
     <!-- Time (s) -->
     <g transform="translate(193.374219 237.076562)scale(0.1 -0.1)">
      <defs>
       <path d="M -0.296875 72.90625 
L 61.375 72.90625 
L 61.375 64.59375 
L 35.5 64.59375 
L 35.5 0 
L 25.59375 0 
L 25.59375 64.59375 
L -0.296875 64.59375 
z
" id="DejaVuSans-84"/>
       <path d="M 9.421875 54.6875 
L 18.40625 54.6875 
L 18.40625 0 
L 9.421875 0 
z
M 9.421875 75.984375 
L 18.40625 75.984375 
L 18.40625 64.59375 
L 9.421875 64.59375 
z
" id="DejaVuSans-105"/>
       <path d="M 52 44.1875 
Q 55.375 50.25 60.0625 53.125 
Q 64.75 56 71.09375 56 
Q 79.640625 56 84.28125 50.015625 
Q 88.921875 44.046875 88.921875 33.015625 
L 88.921875 0 
L 79.890625 0 
L 79.890625 32.71875 
Q 79.890625 40.578125 77.09375 44.375 
Q 74.3125 48.1875 68.609375 48.1875 
Q 61.625 48.1875 57.5625 43.546875 
Q 53.515625 38.921875 53.515625 30.90625 
L 53.515625 0 
L 44.484375 0 
L 44.484375 32.71875 
Q 44.484375 40.625 41.703125 44.40625 
Q 38.921875 48.1875 33.109375 48.1875 
Q 26.21875 48.1875 22.15625 43.53125 
Q 18.109375 38.875 18.109375 30.90625 
L 18.109375 0 
L 9.078125 0 
L 9.078125 54.6875 
L 18.109375 54.6875 
L 18.109375 46.1875 
Q 21.1875 51.21875 25.484375 53.609375 
Q 29.78125 56 35.6875 56 
Q 41.65625 56 45.828125 52.96875 
Q 50 49.953125 52 44.1875 
z
" id="DejaVuSans-109"/>
       <path d="M 56.203125 29.59375 
L 56.203125 25.203125 
L 14.890625 25.203125 
Q 15.484375 15.921875 20.484375 11.0625 
Q 25.484375 6.203125 34.421875 6.203125 
Q 39.59375 6.203125 44.453125 7.46875 
Q 49.3125 8.734375 54.109375 11.28125 
L 54.109375 2.78125 
Q 49.265625 0.734375 44.1875 -0.34375 
Q 39.109375 -1.421875 33.890625 -1.421875 
Q 20.796875 -1.421875 13.15625 6.1875 
Q 5.515625 13.8125 5.515625 26.8125 
Q 5.515625 40.234375 12.765625 48.109375 
Q 20.015625 56 32.328125 56 
Q 43.359375 56 49.78125 48.890625 
Q 56.203125 41.796875 56.203125 29.59375 
z
M 47.21875 32.234375 
Q 47.125 39.59375 43.09375 43.984375 
Q 39.0625 48.390625 32.421875 48.390625 
Q 24.90625 48.390625 20.390625 44.140625 
Q 15.875 39.890625 15.1875 32.171875 
z
" id="DejaVuSans-101"/>
       <path id="DejaVuSans-32"/>
       <path d="M 31 75.875 
Q 24.46875 64.65625 21.28125 53.65625 
Q 18.109375 42.671875 18.109375 31.390625 
Q 18.109375 20.125 21.3125 9.0625 
Q 24.515625 -2 31 -13.1875 
L 23.1875 -13.1875 
Q 15.875 -1.703125 12.234375 9.375 
Q 8.59375 20.453125 8.59375 31.390625 
Q 8.59375 42.28125 12.203125 53.3125 
Q 15.828125 64.359375 23.1875 75.875 
z
" id="DejaVuSans-40"/>
       <path d="M 44.28125 53.078125 
L 44.28125 44.578125 
Q 40.484375 46.53125 36.375 47.5 
Q 32.28125 48.484375 27.875 48.484375 
Q 21.1875 48.484375 17.84375 46.4375 
Q 14.5 44.390625 14.5 40.28125 
Q 14.5 37.15625 16.890625 35.375 
Q 19.28125 33.59375 26.515625 31.984375 
L 29.59375 31.296875 
Q 39.15625 29.25 43.1875 25.515625 
Q 47.21875 21.78125 47.21875 15.09375 
Q 47.21875 7.46875 41.1875 3.015625 
Q 35.15625 -1.421875 24.609375 -1.421875 
Q 20.21875 -1.421875 15.453125 -0.5625 
Q 10.6875 0.296875 5.421875 2 
L 5.421875 11.28125 
Q 10.40625 8.6875 15.234375 7.390625 
Q 20.0625 6.109375 24.8125 6.109375 
Q 31.15625 6.109375 34.5625 8.28125 
Q 37.984375 10.453125 37.984375 14.40625 
Q 37.984375 18.0625 35.515625 20.015625 
Q 33.0625 21.96875 24.703125 23.78125 
L 21.578125 24.515625 
Q 13.234375 26.265625 9.515625 29.90625 
Q 5.8125 33.546875 5.8125 39.890625 
Q 5.8125 47.609375 11.28125 51.796875 
Q 16.75 56 26.8125 56 
Q 31.78125 56 36.171875 55.265625 
Q 40.578125 54.546875 44.28125 53.078125 
z
" id="DejaVuSans-115"/>
       <path d="M 8.015625 75.875 
L 15.828125 75.875 
Q 23.140625 64.359375 26.78125 53.3125 
Q 30.421875 42.28125 30.421875 31.390625 
Q 30.421875 20.453125 26.78125 9.375 
Q 23.140625 -1.703125 15.828125 -13.1875 
L 8.015625 -13.1875 
Q 14.5 -2 17.703125 9.0625 
Q 20.90625 20.125 20.90625 31.390625 
Q 20.90625 42.671875 17.703125 53.65625 
Q 14.5 64.65625 8.015625 75.875 
z
" id="DejaVuSans-41"/>
      </defs>
      <use xlink:href="#DejaVuSans-84"/>
      <use x="57.958984" xlink:href="#DejaVuSans-105"/>
      <use x="85.742188" xlink:href="#DejaVuSans-109"/>
      <use x="183.154297" xlink:href="#DejaVuSans-101"/>
      <use x="244.677734" xlink:href="#DejaVuSans-32"/>
      <use x="276.464844" xlink:href="#DejaVuSans-40"/>
      <use x="315.478516" xlink:href="#DejaVuSans-115"/>
      <use x="367.578125" xlink:href="#DejaVuSans-41"/>
     </g>
    </g>
   </g>
   <g id="matplotlib.axis_2">
    <g id="ytick_1">
     <g id="line2d_7">
      <defs>
       <path d="M 0 0 
L -3.5 0 
" id="m5c43eb6e36" style="stroke:#000000;stroke-width:0.8;"/>
      </defs>
      <g>
       <use style="stroke:#000000;stroke-width:0.8;" x="30.103125" xlink:href="#m5c43eb6e36" y="199.636364"/>
      </g>
     </g>
     <g id="text_8">
      <!-- 0.0 -->
      <g transform="translate(7.2 203.435582)scale(0.1 -0.1)">
       <use xlink:href="#DejaVuSans-48"/>
       <use x="63.623047" xlink:href="#DejaVuSans-46"/>
       <use x="95.410156" xlink:href="#DejaVuSans-48"/>
      </g>
     </g>
    </g>
    <g id="ytick_2">
     <g id="line2d_8">
      <g>
       <use style="stroke:#000000;stroke-width:0.8;" x="30.103125" xlink:href="#m5c43eb6e36" y="162.981353"/>
      </g>
     </g>
     <g id="text_9">
      <!-- 0.2 -->
      <g transform="translate(7.2 166.780572)scale(0.1 -0.1)">
       <use xlink:href="#DejaVuSans-48"/>
       <use x="63.623047" xlink:href="#DejaVuSans-46"/>
       <use x="95.410156" xlink:href="#DejaVuSans-50"/>
      </g>
     </g>
    </g>
    <g id="ytick_3">
     <g id="line2d_9">
      <g>
       <use style="stroke:#000000;stroke-width:0.8;" x="30.103125" xlink:href="#m5c43eb6e36" y="126.326343"/>
      </g>
     </g>
     <g id="text_10">
      <!-- 0.4 -->
      <g transform="translate(7.2 130.125561)scale(0.1 -0.1)">
       <use xlink:href="#DejaVuSans-48"/>
       <use x="63.623047" xlink:href="#DejaVuSans-46"/>
       <use x="95.410156" xlink:href="#DejaVuSans-52"/>
      </g>
     </g>
    </g>
    <g id="ytick_4">
     <g id="line2d_10">
      <g>
       <use style="stroke:#000000;stroke-width:0.8;" x="30.103125" xlink:href="#m5c43eb6e36" y="89.671332"/>
      </g>
     </g>
     <g id="text_11">
      <!-- 0.6 -->
      <g transform="translate(7.2 93.470551)scale(0.1 -0.1)">
       <use xlink:href="#DejaVuSans-48"/>
       <use x="63.623047" xlink:href="#DejaVuSans-46"/>
       <use x="95.410156" xlink:href="#DejaVuSans-54"/>
      </g>
     </g>
    </g>
    <g id="ytick_5">
     <g id="line2d_11">
      <g>
       <use style="stroke:#000000;stroke-width:0.8;" x="30.103125" xlink:href="#m5c43eb6e36" y="53.016322"/>
      </g>
     </g>
     <g id="text_12">
      <!-- 0.8 -->
      <g transform="translate(7.2 56.81554)scale(0.1 -0.1)">
       <use xlink:href="#DejaVuSans-48"/>
       <use x="63.623047" xlink:href="#DejaVuSans-46"/>
       <use x="95.410156" xlink:href="#DejaVuSans-56"/>
      </g>
     </g>
    </g>
    <g id="ytick_6">
     <g id="line2d_12">
      <g>
       <use style="stroke:#000000;stroke-width:0.8;" x="30.103125" xlink:href="#m5c43eb6e36" y="16.361311"/>
      </g>
     </g>
     <g id="text_13">
      <!-- 1.0 -->
      <g transform="translate(7.2 20.16053)scale(0.1 -0.1)">
       <use xlink:href="#DejaVuSans-49"/>
       <use x="63.623047" xlink:href="#DejaVuSans-46"/>
       <use x="95.410156" xlink:href="#DejaVuSans-48"/>
      </g>
     </g>
    </g>
   </g>
   <g id="line2d_13">
    <path clip-path="url(#p494ac33edc)" d="M 46.794034 199.636364 
L 46.824313 199.041749 
L 46.91515 190.276061 
L 47.104394 143.894588 
L 47.611567 16.54959 
L 47.626706 16.363636 
L 47.664555 17.199438 
L 47.762961 27.835032 
L 47.967345 81.300275 
L 48.429099 198.884021 
L 48.466948 199.627063 
L 48.512366 198.068997 
L 48.625912 182.970177 
L 48.868144 112.240565 
L 49.246631 18.051184 
L 49.29962 16.363636 
L 49.352608 18.309884 
L 49.473724 35.747309 
L 49.738665 116.148142 
L 50.086873 198.30029 
L 50.132292 199.636364 
L 50.18528 197.819419 
L 50.298826 182.21182 
L 50.548628 108.32524 
L 50.919545 17.810743 
L 50.964964 16.363636 
L 51.017952 18.051184 
L 51.131498 33.404784 
L 51.3813 107.019646 
L 51.752217 198.068997 
L 51.805205 199.627063 
L 51.850624 198.068997 
L 51.96417 182.970177 
L 52.206402 112.240565 
L 52.584889 18.051184 
L 52.637877 16.363636 
L 52.690865 18.309884 
L 52.811981 35.747309 
L 53.076922 116.148142 
L 53.425131 198.30029 
L 53.470549 199.636364 
L 53.523537 197.819419 
L 53.637084 182.21182 
L 53.886885 108.32524 
L 54.257803 17.810743 
L 54.303221 16.363636 
L 54.356209 18.051184 
L 54.469755 33.404784 
L 54.719557 107.019646 
L 55.090475 198.068997 
L 55.143463 199.627063 
L 55.188881 198.068997 
L 55.302427 182.970177 
L 55.544659 112.240565 
L 55.923146 18.051184 
L 55.976135 16.363636 
L 56.029123 18.309884 
L 56.150239 35.747309 
L 56.41518 116.148142 
L 56.763388 198.30029 
L 56.808807 199.636364 
L 56.861795 197.819419 
L 56.975341 182.21182 
L 57.225143 108.32524 
L 57.59606 17.810743 
L 57.641479 16.363636 
L 57.694467 18.051184 
L 57.808013 33.404784 
L 58.057815 107.019646 
L 58.428732 198.068997 
L 58.48172 199.627063 
L 58.527139 198.068997 
L 58.640685 182.970177 
L 58.882917 112.240565 
L 59.261404 18.051184 
L 59.314392 16.363636 
L 59.36738 18.309884 
L 59.488496 35.747309 
L 59.753437 116.148142 
L 60.101646 198.30029 
L 60.147064 199.636364 
L 60.200052 197.819419 
L 60.313599 182.21182 
L 60.5634 108.32524 
L 60.934318 17.810743 
L 60.979736 16.363636 
L 61.032724 18.051184 
L 61.14627 33.404784 
L 61.396072 107.019646 
L 61.76699 198.068997 
L 61.819978 199.627063 
L 61.865396 198.068997 
L 61.978942 182.970177 
L 62.221174 112.240565 
L 62.599662 18.051184 
L 62.65265 16.363636 
L 62.705638 18.309884 
L 62.826754 35.747309 
L 63.091695 116.148142 
L 63.439903 198.30029 
L 63.485322 199.636364 
L 63.53831 197.819419 
L 63.651856 182.21182 
L 63.901658 108.32524 
L 64.272575 17.810743 
L 64.317994 16.363636 
L 64.370982 18.051184 
L 64.484528 33.404784 
L 64.73433 107.019646 
L 65.105247 198.068997 
L 65.158235 199.627063 
L 65.203654 198.068997 
L 65.3172 182.970177 
L 65.559432 112.240565 
L 65.937919 18.051184 
L 65.990907 16.363636 
L 66.043895 18.309884 
L 66.165011 35.747309 
L 66.429952 116.148142 
L 66.778161 198.30029 
L 66.823579 199.636364 
L 66.876567 197.819419 
L 66.990114 182.21182 
L 67.239915 108.32524 
L 67.610833 17.810743 
L 67.656251 16.363636 
L 67.709239 18.051184 
L 67.822786 33.404784 
L 68.072587 107.019646 
L 68.443505 198.068997 
L 68.496493 199.627063 
L 68.541911 198.068997 
L 68.655457 182.970177 
L 68.897689 112.240565 
L 69.276177 18.051184 
L 69.329165 16.363636 
L 69.382153 18.309884 
L 69.503269 35.747309 
L 69.76821 116.148142 
L 70.116418 198.30029 
L 70.161837 199.636364 
L 70.214825 197.819419 
L 70.328371 182.21182 
L 70.578173 108.32524 
L 70.94909 17.810743 
L 70.994509 16.363636 
L 71.047497 18.051184 
L 71.161043 33.404784 
L 71.410845 107.019646 
L 71.781762 198.068997 
L 71.83475 199.627063 
L 71.880169 198.068997 
L 71.993715 182.970177 
L 72.235947 112.240565 
L 72.614434 18.051184 
L 72.667422 16.363636 
L 72.72041 18.309884 
L 72.841526 35.747309 
L 73.106467 116.148142 
L 73.454676 198.30029 
L 73.500094 199.636364 
L 73.553082 197.819419 
L 73.666629 182.21182 
L 73.91643 108.32524 
L 74.287348 17.810743 
L 74.332766 16.363636 
L 74.385754 18.051184 
L 74.499301 33.404784 
L 74.749102 107.019646 
L 75.12002 198.068997 
L 75.173008 199.627063 
L 75.218426 198.068997 
L 75.331972 182.970177 
L 75.574204 112.240565 
L 75.952692 18.051184 
L 76.00568 16.363636 
L 76.058668 18.309884 
L 76.179784 35.747309 
L 76.444725 116.148142 
L 76.792933 198.30029 
L 76.838352 199.636364 
L 76.89134 197.819419 
L 77.004886 182.21182 
L 77.254688 108.32524 
L 77.625605 17.810743 
L 77.671024 16.363636 
L 77.724012 18.051184 
L 77.837558 33.404784 
L 78.08736 107.019646 
L 78.458277 198.068997 
L 78.511265 199.627063 
L 78.556684 198.068997 
L 78.67023 182.970177 
L 78.912462 112.240565 
L 79.290949 18.051184 
L 79.343937 16.363636 
L 79.396926 18.309884 
L 79.518041 35.747309 
L 79.782983 116.148142 
L 80.131191 198.30029 
L 80.176609 199.636364 
L 80.229597 197.819419 
L 80.343144 182.21182 
L 80.592945 108.32524 
L 80.963863 17.810743 
L 81.009281 16.363636 
L 81.062269 18.051184 
L 81.175816 33.404784 
L 81.425617 107.019646 
L 81.796535 198.068997 
L 81.849523 199.627063 
L 81.894941 198.068997 
L 82.008488 182.970177 
L 82.250719 112.240565 
L 82.629207 18.051184 
L 82.682195 16.363636 
L 82.735183 18.309884 
L 82.856299 35.747309 
L 83.12124 116.148142 
L 83.469448 198.30029 
L 83.514867 199.636364 
L 83.567855 197.819419 
L 83.681401 182.21182 
L 83.931203 108.32524 
L 84.30212 17.810743 
L 84.347539 16.363636 
L 84.400527 18.051184 
L 84.514073 33.404784 
L 84.763875 107.019646 
L 85.134792 198.068997 
L 85.18778 199.627063 
L 85.233199 198.068997 
L 85.346745 182.970177 
L 85.588977 112.240565 
L 85.967464 18.051184 
L 86.020452 16.363636 
L 86.073441 18.309884 
L 86.194556 35.747309 
L 86.459498 116.148142 
L 86.807706 198.30029 
L 86.853124 199.636364 
L 86.906112 197.819419 
L 87.019659 182.21182 
L 87.26946 108.32524 
L 87.640378 17.810743 
L 87.685796 16.363636 
L 87.738784 18.051184 
L 87.852331 33.404784 
L 88.102132 107.019646 
L 88.47305 198.068997 
L 88.526038 199.627063 
L 88.571456 198.068997 
L 88.685003 182.970177 
L 88.927234 112.240565 
L 89.305722 18.051184 
L 89.35871 16.363636 
L 89.411698 18.309884 
L 89.532814 35.747309 
L 89.797755 116.148142 
L 90.145963 198.30029 
L 90.191382 199.636364 
L 90.24437 197.819419 
L 90.357916 182.21182 
L 90.607718 108.32524 
L 90.978635 17.810743 
L 91.024054 16.363636 
L 91.077042 18.051184 
L 91.190588 33.404784 
L 91.44039 107.019646 
L 91.811307 198.068997 
L 91.864295 199.627063 
L 91.909714 198.068997 
L 92.02326 182.970177 
L 92.265492 112.240565 
L 92.643979 18.051184 
L 92.696967 16.363636 
L 92.749956 18.309884 
L 92.871072 35.747309 
L 93.136013 116.148142 
L 93.484221 198.30029 
L 93.529639 199.636364 
L 93.582628 197.819419 
L 93.696174 182.21182 
L 93.945975 108.32524 
L 94.316893 17.810743 
L 94.362311 16.363636 
L 94.415299 18.051184 
L 94.528846 33.404784 
L 94.778647 107.019646 
L 95.149565 198.068997 
L 95.202553 199.627063 
L 95.247971 198.068997 
L 95.361518 182.970177 
L 95.603749 112.240565 
L 95.982237 18.051184 
L 96.035225 16.363636 
L 96.088213 18.309884 
L 96.209329 35.747309 
L 96.47427 116.148142 
L 96.822478 198.30029 
L 96.867897 199.636364 
L 96.920885 197.819419 
L 97.034431 182.21182 
L 97.284233 108.32524 
L 97.65515 17.810743 
L 97.700569 16.363636 
L 97.753557 18.051184 
L 97.867103 33.404784 
L 98.116905 107.019646 
L 98.487822 198.068997 
L 98.54081 199.627063 
L 98.586229 198.068997 
L 98.699775 182.970177 
L 98.942007 112.240565 
L 99.320494 18.051184 
L 99.373482 16.363636 
L 99.426471 18.309884 
L 99.547587 35.747309 
L 99.812528 116.148142 
L 100.160736 198.30029 
L 100.206154 199.636364 
L 100.259143 197.819419 
L 100.372689 182.21182 
L 100.62249 108.32524 
L 100.993408 17.810743 
L 101.038826 16.363636 
L 101.091814 18.051184 
L 101.205361 33.404784 
L 101.455162 107.019646 
L 101.82608 198.068997 
L 101.879068 199.627063 
L 101.924486 198.068997 
L 102.038033 182.970177 
L 102.280264 112.240565 
L 102.658752 18.051184 
L 102.71174 16.363636 
L 102.764728 18.309884 
L 102.885844 35.747309 
L 103.150785 116.148142 
L 103.498993 198.30029 
L 103.544412 199.636364 
L 103.5974 197.819419 
L 103.710946 182.21182 
L 103.960748 108.32524 
L 104.331665 17.810743 
L 104.377084 16.363636 
L 104.430072 18.051184 
L 104.543618 33.404784 
L 104.79342 107.019646 
L 105.164337 198.068997 
L 105.217325 199.627063 
L 105.262744 198.068997 
L 105.37629 182.970177 
L 105.618522 112.240565 
L 105.997009 18.051184 
L 106.049997 16.363636 
L 106.102986 18.309884 
L 106.224102 35.747309 
L 106.489043 116.148142 
L 106.837251 198.30029 
L 106.882669 199.636364 
L 106.935658 197.819419 
L 107.049204 182.21182 
L 107.299005 108.32524 
L 107.669923 17.810743 
L 107.715341 16.363636 
L 107.76833 18.051184 
L 107.881876 33.404784 
L 108.131677 107.019646 
L 108.502595 198.068997 
L 108.555583 199.627063 
L 108.601001 198.068997 
L 108.714548 182.970177 
L 108.956779 112.240565 
L 109.335267 18.051184 
L 109.388255 16.363636 
L 109.441243 18.309884 
L 109.562359 35.747309 
L 109.8273 116.148142 
L 110.175508 198.30029 
L 110.220927 199.636364 
L 110.273915 197.819419 
L 110.387461 182.21182 
L 110.637263 108.32524 
L 111.00818 17.810743 
L 111.053599 16.363636 
L 111.106587 18.051184 
L 111.220133 33.404784 
L 111.469935 107.019646 
L 111.840852 198.068997 
L 111.893841 199.627063 
L 111.939259 198.068997 
L 112.052805 182.970177 
L 112.295037 112.240565 
L 112.673524 18.051184 
L 112.726512 16.363636 
L 112.779501 18.309884 
L 112.900617 35.747309 
L 113.165558 116.148142 
L 113.513766 198.30029 
L 113.559184 199.636364 
L 113.612173 197.819419 
L 113.725719 182.21182 
L 113.97552 108.32524 
L 114.346438 17.810743 
L 114.391856 16.363636 
L 114.444845 18.051184 
L 114.558391 33.404784 
L 114.808192 107.019646 
L 115.17911 198.068997 
L 115.232098 199.627063 
L 115.277517 198.068997 
L 115.391063 182.970177 
L 115.633295 112.240565 
L 116.011782 18.051184 
L 116.06477 16.363636 
L 116.117758 18.309884 
L 116.238874 35.747309 
L 116.503815 116.148142 
L 116.852023 198.30029 
L 116.897442 199.636364 
L 116.95043 197.819419 
L 117.063976 182.21182 
L 117.313778 108.32524 
L 117.684695 17.810743 
L 117.730114 16.363636 
L 117.783102 18.051184 
L 117.896648 33.404784 
L 118.14645 107.019646 
L 118.517367 198.068997 
L 118.570356 199.627063 
L 118.615774 198.068997 
L 118.72932 182.970177 
L 118.971552 112.240565 
L 119.350039 18.051184 
L 119.403027 16.363636 
L 119.456016 18.309884 
L 119.577132 35.747309 
L 119.842073 116.148142 
L 120.190281 198.30029 
L 120.235699 199.636364 
L 120.288688 197.819419 
L 120.402234 182.21182 
L 120.652035 108.32524 
L 121.022953 17.810743 
L 121.068371 16.363636 
L 121.12136 18.051184 
L 121.234906 33.404784 
L 121.484707 107.019646 
L 121.855625 198.068997 
L 121.908613 199.627063 
L 121.954032 198.068997 
L 122.067578 182.970177 
L 122.30981 112.240565 
L 122.688297 18.051184 
L 122.741285 16.363636 
L 122.794273 18.309884 
L 122.915389 35.747309 
L 123.18033 116.148142 
L 123.528538 198.30029 
L 123.573957 199.636364 
L 123.626945 197.819419 
L 123.740491 182.21182 
L 123.990293 108.32524 
L 124.36121 17.810743 
L 124.406629 16.363636 
L 124.459617 18.051184 
L 124.573163 33.404784 
L 124.822965 107.019646 
L 125.193882 198.068997 
L 125.246871 199.627063 
L 125.292289 198.068997 
L 125.405835 182.970177 
L 125.648067 112.240565 
L 126.026554 18.051184 
L 126.079543 16.363636 
L 126.132531 18.309884 
L 126.253647 35.747309 
L 126.518588 116.148142 
L 126.866796 198.30029 
L 126.912214 199.636364 
L 126.965203 197.819419 
L 127.078749 182.21182 
L 127.32855 108.32524 
L 127.699468 17.810743 
L 127.744886 16.363636 
L 127.797875 18.051184 
L 127.911421 33.404784 
L 128.161222 107.019646 
L 128.53214 198.068997 
L 128.585128 199.627063 
L 128.630547 198.068997 
L 128.744093 182.970177 
L 128.986325 112.240565 
L 129.364812 18.051184 
L 129.4178 16.363636 
L 129.470788 18.309884 
L 129.591904 35.747309 
L 129.856845 116.148142 
L 130.205054 198.30029 
L 130.250472 199.636364 
L 130.30346 197.819419 
L 130.417006 182.21182 
L 130.666808 108.32524 
L 131.037725 17.810743 
L 131.083144 16.363636 
L 131.136132 18.051184 
L 131.249678 33.404784 
L 131.49948 107.019646 
L 131.870397 198.068997 
L 131.923386 199.627063 
L 131.968804 198.068997 
L 132.08235 182.970177 
L 132.324582 112.240565 
L 132.703069 18.051184 
L 132.756058 16.363636 
L 132.809046 18.309884 
L 132.930162 35.747309 
L 133.195103 116.148142 
L 133.543311 198.30029 
L 133.588729 199.636364 
L 133.641718 197.819419 
L 133.755264 182.21182 
L 134.005065 108.32524 
L 134.375983 17.810743 
L 134.421401 16.363636 
L 134.47439 18.051184 
L 134.587936 33.404784 
L 134.837737 107.019646 
L 135.208655 198.068997 
L 135.261643 199.627063 
L 135.307062 198.068997 
L 135.420608 182.970177 
L 135.66284 112.240565 
L 136.041327 18.051184 
L 136.094315 16.363636 
L 136.147303 18.309884 
L 136.268419 35.747309 
L 136.53336 116.148142 
L 136.881569 198.30029 
L 136.926987 199.636364 
L 136.979975 197.819419 
L 137.093521 182.21182 
L 137.343323 108.32524 
L 137.71424 17.810743 
L 137.759659 16.363636 
L 137.812647 18.051184 
L 137.926193 33.404784 
L 138.175995 107.019646 
L 138.546912 198.068997 
L 138.599901 199.627063 
L 138.645319 198.068997 
L 138.758865 182.970177 
L 139.001097 112.240565 
L 139.379584 18.051184 
L 139.432573 16.363636 
L 139.485561 18.309884 
L 139.606677 35.747309 
L 139.871618 116.148142 
L 140.219826 198.30029 
L 140.265245 199.636364 
L 140.318233 197.819419 
L 140.431779 182.21182 
L 140.68158 108.32524 
L 141.052498 17.810743 
L 141.097916 16.363636 
L 141.150905 18.051184 
L 141.264451 33.404784 
L 141.514252 107.019646 
L 141.88517 198.068997 
L 141.938158 199.627063 
L 141.983577 198.068997 
L 142.097123 182.970177 
L 142.339355 112.240565 
L 142.717842 18.051184 
L 142.77083 16.363636 
L 142.823818 18.309884 
L 142.944934 35.747309 
L 143.209875 116.148142 
L 143.558084 198.30029 
L 143.603502 199.636364 
L 143.65649 197.819419 
L 143.770036 182.21182 
L 144.019838 108.32524 
L 144.390756 17.810743 
L 144.436174 16.363636 
L 144.489162 18.051184 
L 144.602708 33.404784 
L 144.85251 107.019646 
L 145.223427 198.068997 
L 145.276416 199.627063 
L 145.321834 198.068997 
L 145.43538 182.970177 
L 145.677612 112.240565 
L 146.056099 18.051184 
L 146.109088 16.363636 
L 146.162076 18.309884 
L 146.283192 35.747309 
L 146.548133 116.148142 
L 146.896341 198.30029 
L 146.94176 199.636364 
L 146.994748 197.819419 
L 147.108294 182.21182 
L 147.358096 108.32524 
L 147.729013 17.810743 
L 147.774432 16.363636 
L 147.82742 18.051184 
L 147.940966 33.404784 
L 148.190767 107.019646 
L 148.561685 198.068997 
L 148.614673 199.627063 
L 148.660092 198.068997 
L 148.773638 182.970177 
L 149.01587 112.240565 
L 149.394357 18.051184 
L 149.447345 16.363636 
L 149.500333 18.309884 
L 149.621449 35.747309 
L 149.88639 116.148142 
L 150.234599 198.30029 
L 150.280017 199.636364 
L 150.333005 197.819419 
L 150.446551 182.21182 
L 150.696353 108.32524 
L 151.067271 17.810743 
L 151.112689 16.363636 
L 151.165677 18.051184 
L 151.279223 33.404784 
L 151.529025 107.019646 
L 151.899942 198.068997 
L 151.952931 199.627063 
L 151.998349 198.068997 
L 152.111895 182.970177 
L 152.354127 112.240565 
L 152.732614 18.051184 
L 152.785603 16.363636 
L 152.838591 18.309884 
L 152.959707 35.747309 
L 153.224648 116.148142 
L 153.572856 198.30029 
L 153.618275 199.636364 
L 153.671263 197.819419 
L 153.784809 182.21182 
L 154.034611 108.32524 
L 154.405528 17.810743 
L 154.450947 16.363636 
L 154.503935 18.051184 
L 154.617481 33.404784 
L 154.867283 107.019646 
L 155.2382 198.068997 
L 155.291188 199.627063 
L 155.336607 198.068997 
L 155.450153 182.970177 
L 155.692385 112.240565 
L 156.070872 18.051184 
L 156.12386 16.363636 
L 156.176848 18.309884 
L 156.297964 35.747309 
L 156.562905 116.148142 
L 156.911114 198.30029 
L 156.956532 199.636364 
L 157.00952 197.819419 
L 157.123066 182.21182 
L 157.372868 108.32524 
L 157.743786 17.810743 
L 157.789204 16.363636 
L 157.842192 18.051184 
L 157.955738 33.404784 
L 158.20554 107.019646 
L 158.576458 198.068997 
L 158.629446 199.627063 
L 158.674864 198.068997 
L 158.78841 182.970177 
L 159.030642 112.240565 
L 159.409129 18.051184 
L 159.462118 16.363636 
L 159.515106 18.309884 
L 159.636222 35.747309 
L 159.901163 116.148142 
L 160.249371 198.30029 
L 160.29479 199.636364 
L 160.347778 197.819419 
L 160.461324 182.21182 
L 160.711126 108.32524 
L 161.082043 17.810743 
L 161.127462 16.363636 
L 161.18045 18.051184 
L 161.293996 33.404784 
L 161.543798 107.019646 
L 161.914715 198.068997 
L 161.967703 199.627063 
L 162.013122 198.068997 
L 162.126668 182.970177 
L 162.3689 112.240565 
L 162.747387 18.051184 
L 162.800375 16.363636 
L 162.853363 18.309884 
L 162.974479 35.747309 
L 163.23942 116.148142 
L 163.587629 198.30029 
L 163.633047 199.636364 
L 163.686035 197.819419 
L 163.799582 182.21182 
L 164.049383 108.32524 
L 164.420301 17.810743 
L 164.465719 16.363636 
L 164.518707 18.051184 
L 164.632253 33.404784 
L 164.882055 107.019646 
L 165.252973 198.068997 
L 165.305961 199.627063 
L 165.351379 198.068997 
L 165.464925 182.970177 
L 165.707157 112.240565 
L 166.085644 18.051184 
L 166.138633 16.363636 
L 166.191621 18.309884 
L 166.312737 35.747309 
L 166.577678 116.148142 
L 166.925886 198.30029 
L 166.971305 199.636364 
L 167.024293 197.819419 
L 167.137839 182.21182 
L 167.387641 108.32524 
L 167.758558 17.810743 
L 167.803977 16.363636 
L 167.856965 18.051184 
L 167.970511 33.404784 
L 168.220313 107.019646 
L 168.59123 198.068997 
L 168.644218 199.627063 
L 168.689637 198.068997 
L 168.803183 182.970177 
L 169.045415 112.240565 
L 169.423902 18.051184 
L 169.47689 16.363636 
L 169.529878 18.309884 
L 169.650994 35.747309 
L 169.915935 116.148142 
L 170.264144 198.30029 
L 170.309562 199.636364 
L 170.36255 197.819419 
L 170.476097 182.21182 
L 170.725898 108.32524 
L 171.096816 17.810743 
L 171.142234 16.363636 
L 171.195222 18.051184 
L 171.308769 33.404784 
L 171.55857 107.019646 
L 171.929488 198.068997 
L 171.982476 199.627063 
L 172.027894 198.068997 
L 172.14144 182.970177 
L 172.383672 112.240565 
L 172.76216 18.051184 
L 172.815148 16.363636 
L 172.868136 18.309884 
L 172.989252 35.747309 
L 173.254193 116.148142 
L 173.602401 198.30029 
L 173.64782 199.636364 
L 173.700808 197.819419 
L 173.814354 182.21182 
L 174.064156 108.32524 
L 174.435073 17.810743 
L 174.480492 16.363636 
L 174.53348 18.051184 
L 174.647026 33.404784 
L 174.896828 107.019646 
L 175.267745 198.068997 
L 175.320733 199.627063 
L 175.366152 198.068997 
L 175.479698 182.970177 
L 175.72193 112.240565 
L 176.100417 18.051184 
L 176.153405 16.363636 
L 176.206393 18.309884 
L 176.327509 35.747309 
L 176.59245 116.148142 
L 176.940659 198.30029 
L 176.986077 199.636364 
L 177.039065 197.819419 
L 177.152612 182.21182 
L 177.402413 108.32524 
L 177.773331 17.810743 
L 177.818749 16.363636 
L 177.871737 18.051184 
L 177.985284 33.404784 
L 178.235085 107.019646 
L 178.606003 198.068997 
L 178.658991 199.627063 
L 178.704409 198.068997 
L 178.817955 182.970177 
L 179.060187 112.240565 
L 179.438675 18.051184 
L 179.491663 16.363636 
L 179.544651 18.309884 
L 179.665767 35.747309 
L 179.930708 116.148142 
L 180.278916 198.30029 
L 180.324335 199.636364 
L 180.377323 197.819419 
L 180.490869 182.21182 
L 180.740671 108.32524 
L 181.111588 17.810743 
L 181.157007 16.363636 
L 181.209995 18.051184 
L 181.323541 33.404784 
L 181.573343 107.019646 
L 181.94426 198.068997 
L 181.997248 199.627063 
L 182.042667 198.068997 
L 182.156213 182.970177 
L 182.398445 112.240565 
L 182.776932 18.051184 
L 182.82992 16.363636 
L 182.882909 18.309884 
L 183.004024 35.747309 
L 183.268965 116.148142 
L 183.617174 198.30029 
L 183.662592 199.636364 
L 183.71558 197.819419 
L 183.829127 182.21182 
L 184.078928 108.32524 
L 184.449846 17.810743 
L 184.495264 16.363636 
L 184.548252 18.051184 
L 184.661799 33.404784 
L 184.9116 107.019646 
L 185.282518 198.068997 
L 185.335506 199.627063 
L 185.380924 198.068997 
L 185.494471 182.970177 
L 185.736702 112.240565 
L 186.11519 18.051184 
L 186.168178 16.363636 
L 186.221166 18.309884 
L 186.342282 35.747309 
L 186.607223 116.148142 
L 186.955431 198.30029 
L 187.00085 199.636364 
L 187.053838 197.819419 
L 187.167384 182.21182 
L 187.417186 108.32524 
L 187.788103 17.810743 
L 187.833522 16.363636 
L 187.88651 18.051184 
L 188.000056 33.404784 
L 188.249858 107.019646 
L 188.620775 198.068997 
L 188.673763 199.627063 
L 188.719182 198.068997 
L 188.832728 182.970177 
L 189.07496 112.240565 
L 189.453447 18.051184 
L 189.506435 16.363636 
L 189.559424 18.309884 
L 189.680539 35.747309 
L 189.945481 116.148142 
L 190.293689 198.30029 
L 190.339107 199.636364 
L 190.392095 197.819419 
L 190.505642 182.21182 
L 190.755443 108.32524 
L 191.126361 17.810743 
L 191.171779 16.363636 
L 191.224767 18.051184 
L 191.338314 33.404784 
L 191.588115 107.019646 
L 191.959033 198.068997 
L 192.012021 199.627063 
L 192.057439 198.068997 
L 192.170986 182.970177 
L 192.413217 112.240565 
L 192.791705 18.051184 
L 192.844693 16.363636 
L 192.897681 18.309884 
L 193.018797 35.747309 
L 193.283738 116.148142 
L 193.631946 198.30029 
L 193.677365 199.636364 
L 193.730353 197.819419 
L 193.843899 182.21182 
L 194.093701 108.32524 
L 194.464618 17.810743 
L 194.510037 16.363636 
L 194.563025 18.051184 
L 194.676571 33.404784 
L 194.926373 107.019646 
L 195.29729 198.068997 
L 195.350278 199.627063 
L 195.395697 198.068997 
L 195.509243 182.970177 
L 195.751475 112.240565 
L 196.129962 18.051184 
L 196.18295 16.363636 
L 196.235939 18.309884 
L 196.357054 35.747309 
L 196.621996 116.148142 
L 196.970204 198.30029 
L 197.015622 199.636364 
L 197.068611 197.819419 
L 197.182157 182.21182 
L 197.431958 108.32524 
L 197.802876 17.810743 
L 197.848294 16.363636 
L 197.901282 18.051184 
L 198.014829 33.404784 
L 198.26463 107.019646 
L 198.635548 198.068997 
L 198.688536 199.627063 
L 198.733954 198.068997 
L 198.847501 182.970177 
L 199.089732 112.240565 
L 199.46822 18.051184 
L 199.521208 16.363636 
L 199.574196 18.309884 
L 199.695312 35.747309 
L 199.960253 116.148142 
L 200.308461 198.30029 
L 200.35388 199.636364 
L 200.406868 197.819419 
L 200.520414 182.21182 
L 200.770216 108.32524 
L 201.141133 17.810743 
L 201.186552 16.363636 
L 201.23954 18.051184 
L 201.353086 33.404784 
L 201.602888 107.019646 
L 201.973805 198.068997 
L 202.026793 199.627063 
L 202.072212 198.068997 
L 202.185758 182.970177 
L 202.42799 112.240565 
L 202.806477 18.051184 
L 202.859465 16.363636 
L 202.912454 18.309884 
L 203.03357 35.747309 
L 203.298511 116.148142 
L 203.646719 198.30029 
L 203.692137 199.636364 
L 203.745126 197.819419 
L 203.858672 182.21182 
L 204.108473 108.32524 
L 204.479391 17.810743 
L 204.524809 16.363636 
L 204.577797 18.051184 
L 204.691344 33.404784 
L 204.941145 107.019646 
L 205.312063 198.068997 
L 205.365051 199.627063 
L 205.410469 198.068997 
L 205.524016 182.970177 
L 205.766247 112.240565 
L 206.144735 18.051184 
L 206.197723 16.363636 
L 206.250711 18.309884 
L 206.371827 35.747309 
L 206.636768 116.148142 
L 206.984976 198.30029 
L 207.030395 199.636364 
L 207.083383 197.819419 
L 207.196929 182.21182 
L 207.446731 108.32524 
L 207.817648 17.810743 
L 207.863067 16.363636 
L 207.916055 18.051184 
L 208.029601 33.404784 
L 208.279403 107.019646 
L 208.65032 198.068997 
L 208.703308 199.627063 
L 208.748727 198.068997 
L 208.862273 182.970177 
L 209.104505 112.240565 
L 209.482992 18.051184 
L 209.53598 16.363636 
L 209.588969 18.309884 
L 209.710085 35.747309 
L 209.975026 116.148142 
L 210.323234 198.30029 
L 210.368652 199.636364 
L 210.421641 197.819419 
L 210.535187 182.21182 
L 210.784988 108.32524 
L 211.155906 17.810743 
L 211.201324 16.363636 
L 211.254313 18.051184 
L 211.367859 33.404784 
L 211.61766 107.019646 
L 211.988578 198.068997 
L 212.041566 199.627063 
L 212.086984 198.068997 
L 212.200531 182.970177 
L 212.442762 112.240565 
L 212.82125 18.051184 
L 212.874238 16.363636 
L 212.927226 18.309884 
L 213.048342 35.747309 
L 213.313283 116.148142 
L 213.661491 198.30029 
L 213.70691 199.636364 
L 213.759898 197.819419 
L 213.873444 182.21182 
L 214.123246 108.32524 
L 214.494163 17.810743 
L 214.539582 16.363636 
L 214.59257 18.051184 
L 214.706116 33.404784 
L 214.955918 107.019646 
L 215.326835 198.068997 
L 215.379824 199.627063 
L 215.425242 198.068997 
L 215.538788 182.970177 
L 215.78102 112.240565 
L 216.159507 18.051184 
L 216.212495 16.363636 
L 216.265484 18.309884 
L 216.3866 35.747309 
L 216.651541 116.148142 
L 216.999749 198.30029 
L 217.045167 199.636364 
L 217.098156 197.819419 
L 217.211702 182.21182 
L 217.461503 108.32524 
L 217.832421 17.810743 
L 217.877839 16.363636 
L 217.930828 18.051184 
L 218.044374 33.404784 
L 218.294175 107.019646 
L 218.665093 198.068997 
L 218.718081 199.627063 
L 218.763499 198.068997 
L 218.877046 182.970177 
L 219.119277 112.240565 
L 219.497765 18.051184 
L 219.550753 16.363636 
L 219.603741 18.309884 
L 219.724857 35.747309 
L 219.989798 116.148142 
L 220.338006 198.30029 
L 220.383425 199.636364 
L 220.436413 197.819419 
L 220.549959 182.21182 
L 220.799761 108.32524 
L 221.170678 17.810743 
L 221.216097 16.363636 
L 221.269085 18.051184 
L 221.382631 33.404784 
L 221.632433 107.019646 
L 222.00335 198.068997 
L 222.056339 199.627063 
L 222.101757 198.068997 
L 222.215303 182.970177 
L 222.457535 112.240565 
L 222.836022 18.051184 
L 222.88901 16.363636 
L 222.941999 18.309884 
L 223.063115 35.747309 
L 223.328056 116.148142 
L 223.676264 198.30029 
L 223.721682 199.636364 
L 223.774671 197.819419 
L 223.888217 182.21182 
L 224.138018 108.32524 
L 224.508936 17.810743 
L 224.554354 16.363636 
L 224.607343 18.051184 
L 224.720889 33.404784 
L 224.97069 107.019646 
L 225.341608 198.068997 
L 225.394596 199.627063 
L 225.440015 198.068997 
L 225.553561 182.970177 
L 225.795793 112.240565 
L 226.17428 18.051184 
L 226.227268 16.363636 
L 226.280256 18.309884 
L 226.401372 35.747309 
L 226.666313 116.148142 
L 227.014521 198.30029 
L 227.05994 199.636364 
L 227.112928 197.819419 
L 227.226474 182.21182 
L 227.476276 108.32524 
L 227.847193 17.810743 
L 227.892612 16.363636 
L 227.9456 18.051184 
L 228.059146 33.404784 
L 228.308948 107.019646 
L 228.679865 198.068997 
L 228.732854 199.627063 
L 228.778272 198.068997 
L 228.891818 182.970177 
L 229.13405 112.240565 
L 229.512537 18.051184 
L 229.565526 16.363636 
L 229.618514 18.309884 
L 229.73963 35.747309 
L 230.004571 116.148142 
L 230.352779 198.30029 
L 230.398197 199.636364 
L 230.451186 197.819419 
L 230.564732 182.21182 
L 230.814533 108.32524 
L 231.185451 17.810743 
L 231.230869 16.363636 
L 231.283858 18.051184 
L 231.397404 33.404784 
L 231.647205 107.019646 
L 232.018123 198.068997 
L 232.071111 199.627063 
L 232.11653 198.068997 
L 232.230076 182.970177 
L 232.472308 112.240565 
L 232.850795 18.051184 
L 232.903783 16.363636 
L 232.956771 18.309884 
L 233.077887 35.747309 
L 233.342828 116.148142 
L 233.691036 198.30029 
L 233.736455 199.636364 
L 233.789443 197.819419 
L 233.902989 182.21182 
L 234.152791 108.32524 
L 234.523708 17.810743 
L 234.569127 16.363636 
L 234.622115 18.051184 
L 234.735661 33.404784 
L 234.985463 107.019646 
L 235.35638 198.068997 
L 235.409369 199.627063 
L 235.454787 198.068997 
L 235.568333 182.970177 
L 235.810565 112.240565 
L 236.189052 18.051184 
L 236.242041 16.363636 
L 236.295029 18.309884 
L 236.416145 35.747309 
L 236.681086 116.148142 
L 237.029294 198.30029 
L 237.074712 199.636364 
L 237.127701 197.819419 
L 237.241247 182.21182 
L 237.491048 108.32524 
L 237.861966 17.810743 
L 237.907384 16.363636 
L 237.960373 18.051184 
L 238.073919 33.404784 
L 238.32372 107.019646 
L 238.694638 198.068997 
L 238.747626 199.627063 
L 238.793045 198.068997 
L 238.906591 182.970177 
L 239.148823 112.240565 
L 239.52731 18.051184 
L 239.580298 16.363636 
L 239.633286 18.309884 
L 239.754402 35.747309 
L 240.019343 116.148142 
L 240.367552 198.30029 
L 240.41297 199.636364 
L 240.465958 197.819419 
L 240.579504 182.21182 
L 240.829306 108.32524 
L 241.200223 17.810743 
L 241.245642 16.363636 
L 241.29863 18.051184 
L 241.412176 33.404784 
L 241.661978 107.019646 
L 242.032895 198.068997 
L 242.085884 199.627063 
L 242.131302 198.068997 
L 242.244848 182.970177 
L 242.48708 112.240565 
L 242.865567 18.051184 
L 242.918556 16.363636 
L 242.971544 18.309884 
L 243.09266 35.747309 
L 243.357601 116.148142 
L 243.705809 198.30029 
L 243.751228 199.636364 
L 243.804216 197.819419 
L 243.917762 182.21182 
L 244.167563 108.32524 
L 244.538481 17.810743 
L 244.583899 16.363636 
L 244.636888 18.051184 
L 244.750434 33.404784 
L 245.000235 107.019646 
L 245.371153 198.068997 
L 245.424141 199.627063 
L 245.46956 198.068997 
L 245.583106 182.970177 
L 245.825338 112.240565 
L 246.203825 18.051184 
L 246.256813 16.363636 
L 246.309801 18.309884 
L 246.430917 35.747309 
L 246.695858 116.148142 
L 247.044067 198.30029 
L 247.089485 199.636364 
L 247.142473 197.819419 
L 247.256019 182.21182 
L 247.505821 108.32524 
L 247.876739 17.810743 
L 247.922157 16.363636 
L 247.975145 18.051184 
L 248.088691 33.404784 
L 248.338493 107.019646 
L 248.70941 198.068997 
L 248.762399 199.627063 
L 248.807817 198.068997 
L 248.921363 182.970177 
L 249.163595 112.240565 
L 249.542082 18.051184 
L 249.595071 16.363636 
L 249.648059 18.309884 
L 249.769175 35.747309 
L 250.034116 116.148142 
L 250.382324 198.30029 
L 250.427743 199.636364 
L 250.480731 197.819419 
L 250.594277 182.21182 
L 250.844079 108.32524 
L 251.214996 17.810743 
L 251.260414 16.363636 
L 251.313403 18.051184 
L 251.426949 33.404784 
L 251.67675 107.019646 
L 252.047668 198.068997 
L 252.100656 199.627063 
L 252.146075 198.068997 
L 252.259621 182.970177 
L 252.501853 112.240565 
L 252.88034 18.051184 
L 252.933328 16.363636 
L 252.986316 18.309884 
L 253.107432 35.747309 
L 253.372373 116.148142 
L 253.720582 198.30029 
L 253.766 199.636364 
L 253.818988 197.819419 
L 253.932534 182.21182 
L 254.182336 108.32524 
L 254.553254 17.810743 
L 254.598672 16.363636 
L 254.65166 18.051184 
L 254.765206 33.404784 
L 255.015008 107.019646 
L 255.385925 198.068997 
L 255.438914 199.627063 
L 255.484332 198.068997 
L 255.597878 182.970177 
L 255.84011 112.240565 
L 256.218597 18.051184 
L 256.271586 16.363636 
L 256.324574 18.309884 
L 256.44569 35.747309 
L 256.710631 116.148142 
L 257.058839 198.30029 
L 257.104258 199.636364 
L 257.157246 197.819419 
L 257.270792 182.21182 
L 257.520594 108.32524 
L 257.891511 17.810743 
L 257.93693 16.363636 
L 257.989918 18.051184 
L 258.103464 33.404784 
L 258.353265 107.019646 
L 258.724183 198.068997 
L 258.777171 199.627063 
L 258.82259 198.068997 
L 258.936136 182.970177 
L 259.178368 112.240565 
L 259.556855 18.051184 
L 259.609843 16.363636 
L 259.662831 18.309884 
L 259.783947 35.747309 
L 260.048888 116.148142 
L 260.397097 198.30029 
L 260.442515 199.636364 
L 260.495503 197.819419 
L 260.609049 182.21182 
L 260.858851 108.32524 
L 261.229769 17.810743 
L 261.275187 16.363636 
L 261.328175 18.051184 
L 261.441721 33.404784 
L 261.691523 107.019646 
L 262.062441 198.068997 
L 262.115429 199.627063 
L 262.160847 198.068997 
L 262.274393 182.970177 
L 262.516625 112.240565 
L 262.895112 18.051184 
L 262.948101 16.363636 
L 263.001089 18.309884 
L 263.122205 35.747309 
L 263.387146 116.148142 
L 263.735354 198.30029 
L 263.780773 199.636364 
L 263.833761 197.819419 
L 263.947307 182.21182 
L 264.197109 108.32524 
L 264.568026 17.810743 
L 264.613445 16.363636 
L 264.666433 18.051184 
L 264.779979 33.404784 
L 265.029781 107.019646 
L 265.400698 198.068997 
L 265.453686 199.627063 
L 265.499105 198.068997 
L 265.612651 182.970177 
L 265.854883 112.240565 
L 266.23337 18.051184 
L 266.286358 16.363636 
L 266.339346 18.309884 
L 266.460462 35.747309 
L 266.725403 116.148142 
L 267.073612 198.30029 
L 267.11903 199.636364 
L 267.172018 197.819419 
L 267.285565 182.21182 
L 267.535366 108.32524 
L 267.906284 17.810743 
L 267.951702 16.363636 
L 268.00469 18.051184 
L 268.118236 33.404784 
L 268.368038 107.019646 
L 268.738956 198.068997 
L 268.791944 199.627063 
L 268.837362 198.068997 
L 268.950908 182.970177 
L 269.19314 112.240565 
L 269.571627 18.051184 
L 269.624616 16.363636 
L 269.677604 18.309884 
L 269.79872 35.747309 
L 270.063661 116.148142 
L 270.411869 198.30029 
L 270.457288 199.636364 
L 270.510276 197.819419 
L 270.623822 182.21182 
L 270.873624 108.32524 
L 271.244541 17.810743 
L 271.28996 16.363636 
L 271.342948 18.051184 
L 271.456494 33.404784 
L 271.706296 107.019646 
L 272.077213 198.068997 
L 272.130201 199.627063 
L 272.17562 198.068997 
L 272.289166 182.970177 
L 272.531398 112.240565 
L 272.909885 18.051184 
L 272.962873 16.363636 
L 273.015861 18.309884 
L 273.136977 35.747309 
L 273.401918 116.148142 
L 273.750127 198.30029 
L 273.795545 199.636364 
L 273.848533 197.819419 
L 273.96208 182.21182 
L 274.211881 108.32524 
L 274.582799 17.810743 
L 274.628217 16.363636 
L 274.681205 18.051184 
L 274.794751 33.404784 
L 275.044553 107.019646 
L 275.415471 198.068997 
L 275.468459 199.627063 
L 275.513877 198.068997 
L 275.627423 182.970177 
L 275.869655 112.240565 
L 276.248143 18.051184 
L 276.301131 16.363636 
L 276.354119 18.309884 
L 276.475235 35.747309 
L 276.740176 116.148142 
L 277.088384 198.30029 
L 277.133803 199.636364 
L 277.186791 197.819419 
L 277.300337 182.21182 
L 277.550139 108.32524 
L 277.921056 17.810743 
L 277.966475 16.363636 
L 278.019463 18.051184 
L 278.133009 33.404784 
L 278.382811 107.019646 
L 278.753728 198.068997 
L 278.806716 199.627063 
L 278.852135 198.068997 
L 278.965681 182.970177 
L 279.207913 112.240565 
L 279.5864 18.051184 
L 279.639388 16.363636 
L 279.692376 18.309884 
L 279.813492 35.747309 
L 280.078433 116.148142 
L 280.426642 198.30029 
L 280.47206 199.636364 
L 280.525048 197.819419 
L 280.638595 182.21182 
L 280.888396 108.32524 
L 281.259314 17.810743 
L 281.304732 16.363636 
L 281.35772 18.051184 
L 281.471267 33.404784 
L 281.721068 107.019646 
L 282.091986 198.068997 
L 282.144974 199.627063 
L 282.190392 198.068997 
L 282.303938 182.970177 
L 282.54617 112.240565 
L 282.924658 18.051184 
L 282.977646 16.363636 
L 283.030634 18.309884 
L 283.15175 35.747309 
L 283.416691 116.148142 
L 283.764899 198.30029 
L 283.810318 199.636364 
L 283.863306 197.819419 
L 283.976852 182.21182 
L 284.226654 108.32524 
L 284.597571 17.810743 
L 284.64299 16.363636 
L 284.695978 18.051184 
L 284.809524 33.404784 
L 285.059326 107.019646 
L 285.430243 198.068997 
L 285.483231 199.627063 
L 285.52865 198.068997 
L 285.642196 182.970177 
L 285.884428 112.240565 
L 286.262915 18.051184 
L 286.315903 16.363636 
L 286.368891 18.309884 
L 286.490007 35.747309 
L 286.754948 116.148142 
L 287.103157 198.30029 
L 287.148575 199.636364 
L 287.201563 197.819419 
L 287.31511 182.21182 
L 287.564911 108.32524 
L 287.935829 17.810743 
L 287.981247 16.363636 
L 288.034235 18.051184 
L 288.147782 33.404784 
L 288.397583 107.019646 
L 288.768501 198.068997 
L 288.821489 199.627063 
L 288.866907 198.068997 
L 288.980453 182.970177 
L 289.222685 112.240565 
L 289.601173 18.051184 
L 289.654161 16.363636 
L 289.707149 18.309884 
L 289.828265 35.747309 
L 290.093206 116.148142 
L 290.441414 198.30029 
L 290.486833 199.636364 
L 290.539821 197.819419 
L 290.653367 182.21182 
L 290.903169 108.32524 
L 291.274086 17.810743 
L 291.319505 16.363636 
L 291.372493 18.051184 
L 291.486039 33.404784 
L 291.735841 107.019646 
L 292.106758 198.068997 
L 292.159746 199.627063 
L 292.205165 198.068997 
L 292.318711 182.970177 
L 292.560943 112.240565 
L 292.93943 18.051184 
L 292.992418 16.363636 
L 293.045407 18.309884 
L 293.166522 35.747309 
L 293.431464 116.148142 
L 293.779672 198.30029 
L 293.82509 199.636364 
L 293.878078 197.819419 
L 293.991625 182.21182 
L 294.241426 108.32524 
L 294.612344 17.810743 
L 294.657762 16.363636 
L 294.71075 18.051184 
L 294.824297 33.404784 
L 295.074098 107.019646 
L 295.445016 198.068997 
L 295.498004 199.627063 
L 295.543422 198.068997 
L 295.656969 182.970177 
L 295.8992 112.240565 
L 296.277688 18.051184 
L 296.330676 16.363636 
L 296.383664 18.309884 
L 296.50478 35.747309 
L 296.769721 116.148142 
L 297.117929 198.30029 
L 297.163348 199.636364 
L 297.216336 197.819419 
L 297.329882 182.21182 
L 297.579684 108.32524 
L 297.950601 17.810743 
L 297.99602 16.363636 
L 298.049008 18.051184 
L 298.162554 33.404784 
L 298.412356 107.019646 
L 298.783273 198.068997 
L 298.836261 199.627063 
L 298.88168 198.068997 
L 298.995226 182.970177 
L 299.237458 112.240565 
L 299.615945 18.051184 
L 299.668933 16.363636 
L 299.721922 18.309884 
L 299.843037 35.747309 
L 300.107979 116.148142 
L 300.456187 198.30029 
L 300.501605 199.636364 
L 300.554593 197.819419 
L 300.66814 182.21182 
L 300.917941 108.32524 
L 301.288859 17.810743 
L 301.334277 16.363636 
L 301.387265 18.051184 
L 301.500812 33.404784 
L 301.750613 107.019646 
L 302.121531 198.068997 
L 302.174519 199.627063 
L 302.219937 198.068997 
L 302.333484 182.970177 
L 302.575715 112.240565 
L 302.954203 18.051184 
L 303.007191 16.363636 
L 303.060179 18.309884 
L 303.181295 35.747309 
L 303.446236 116.148142 
L 303.794444 198.30029 
L 303.839863 199.636364 
L 303.892851 197.819419 
L 304.006397 182.21182 
L 304.256199 108.32524 
L 304.627116 17.810743 
L 304.672535 16.363636 
L 304.725523 18.051184 
L 304.839069 33.404784 
L 305.088871 107.019646 
L 305.459788 198.068997 
L 305.512776 199.627063 
L 305.558195 198.068997 
L 305.671741 182.970177 
L 305.913973 112.240565 
L 306.29246 18.051184 
L 306.345448 16.363636 
L 306.398437 18.309884 
L 306.519553 35.747309 
L 306.784494 116.148142 
L 307.132702 198.30029 
L 307.17812 199.636364 
L 307.231109 197.819419 
L 307.344655 182.21182 
L 307.594456 108.32524 
L 307.965374 17.810743 
L 308.010792 16.363636 
L 308.06378 18.051184 
L 308.177327 33.404784 
L 308.427128 107.019646 
L 308.798046 198.068997 
L 308.851034 199.627063 
L 308.896452 198.068997 
L 309.009999 182.970177 
L 309.25223 112.240565 
L 309.630718 18.051184 
L 309.683706 16.363636 
L 309.736694 18.309884 
L 309.85781 35.747309 
L 310.122751 116.148142 
L 310.470959 198.30029 
L 310.516378 199.636364 
L 310.569366 197.819419 
L 310.682912 182.21182 
L 310.932714 108.32524 
L 311.303631 17.810743 
L 311.34905 16.363636 
L 311.402038 18.051184 
L 311.515584 33.404784 
L 311.765386 107.019646 
L 312.136303 198.068997 
L 312.189291 199.627063 
L 312.23471 198.068997 
L 312.348256 182.970177 
L 312.590488 112.240565 
L 312.968975 18.051184 
L 313.021963 16.363636 
L 313.074952 18.309884 
L 313.196068 35.747309 
L 313.461009 116.148142 
L 313.809217 198.30029 
L 313.854635 199.636364 
L 313.907624 197.819419 
L 314.02117 182.21182 
L 314.270971 108.32524 
L 314.641889 17.810743 
L 314.687307 16.363636 
L 314.740295 18.051184 
L 314.853842 33.404784 
L 315.103643 107.019646 
L 315.474561 198.068997 
L 315.527549 199.627063 
L 315.572967 198.068997 
L 315.686514 182.970177 
L 315.928745 112.240565 
L 316.307233 18.051184 
L 316.360221 16.363636 
L 316.413209 18.309884 
L 316.534325 35.747309 
L 316.799266 116.148142 
L 317.147474 198.30029 
L 317.192893 199.636364 
L 317.245881 197.819419 
L 317.359427 182.21182 
L 317.609229 108.32524 
L 317.980146 17.810743 
L 318.025565 16.363636 
L 318.078553 18.051184 
L 318.192099 33.404784 
L 318.441901 107.019646 
L 318.812818 198.068997 
L 318.865806 199.627063 
L 318.911225 198.068997 
L 319.024771 182.970177 
L 319.267003 112.240565 
L 319.64549 18.051184 
L 319.698478 16.363636 
L 319.751467 18.309884 
L 319.872583 35.747309 
L 320.137524 116.148142 
L 320.485732 198.30029 
L 320.53115 199.636364 
L 320.584139 197.819419 
L 320.697685 182.21182 
L 320.947486 108.32524 
L 321.318404 17.810743 
L 321.363822 16.363636 
L 321.416811 18.051184 
L 321.530357 33.404784 
L 321.780158 107.019646 
L 322.151076 198.068997 
L 322.204064 199.627063 
L 322.249482 198.068997 
L 322.363029 182.970177 
L 322.60526 112.240565 
L 322.983748 18.051184 
L 323.036736 16.363636 
L 323.089724 18.309884 
L 323.21084 35.747309 
L 323.475781 116.148142 
L 323.823989 198.30029 
L 323.869408 199.636364 
L 323.922396 197.819419 
L 324.035942 182.21182 
L 324.285744 108.32524 
L 324.656661 17.810743 
L 324.70208 16.363636 
L 324.755068 18.051184 
L 324.868614 33.404784 
L 325.118416 107.019646 
L 325.489333 198.068997 
L 325.542322 199.627063 
L 325.58774 198.068997 
L 325.701286 182.970177 
L 325.943518 112.240565 
L 326.322005 18.051184 
L 326.374993 16.363636 
L 326.427982 18.309884 
L 326.549098 35.747309 
L 326.814039 116.148142 
L 327.162247 198.30029 
L 327.207665 199.636364 
L 327.260654 197.819419 
L 327.3742 182.21182 
L 327.624001 108.32524 
L 327.994919 17.810743 
L 328.040337 16.363636 
L 328.093326 18.051184 
L 328.206872 33.404784 
L 328.456673 107.019646 
L 328.827591 198.068997 
L 328.880579 199.627063 
L 328.925998 198.068997 
L 329.039544 182.970177 
L 329.281776 112.240565 
L 329.660263 18.051184 
L 329.713251 16.363636 
L 329.766239 18.309884 
L 329.887355 35.747309 
L 330.152296 116.148142 
L 330.500504 198.30029 
L 330.545923 199.636364 
L 330.598911 197.819419 
L 330.712457 182.21182 
L 330.962259 108.32524 
L 331.333176 17.810743 
L 331.378595 16.363636 
L 331.431583 18.051184 
L 331.545129 33.404784 
L 331.794931 107.019646 
L 332.165848 198.068997 
L 332.218837 199.627063 
L 332.264255 198.068997 
L 332.377801 182.970177 
L 332.620033 112.240565 
L 332.99852 18.051184 
L 333.051508 16.363636 
L 333.104497 18.309884 
L 333.225613 35.747309 
L 333.490554 116.148142 
L 333.838762 198.30029 
L 333.88418 199.636364 
L 333.937169 197.819419 
L 334.050715 182.21182 
L 334.300516 108.32524 
L 334.671434 17.810743 
L 334.716852 16.363636 
L 334.769841 18.051184 
L 334.883387 33.404784 
L 335.133188 107.019646 
L 335.504106 198.068997 
L 335.557094 199.627063 
L 335.602513 198.068997 
L 335.716059 182.970177 
L 335.958291 112.240565 
L 336.336778 18.051184 
L 336.389766 16.363636 
L 336.442754 18.309884 
L 336.56387 35.747309 
L 336.828811 116.148142 
L 337.177019 198.30029 
L 337.222438 199.636364 
L 337.275426 197.819419 
L 337.388972 182.21182 
L 337.638774 108.32524 
L 338.009691 17.810743 
L 338.05511 16.363636 
L 338.108098 18.051184 
L 338.221644 33.404784 
L 338.471446 107.019646 
L 338.842363 198.068997 
L 338.895352 199.627063 
L 338.94077 198.068997 
L 339.054316 182.970177 
L 339.296548 112.240565 
L 339.675035 18.051184 
L 339.728024 16.363636 
L 339.781012 18.309884 
L 339.902128 35.747309 
L 340.167069 116.148142 
L 340.515277 198.30029 
L 340.560695 199.636364 
L 340.613684 197.819419 
L 340.72723 182.21182 
L 340.977031 108.32524 
L 341.347949 17.810743 
L 341.393367 16.363636 
L 341.446356 18.051184 
L 341.559902 33.404784 
L 341.809703 107.019646 
L 342.180621 198.068997 
L 342.233609 199.627063 
L 342.279028 198.068997 
L 342.392574 182.970177 
L 342.634806 112.240565 
L 343.013293 18.051184 
L 343.066281 16.363636 
L 343.119269 18.309884 
L 343.240385 35.747309 
L 343.505326 116.148142 
L 343.853535 198.30029 
L 343.898953 199.636364 
L 343.951941 197.819419 
L 344.065487 182.21182 
L 344.315289 108.32524 
L 344.686206 17.810743 
L 344.731625 16.363636 
L 344.784613 18.051184 
L 344.898159 33.404784 
L 345.147961 107.019646 
L 345.518878 198.068997 
L 345.571867 199.627063 
L 345.617285 198.068997 
L 345.730831 182.970177 
L 345.973063 112.240565 
L 346.35155 18.051184 
L 346.404539 16.363636 
L 346.457527 18.309884 
L 346.578643 35.747309 
L 346.843584 116.148142 
L 347.191792 198.30029 
L 347.23721 199.636364 
L 347.290199 197.819419 
L 347.403745 182.21182 
L 347.653546 108.32524 
L 348.024464 17.810743 
L 348.069882 16.363636 
L 348.122871 18.051184 
L 348.236417 33.404784 
L 348.486218 107.019646 
L 348.857136 198.068997 
L 348.910124 199.627063 
L 348.955543 198.068997 
L 349.069089 182.970177 
L 349.311321 112.240565 
L 349.689808 18.051184 
L 349.742796 16.363636 
L 349.795784 18.309884 
L 349.9169 35.747309 
L 350.181841 116.148142 
L 350.53005 198.30029 
L 350.575468 199.636364 
L 350.628456 197.819419 
L 350.742002 182.21182 
L 350.991804 108.32524 
L 351.362721 17.810743 
L 351.40814 16.363636 
L 351.461128 18.051184 
L 351.574674 33.404784 
L 351.824476 107.019646 
L 352.195393 198.068997 
L 352.248382 199.627063 
L 352.2938 198.068997 
L 352.407346 182.970177 
L 352.649578 112.240565 
L 353.028065 18.051184 
L 353.081054 16.363636 
L 353.134042 18.309884 
L 353.255158 35.747309 
L 353.520099 116.148142 
L 353.868307 198.30029 
L 353.913726 199.636364 
L 353.966714 197.819419 
L 354.08026 182.21182 
L 354.330062 108.32524 
L 354.700979 17.810743 
L 354.746397 16.363636 
L 354.799386 18.051184 
L 354.912932 33.404784 
L 355.162733 107.019646 
L 355.533651 198.068997 
L 355.586639 199.627063 
L 355.632058 198.068997 
L 355.745604 182.970177 
L 355.987836 112.240565 
L 356.366323 18.051184 
L 356.419311 16.363636 
L 356.472299 18.309884 
L 356.593415 35.747309 
L 356.858356 116.148142 
L 357.206565 198.30029 
L 357.251983 199.636364 
L 357.304971 197.819419 
L 357.418517 182.21182 
L 357.668319 108.32524 
L 358.039237 17.810743 
L 358.084655 16.363636 
L 358.137643 18.051184 
L 358.251189 33.404784 
L 358.500991 107.019646 
L 358.871908 198.068997 
L 358.924897 199.627063 
L 358.970315 198.068997 
L 359.083861 182.970177 
L 359.326093 112.240565 
L 359.70458 18.051184 
L 359.757569 16.363636 
L 359.810557 18.309884 
L 359.931673 35.747309 
L 360.196614 116.148142 
L 360.544822 198.30029 
L 360.590241 199.636364 
L 360.643229 197.819419 
L 360.756775 182.21182 
L 361.006577 108.32524 
L 361.377494 17.810743 
L 361.422913 16.363636 
L 361.475901 18.051184 
L 361.589447 33.404784 
L 361.839248 107.019646 
L 362.210166 198.068997 
L 362.263154 199.627063 
L 362.308573 198.068997 
L 362.422119 182.970177 
L 362.664351 112.240565 
L 363.042838 18.051184 
L 363.095826 16.363636 
L 363.148814 18.309884 
L 363.26993 35.747309 
L 363.534871 116.148142 
L 363.88308 198.30029 
L 363.928498 199.636364 
L 363.981486 197.819419 
L 364.095032 182.21182 
L 364.344834 108.32524 
L 364.715752 17.810743 
L 364.76117 16.363636 
L 364.814158 18.051184 
L 364.927704 33.404784 
L 365.177506 107.019646 
L 365.548423 198.068997 
L 365.601412 199.627063 
L 365.64683 198.068997 
L 365.760376 182.970177 
L 366.002608 112.240565 
L 366.381095 18.051184 
L 366.434084 16.363636 
L 366.487072 18.309884 
L 366.608188 35.747309 
L 366.873129 116.148142 
L 367.221337 198.30029 
L 367.266756 199.636364 
L 367.319744 197.819419 
L 367.43329 182.21182 
L 367.683092 108.32524 
L 368.054009 17.810743 
L 368.099428 16.363636 
L 368.152416 18.051184 
L 368.265962 33.404784 
L 368.515764 107.019646 
L 368.886681 198.068997 
L 368.939669 199.627063 
L 368.985088 198.068997 
L 369.098634 182.970177 
L 369.340866 112.240565 
L 369.719353 18.051184 
L 369.772341 16.363636 
L 369.825329 18.309884 
L 369.946445 35.747309 
L 370.211386 116.148142 
L 370.559595 198.30029 
L 370.605013 199.636364 
L 370.658001 197.819419 
L 370.771547 182.21182 
L 371.021349 108.32524 
L 371.392267 17.810743 
L 371.437685 16.363636 
L 371.490673 18.051184 
L 371.604219 33.404784 
L 371.854021 107.019646 
L 372.224939 198.068997 
L 372.277927 199.627063 
L 372.323345 198.068997 
L 372.436891 182.970177 
L 372.679123 112.240565 
L 373.05761 18.051184 
L 373.110599 16.363636 
L 373.163587 18.309884 
L 373.284703 35.747309 
L 373.549644 116.148142 
L 373.897852 198.30029 
L 373.943271 199.636364 
L 373.996259 197.819419 
L 374.109805 182.21182 
L 374.359607 108.32524 
L 374.730524 17.810743 
L 374.775943 16.363636 
L 374.828931 18.051184 
L 374.942477 33.404784 
L 375.192279 107.019646 
L 375.563196 198.068997 
L 375.616184 199.627063 
L 375.661603 198.068997 
L 375.775149 182.970177 
L 376.017381 112.240565 
L 376.395868 18.051184 
L 376.448856 16.363636 
L 376.501844 18.309884 
L 376.62296 35.747309 
L 376.887901 116.148142 
L 377.23611 198.30029 
L 377.281528 199.636364 
L 377.334516 197.819419 
L 377.448063 182.21182 
L 377.697864 108.32524 
L 378.068782 17.810743 
L 378.1142 16.363636 
L 378.167188 18.051184 
L 378.280734 33.404784 
L 378.530536 107.019646 
L 378.901454 198.068997 
L 378.954442 199.627063 
L 378.99986 198.068997 
L 379.113406 182.970177 
L 379.355638 112.240565 
L 379.734125 18.051184 
L 379.787114 16.363636 
L 379.840102 18.309884 
L 379.961218 35.747309 
L 380.226159 116.148142 
L 380.574367 198.30029 
L 380.612216 199.599162 
L 380.612216 199.599162 
" style="fill:none;stroke:#1f77b4;stroke-linecap:square;stroke-width:1.5;"/>
   </g>
   <g id="patch_3">
    <path d="M 30.103125 208.8 
L 30.103125 7.2 
" style="fill:none;stroke:#000000;stroke-linecap:square;stroke-linejoin:miter;stroke-width:0.8;"/>
   </g>
   <g id="patch_4">
    <path d="M 397.303125 208.8 
L 397.303125 7.2 
" style="fill:none;stroke:#000000;stroke-linecap:square;stroke-linejoin:miter;stroke-width:0.8;"/>
   </g>
   <g id="patch_5">
    <path d="M 30.103125 208.8 
L 397.303125 208.8 
" style="fill:none;stroke:#000000;stroke-linecap:square;stroke-linejoin:miter;stroke-width:0.8;"/>
   </g>
   <g id="patch_6">
    <path d="M 30.103125 7.2 
L 397.303125 7.2 
" style="fill:none;stroke:#000000;stroke-linecap:square;stroke-linejoin:miter;stroke-width:0.8;"/>
   </g>
   <g id="legend_1">
    <g id="patch_7">
     <path d="M 50.463125 273.312 
L 262.920938 273.312 
Q 264.920938 273.312 264.920938 271.312 
L 264.920938 246.436062 
Q 264.920938 244.436062 262.920938 244.436062 
L 50.463125 244.436062 
Q 48.463125 244.436062 48.463125 246.436062 
L 48.463125 271.312 
Q 48.463125 273.312 50.463125 273.312 
z
" style="fill:#ffffff;opacity:0.8;stroke:#cccccc;stroke-linejoin:miter;"/>
    </g>
    <g id="line2d_14">
     <path d="M 52.463125 259.17325 
L 72.463125 259.17325 
" style="fill:none;stroke:#1f77b4;stroke-linecap:square;stroke-width:1.5;"/>
    </g>
    <g id="line2d_15"/>
    <g id="text_14">
     <!-- 100Hz sinusoidal force -->
     <g transform="translate(80.463125 256.0345)scale(0.1 -0.1)">
      <defs>
       <path d="M 9.8125 72.90625 
L 19.671875 72.90625 
L 19.671875 43.015625 
L 55.515625 43.015625 
L 55.515625 72.90625 
L 65.375 72.90625 
L 65.375 0 
L 55.515625 0 
L 55.515625 34.71875 
L 19.671875 34.71875 
L 19.671875 0 
L 9.8125 0 
z
" id="DejaVuSans-72"/>
       <path d="M 5.515625 54.6875 
L 48.1875 54.6875 
L 48.1875 46.484375 
L 14.40625 7.171875 
L 48.1875 7.171875 
L 48.1875 0 
L 4.296875 0 
L 4.296875 8.203125 
L 38.09375 47.515625 
L 5.515625 47.515625 
z
" id="DejaVuSans-122"/>
       <path d="M 54.890625 33.015625 
L 54.890625 0 
L 45.90625 0 
L 45.90625 32.71875 
Q 45.90625 40.484375 42.875 44.328125 
Q 39.84375 48.1875 33.796875 48.1875 
Q 26.515625 48.1875 22.3125 43.546875 
Q 18.109375 38.921875 18.109375 30.90625 
L 18.109375 0 
L 9.078125 0 
L 9.078125 54.6875 
L 18.109375 54.6875 
L 18.109375 46.1875 
Q 21.34375 51.125 25.703125 53.5625 
Q 30.078125 56 35.796875 56 
Q 45.21875 56 50.046875 50.171875 
Q 54.890625 44.34375 54.890625 33.015625 
z
" id="DejaVuSans-110"/>
       <path d="M 8.5 21.578125 
L 8.5 54.6875 
L 17.484375 54.6875 
L 17.484375 21.921875 
Q 17.484375 14.15625 20.5 10.265625 
Q 23.53125 6.390625 29.59375 6.390625 
Q 36.859375 6.390625 41.078125 11.03125 
Q 45.3125 15.671875 45.3125 23.6875 
L 45.3125 54.6875 
L 54.296875 54.6875 
L 54.296875 0 
L 45.3125 0 
L 45.3125 8.40625 
Q 42.046875 3.421875 37.71875 1 
Q 33.40625 -1.421875 27.6875 -1.421875 
Q 18.265625 -1.421875 13.375 4.4375 
Q 8.5 10.296875 8.5 21.578125 
z
M 31.109375 56 
z
" id="DejaVuSans-117"/>
       <path d="M 30.609375 48.390625 
Q 23.390625 48.390625 19.1875 42.75 
Q 14.984375 37.109375 14.984375 27.296875 
Q 14.984375 17.484375 19.15625 11.84375 
Q 23.34375 6.203125 30.609375 6.203125 
Q 37.796875 6.203125 41.984375 11.859375 
Q 46.1875 17.53125 46.1875 27.296875 
Q 46.1875 37.015625 41.984375 42.703125 
Q 37.796875 48.390625 30.609375 48.390625 
z
M 30.609375 56 
Q 42.328125 56 49.015625 48.375 
Q 55.71875 40.765625 55.71875 27.296875 
Q 55.71875 13.875 49.015625 6.21875 
Q 42.328125 -1.421875 30.609375 -1.421875 
Q 18.84375 -1.421875 12.171875 6.21875 
Q 5.515625 13.875 5.515625 27.296875 
Q 5.515625 40.765625 12.171875 48.375 
Q 18.84375 56 30.609375 56 
z
" id="DejaVuSans-111"/>
       <path d="M 45.40625 46.390625 
L 45.40625 75.984375 
L 54.390625 75.984375 
L 54.390625 0 
L 45.40625 0 
L 45.40625 8.203125 
Q 42.578125 3.328125 38.25 0.953125 
Q 33.9375 -1.421875 27.875 -1.421875 
Q 17.96875 -1.421875 11.734375 6.484375 
Q 5.515625 14.40625 5.515625 27.296875 
Q 5.515625 40.1875 11.734375 48.09375 
Q 17.96875 56 27.875 56 
Q 33.9375 56 38.25 53.625 
Q 42.578125 51.265625 45.40625 46.390625 
z
M 14.796875 27.296875 
Q 14.796875 17.390625 18.875 11.75 
Q 22.953125 6.109375 30.078125 6.109375 
Q 37.203125 6.109375 41.296875 11.75 
Q 45.40625 17.390625 45.40625 27.296875 
Q 45.40625 37.203125 41.296875 42.84375 
Q 37.203125 48.484375 30.078125 48.484375 
Q 22.953125 48.484375 18.875 42.84375 
Q 14.796875 37.203125 14.796875 27.296875 
z
" id="DejaVuSans-100"/>
       <path d="M 34.28125 27.484375 
Q 23.390625 27.484375 19.1875 25 
Q 14.984375 22.515625 14.984375 16.5 
Q 14.984375 11.71875 18.140625 8.90625 
Q 21.296875 6.109375 26.703125 6.109375 
Q 34.1875 6.109375 38.703125 11.40625 
Q 43.21875 16.703125 43.21875 25.484375 
L 43.21875 27.484375 
z
M 52.203125 31.203125 
L 52.203125 0 
L 43.21875 0 
L 43.21875 8.296875 
Q 40.140625 3.328125 35.546875 0.953125 
Q 30.953125 -1.421875 24.3125 -1.421875 
Q 15.921875 -1.421875 10.953125 3.296875 
Q 6 8.015625 6 15.921875 
Q 6 25.140625 12.171875 29.828125 
Q 18.359375 34.515625 30.609375 34.515625 
L 43.21875 34.515625 
L 43.21875 35.40625 
Q 43.21875 41.609375 39.140625 45 
Q 35.0625 48.390625 27.6875 48.390625 
Q 23 48.390625 18.546875 47.265625 
Q 14.109375 46.140625 10.015625 43.890625 
L 10.015625 52.203125 
Q 14.9375 54.109375 19.578125 55.046875 
Q 24.21875 56 28.609375 56 
Q 40.484375 56 46.34375 49.84375 
Q 52.203125 43.703125 52.203125 31.203125 
z
" id="DejaVuSans-97"/>
       <path d="M 9.421875 75.984375 
L 18.40625 75.984375 
L 18.40625 0 
L 9.421875 0 
z
" id="DejaVuSans-108"/>
       <path d="M 37.109375 75.984375 
L 37.109375 68.5 
L 28.515625 68.5 
Q 23.6875 68.5 21.796875 66.546875 
Q 19.921875 64.59375 19.921875 59.515625 
L 19.921875 54.6875 
L 34.71875 54.6875 
L 34.71875 47.703125 
L 19.921875 47.703125 
L 19.921875 0 
L 10.890625 0 
L 10.890625 47.703125 
L 2.296875 47.703125 
L 2.296875 54.6875 
L 10.890625 54.6875 
L 10.890625 58.5 
Q 10.890625 67.625 15.140625 71.796875 
Q 19.390625 75.984375 28.609375 75.984375 
z
" id="DejaVuSans-102"/>
       <path d="M 41.109375 46.296875 
Q 39.59375 47.171875 37.8125 47.578125 
Q 36.03125 48 33.890625 48 
Q 26.265625 48 22.1875 43.046875 
Q 18.109375 38.09375 18.109375 28.8125 
L 18.109375 0 
L 9.078125 0 
L 9.078125 54.6875 
L 18.109375 54.6875 
L 18.109375 46.1875 
Q 20.953125 51.171875 25.484375 53.578125 
Q 30.03125 56 36.53125 56 
Q 37.453125 56 38.578125 55.875 
Q 39.703125 55.765625 41.0625 55.515625 
z
" id="DejaVuSans-114"/>
       <path d="M 48.78125 52.59375 
L 48.78125 44.1875 
Q 44.96875 46.296875 41.140625 47.34375 
Q 37.3125 48.390625 33.40625 48.390625 
Q 24.65625 48.390625 19.8125 42.84375 
Q 14.984375 37.3125 14.984375 27.296875 
Q 14.984375 17.28125 19.8125 11.734375 
Q 24.65625 6.203125 33.40625 6.203125 
Q 37.3125 6.203125 41.140625 7.25 
Q 44.96875 8.296875 48.78125 10.40625 
L 48.78125 2.09375 
Q 45.015625 0.34375 40.984375 -0.53125 
Q 36.96875 -1.421875 32.421875 -1.421875 
Q 20.0625 -1.421875 12.78125 6.34375 
Q 5.515625 14.109375 5.515625 27.296875 
Q 5.515625 40.671875 12.859375 48.328125 
Q 20.21875 56 33.015625 56 
Q 37.15625 56 41.109375 55.140625 
Q 45.0625 54.296875 48.78125 52.59375 
z
" id="DejaVuSans-99"/>
      </defs>
      <use xlink:href="#DejaVuSans-49"/>
      <use x="63.623047" xlink:href="#DejaVuSans-48"/>
      <use x="127.246094" xlink:href="#DejaVuSans-48"/>
      <use x="190.869141" xlink:href="#DejaVuSans-72"/>
      <use x="266.064453" xlink:href="#DejaVuSans-122"/>
      <use x="318.554688" xlink:href="#DejaVuSans-32"/>
      <use x="350.341797" xlink:href="#DejaVuSans-115"/>
      <use x="402.441406" xlink:href="#DejaVuSans-105"/>
      <use x="430.224609" xlink:href="#DejaVuSans-110"/>
      <use x="493.603516" xlink:href="#DejaVuSans-117"/>
      <use x="556.982422" xlink:href="#DejaVuSans-115"/>
      <use x="609.082031" xlink:href="#DejaVuSans-111"/>
      <use x="670.263672" xlink:href="#DejaVuSans-105"/>
      <use x="698.046875" xlink:href="#DejaVuSans-100"/>
      <use x="761.523438" xlink:href="#DejaVuSans-97"/>
      <use x="822.802734" xlink:href="#DejaVuSans-108"/>
      <use x="850.585938" xlink:href="#DejaVuSans-32"/>
      <use x="882.373047" xlink:href="#DejaVuSans-102"/>
      <use x="917.578125" xlink:href="#DejaVuSans-111"/>
      <use x="978.759766" xlink:href="#DejaVuSans-114"/>
      <use x="1017.623047" xlink:href="#DejaVuSans-99"/>
      <use x="1072.603516" xlink:href="#DejaVuSans-101"/>
     </g>
     <!--  * 100Hz sinusoidal velocity [N*m/s] -->
     <g transform="translate(80.463125 267.232312)scale(0.1 -0.1)">
      <defs>
       <path d="M 47.015625 60.890625 
L 29.5 51.421875 
L 47.015625 41.890625 
L 44.1875 37.109375 
L 27.78125 47.015625 
L 27.78125 28.609375 
L 22.21875 28.609375 
L 22.21875 47.015625 
L 5.8125 37.109375 
L 2.984375 41.890625 
L 20.515625 51.421875 
L 2.984375 60.890625 
L 5.8125 65.71875 
L 22.21875 55.8125 
L 22.21875 74.21875 
L 27.78125 74.21875 
L 27.78125 55.8125 
L 44.1875 65.71875 
z
" id="DejaVuSans-42"/>
       <path d="M 2.984375 54.6875 
L 12.5 54.6875 
L 29.59375 8.796875 
L 46.6875 54.6875 
L 56.203125 54.6875 
L 35.6875 0 
L 23.484375 0 
z
" id="DejaVuSans-118"/>
       <path d="M 18.3125 70.21875 
L 18.3125 54.6875 
L 36.8125 54.6875 
L 36.8125 47.703125 
L 18.3125 47.703125 
L 18.3125 18.015625 
Q 18.3125 11.328125 20.140625 9.421875 
Q 21.96875 7.515625 27.59375 7.515625 
L 36.8125 7.515625 
L 36.8125 0 
L 27.59375 0 
Q 17.1875 0 13.234375 3.875 
Q 9.28125 7.765625 9.28125 18.015625 
L 9.28125 47.703125 
L 2.6875 47.703125 
L 2.6875 54.6875 
L 9.28125 54.6875 
L 9.28125 70.21875 
z
" id="DejaVuSans-116"/>
       <path d="M 32.171875 -5.078125 
Q 28.375 -14.84375 24.75 -17.8125 
Q 21.140625 -20.796875 15.09375 -20.796875 
L 7.90625 -20.796875 
L 7.90625 -13.28125 
L 13.1875 -13.28125 
Q 16.890625 -13.28125 18.9375 -11.515625 
Q 21 -9.765625 23.484375 -3.21875 
L 25.09375 0.875 
L 2.984375 54.6875 
L 12.5 54.6875 
L 29.59375 11.921875 
L 46.6875 54.6875 
L 56.203125 54.6875 
z
" id="DejaVuSans-121"/>
       <path d="M 8.59375 75.984375 
L 29.296875 75.984375 
L 29.296875 69 
L 17.578125 69 
L 17.578125 -6.203125 
L 29.296875 -6.203125 
L 29.296875 -13.1875 
L 8.59375 -13.1875 
z
" id="DejaVuSans-91"/>
       <path d="M 9.8125 72.90625 
L 23.09375 72.90625 
L 55.421875 11.921875 
L 55.421875 72.90625 
L 64.984375 72.90625 
L 64.984375 0 
L 51.703125 0 
L 19.390625 60.984375 
L 19.390625 0 
L 9.8125 0 
z
" id="DejaVuSans-78"/>
       <path d="M 25.390625 72.90625 
L 33.6875 72.90625 
L 8.296875 -9.28125 
L 0 -9.28125 
z
" id="DejaVuSans-47"/>
       <path d="M 30.421875 75.984375 
L 30.421875 -13.1875 
L 9.71875 -13.1875 
L 9.71875 -6.203125 
L 21.390625 -6.203125 
L 21.390625 69 
L 9.71875 69 
L 9.71875 75.984375 
z
" id="DejaVuSans-93"/>
      </defs>
      <use xlink:href="#DejaVuSans-32"/>
      <use x="31.787109" xlink:href="#DejaVuSans-42"/>
      <use x="81.787109" xlink:href="#DejaVuSans-32"/>
      <use x="113.574219" xlink:href="#DejaVuSans-49"/>
      <use x="177.197266" xlink:href="#DejaVuSans-48"/>
      <use x="240.820312" xlink:href="#DejaVuSans-48"/>
      <use x="304.443359" xlink:href="#DejaVuSans-72"/>
      <use x="379.638672" xlink:href="#DejaVuSans-122"/>
      <use x="432.128906" xlink:href="#DejaVuSans-32"/>
      <use x="463.916016" xlink:href="#DejaVuSans-115"/>
      <use x="516.015625" xlink:href="#DejaVuSans-105"/>
      <use x="543.798828" xlink:href="#DejaVuSans-110"/>
      <use x="607.177734" xlink:href="#DejaVuSans-117"/>
      <use x="670.556641" xlink:href="#DejaVuSans-115"/>
      <use x="722.65625" xlink:href="#DejaVuSans-111"/>
      <use x="783.837891" xlink:href="#DejaVuSans-105"/>
      <use x="811.621094" xlink:href="#DejaVuSans-100"/>
      <use x="875.097656" xlink:href="#DejaVuSans-97"/>
      <use x="936.376953" xlink:href="#DejaVuSans-108"/>
      <use x="964.160156" xlink:href="#DejaVuSans-32"/>
      <use x="995.947266" xlink:href="#DejaVuSans-118"/>
      <use x="1055.126953" xlink:href="#DejaVuSans-101"/>
      <use x="1116.650391" xlink:href="#DejaVuSans-108"/>
      <use x="1144.433594" xlink:href="#DejaVuSans-111"/>
      <use x="1205.615234" xlink:href="#DejaVuSans-99"/>
      <use x="1260.595703" xlink:href="#DejaVuSans-105"/>
      <use x="1288.378906" xlink:href="#DejaVuSans-116"/>
      <use x="1327.587891" xlink:href="#DejaVuSans-121"/>
      <use x="1386.767578" xlink:href="#DejaVuSans-32"/>
      <use x="1418.554688" xlink:href="#DejaVuSans-91"/>
      <use x="1457.568359" xlink:href="#DejaVuSans-78"/>
      <use x="1532.373047" xlink:href="#DejaVuSans-42"/>
      <use x="1582.373047" xlink:href="#DejaVuSans-109"/>
      <use x="1679.785156" xlink:href="#DejaVuSans-47"/>
      <use x="1713.476562" xlink:href="#DejaVuSans-115"/>
      <use x="1765.576172" xlink:href="#DejaVuSans-93"/>
     </g>
    </g>
   </g>
  </g>
 </g>
 <defs>
  <clipPath id="p494ac33edc">
   <rect height="201.6" width="367.2" x="30.103125" y="7.2"/>
  </clipPath>
 </defs>
</svg>
