<?xml version="1.0" encoding="utf-8" standalone="no"?>
<!DOCTYPE svg PUBLIC "-//W3C//DTD SVG 1.1//EN"
  "http://www.w3.org/Graphics/SVG/1.1/DTD/svg11.dtd">
<!-- Created with matplotlib (https://matplotlib.org/) -->
<svg height="280.512pt" version="1.1" viewBox="0 0 419.245312 280.512" width="419.245312pt" xmlns="http://www.w3.org/2000/svg" xmlns:xlink="http://www.w3.org/1999/xlink">
 <metadata>
  <rdf:RDF xmlns:cc="http://creativecommons.org/ns#" xmlns:dc="http://purl.org/dc/elements/1.1/" xmlns:rdf="http://www.w3.org/1999/02/22-rdf-syntax-ns#">
   <cc:Work>
    <dc:type rdf:resource="http://purl.org/dc/dcmitype/StillImage"/>
    <dc:date>2021-06-16T21:49:23.629918</dc:date>
    <dc:format>image/svg+xml</dc:format>
    <dc:creator>
     <cc:Agent>
      <dc:title>Matplotlib v3.3.4, https://matplotlib.org/</dc:title>
     </cc:Agent>
    </dc:creator>
   </cc:Work>
  </rdf:RDF>
 </metadata>
 <defs>
  <style type="text/css">*{stroke-linecap:butt;stroke-linejoin:round;}</style>
 </defs>
 <g id="figure_1">
  <g id="patch_1">
   <path d="M 0 280.512 
L 419.245312 280.512 
L 419.245312 0 
L 0 0 
z
" style="fill:none;"/>
  </g>
  <g id="axes_1">
   <g id="patch_2">
    <path d="M 44.845313 208.8 
L 412.045312 208.8 
L 412.045312 7.2 
L 44.845313 7.2 
z
" style="fill:#ffffff;"/>
   </g>
   <g id="matplotlib.axis_1">
    <g id="xtick_1">
     <g id="line2d_1">
      <defs>
       <path d="M 0 0 
L 0 3.5 
" id="m21170b6a13" style="stroke:#000000;stroke-width:0.8;"/>
      </defs>
      <g>
       <use style="stroke:#000000;stroke-width:0.8;" x="61.536222" xlink:href="#m21170b6a13" y="208.8"/>
      </g>
     </g>
     <g id="text_1">
      <!-- 0.0 -->
      <g transform="translate(53.584659 223.398437)scale(0.1 -0.1)">
       <defs>
        <path d="M 31.78125 66.40625 
Q 24.171875 66.40625 20.328125 58.90625 
Q 16.5 51.421875 16.5 36.375 
Q 16.5 21.390625 20.328125 13.890625 
Q 24.171875 6.390625 31.78125 6.390625 
Q 39.453125 6.390625 43.28125 13.890625 
Q 47.125 21.390625 47.125 36.375 
Q 47.125 51.421875 43.28125 58.90625 
Q 39.453125 66.40625 31.78125 66.40625 
z
M 31.78125 74.21875 
Q 44.046875 74.21875 50.515625 64.515625 
Q 56.984375 54.828125 56.984375 36.375 
Q 56.984375 17.96875 50.515625 8.265625 
Q 44.046875 -1.421875 31.78125 -1.421875 
Q 19.53125 -1.421875 13.0625 8.265625 
Q 6.59375 17.96875 6.59375 36.375 
Q 6.59375 54.828125 13.0625 64.515625 
Q 19.53125 74.21875 31.78125 74.21875 
z
" id="DejaVuSans-48"/>
        <path d="M 10.6875 12.40625 
L 21 12.40625 
L 21 0 
L 10.6875 0 
z
" id="DejaVuSans-46"/>
       </defs>
       <use xlink:href="#DejaVuSans-48"/>
       <use x="63.623047" xlink:href="#DejaVuSans-46"/>
       <use x="95.410156" xlink:href="#DejaVuSans-48"/>
      </g>
     </g>
    </g>
    <g id="xtick_2">
     <g id="line2d_2">
      <g>
       <use style="stroke:#000000;stroke-width:0.8;" x="128.299858" xlink:href="#m21170b6a13" y="208.8"/>
      </g>
     </g>
     <g id="text_2">
      <!-- 0.2 -->
      <g transform="translate(120.348295 223.398437)scale(0.1 -0.1)">
       <defs>
        <path d="M 19.1875 8.296875 
L 53.609375 8.296875 
L 53.609375 0 
L 7.328125 0 
L 7.328125 8.296875 
Q 12.9375 14.109375 22.625 23.890625 
Q 32.328125 33.6875 34.8125 36.53125 
Q 39.546875 41.84375 41.421875 45.53125 
Q 43.3125 49.21875 43.3125 52.78125 
Q 43.3125 58.59375 39.234375 62.25 
Q 35.15625 65.921875 28.609375 65.921875 
Q 23.96875 65.921875 18.8125 64.3125 
Q 13.671875 62.703125 7.8125 59.421875 
L 7.8125 69.390625 
Q 13.765625 71.78125 18.9375 73 
Q 24.125 74.21875 28.421875 74.21875 
Q 39.75 74.21875 46.484375 68.546875 
Q 53.21875 62.890625 53.21875 53.421875 
Q 53.21875 48.921875 51.53125 44.890625 
Q 49.859375 40.875 45.40625 35.40625 
Q 44.1875 33.984375 37.640625 27.21875 
Q 31.109375 20.453125 19.1875 8.296875 
z
" id="DejaVuSans-50"/>
       </defs>
       <use xlink:href="#DejaVuSans-48"/>
       <use x="63.623047" xlink:href="#DejaVuSans-46"/>
       <use x="95.410156" xlink:href="#DejaVuSans-50"/>
      </g>
     </g>
    </g>
    <g id="xtick_3">
     <g id="line2d_3">
      <g>
       <use style="stroke:#000000;stroke-width:0.8;" x="195.063494" xlink:href="#m21170b6a13" y="208.8"/>
      </g>
     </g>
     <g id="text_3">
      <!-- 0.4 -->
      <g transform="translate(187.111932 223.398437)scale(0.1 -0.1)">
       <defs>
        <path d="M 37.796875 64.3125 
L 12.890625 25.390625 
L 37.796875 25.390625 
z
M 35.203125 72.90625 
L 47.609375 72.90625 
L 47.609375 25.390625 
L 58.015625 25.390625 
L 58.015625 17.1875 
L 47.609375 17.1875 
L 47.609375 0 
L 37.796875 0 
L 37.796875 17.1875 
L 4.890625 17.1875 
L 4.890625 26.703125 
z
" id="DejaVuSans-52"/>
       </defs>
       <use xlink:href="#DejaVuSans-48"/>
       <use x="63.623047" xlink:href="#DejaVuSans-46"/>
       <use x="95.410156" xlink:href="#DejaVuSans-52"/>
      </g>
     </g>
    </g>
    <g id="xtick_4">
     <g id="line2d_4">
      <g>
       <use style="stroke:#000000;stroke-width:0.8;" x="261.827131" xlink:href="#m21170b6a13" y="208.8"/>
      </g>
     </g>
     <g id="text_4">
      <!-- 0.6 -->
      <g transform="translate(253.875568 223.398437)scale(0.1 -0.1)">
       <defs>
        <path d="M 33.015625 40.375 
Q 26.375 40.375 22.484375 35.828125 
Q 18.609375 31.296875 18.609375 23.390625 
Q 18.609375 15.53125 22.484375 10.953125 
Q 26.375 6.390625 33.015625 6.390625 
Q 39.65625 6.390625 43.53125 10.953125 
Q 47.40625 15.53125 47.40625 23.390625 
Q 47.40625 31.296875 43.53125 35.828125 
Q 39.65625 40.375 33.015625 40.375 
z
M 52.59375 71.296875 
L 52.59375 62.3125 
Q 48.875 64.0625 45.09375 64.984375 
Q 41.3125 65.921875 37.59375 65.921875 
Q 27.828125 65.921875 22.671875 59.328125 
Q 17.53125 52.734375 16.796875 39.40625 
Q 19.671875 43.65625 24.015625 45.921875 
Q 28.375 48.1875 33.59375 48.1875 
Q 44.578125 48.1875 50.953125 41.515625 
Q 57.328125 34.859375 57.328125 23.390625 
Q 57.328125 12.15625 50.6875 5.359375 
Q 44.046875 -1.421875 33.015625 -1.421875 
Q 20.359375 -1.421875 13.671875 8.265625 
Q 6.984375 17.96875 6.984375 36.375 
Q 6.984375 53.65625 15.1875 63.9375 
Q 23.390625 74.21875 37.203125 74.21875 
Q 40.921875 74.21875 44.703125 73.484375 
Q 48.484375 72.75 52.59375 71.296875 
z
" id="DejaVuSans-54"/>
       </defs>
       <use xlink:href="#DejaVuSans-48"/>
       <use x="63.623047" xlink:href="#DejaVuSans-46"/>
       <use x="95.410156" xlink:href="#DejaVuSans-54"/>
      </g>
     </g>
    </g>
    <g id="xtick_5">
     <g id="line2d_5">
      <g>
       <use style="stroke:#000000;stroke-width:0.8;" x="328.590767" xlink:href="#m21170b6a13" y="208.8"/>
      </g>
     </g>
     <g id="text_5">
      <!-- 0.8 -->
      <g transform="translate(320.639205 223.398437)scale(0.1 -0.1)">
       <defs>
        <path d="M 31.78125 34.625 
Q 24.75 34.625 20.71875 30.859375 
Q 16.703125 27.09375 16.703125 20.515625 
Q 16.703125 13.921875 20.71875 10.15625 
Q 24.75 6.390625 31.78125 6.390625 
Q 38.8125 6.390625 42.859375 10.171875 
Q 46.921875 13.96875 46.921875 20.515625 
Q 46.921875 27.09375 42.890625 30.859375 
Q 38.875 34.625 31.78125 34.625 
z
M 21.921875 38.8125 
Q 15.578125 40.375 12.03125 44.71875 
Q 8.5 49.078125 8.5 55.328125 
Q 8.5 64.0625 14.71875 69.140625 
Q 20.953125 74.21875 31.78125 74.21875 
Q 42.671875 74.21875 48.875 69.140625 
Q 55.078125 64.0625 55.078125 55.328125 
Q 55.078125 49.078125 51.53125 44.71875 
Q 48 40.375 41.703125 38.8125 
Q 48.828125 37.15625 52.796875 32.3125 
Q 56.78125 27.484375 56.78125 20.515625 
Q 56.78125 9.90625 50.3125 4.234375 
Q 43.84375 -1.421875 31.78125 -1.421875 
Q 19.734375 -1.421875 13.25 4.234375 
Q 6.78125 9.90625 6.78125 20.515625 
Q 6.78125 27.484375 10.78125 32.3125 
Q 14.796875 37.15625 21.921875 38.8125 
z
M 18.3125 54.390625 
Q 18.3125 48.734375 21.84375 45.5625 
Q 25.390625 42.390625 31.78125 42.390625 
Q 38.140625 42.390625 41.71875 45.5625 
Q 45.3125 48.734375 45.3125 54.390625 
Q 45.3125 60.0625 41.71875 63.234375 
Q 38.140625 66.40625 31.78125 66.40625 
Q 25.390625 66.40625 21.84375 63.234375 
Q 18.3125 60.0625 18.3125 54.390625 
z
" id="DejaVuSans-56"/>
       </defs>
       <use xlink:href="#DejaVuSans-48"/>
       <use x="63.623047" xlink:href="#DejaVuSans-46"/>
       <use x="95.410156" xlink:href="#DejaVuSans-56"/>
      </g>
     </g>
    </g>
    <g id="xtick_6">
     <g id="line2d_6">
      <g>
       <use style="stroke:#000000;stroke-width:0.8;" x="395.354403" xlink:href="#m21170b6a13" y="208.8"/>
      </g>
     </g>
     <g id="text_6">
      <!-- 1.0 -->
      <g transform="translate(387.402841 223.398437)scale(0.1 -0.1)">
       <defs>
        <path d="M 12.40625 8.296875 
L 28.515625 8.296875 
L 28.515625 63.921875 
L 10.984375 60.40625 
L 10.984375 69.390625 
L 28.421875 72.90625 
L 38.28125 72.90625 
L 38.28125 8.296875 
L 54.390625 8.296875 
L 54.390625 0 
L 12.40625 0 
z
" id="DejaVuSans-49"/>
       </defs>
       <use xlink:href="#DejaVuSans-49"/>
       <use x="63.623047" xlink:href="#DejaVuSans-46"/>
       <use x="95.410156" xlink:href="#DejaVuSans-48"/>
      </g>
     </g>
    </g>
    <g id="text_7">
     <!-- Time (s) -->
     <g transform="translate(208.116406 237.076562)scale(0.1 -0.1)">
      <defs>
       <path d="M -0.296875 72.90625 
L 61.375 72.90625 
L 61.375 64.59375 
L 35.5 64.59375 
L 35.5 0 
L 25.59375 0 
L 25.59375 64.59375 
L -0.296875 64.59375 
z
" id="DejaVuSans-84"/>
       <path d="M 9.421875 54.6875 
L 18.40625 54.6875 
L 18.40625 0 
L 9.421875 0 
z
M 9.421875 75.984375 
L 18.40625 75.984375 
L 18.40625 64.59375 
L 9.421875 64.59375 
z
" id="DejaVuSans-105"/>
       <path d="M 52 44.1875 
Q 55.375 50.25 60.0625 53.125 
Q 64.75 56 71.09375 56 
Q 79.640625 56 84.28125 50.015625 
Q 88.921875 44.046875 88.921875 33.015625 
L 88.921875 0 
L 79.890625 0 
L 79.890625 32.71875 
Q 79.890625 40.578125 77.09375 44.375 
Q 74.3125 48.1875 68.609375 48.1875 
Q 61.625 48.1875 57.5625 43.546875 
Q 53.515625 38.921875 53.515625 30.90625 
L 53.515625 0 
L 44.484375 0 
L 44.484375 32.71875 
Q 44.484375 40.625 41.703125 44.40625 
Q 38.921875 48.1875 33.109375 48.1875 
Q 26.21875 48.1875 22.15625 43.53125 
Q 18.109375 38.875 18.109375 30.90625 
L 18.109375 0 
L 9.078125 0 
L 9.078125 54.6875 
L 18.109375 54.6875 
L 18.109375 46.1875 
Q 21.1875 51.21875 25.484375 53.609375 
Q 29.78125 56 35.6875 56 
Q 41.65625 56 45.828125 52.96875 
Q 50 49.953125 52 44.1875 
z
" id="DejaVuSans-109"/>
       <path d="M 56.203125 29.59375 
L 56.203125 25.203125 
L 14.890625 25.203125 
Q 15.484375 15.921875 20.484375 11.0625 
Q 25.484375 6.203125 34.421875 6.203125 
Q 39.59375 6.203125 44.453125 7.46875 
Q 49.3125 8.734375 54.109375 11.28125 
L 54.109375 2.78125 
Q 49.265625 0.734375 44.1875 -0.34375 
Q 39.109375 -1.421875 33.890625 -1.421875 
Q 20.796875 -1.421875 13.15625 6.1875 
Q 5.515625 13.8125 5.515625 26.8125 
Q 5.515625 40.234375 12.765625 48.109375 
Q 20.015625 56 32.328125 56 
Q 43.359375 56 49.78125 48.890625 
Q 56.203125 41.796875 56.203125 29.59375 
z
M 47.21875 32.234375 
Q 47.125 39.59375 43.09375 43.984375 
Q 39.0625 48.390625 32.421875 48.390625 
Q 24.90625 48.390625 20.390625 44.140625 
Q 15.875 39.890625 15.1875 32.171875 
z
" id="DejaVuSans-101"/>
       <path id="DejaVuSans-32"/>
       <path d="M 31 75.875 
Q 24.46875 64.65625 21.28125 53.65625 
Q 18.109375 42.671875 18.109375 31.390625 
Q 18.109375 20.125 21.3125 9.0625 
Q 24.515625 -2 31 -13.1875 
L 23.1875 -13.1875 
Q 15.875 -1.703125 12.234375 9.375 
Q 8.59375 20.453125 8.59375 31.390625 
Q 8.59375 42.28125 12.203125 53.3125 
Q 15.828125 64.359375 23.1875 75.875 
z
" id="DejaVuSans-40"/>
       <path d="M 44.28125 53.078125 
L 44.28125 44.578125 
Q 40.484375 46.53125 36.375 47.5 
Q 32.28125 48.484375 27.875 48.484375 
Q 21.1875 48.484375 17.84375 46.4375 
Q 14.5 44.390625 14.5 40.28125 
Q 14.5 37.15625 16.890625 35.375 
Q 19.28125 33.59375 26.515625 31.984375 
L 29.59375 31.296875 
Q 39.15625 29.25 43.1875 25.515625 
Q 47.21875 21.78125 47.21875 15.09375 
Q 47.21875 7.46875 41.1875 3.015625 
Q 35.15625 -1.421875 24.609375 -1.421875 
Q 20.21875 -1.421875 15.453125 -0.5625 
Q 10.6875 0.296875 5.421875 2 
L 5.421875 11.28125 
Q 10.40625 8.6875 15.234375 7.390625 
Q 20.0625 6.109375 24.8125 6.109375 
Q 31.15625 6.109375 34.5625 8.28125 
Q 37.984375 10.453125 37.984375 14.40625 
Q 37.984375 18.0625 35.515625 20.015625 
Q 33.0625 21.96875 24.703125 23.78125 
L 21.578125 24.515625 
Q 13.234375 26.265625 9.515625 29.90625 
Q 5.8125 33.546875 5.8125 39.890625 
Q 5.8125 47.609375 11.28125 51.796875 
Q 16.75 56 26.8125 56 
Q 31.78125 56 36.171875 55.265625 
Q 40.578125 54.546875 44.28125 53.078125 
z
" id="DejaVuSans-115"/>
       <path d="M 8.015625 75.875 
L 15.828125 75.875 
Q 23.140625 64.359375 26.78125 53.3125 
Q 30.421875 42.28125 30.421875 31.390625 
Q 30.421875 20.453125 26.78125 9.375 
Q 23.140625 -1.703125 15.828125 -13.1875 
L 8.015625 -13.1875 
Q 14.5 -2 17.703125 9.0625 
Q 20.90625 20.125 20.90625 31.390625 
Q 20.90625 42.671875 17.703125 53.65625 
Q 14.5 64.65625 8.015625 75.875 
z
" id="DejaVuSans-41"/>
      </defs>
      <use xlink:href="#DejaVuSans-84"/>
      <use x="57.958984" xlink:href="#DejaVuSans-105"/>
      <use x="85.742188" xlink:href="#DejaVuSans-109"/>
      <use x="183.154297" xlink:href="#DejaVuSans-101"/>
      <use x="244.677734" xlink:href="#DejaVuSans-32"/>
      <use x="276.464844" xlink:href="#DejaVuSans-40"/>
      <use x="315.478516" xlink:href="#DejaVuSans-115"/>
      <use x="367.578125" xlink:href="#DejaVuSans-41"/>
     </g>
    </g>
   </g>
   <g id="matplotlib.axis_2">
    <g id="ytick_1">
     <g id="line2d_7">
      <defs>
       <path d="M 0 0 
L -3.5 0 
" id="m2a70338bb2" style="stroke:#000000;stroke-width:0.8;"/>
      </defs>
      <g>
       <use style="stroke:#000000;stroke-width:0.8;" x="44.845313" xlink:href="#m2a70338bb2" y="199.636945"/>
      </g>
     </g>
     <g id="text_8">
      <!-- −1.00 -->
      <g transform="translate(7.2 203.436164)scale(0.1 -0.1)">
       <defs>
        <path d="M 10.59375 35.5 
L 73.1875 35.5 
L 73.1875 27.203125 
L 10.59375 27.203125 
z
" id="DejaVuSans-8722"/>
       </defs>
       <use xlink:href="#DejaVuSans-8722"/>
       <use x="83.789062" xlink:href="#DejaVuSans-49"/>
       <use x="147.412109" xlink:href="#DejaVuSans-46"/>
       <use x="179.199219" xlink:href="#DejaVuSans-48"/>
       <use x="242.822266" xlink:href="#DejaVuSans-48"/>
      </g>
     </g>
    </g>
    <g id="ytick_2">
     <g id="line2d_8">
      <g>
       <use style="stroke:#000000;stroke-width:0.8;" x="44.845313" xlink:href="#m2a70338bb2" y="176.727709"/>
      </g>
     </g>
     <g id="text_9">
      <!-- −0.75 -->
      <g transform="translate(7.2 180.526927)scale(0.1 -0.1)">
       <defs>
        <path d="M 8.203125 72.90625 
L 55.078125 72.90625 
L 55.078125 68.703125 
L 28.609375 0 
L 18.3125 0 
L 43.21875 64.59375 
L 8.203125 64.59375 
z
" id="DejaVuSans-55"/>
        <path d="M 10.796875 72.90625 
L 49.515625 72.90625 
L 49.515625 64.59375 
L 19.828125 64.59375 
L 19.828125 46.734375 
Q 21.96875 47.46875 24.109375 47.828125 
Q 26.265625 48.1875 28.421875 48.1875 
Q 40.625 48.1875 47.75 41.5 
Q 54.890625 34.8125 54.890625 23.390625 
Q 54.890625 11.625 47.5625 5.09375 
Q 40.234375 -1.421875 26.90625 -1.421875 
Q 22.3125 -1.421875 17.546875 -0.640625 
Q 12.796875 0.140625 7.71875 1.703125 
L 7.71875 11.625 
Q 12.109375 9.234375 16.796875 8.0625 
Q 21.484375 6.890625 26.703125 6.890625 
Q 35.15625 6.890625 40.078125 11.328125 
Q 45.015625 15.765625 45.015625 23.390625 
Q 45.015625 31 40.078125 35.4375 
Q 35.15625 39.890625 26.703125 39.890625 
Q 22.75 39.890625 18.8125 39.015625 
Q 14.890625 38.140625 10.796875 36.28125 
z
" id="DejaVuSans-53"/>
       </defs>
       <use xlink:href="#DejaVuSans-8722"/>
       <use x="83.789062" xlink:href="#DejaVuSans-48"/>
       <use x="147.412109" xlink:href="#DejaVuSans-46"/>
       <use x="179.199219" xlink:href="#DejaVuSans-55"/>
       <use x="242.822266" xlink:href="#DejaVuSans-53"/>
      </g>
     </g>
    </g>
    <g id="ytick_3">
     <g id="line2d_9">
      <g>
       <use style="stroke:#000000;stroke-width:0.8;" x="44.845313" xlink:href="#m2a70338bb2" y="153.818472"/>
      </g>
     </g>
     <g id="text_10">
      <!-- −0.50 -->
      <g transform="translate(7.2 157.617691)scale(0.1 -0.1)">
       <use xlink:href="#DejaVuSans-8722"/>
       <use x="83.789062" xlink:href="#DejaVuSans-48"/>
       <use x="147.412109" xlink:href="#DejaVuSans-46"/>
       <use x="179.199219" xlink:href="#DejaVuSans-53"/>
       <use x="242.822266" xlink:href="#DejaVuSans-48"/>
      </g>
     </g>
    </g>
    <g id="ytick_4">
     <g id="line2d_10">
      <g>
       <use style="stroke:#000000;stroke-width:0.8;" x="44.845313" xlink:href="#m2a70338bb2" y="130.909236"/>
      </g>
     </g>
     <g id="text_11">
      <!-- −0.25 -->
      <g transform="translate(7.2 134.708455)scale(0.1 -0.1)">
       <use xlink:href="#DejaVuSans-8722"/>
       <use x="83.789062" xlink:href="#DejaVuSans-48"/>
       <use x="147.412109" xlink:href="#DejaVuSans-46"/>
       <use x="179.199219" xlink:href="#DejaVuSans-50"/>
       <use x="242.822266" xlink:href="#DejaVuSans-53"/>
      </g>
     </g>
    </g>
    <g id="ytick_5">
     <g id="line2d_11">
      <g>
       <use style="stroke:#000000;stroke-width:0.8;" x="44.845313" xlink:href="#m2a70338bb2" y="108"/>
      </g>
     </g>
     <g id="text_12">
      <!-- 0.00 -->
      <g transform="translate(15.579688 111.799219)scale(0.1 -0.1)">
       <use xlink:href="#DejaVuSans-48"/>
       <use x="63.623047" xlink:href="#DejaVuSans-46"/>
       <use x="95.410156" xlink:href="#DejaVuSans-48"/>
       <use x="159.033203" xlink:href="#DejaVuSans-48"/>
      </g>
     </g>
    </g>
    <g id="ytick_6">
     <g id="line2d_12">
      <g>
       <use style="stroke:#000000;stroke-width:0.8;" x="44.845313" xlink:href="#m2a70338bb2" y="85.090764"/>
      </g>
     </g>
     <g id="text_13">
      <!-- 0.25 -->
      <g transform="translate(15.579688 88.889983)scale(0.1 -0.1)">
       <use xlink:href="#DejaVuSans-48"/>
       <use x="63.623047" xlink:href="#DejaVuSans-46"/>
       <use x="95.410156" xlink:href="#DejaVuSans-50"/>
       <use x="159.033203" xlink:href="#DejaVuSans-53"/>
      </g>
     </g>
    </g>
    <g id="ytick_7">
     <g id="line2d_13">
      <g>
       <use style="stroke:#000000;stroke-width:0.8;" x="44.845313" xlink:href="#m2a70338bb2" y="62.181528"/>
      </g>
     </g>
     <g id="text_14">
      <!-- 0.50 -->
      <g transform="translate(15.579688 65.980746)scale(0.1 -0.1)">
       <use xlink:href="#DejaVuSans-48"/>
       <use x="63.623047" xlink:href="#DejaVuSans-46"/>
       <use x="95.410156" xlink:href="#DejaVuSans-53"/>
       <use x="159.033203" xlink:href="#DejaVuSans-48"/>
      </g>
     </g>
    </g>
    <g id="ytick_8">
     <g id="line2d_14">
      <g>
       <use style="stroke:#000000;stroke-width:0.8;" x="44.845313" xlink:href="#m2a70338bb2" y="39.272291"/>
      </g>
     </g>
     <g id="text_15">
      <!-- 0.75 -->
      <g transform="translate(15.579688 43.07151)scale(0.1 -0.1)">
       <use xlink:href="#DejaVuSans-48"/>
       <use x="63.623047" xlink:href="#DejaVuSans-46"/>
       <use x="95.410156" xlink:href="#DejaVuSans-55"/>
       <use x="159.033203" xlink:href="#DejaVuSans-53"/>
      </g>
     </g>
    </g>
    <g id="ytick_9">
     <g id="line2d_15">
      <g>
       <use style="stroke:#000000;stroke-width:0.8;" x="44.845313" xlink:href="#m2a70338bb2" y="16.363055"/>
      </g>
     </g>
     <g id="text_16">
      <!-- 1.00 -->
      <g transform="translate(15.579688 20.162274)scale(0.1 -0.1)">
       <use xlink:href="#DejaVuSans-49"/>
       <use x="63.623047" xlink:href="#DejaVuSans-46"/>
       <use x="95.410156" xlink:href="#DejaVuSans-48"/>
       <use x="159.033203" xlink:href="#DejaVuSans-48"/>
      </g>
     </g>
    </g>
   </g>
   <g id="line2d_16">
    <path clip-path="url(#pb64c7a3492)" d="M 61.536222 108 
L 62.119092 26.454866 
L 62.353754 16.410137 
L 62.368894 16.363636 
L 62.406742 16.572826 
L 62.497579 18.960167 
L 62.671683 30.670371 
L 62.966903 68.24022 
L 63.897982 196.386511 
L 64.041807 199.636364 
L 64.072086 199.468999 
L 64.162923 197.191887 
L 64.337027 185.677924 
L 64.632247 148.346921 
L 65.570896 19.443409 
L 65.707151 16.363636 
L 65.745 16.572826 
L 65.835837 18.960167 
L 66.009941 30.670371 
L 66.305161 68.24022 
L 67.23624 196.386511 
L 67.380065 199.636364 
L 67.410344 199.468999 
L 67.501181 197.191887 
L 67.675285 185.677924 
L 67.970505 148.346921 
L 68.909153 19.443409 
L 69.045409 16.363636 
L 69.083257 16.572826 
L 69.174094 18.960167 
L 69.348198 30.670371 
L 69.643418 68.24022 
L 70.574497 196.386511 
L 70.718322 199.636364 
L 70.748601 199.468999 
L 70.839438 197.191887 
L 71.013542 185.677924 
L 71.308762 148.346921 
L 72.247411 19.443409 
L 72.383666 16.363636 
L 72.421515 16.572826 
L 72.512352 18.960167 
L 72.686456 30.670371 
L 72.981676 68.24022 
L 73.912755 196.386511 
L 74.05658 199.636364 
L 74.086859 199.468999 
L 74.177696 197.191887 
L 74.3518 185.677924 
L 74.64702 148.346921 
L 75.585668 19.443409 
L 75.721924 16.363636 
L 75.759772 16.572826 
L 75.850609 18.960167 
L 76.024713 30.670371 
L 76.319933 68.24022 
L 77.251012 196.386511 
L 77.394837 199.636364 
L 77.425116 199.468999 
L 77.515953 197.191887 
L 77.690057 185.677924 
L 77.985277 148.346921 
L 78.923926 19.443409 
L 79.060181 16.363636 
L 79.09803 16.572826 
L 79.188867 18.960167 
L 79.362971 30.670371 
L 79.658191 68.24022 
L 80.58927 196.386511 
L 80.733095 199.636364 
L 80.763374 199.468999 
L 80.854211 197.191887 
L 81.028315 185.677924 
L 81.323535 148.346921 
L 82.262183 19.443409 
L 82.398439 16.363636 
L 82.436287 16.572826 
L 82.527124 18.960167 
L 82.701228 30.670371 
L 82.996448 68.24022 
L 83.927527 196.386511 
L 84.071352 199.636364 
L 84.101631 199.468999 
L 84.192468 197.191887 
L 84.366572 185.677924 
L 84.661792 148.346921 
L 85.600441 19.443409 
L 85.736696 16.363636 
L 85.774545 16.572826 
L 85.865382 18.960167 
L 86.039486 30.670371 
L 86.334706 68.24022 
L 87.265785 196.386511 
L 87.40961 199.636364 
L 87.439889 199.468999 
L 87.530726 197.191887 
L 87.70483 185.677924 
L 88.00005 148.346921 
L 88.938698 19.443409 
L 89.074954 16.363636 
L 89.112802 16.572826 
L 89.203639 18.960167 
L 89.377743 30.670371 
L 89.672964 68.24022 
L 90.604042 196.386511 
L 90.747867 199.636364 
L 90.778146 199.468999 
L 90.868983 197.191887 
L 91.043087 185.677924 
L 91.338307 148.346921 
L 92.276956 19.443409 
L 92.413211 16.363636 
L 92.45106 16.572826 
L 92.541897 18.960167 
L 92.716001 30.670371 
L 93.011221 68.24022 
L 93.9423 196.386511 
L 94.086125 199.636364 
L 94.116404 199.468999 
L 94.207241 197.191887 
L 94.381345 185.677924 
L 94.676565 148.346921 
L 95.615213 19.443409 
L 95.751469 16.363636 
L 95.789317 16.572826 
L 95.880154 18.960167 
L 96.054258 30.670371 
L 96.349479 68.24022 
L 97.280557 196.386511 
L 97.424382 199.636364 
L 97.454661 199.468999 
L 97.545498 197.191887 
L 97.719602 185.677924 
L 98.014822 148.346921 
L 98.953471 19.443409 
L 99.089726 16.363636 
L 99.127575 16.572826 
L 99.218412 18.960167 
L 99.392516 30.670371 
L 99.687736 68.24022 
L 100.618815 196.386511 
L 100.76264 199.636364 
L 100.792919 199.468999 
L 100.883756 197.191887 
L 101.05786 185.677924 
L 101.35308 148.346921 
L 102.291728 19.443409 
L 102.427984 16.363636 
L 102.465832 16.572826 
L 102.556669 18.960167 
L 102.730774 30.670371 
L 103.025994 68.24022 
L 103.957072 196.386511 
L 104.100897 199.636364 
L 104.131176 199.468999 
L 104.222013 197.191887 
L 104.396117 185.677924 
L 104.691337 148.346921 
L 105.629986 19.443409 
L 105.766241 16.363636 
L 105.80409 16.572826 
L 105.894927 18.960167 
L 106.069031 30.670371 
L 106.364251 68.24022 
L 107.29533 196.386511 
L 107.439155 199.636364 
L 107.469434 199.468999 
L 107.560271 197.191887 
L 107.734375 185.677924 
L 108.029595 148.346921 
L 108.968243 19.443409 
L 109.104499 16.363636 
L 109.142347 16.572826 
L 109.233184 18.960167 
L 109.407289 30.670371 
L 109.702509 68.24022 
L 110.633587 196.386511 
L 110.777412 199.636364 
L 110.807691 199.468999 
L 110.898528 197.191887 
L 111.072632 185.677924 
L 111.367852 148.346921 
L 112.306501 19.443409 
L 112.442756 16.363636 
L 112.480605 16.572826 
L 112.571442 18.960167 
L 112.745546 30.670371 
L 113.040766 68.24022 
L 113.971845 196.386511 
L 114.11567 199.636364 
L 114.145949 199.468999 
L 114.236786 197.191887 
L 114.41089 185.677924 
L 114.70611 148.346921 
L 115.644758 19.443409 
L 115.781014 16.363636 
L 115.818863 16.572826 
L 115.909699 18.960167 
L 116.083804 30.670371 
L 116.379024 68.24022 
L 117.310102 196.386511 
L 117.453927 199.636364 
L 117.484206 199.468999 
L 117.575043 197.191887 
L 117.749147 185.677924 
L 118.044368 148.346921 
L 118.983016 19.443409 
L 119.119271 16.363636 
L 119.15712 16.572826 
L 119.247957 18.960167 
L 119.422061 30.670371 
L 119.717281 68.24022 
L 120.64836 196.386511 
L 120.792185 199.636364 
L 120.822464 199.468999 
L 120.913301 197.191887 
L 121.087405 185.677924 
L 121.382625 148.346921 
L 122.321273 19.443409 
L 122.457529 16.363636 
L 122.495378 16.572826 
L 122.586214 18.960167 
L 122.760319 30.670371 
L 123.055539 68.24022 
L 123.986617 196.386511 
L 124.130442 199.636364 
L 124.160721 199.468999 
L 124.251558 197.191887 
L 124.425662 185.677924 
L 124.720883 148.346921 
L 125.659531 19.443409 
L 125.795786 16.363636 
L 125.833635 16.572826 
L 125.924472 18.960167 
L 126.098576 30.670371 
L 126.393796 68.24022 
L 127.324875 196.386511 
L 127.4687 199.636364 
L 127.498979 199.468999 
L 127.589816 197.191887 
L 127.76392 185.677924 
L 128.05914 148.346921 
L 128.997788 19.443409 
L 129.134044 16.363636 
L 129.171893 16.572826 
L 129.26273 18.960167 
L 129.436834 30.670371 
L 129.732054 68.24022 
L 130.663132 196.386511 
L 130.806957 199.636364 
L 130.837236 199.468999 
L 130.928073 197.191887 
L 131.102178 185.677924 
L 131.397398 148.346921 
L 132.336046 19.443409 
L 132.472301 16.363636 
L 132.51015 16.572826 
L 132.600987 18.960167 
L 132.775091 30.670371 
L 133.070311 68.24022 
L 134.00139 196.386511 
L 134.145215 199.636364 
L 134.175494 199.468999 
L 134.266331 197.191887 
L 134.440435 185.677924 
L 134.735655 148.346921 
L 135.674303 19.443409 
L 135.810559 16.363636 
L 135.848408 16.572826 
L 135.939245 18.960167 
L 136.113349 30.670371 
L 136.408569 68.24022 
L 137.339647 196.386511 
L 137.483473 199.636364 
L 137.513751 199.468999 
L 137.604588 197.191887 
L 137.778693 185.677924 
L 138.073913 148.346921 
L 139.012561 19.443409 
L 139.148816 16.363636 
L 139.186665 16.572826 
L 139.277502 18.960167 
L 139.451606 30.670371 
L 139.746826 68.24022 
L 140.677905 196.386511 
L 140.82173 199.636364 
L 140.852009 199.468999 
L 140.942846 197.191887 
L 141.11695 185.677924 
L 141.41217 148.346921 
L 142.350818 19.443409 
L 142.487074 16.363636 
L 142.524923 16.572826 
L 142.61576 18.960167 
L 142.789864 30.670371 
L 143.085084 68.24022 
L 144.016162 196.386511 
L 144.159988 199.636364 
L 144.190267 199.468999 
L 144.281103 197.191887 
L 144.455208 185.677924 
L 144.750428 148.346921 
L 145.689076 19.443409 
L 145.825331 16.363636 
L 145.86318 16.572826 
L 145.954017 18.960167 
L 146.128121 30.670371 
L 146.423341 68.24022 
L 147.35442 196.386511 
L 147.498245 199.636364 
L 147.528524 199.468999 
L 147.619361 197.191887 
L 147.793465 185.677924 
L 148.088685 148.346921 
L 149.027334 19.443409 
L 149.163589 16.363636 
L 149.201438 16.572826 
L 149.292275 18.960167 
L 149.466379 30.670371 
L 149.761599 68.24022 
L 150.692677 196.386511 
L 150.836503 199.636364 
L 150.866782 199.468999 
L 150.957618 197.191887 
L 151.131723 185.677924 
L 151.426943 148.346921 
L 152.365591 19.443409 
L 152.501846 16.363636 
L 152.539695 16.572826 
L 152.630532 18.960167 
L 152.804636 30.670371 
L 153.099856 68.24022 
L 154.030935 196.386511 
L 154.17476 199.636364 
L 154.205039 199.468999 
L 154.295876 197.191887 
L 154.46998 185.677924 
L 154.7652 148.346921 
L 155.703849 19.443409 
L 155.840104 16.363636 
L 155.877953 16.572826 
L 155.96879 18.960167 
L 156.142894 30.670371 
L 156.438114 68.24022 
L 157.369192 196.386511 
L 157.513018 199.636364 
L 157.543297 199.468999 
L 157.634134 197.191887 
L 157.808238 185.677924 
L 158.103458 148.346921 
L 159.042106 19.443409 
L 159.178361 16.363636 
L 159.21621 16.572826 
L 159.307047 18.960167 
L 159.481151 30.670371 
L 159.776371 68.24022 
L 160.70745 196.386511 
L 160.851275 199.636364 
L 160.881554 199.468999 
L 160.972391 197.191887 
L 161.146495 185.677924 
L 161.441715 148.346921 
L 162.380364 19.443409 
L 162.516619 16.363636 
L 162.554468 16.572826 
L 162.645305 18.960167 
L 162.819409 30.670371 
L 163.114629 68.24022 
L 164.045707 196.386511 
L 164.189533 199.636364 
L 164.219812 199.468999 
L 164.310649 197.191887 
L 164.484753 185.677924 
L 164.779973 148.346921 
L 165.718621 19.443409 
L 165.854877 16.363636 
L 165.892725 16.572826 
L 165.983562 18.960167 
L 166.157666 30.670371 
L 166.452886 68.24022 
L 167.383965 196.386511 
L 167.52779 199.636364 
L 167.558069 199.468999 
L 167.648906 197.191887 
L 167.82301 185.677924 
L 168.11823 148.346921 
L 169.056879 19.443409 
L 169.193134 16.363636 
L 169.230983 16.572826 
L 169.32182 18.960167 
L 169.495924 30.670371 
L 169.791144 68.24022 
L 170.722223 196.386511 
L 170.866048 199.636364 
L 170.896327 199.468999 
L 170.987164 197.191887 
L 171.161268 185.677924 
L 171.456488 148.346921 
L 172.395136 19.443409 
L 172.531392 16.363636 
L 172.56924 16.572826 
L 172.660077 18.960167 
L 172.834181 30.670371 
L 173.129401 68.24022 
L 174.06048 196.386511 
L 174.204305 199.636364 
L 174.234584 199.468999 
L 174.325421 197.191887 
L 174.499525 185.677924 
L 174.794745 148.346921 
L 175.733394 19.443409 
L 175.869649 16.363636 
L 175.907498 16.572826 
L 175.998335 18.960167 
L 176.172439 30.670371 
L 176.467659 68.24022 
L 177.398738 196.386511 
L 177.542563 199.636364 
L 177.572842 199.468999 
L 177.663679 197.191887 
L 177.837783 185.677924 
L 178.133003 148.346921 
L 179.071651 19.443409 
L 179.207907 16.363636 
L 179.245755 16.572826 
L 179.336592 18.960167 
L 179.510696 30.670371 
L 179.805916 68.24022 
L 180.736995 196.386511 
L 180.88082 199.636364 
L 180.911099 199.468999 
L 181.001936 197.191887 
L 181.17604 185.677924 
L 181.47126 148.346921 
L 182.409909 19.443409 
L 182.546164 16.363636 
L 182.584013 16.572826 
L 182.67485 18.960167 
L 182.848954 30.670371 
L 183.144174 68.24022 
L 184.075253 196.386511 
L 184.219078 199.636364 
L 184.249357 199.468999 
L 184.340194 197.191887 
L 184.514298 185.677924 
L 184.809518 148.346921 
L 185.748166 19.443409 
L 185.884422 16.363636 
L 185.92227 16.572826 
L 186.013107 18.960167 
L 186.187211 30.670371 
L 186.482431 68.24022 
L 187.41351 196.386511 
L 187.557335 199.636364 
L 187.587614 199.468999 
L 187.678451 197.191887 
L 187.852555 185.677924 
L 188.147775 148.346921 
L 189.086424 19.443409 
L 189.222679 16.363636 
L 189.260528 16.572826 
L 189.351365 18.960167 
L 189.525469 30.670371 
L 189.820689 68.24022 
L 190.751768 196.386511 
L 190.895593 199.636364 
L 190.925872 199.468999 
L 191.016709 197.191887 
L 191.190813 185.677924 
L 191.486033 148.346921 
L 192.424681 19.443409 
L 192.560937 16.363636 
L 192.598785 16.572826 
L 192.689622 18.960167 
L 192.863726 30.670371 
L 193.158946 68.24022 
L 194.090025 196.386511 
L 194.23385 199.636364 
L 194.264129 199.468999 
L 194.354966 197.191887 
L 194.52907 185.677924 
L 194.82429 148.346921 
L 195.762939 19.443409 
L 195.899194 16.363636 
L 195.937043 16.572826 
L 196.02788 18.960167 
L 196.201984 30.670371 
L 196.497204 68.24022 
L 197.428283 196.386511 
L 197.572108 199.636364 
L 197.602387 199.468999 
L 197.693224 197.191887 
L 197.867328 185.677924 
L 198.162548 148.346921 
L 199.101196 19.443409 
L 199.237452 16.363636 
L 199.2753 16.572826 
L 199.366137 18.960167 
L 199.540241 30.670371 
L 199.835462 68.24022 
L 200.76654 196.386511 
L 200.910365 199.636364 
L 200.940644 199.468999 
L 201.031481 197.191887 
L 201.205585 185.677924 
L 201.500805 148.346921 
L 202.439454 19.443409 
L 202.575709 16.363636 
L 202.613558 16.572826 
L 202.704395 18.960167 
L 202.878499 30.670371 
L 203.173719 68.24022 
L 204.104798 196.386511 
L 204.248623 199.636364 
L 204.278902 199.468999 
L 204.369739 197.191887 
L 204.543843 185.677924 
L 204.839063 148.346921 
L 205.777711 19.443409 
L 205.913967 16.363636 
L 205.951815 16.572826 
L 206.042652 18.960167 
L 206.216757 30.670371 
L 206.511977 68.24022 
L 207.443055 196.386511 
L 207.58688 199.636364 
L 207.617159 199.468999 
L 207.707996 197.191887 
L 207.8821 185.677924 
L 208.17732 148.346921 
L 209.115969 19.443409 
L 209.252224 16.363636 
L 209.290073 16.572826 
L 209.38091 18.960167 
L 209.555014 30.670371 
L 209.850234 68.24022 
L 210.781313 196.386511 
L 210.925138 199.636364 
L 210.955417 199.468999 
L 211.046254 197.191887 
L 211.220358 185.677924 
L 211.515578 148.346921 
L 212.454226 19.443409 
L 212.590482 16.363636 
L 212.62833 16.572826 
L 212.719167 18.960167 
L 212.893272 30.670371 
L 213.188492 68.24022 
L 214.11957 196.386511 
L 214.263395 199.636364 
L 214.293674 199.468999 
L 214.384511 197.191887 
L 214.558615 185.677924 
L 214.853835 148.346921 
L 215.792484 19.443409 
L 215.928739 16.363636 
L 215.966588 16.572826 
L 216.057425 18.960167 
L 216.231529 30.670371 
L 216.526749 68.24022 
L 217.457828 196.386511 
L 217.601653 199.636364 
L 217.631932 199.468999 
L 217.722769 197.191887 
L 217.896873 185.677924 
L 218.192093 148.346921 
L 219.130741 19.443409 
L 219.266997 16.363636 
L 219.304845 16.572826 
L 219.395682 18.960167 
L 219.569787 30.670371 
L 219.865007 68.24022 
L 220.796085 196.386511 
L 220.93991 199.636364 
L 220.970189 199.468999 
L 221.061026 197.191887 
L 221.23513 185.677924 
L 221.530351 148.346921 
L 222.468999 19.443409 
L 222.605254 16.363636 
L 222.643103 16.572826 
L 222.73394 18.960167 
L 222.908044 30.670371 
L 223.203264 68.24022 
L 224.134343 196.386511 
L 224.278168 199.636364 
L 224.308447 199.468999 
L 224.399284 197.191887 
L 224.573388 185.677924 
L 224.868608 148.346921 
L 225.807256 19.443409 
L 225.943512 16.363636 
L 225.981361 16.572826 
L 226.072197 18.960167 
L 226.246302 30.670371 
L 226.541522 68.24022 
L 227.4726 196.386511 
L 227.616425 199.636364 
L 227.646704 199.468999 
L 227.737541 197.191887 
L 227.911645 185.677924 
L 228.206866 148.346921 
L 229.145514 19.443409 
L 229.281769 16.363636 
L 229.319618 16.572826 
L 229.410455 18.960167 
L 229.584559 30.670371 
L 229.879779 68.24022 
L 230.810858 196.386511 
L 230.954683 199.636364 
L 230.984962 199.468999 
L 231.075799 197.191887 
L 231.249903 185.677924 
L 231.545123 148.346921 
L 232.483771 19.443409 
L 232.620027 16.363636 
L 232.657876 16.572826 
L 232.748712 18.960167 
L 232.922817 30.670371 
L 233.218037 68.24022 
L 234.149115 196.386511 
L 234.29294 199.636364 
L 234.323219 199.468999 
L 234.414056 197.191887 
L 234.588161 185.677924 
L 234.883381 148.346921 
L 235.822029 19.443409 
L 235.958284 16.363636 
L 235.996133 16.572826 
L 236.08697 18.960167 
L 236.261074 30.670371 
L 236.556294 68.24022 
L 237.487373 196.386511 
L 237.631198 199.636364 
L 237.661477 199.468999 
L 237.752314 197.191887 
L 237.926418 185.677924 
L 238.221638 148.346921 
L 239.160286 19.443409 
L 239.296542 16.363636 
L 239.334391 16.572826 
L 239.425228 18.960167 
L 239.599332 30.670371 
L 239.894552 68.24022 
L 240.82563 196.386511 
L 240.969455 199.636364 
L 240.999734 199.468999 
L 241.090571 197.191887 
L 241.264676 185.677924 
L 241.559896 148.346921 
L 242.498544 19.443409 
L 242.634799 16.363636 
L 242.672648 16.572826 
L 242.763485 18.960167 
L 242.937589 30.670371 
L 243.232809 68.24022 
L 244.163888 196.386511 
L 244.307713 199.636364 
L 244.337992 199.468999 
L 244.428829 197.191887 
L 244.602933 185.677924 
L 244.898153 148.346921 
L 245.836801 19.443409 
L 245.973057 16.363636 
L 246.010906 16.572826 
L 246.101743 18.960167 
L 246.275847 30.670371 
L 246.571067 68.24022 
L 247.502145 196.386511 
L 247.645971 199.636364 
L 247.67625 199.468999 
L 247.767086 197.191887 
L 247.941191 185.677924 
L 248.236411 148.346921 
L 249.175059 19.443409 
L 249.311314 16.363636 
L 249.349163 16.572826 
L 249.44 18.960167 
L 249.614104 30.670371 
L 249.909324 68.24022 
L 250.840403 196.386511 
L 250.984228 199.636364 
L 251.014507 199.468999 
L 251.105344 197.191887 
L 251.279448 185.677924 
L 251.574668 148.346921 
L 252.513317 19.443409 
L 252.649572 16.363636 
L 252.687421 16.572826 
L 252.778258 18.960167 
L 252.952362 30.670371 
L 253.247582 68.24022 
L 254.17866 196.386511 
L 254.322486 199.636364 
L 254.352765 199.468999 
L 254.443601 197.191887 
L 254.617706 185.677924 
L 254.912926 148.346921 
L 255.851574 19.443409 
L 255.987829 16.363636 
L 256.025678 16.572826 
L 256.116515 18.960167 
L 256.290619 30.670371 
L 256.585839 68.24022 
L 257.516918 196.386511 
L 257.660743 199.636364 
L 257.691022 199.468999 
L 257.781859 197.191887 
L 257.955963 185.677924 
L 258.251183 148.346921 
L 259.189832 19.443409 
L 259.326087 16.363636 
L 259.363936 16.572826 
L 259.454773 18.960167 
L 259.628877 30.670371 
L 259.924097 68.24022 
L 260.855175 196.386511 
L 260.999001 199.636364 
L 261.02928 199.468999 
L 261.120117 197.191887 
L 261.294221 185.677924 
L 261.589441 148.346921 
L 262.528089 19.443409 
L 262.664344 16.363636 
L 262.702193 16.572826 
L 262.79303 18.960167 
L 262.967134 30.670371 
L 263.262354 68.24022 
L 264.193433 196.386511 
L 264.337258 199.636364 
L 264.367537 199.468999 
L 264.458374 197.191887 
L 264.632478 185.677924 
L 264.927698 148.346921 
L 265.866347 19.443409 
L 266.002602 16.363636 
L 266.040451 16.572826 
L 266.131288 18.960167 
L 266.305392 30.670371 
L 266.600612 68.24022 
L 267.53169 196.386511 
L 267.675516 199.636364 
L 267.705795 199.468999 
L 267.796632 197.191887 
L 267.970736 185.677924 
L 268.265956 148.346921 
L 269.204604 19.443409 
L 269.34086 16.363636 
L 269.378708 16.572826 
L 269.469545 18.960167 
L 269.643649 30.670371 
L 269.938869 68.24022 
L 270.869948 196.386511 
L 271.013773 199.636364 
L 271.044052 199.468999 
L 271.134889 197.191887 
L 271.308993 185.677924 
L 271.604213 148.346921 
L 272.542862 19.443409 
L 272.679117 16.363636 
L 272.716966 16.572826 
L 272.807803 18.960167 
L 272.981907 30.670371 
L 273.277127 68.24022 
L 274.208205 196.386511 
L 274.352031 199.636364 
L 274.38231 199.468999 
L 274.473147 197.191887 
L 274.647251 185.677924 
L 274.942471 148.346921 
L 275.881119 19.443409 
L 276.017375 16.363636 
L 276.055223 16.572826 
L 276.14606 18.960167 
L 276.320164 30.670371 
L 276.615384 68.24022 
L 277.546463 196.386511 
L 277.690288 199.636364 
L 277.720567 199.468999 
L 277.811404 197.191887 
L 277.985508 185.677924 
L 278.280728 148.346921 
L 279.219377 19.443409 
L 279.355632 16.363636 
L 279.393481 16.572826 
L 279.484318 18.960167 
L 279.658422 30.670371 
L 279.953642 68.24022 
L 280.884721 196.386511 
L 281.028546 199.636364 
L 281.058825 199.468999 
L 281.149662 197.191887 
L 281.323766 185.677924 
L 281.618986 148.346921 
L 282.557634 19.443409 
L 282.69389 16.363636 
L 282.731738 16.572826 
L 282.822575 18.960167 
L 282.996679 30.670371 
L 283.291899 68.24022 
L 284.222978 196.386511 
L 284.366803 199.636364 
L 284.397082 199.468999 
L 284.487919 197.191887 
L 284.662023 185.677924 
L 284.957243 148.346921 
L 285.895892 19.443409 
L 286.032147 16.363636 
L 286.069996 16.572826 
L 286.160833 18.960167 
L 286.334937 30.670371 
L 286.630157 68.24022 
L 287.561236 196.386511 
L 287.705061 199.636364 
L 287.73534 199.468999 
L 287.826177 197.191887 
L 288.000281 185.677924 
L 288.295501 148.346921 
L 289.234149 19.443409 
L 289.370405 16.363636 
L 289.408253 16.572826 
L 289.49909 18.960167 
L 289.673194 30.670371 
L 289.968414 68.24022 
L 290.899493 196.386511 
L 291.043318 199.636364 
L 291.073597 199.468999 
L 291.164434 197.191887 
L 291.338538 185.677924 
L 291.633758 148.346921 
L 292.572407 19.443409 
L 292.708662 16.363636 
L 292.746511 16.572826 
L 292.837348 18.960167 
L 293.011452 30.670371 
L 293.306672 68.24022 
L 294.237751 196.386511 
L 294.381576 199.636364 
L 294.411855 199.468999 
L 294.502692 197.191887 
L 294.676796 185.677924 
L 294.972016 148.346921 
L 295.910664 19.443409 
L 296.04692 16.363636 
L 296.084768 16.572826 
L 296.175605 18.960167 
L 296.349709 30.670371 
L 296.644929 68.24022 
L 297.576008 196.386511 
L 297.719833 199.636364 
L 297.750112 199.468999 
L 297.840949 197.191887 
L 298.015053 185.677924 
L 298.310273 148.346921 
L 299.248922 19.443409 
L 299.385177 16.363636 
L 299.423026 16.572826 
L 299.513863 18.960167 
L 299.687967 30.670371 
L 299.983187 68.24022 
L 300.914266 196.386511 
L 301.058091 199.636364 
L 301.08837 199.468999 
L 301.179207 197.191887 
L 301.353311 185.677924 
L 301.648531 148.346921 
L 302.587179 19.443409 
L 302.723435 16.363636 
L 302.761283 16.572826 
L 302.85212 18.960167 
L 303.026224 30.670371 
L 303.321445 68.24022 
L 304.252523 196.386511 
L 304.396348 199.636364 
L 304.426627 199.468999 
L 304.517464 197.191887 
L 304.691568 185.677924 
L 304.986788 148.346921 
L 305.925437 19.443409 
L 306.061692 16.363636 
L 306.099541 16.572826 
L 306.190378 18.960167 
L 306.364482 30.670371 
L 306.659702 68.24022 
L 307.590781 196.386511 
L 307.734606 199.636364 
L 307.764885 199.468999 
L 307.855722 197.191887 
L 308.029826 185.677924 
L 308.325046 148.346921 
L 309.263694 19.443409 
L 309.39995 16.363636 
L 309.437798 16.572826 
L 309.528635 18.960167 
L 309.702739 30.670371 
L 309.99796 68.24022 
L 310.929038 196.386511 
L 311.072863 199.636364 
L 311.103142 199.468999 
L 311.193979 197.191887 
L 311.368083 185.677924 
L 311.663303 148.346921 
L 312.601952 19.443409 
L 312.738207 16.363636 
L 312.776056 16.572826 
L 312.866893 18.960167 
L 313.040997 30.670371 
L 313.336217 68.24022 
L 314.267296 196.386511 
L 314.411121 199.636364 
L 314.4414 199.468999 
L 314.532237 197.191887 
L 314.706341 185.677924 
L 315.001561 148.346921 
L 315.940209 19.443409 
L 316.076465 16.363636 
L 316.114313 16.572826 
L 316.20515 18.960167 
L 316.379255 30.670371 
L 316.674475 68.24022 
L 317.605553 196.386511 
L 317.749378 199.636364 
L 317.779657 199.468999 
L 317.870494 197.191887 
L 318.044598 185.677924 
L 318.339818 148.346921 
L 319.278467 19.443409 
L 319.414722 16.363636 
L 319.452571 16.572826 
L 319.543408 18.960167 
L 319.717512 30.670371 
L 320.012732 68.24022 
L 320.943811 196.386511 
L 321.087636 199.636364 
L 321.117915 199.468999 
L 321.208752 197.191887 
L 321.382856 185.677924 
L 321.678076 148.346921 
L 322.616724 19.443409 
L 322.75298 16.363636 
L 322.790828 16.572826 
L 322.881665 18.960167 
L 323.05577 30.670371 
L 323.35099 68.24022 
L 324.282068 196.386511 
L 324.425893 199.636364 
L 324.456172 199.468999 
L 324.547009 197.191887 
L 324.721113 185.677924 
L 325.016333 148.346921 
L 325.954982 19.443409 
L 326.091237 16.363636 
L 326.129086 16.572826 
L 326.219923 18.960167 
L 326.394027 30.670371 
L 326.689247 68.24022 
L 327.620326 196.386511 
L 327.764151 199.636364 
L 327.79443 199.468999 
L 327.885267 197.191887 
L 328.059371 185.677924 
L 328.354591 148.346921 
L 329.293239 19.443409 
L 329.429495 16.363636 
L 329.467344 16.572826 
L 329.55818 18.960167 
L 329.732285 30.670371 
L 330.027505 68.24022 
L 330.958583 196.386511 
L 331.102408 199.636364 
L 331.132687 199.468999 
L 331.223524 197.191887 
L 331.397628 185.677924 
L 331.692849 148.346921 
L 332.631497 19.443409 
L 332.767752 16.363636 
L 332.805601 16.572826 
L 332.896438 18.960167 
L 333.070542 30.670371 
L 333.365762 68.24022 
L 334.296841 196.386511 
L 334.440666 199.636364 
L 334.470945 199.468999 
L 334.561782 197.191887 
L 334.735886 185.677924 
L 335.031106 148.346921 
L 335.969754 19.443409 
L 336.10601 16.363636 
L 336.143859 16.572826 
L 336.234695 18.960167 
L 336.4088 30.670371 
L 336.70402 68.24022 
L 337.635098 196.386511 
L 337.778923 199.636364 
L 337.809202 199.468999 
L 337.900039 197.191887 
L 338.074143 185.677924 
L 338.369364 148.346921 
L 339.308012 19.443409 
L 339.444267 16.363636 
L 339.482116 16.572826 
L 339.572953 18.960167 
L 339.747057 30.670371 
L 340.042277 68.24022 
L 340.973356 196.386511 
L 341.117181 199.636364 
L 341.14746 199.468999 
L 341.238297 197.191887 
L 341.412401 185.677924 
L 341.707621 148.346921 
L 342.646269 19.443409 
L 342.782525 16.363636 
L 342.820374 16.572826 
L 342.911211 18.960167 
L 343.085315 30.670371 
L 343.380535 68.24022 
L 344.311613 196.386511 
L 344.455438 199.636364 
L 344.485717 199.468999 
L 344.576554 197.191887 
L 344.750659 185.677924 
L 345.045879 148.346921 
L 345.984527 19.443409 
L 346.120782 16.363636 
L 346.158631 16.572826 
L 346.249468 18.960167 
L 346.423572 30.670371 
L 346.718792 68.24022 
L 347.649871 196.386511 
L 347.793696 199.636364 
L 347.823975 199.468999 
L 347.914812 197.191887 
L 348.088916 185.677924 
L 348.384136 148.346921 
L 349.322784 19.443409 
L 349.45904 16.363636 
L 349.496889 16.572826 
L 349.587726 18.960167 
L 349.76183 30.670371 
L 350.05705 68.24022 
L 350.988128 196.386511 
L 351.131954 199.636364 
L 351.162232 199.468999 
L 351.253069 197.191887 
L 351.427174 185.677924 
L 351.722394 148.346921 
L 352.661042 19.443409 
L 352.797297 16.363636 
L 352.835146 16.572826 
L 352.925983 18.960167 
L 353.100087 30.670371 
L 353.395307 68.24022 
L 354.326386 196.386511 
L 354.470211 199.636364 
L 354.50049 199.468999 
L 354.591327 197.191887 
L 354.765431 185.677924 
L 355.060651 148.346921 
L 355.9993 19.443409 
L 356.135555 16.363636 
L 356.173404 16.572826 
L 356.264241 18.960167 
L 356.438345 30.670371 
L 356.733565 68.24022 
L 357.664643 196.386511 
L 357.808469 199.636364 
L 357.838748 199.468999 
L 357.929584 197.191887 
L 358.103689 185.677924 
L 358.398909 148.346921 
L 359.337557 19.443409 
L 359.473812 16.363636 
L 359.511661 16.572826 
L 359.602498 18.960167 
L 359.776602 30.670371 
L 360.071822 68.24022 
L 361.002901 196.386511 
L 361.146726 199.636364 
L 361.177005 199.468999 
L 361.267842 197.191887 
L 361.441946 185.677924 
L 361.737166 148.346921 
L 362.675815 19.443409 
L 362.81207 16.363636 
L 362.849919 16.572826 
L 362.940756 18.960167 
L 363.11486 30.670371 
L 363.41008 68.24022 
L 364.341158 196.386511 
L 364.484984 199.636364 
L 364.515263 199.468999 
L 364.606099 197.191887 
L 364.780204 185.677924 
L 365.075424 148.346921 
L 366.014072 19.443409 
L 366.150327 16.363636 
L 366.188176 16.572826 
L 366.279013 18.960167 
L 366.453117 30.670371 
L 366.748337 68.24022 
L 367.679416 196.386511 
L 367.823241 199.636364 
L 367.85352 199.468999 
L 367.944357 197.191887 
L 368.118461 185.677924 
L 368.413681 148.346921 
L 369.35233 19.443409 
L 369.488585 16.363636 
L 369.526434 16.572826 
L 369.617271 18.960167 
L 369.791375 30.670371 
L 370.086595 68.24022 
L 371.017673 196.386511 
L 371.161499 199.636364 
L 371.191778 199.468999 
L 371.282615 197.191887 
L 371.456719 185.677924 
L 371.751939 148.346921 
L 372.690587 19.443409 
L 372.826842 16.363636 
L 372.864691 16.572826 
L 372.955528 18.960167 
L 373.129632 30.670371 
L 373.424852 68.24022 
L 374.355931 196.386511 
L 374.499756 199.636364 
L 374.530035 199.468999 
L 374.620872 197.191887 
L 374.794976 185.677924 
L 375.090196 148.346921 
L 376.028845 19.443409 
L 376.1651 16.363636 
L 376.202949 16.572826 
L 376.293786 18.960167 
L 376.46789 30.670371 
L 376.76311 68.24022 
L 377.694188 196.386511 
L 377.838014 199.636364 
L 377.868293 199.468999 
L 377.95913 197.191887 
L 378.133234 185.677924 
L 378.428454 148.346921 
L 379.367102 19.443409 
L 379.503358 16.363636 
L 379.541206 16.572826 
L 379.632043 18.960167 
L 379.806147 30.670371 
L 380.101367 68.24022 
L 381.032446 196.386511 
L 381.176271 199.636364 
L 381.20655 199.468999 
L 381.297387 197.191887 
L 381.471491 185.677924 
L 381.766711 148.346921 
L 382.70536 19.443409 
L 382.841615 16.363636 
L 382.879464 16.572826 
L 382.970301 18.960167 
L 383.144405 30.670371 
L 383.439625 68.24022 
L 384.370704 196.386511 
L 384.514529 199.636364 
L 384.544808 199.468999 
L 384.635645 197.191887 
L 384.809749 185.677924 
L 385.104969 148.346921 
L 386.043617 19.443409 
L 386.179873 16.363636 
L 386.217721 16.572826 
L 386.308558 18.960167 
L 386.482662 30.670371 
L 386.777882 68.24022 
L 387.708961 196.386511 
L 387.852786 199.636364 
L 387.883065 199.468999 
L 387.973902 197.191887 
L 388.148006 185.677924 
L 388.443226 148.346921 
L 389.381875 19.443409 
L 389.51813 16.363636 
L 389.555979 16.572826 
L 389.646816 18.960167 
L 389.82092 30.670371 
L 390.11614 68.24022 
L 391.047219 196.386511 
L 391.191044 199.636364 
L 391.221323 199.468999 
L 391.31216 197.191887 
L 391.486264 185.677924 
L 391.781484 148.346921 
L 392.720132 19.443409 
L 392.856388 16.363636 
L 392.894236 16.572826 
L 392.985073 18.960167 
L 393.159177 30.670371 
L 393.454397 68.24022 
L 394.385476 196.386511 
L 394.529301 199.636364 
L 394.55958 199.468999 
L 394.650417 197.191887 
L 394.824521 185.677924 
L 395.119741 148.346921 
L 395.354403 109.305561 
L 395.354403 109.305561 
" style="fill:none;stroke:#1f77b4;stroke-linecap:square;stroke-width:1.5;"/>
   </g>
   <g id="patch_3">
    <path d="M 44.845313 208.8 
L 44.845313 7.2 
" style="fill:none;stroke:#000000;stroke-linecap:square;stroke-linejoin:miter;stroke-width:0.8;"/>
   </g>
   <g id="patch_4">
    <path d="M 412.045312 208.8 
L 412.045312 7.2 
" style="fill:none;stroke:#000000;stroke-linecap:square;stroke-linejoin:miter;stroke-width:0.8;"/>
   </g>
   <g id="patch_5">
    <path d="M 44.845313 208.8 
L 412.045312 208.8 
" style="fill:none;stroke:#000000;stroke-linecap:square;stroke-linejoin:miter;stroke-width:0.8;"/>
   </g>
   <g id="patch_6">
    <path d="M 44.845313 7.2 
L 412.045312 7.2 
" style="fill:none;stroke:#000000;stroke-linecap:square;stroke-linejoin:miter;stroke-width:0.8;"/>
   </g>
   <g id="legend_1">
    <g id="patch_7">
     <path d="M 65.205313 273.312 
L 297.15375 273.312 
Q 299.15375 273.312 299.15375 271.312 
L 299.15375 257.633875 
Q 299.15375 255.633875 297.15375 255.633875 
L 65.205313 255.633875 
Q 63.205313 255.633875 63.205313 257.633875 
L 63.205313 271.312 
Q 63.205313 273.312 65.205313 273.312 
z
" style="fill:#ffffff;opacity:0.8;stroke:#cccccc;stroke-linejoin:miter;"/>
    </g>
    <g id="line2d_17">
     <path d="M 67.205313 263.732312 
L 87.205313 263.732312 
" style="fill:none;stroke:#1f77b4;stroke-linecap:square;stroke-width:1.5;"/>
    </g>
    <g id="line2d_18"/>
    <g id="text_17">
     <!-- 100Hz sinusoidal signal [dimensionless] -->
     <g transform="translate(95.205313 267.232312)scale(0.1 -0.1)">
      <defs>
       <path d="M 9.8125 72.90625 
L 19.671875 72.90625 
L 19.671875 43.015625 
L 55.515625 43.015625 
L 55.515625 72.90625 
L 65.375 72.90625 
L 65.375 0 
L 55.515625 0 
L 55.515625 34.71875 
L 19.671875 34.71875 
L 19.671875 0 
L 9.8125 0 
z
" id="DejaVuSans-72"/>
       <path d="M 5.515625 54.6875 
L 48.1875 54.6875 
L 48.1875 46.484375 
L 14.40625 7.171875 
L 48.1875 7.171875 
L 48.1875 0 
L 4.296875 0 
L 4.296875 8.203125 
L 38.09375 47.515625 
L 5.515625 47.515625 
z
" id="DejaVuSans-122"/>
       <path d="M 54.890625 33.015625 
L 54.890625 0 
L 45.90625 0 
L 45.90625 32.71875 
Q 45.90625 40.484375 42.875 44.328125 
Q 39.84375 48.1875 33.796875 48.1875 
Q 26.515625 48.1875 22.3125 43.546875 
Q 18.109375 38.921875 18.109375 30.90625 
L 18.109375 0 
L 9.078125 0 
L 9.078125 54.6875 
L 18.109375 54.6875 
L 18.109375 46.1875 
Q 21.34375 51.125 25.703125 53.5625 
Q 30.078125 56 35.796875 56 
Q 45.21875 56 50.046875 50.171875 
Q 54.890625 44.34375 54.890625 33.015625 
z
" id="DejaVuSans-110"/>
       <path d="M 8.5 21.578125 
L 8.5 54.6875 
L 17.484375 54.6875 
L 17.484375 21.921875 
Q 17.484375 14.15625 20.5 10.265625 
Q 23.53125 6.390625 29.59375 6.390625 
Q 36.859375 6.390625 41.078125 11.03125 
Q 45.3125 15.671875 45.3125 23.6875 
L 45.3125 54.6875 
L 54.296875 54.6875 
L 54.296875 0 
L 45.3125 0 
L 45.3125 8.40625 
Q 42.046875 3.421875 37.71875 1 
Q 33.40625 -1.421875 27.6875 -1.421875 
Q 18.265625 -1.421875 13.375 4.4375 
Q 8.5 10.296875 8.5 21.578125 
z
M 31.109375 56 
z
" id="DejaVuSans-117"/>
       <path d="M 30.609375 48.390625 
Q 23.390625 48.390625 19.1875 42.75 
Q 14.984375 37.109375 14.984375 27.296875 
Q 14.984375 17.484375 19.15625 11.84375 
Q 23.34375 6.203125 30.609375 6.203125 
Q 37.796875 6.203125 41.984375 11.859375 
Q 46.1875 17.53125 46.1875 27.296875 
Q 46.1875 37.015625 41.984375 42.703125 
Q 37.796875 48.390625 30.609375 48.390625 
z
M 30.609375 56 
Q 42.328125 56 49.015625 48.375 
Q 55.71875 40.765625 55.71875 27.296875 
Q 55.71875 13.875 49.015625 6.21875 
Q 42.328125 -1.421875 30.609375 -1.421875 
Q 18.84375 -1.421875 12.171875 6.21875 
Q 5.515625 13.875 5.515625 27.296875 
Q 5.515625 40.765625 12.171875 48.375 
Q 18.84375 56 30.609375 56 
z
" id="DejaVuSans-111"/>
       <path d="M 45.40625 46.390625 
L 45.40625 75.984375 
L 54.390625 75.984375 
L 54.390625 0 
L 45.40625 0 
L 45.40625 8.203125 
Q 42.578125 3.328125 38.25 0.953125 
Q 33.9375 -1.421875 27.875 -1.421875 
Q 17.96875 -1.421875 11.734375 6.484375 
Q 5.515625 14.40625 5.515625 27.296875 
Q 5.515625 40.1875 11.734375 48.09375 
Q 17.96875 56 27.875 56 
Q 33.9375 56 38.25 53.625 
Q 42.578125 51.265625 45.40625 46.390625 
z
M 14.796875 27.296875 
Q 14.796875 17.390625 18.875 11.75 
Q 22.953125 6.109375 30.078125 6.109375 
Q 37.203125 6.109375 41.296875 11.75 
Q 45.40625 17.390625 45.40625 27.296875 
Q 45.40625 37.203125 41.296875 42.84375 
Q 37.203125 48.484375 30.078125 48.484375 
Q 22.953125 48.484375 18.875 42.84375 
Q 14.796875 37.203125 14.796875 27.296875 
z
" id="DejaVuSans-100"/>
       <path d="M 34.28125 27.484375 
Q 23.390625 27.484375 19.1875 25 
Q 14.984375 22.515625 14.984375 16.5 
Q 14.984375 11.71875 18.140625 8.90625 
Q 21.296875 6.109375 26.703125 6.109375 
Q 34.1875 6.109375 38.703125 11.40625 
Q 43.21875 16.703125 43.21875 25.484375 
L 43.21875 27.484375 
z
M 52.203125 31.203125 
L 52.203125 0 
L 43.21875 0 
L 43.21875 8.296875 
Q 40.140625 3.328125 35.546875 0.953125 
Q 30.953125 -1.421875 24.3125 -1.421875 
Q 15.921875 -1.421875 10.953125 3.296875 
Q 6 8.015625 6 15.921875 
Q 6 25.140625 12.171875 29.828125 
Q 18.359375 34.515625 30.609375 34.515625 
L 43.21875 34.515625 
L 43.21875 35.40625 
Q 43.21875 41.609375 39.140625 45 
Q 35.0625 48.390625 27.6875 48.390625 
Q 23 48.390625 18.546875 47.265625 
Q 14.109375 46.140625 10.015625 43.890625 
L 10.015625 52.203125 
Q 14.9375 54.109375 19.578125 55.046875 
Q 24.21875 56 28.609375 56 
Q 40.484375 56 46.34375 49.84375 
Q 52.203125 43.703125 52.203125 31.203125 
z
" id="DejaVuSans-97"/>
       <path d="M 9.421875 75.984375 
L 18.40625 75.984375 
L 18.40625 0 
L 9.421875 0 
z
" id="DejaVuSans-108"/>
       <path d="M 45.40625 27.984375 
Q 45.40625 37.75 41.375 43.109375 
Q 37.359375 48.484375 30.078125 48.484375 
Q 22.859375 48.484375 18.828125 43.109375 
Q 14.796875 37.75 14.796875 27.984375 
Q 14.796875 18.265625 18.828125 12.890625 
Q 22.859375 7.515625 30.078125 7.515625 
Q 37.359375 7.515625 41.375 12.890625 
Q 45.40625 18.265625 45.40625 27.984375 
z
M 54.390625 6.78125 
Q 54.390625 -7.171875 48.1875 -13.984375 
Q 42 -20.796875 29.203125 -20.796875 
Q 24.46875 -20.796875 20.265625 -20.09375 
Q 16.0625 -19.390625 12.109375 -17.921875 
L 12.109375 -9.1875 
Q 16.0625 -11.328125 19.921875 -12.34375 
Q 23.78125 -13.375 27.78125 -13.375 
Q 36.625 -13.375 41.015625 -8.765625 
Q 45.40625 -4.15625 45.40625 5.171875 
L 45.40625 9.625 
Q 42.625 4.78125 38.28125 2.390625 
Q 33.9375 0 27.875 0 
Q 17.828125 0 11.671875 7.65625 
Q 5.515625 15.328125 5.515625 27.984375 
Q 5.515625 40.671875 11.671875 48.328125 
Q 17.828125 56 27.875 56 
Q 33.9375 56 38.28125 53.609375 
Q 42.625 51.21875 45.40625 46.390625 
L 45.40625 54.6875 
L 54.390625 54.6875 
z
" id="DejaVuSans-103"/>
       <path d="M 8.59375 75.984375 
L 29.296875 75.984375 
L 29.296875 69 
L 17.578125 69 
L 17.578125 -6.203125 
L 29.296875 -6.203125 
L 29.296875 -13.1875 
L 8.59375 -13.1875 
z
" id="DejaVuSans-91"/>
       <path d="M 30.421875 75.984375 
L 30.421875 -13.1875 
L 9.71875 -13.1875 
L 9.71875 -6.203125 
L 21.390625 -6.203125 
L 21.390625 69 
L 9.71875 69 
L 9.71875 75.984375 
z
" id="DejaVuSans-93"/>
      </defs>
      <use xlink:href="#DejaVuSans-49"/>
      <use x="63.623047" xlink:href="#DejaVuSans-48"/>
      <use x="127.246094" xlink:href="#DejaVuSans-48"/>
      <use x="190.869141" xlink:href="#DejaVuSans-72"/>
      <use x="266.064453" xlink:href="#DejaVuSans-122"/>
      <use x="318.554688" xlink:href="#DejaVuSans-32"/>
      <use x="350.341797" xlink:href="#DejaVuSans-115"/>
      <use x="402.441406" xlink:href="#DejaVuSans-105"/>
      <use x="430.224609" xlink:href="#DejaVuSans-110"/>
      <use x="493.603516" xlink:href="#DejaVuSans-117"/>
      <use x="556.982422" xlink:href="#DejaVuSans-115"/>
      <use x="609.082031" xlink:href="#DejaVuSans-111"/>
      <use x="670.263672" xlink:href="#DejaVuSans-105"/>
      <use x="698.046875" xlink:href="#DejaVuSans-100"/>
      <use x="761.523438" xlink:href="#DejaVuSans-97"/>
      <use x="822.802734" xlink:href="#DejaVuSans-108"/>
      <use x="850.585938" xlink:href="#DejaVuSans-32"/>
      <use x="882.373047" xlink:href="#DejaVuSans-115"/>
      <use x="934.472656" xlink:href="#DejaVuSans-105"/>
      <use x="962.255859" xlink:href="#DejaVuSans-103"/>
      <use x="1025.732422" xlink:href="#DejaVuSans-110"/>
      <use x="1089.111328" xlink:href="#DejaVuSans-97"/>
      <use x="1150.390625" xlink:href="#DejaVuSans-108"/>
      <use x="1178.173828" xlink:href="#DejaVuSans-32"/>
      <use x="1209.960938" xlink:href="#DejaVuSans-91"/>
      <use x="1248.974609" xlink:href="#DejaVuSans-100"/>
      <use x="1312.451172" xlink:href="#DejaVuSans-105"/>
      <use x="1340.234375" xlink:href="#DejaVuSans-109"/>
      <use x="1437.646484" xlink:href="#DejaVuSans-101"/>
      <use x="1499.169922" xlink:href="#DejaVuSans-110"/>
      <use x="1562.548828" xlink:href="#DejaVuSans-115"/>
      <use x="1614.648438" xlink:href="#DejaVuSans-105"/>
      <use x="1642.431641" xlink:href="#DejaVuSans-111"/>
      <use x="1703.613281" xlink:href="#DejaVuSans-110"/>
      <use x="1766.992188" xlink:href="#DejaVuSans-108"/>
      <use x="1794.775391" xlink:href="#DejaVuSans-101"/>
      <use x="1856.298828" xlink:href="#DejaVuSans-115"/>
      <use x="1908.398438" xlink:href="#DejaVuSans-115"/>
      <use x="1960.498047" xlink:href="#DejaVuSans-93"/>
     </g>
    </g>
   </g>
  </g>
 </g>
 <defs>
  <clipPath id="pb64c7a3492">
   <rect height="201.6" width="367.2" x="44.845313" y="7.2"/>
  </clipPath>
 </defs>
</svg>
