<?xml version="1.0" encoding="utf-8" standalone="no"?>
<!DOCTYPE svg PUBLIC "-//W3C//DTD SVG 1.1//EN"
  "http://www.w3.org/Graphics/SVG/1.1/DTD/svg11.dtd">
<!-- Created with matplotlib (https://matplotlib.org/) -->
<svg height="280.512pt" version="1.1" viewBox="0 0 412.882812 280.512" width="412.882812pt" xmlns="http://www.w3.org/2000/svg" xmlns:xlink="http://www.w3.org/1999/xlink">
 <metadata>
  <rdf:RDF xmlns:cc="http://creativecommons.org/ns#" xmlns:dc="http://purl.org/dc/elements/1.1/" xmlns:rdf="http://www.w3.org/1999/02/22-rdf-syntax-ns#">
   <cc:Work>
    <dc:type rdf:resource="http://purl.org/dc/dcmitype/StillImage"/>
    <dc:date>2021-06-16T21:49:36.100539</dc:date>
    <dc:format>image/svg+xml</dc:format>
    <dc:creator>
     <cc:Agent>
      <dc:title>Matplotlib v3.3.4, https://matplotlib.org/</dc:title>
     </cc:Agent>
    </dc:creator>
   </cc:Work>
  </rdf:RDF>
 </metadata>
 <defs>
  <style type="text/css">*{stroke-linecap:butt;stroke-linejoin:round;}</style>
 </defs>
 <g id="figure_1">
  <g id="patch_1">
   <path d="M 0 280.512 
L 412.882812 280.512 
L 412.882812 0 
L 0 0 
z
" style="fill:none;"/>
  </g>
  <g id="axes_1">
   <g id="patch_2">
    <path d="M 38.482813 208.8 
L 405.682812 208.8 
L 405.682812 7.2 
L 38.482813 7.2 
z
" style="fill:#ffffff;"/>
   </g>
   <g id="matplotlib.axis_1">
    <g id="xtick_1">
     <g id="line2d_1">
      <defs>
       <path d="M 0 0 
L 0 3.5 
" id="m543bd41b92" style="stroke:#000000;stroke-width:0.8;"/>
      </defs>
      <g>
       <use style="stroke:#000000;stroke-width:0.8;" x="55.173722" xlink:href="#m543bd41b92" y="208.8"/>
      </g>
     </g>
     <g id="text_1">
      <!-- 0.0 -->
      <g transform="translate(47.222159 223.398437)scale(0.1 -0.1)">
       <defs>
        <path d="M 31.78125 66.40625 
Q 24.171875 66.40625 20.328125 58.90625 
Q 16.5 51.421875 16.5 36.375 
Q 16.5 21.390625 20.328125 13.890625 
Q 24.171875 6.390625 31.78125 6.390625 
Q 39.453125 6.390625 43.28125 13.890625 
Q 47.125 21.390625 47.125 36.375 
Q 47.125 51.421875 43.28125 58.90625 
Q 39.453125 66.40625 31.78125 66.40625 
z
M 31.78125 74.21875 
Q 44.046875 74.21875 50.515625 64.515625 
Q 56.984375 54.828125 56.984375 36.375 
Q 56.984375 17.96875 50.515625 8.265625 
Q 44.046875 -1.421875 31.78125 -1.421875 
Q 19.53125 -1.421875 13.0625 8.265625 
Q 6.59375 17.96875 6.59375 36.375 
Q 6.59375 54.828125 13.0625 64.515625 
Q 19.53125 74.21875 31.78125 74.21875 
z
" id="DejaVuSans-48"/>
        <path d="M 10.6875 12.40625 
L 21 12.40625 
L 21 0 
L 10.6875 0 
z
" id="DejaVuSans-46"/>
       </defs>
       <use xlink:href="#DejaVuSans-48"/>
       <use x="63.623047" xlink:href="#DejaVuSans-46"/>
       <use x="95.410156" xlink:href="#DejaVuSans-48"/>
      </g>
     </g>
    </g>
    <g id="xtick_2">
     <g id="line2d_2">
      <g>
       <use style="stroke:#000000;stroke-width:0.8;" x="121.937358" xlink:href="#m543bd41b92" y="208.8"/>
      </g>
     </g>
     <g id="text_2">
      <!-- 0.2 -->
      <g transform="translate(113.985795 223.398437)scale(0.1 -0.1)">
       <defs>
        <path d="M 19.1875 8.296875 
L 53.609375 8.296875 
L 53.609375 0 
L 7.328125 0 
L 7.328125 8.296875 
Q 12.9375 14.109375 22.625 23.890625 
Q 32.328125 33.6875 34.8125 36.53125 
Q 39.546875 41.84375 41.421875 45.53125 
Q 43.3125 49.21875 43.3125 52.78125 
Q 43.3125 58.59375 39.234375 62.25 
Q 35.15625 65.921875 28.609375 65.921875 
Q 23.96875 65.921875 18.8125 64.3125 
Q 13.671875 62.703125 7.8125 59.421875 
L 7.8125 69.390625 
Q 13.765625 71.78125 18.9375 73 
Q 24.125 74.21875 28.421875 74.21875 
Q 39.75 74.21875 46.484375 68.546875 
Q 53.21875 62.890625 53.21875 53.421875 
Q 53.21875 48.921875 51.53125 44.890625 
Q 49.859375 40.875 45.40625 35.40625 
Q 44.1875 33.984375 37.640625 27.21875 
Q 31.109375 20.453125 19.1875 8.296875 
z
" id="DejaVuSans-50"/>
       </defs>
       <use xlink:href="#DejaVuSans-48"/>
       <use x="63.623047" xlink:href="#DejaVuSans-46"/>
       <use x="95.410156" xlink:href="#DejaVuSans-50"/>
      </g>
     </g>
    </g>
    <g id="xtick_3">
     <g id="line2d_3">
      <g>
       <use style="stroke:#000000;stroke-width:0.8;" x="188.700994" xlink:href="#m543bd41b92" y="208.8"/>
      </g>
     </g>
     <g id="text_3">
      <!-- 0.4 -->
      <g transform="translate(180.749432 223.398437)scale(0.1 -0.1)">
       <defs>
        <path d="M 37.796875 64.3125 
L 12.890625 25.390625 
L 37.796875 25.390625 
z
M 35.203125 72.90625 
L 47.609375 72.90625 
L 47.609375 25.390625 
L 58.015625 25.390625 
L 58.015625 17.1875 
L 47.609375 17.1875 
L 47.609375 0 
L 37.796875 0 
L 37.796875 17.1875 
L 4.890625 17.1875 
L 4.890625 26.703125 
z
" id="DejaVuSans-52"/>
       </defs>
       <use xlink:href="#DejaVuSans-48"/>
       <use x="63.623047" xlink:href="#DejaVuSans-46"/>
       <use x="95.410156" xlink:href="#DejaVuSans-52"/>
      </g>
     </g>
    </g>
    <g id="xtick_4">
     <g id="line2d_4">
      <g>
       <use style="stroke:#000000;stroke-width:0.8;" x="255.464631" xlink:href="#m543bd41b92" y="208.8"/>
      </g>
     </g>
     <g id="text_4">
      <!-- 0.6 -->
      <g transform="translate(247.513068 223.398437)scale(0.1 -0.1)">
       <defs>
        <path d="M 33.015625 40.375 
Q 26.375 40.375 22.484375 35.828125 
Q 18.609375 31.296875 18.609375 23.390625 
Q 18.609375 15.53125 22.484375 10.953125 
Q 26.375 6.390625 33.015625 6.390625 
Q 39.65625 6.390625 43.53125 10.953125 
Q 47.40625 15.53125 47.40625 23.390625 
Q 47.40625 31.296875 43.53125 35.828125 
Q 39.65625 40.375 33.015625 40.375 
z
M 52.59375 71.296875 
L 52.59375 62.3125 
Q 48.875 64.0625 45.09375 64.984375 
Q 41.3125 65.921875 37.59375 65.921875 
Q 27.828125 65.921875 22.671875 59.328125 
Q 17.53125 52.734375 16.796875 39.40625 
Q 19.671875 43.65625 24.015625 45.921875 
Q 28.375 48.1875 33.59375 48.1875 
Q 44.578125 48.1875 50.953125 41.515625 
Q 57.328125 34.859375 57.328125 23.390625 
Q 57.328125 12.15625 50.6875 5.359375 
Q 44.046875 -1.421875 33.015625 -1.421875 
Q 20.359375 -1.421875 13.671875 8.265625 
Q 6.984375 17.96875 6.984375 36.375 
Q 6.984375 53.65625 15.1875 63.9375 
Q 23.390625 74.21875 37.203125 74.21875 
Q 40.921875 74.21875 44.703125 73.484375 
Q 48.484375 72.75 52.59375 71.296875 
z
" id="DejaVuSans-54"/>
       </defs>
       <use xlink:href="#DejaVuSans-48"/>
       <use x="63.623047" xlink:href="#DejaVuSans-46"/>
       <use x="95.410156" xlink:href="#DejaVuSans-54"/>
      </g>
     </g>
    </g>
    <g id="xtick_5">
     <g id="line2d_5">
      <g>
       <use style="stroke:#000000;stroke-width:0.8;" x="322.228267" xlink:href="#m543bd41b92" y="208.8"/>
      </g>
     </g>
     <g id="text_5">
      <!-- 0.8 -->
      <g transform="translate(314.276705 223.398437)scale(0.1 -0.1)">
       <defs>
        <path d="M 31.78125 34.625 
Q 24.75 34.625 20.71875 30.859375 
Q 16.703125 27.09375 16.703125 20.515625 
Q 16.703125 13.921875 20.71875 10.15625 
Q 24.75 6.390625 31.78125 6.390625 
Q 38.8125 6.390625 42.859375 10.171875 
Q 46.921875 13.96875 46.921875 20.515625 
Q 46.921875 27.09375 42.890625 30.859375 
Q 38.875 34.625 31.78125 34.625 
z
M 21.921875 38.8125 
Q 15.578125 40.375 12.03125 44.71875 
Q 8.5 49.078125 8.5 55.328125 
Q 8.5 64.0625 14.71875 69.140625 
Q 20.953125 74.21875 31.78125 74.21875 
Q 42.671875 74.21875 48.875 69.140625 
Q 55.078125 64.0625 55.078125 55.328125 
Q 55.078125 49.078125 51.53125 44.71875 
Q 48 40.375 41.703125 38.8125 
Q 48.828125 37.15625 52.796875 32.3125 
Q 56.78125 27.484375 56.78125 20.515625 
Q 56.78125 9.90625 50.3125 4.234375 
Q 43.84375 -1.421875 31.78125 -1.421875 
Q 19.734375 -1.421875 13.25 4.234375 
Q 6.78125 9.90625 6.78125 20.515625 
Q 6.78125 27.484375 10.78125 32.3125 
Q 14.796875 37.15625 21.921875 38.8125 
z
M 18.3125 54.390625 
Q 18.3125 48.734375 21.84375 45.5625 
Q 25.390625 42.390625 31.78125 42.390625 
Q 38.140625 42.390625 41.71875 45.5625 
Q 45.3125 48.734375 45.3125 54.390625 
Q 45.3125 60.0625 41.71875 63.234375 
Q 38.140625 66.40625 31.78125 66.40625 
Q 25.390625 66.40625 21.84375 63.234375 
Q 18.3125 60.0625 18.3125 54.390625 
z
" id="DejaVuSans-56"/>
       </defs>
       <use xlink:href="#DejaVuSans-48"/>
       <use x="63.623047" xlink:href="#DejaVuSans-46"/>
       <use x="95.410156" xlink:href="#DejaVuSans-56"/>
      </g>
     </g>
    </g>
    <g id="xtick_6">
     <g id="line2d_6">
      <g>
       <use style="stroke:#000000;stroke-width:0.8;" x="388.991903" xlink:href="#m543bd41b92" y="208.8"/>
      </g>
     </g>
     <g id="text_6">
      <!-- 1.0 -->
      <g transform="translate(381.040341 223.398437)scale(0.1 -0.1)">
       <defs>
        <path d="M 12.40625 8.296875 
L 28.515625 8.296875 
L 28.515625 63.921875 
L 10.984375 60.40625 
L 10.984375 69.390625 
L 28.421875 72.90625 
L 38.28125 72.90625 
L 38.28125 8.296875 
L 54.390625 8.296875 
L 54.390625 0 
L 12.40625 0 
z
" id="DejaVuSans-49"/>
       </defs>
       <use xlink:href="#DejaVuSans-49"/>
       <use x="63.623047" xlink:href="#DejaVuSans-46"/>
       <use x="95.410156" xlink:href="#DejaVuSans-48"/>
      </g>
     </g>
    </g>
    <g id="text_7">
     <!-- Time (s) -->
     <g transform="translate(201.753906 237.076562)scale(0.1 -0.1)">
      <defs>
       <path d="M -0.296875 72.90625 
L 61.375 72.90625 
L 61.375 64.59375 
L 35.5 64.59375 
L 35.5 0 
L 25.59375 0 
L 25.59375 64.59375 
L -0.296875 64.59375 
z
" id="DejaVuSans-84"/>
       <path d="M 9.421875 54.6875 
L 18.40625 54.6875 
L 18.40625 0 
L 9.421875 0 
z
M 9.421875 75.984375 
L 18.40625 75.984375 
L 18.40625 64.59375 
L 9.421875 64.59375 
z
" id="DejaVuSans-105"/>
       <path d="M 52 44.1875 
Q 55.375 50.25 60.0625 53.125 
Q 64.75 56 71.09375 56 
Q 79.640625 56 84.28125 50.015625 
Q 88.921875 44.046875 88.921875 33.015625 
L 88.921875 0 
L 79.890625 0 
L 79.890625 32.71875 
Q 79.890625 40.578125 77.09375 44.375 
Q 74.3125 48.1875 68.609375 48.1875 
Q 61.625 48.1875 57.5625 43.546875 
Q 53.515625 38.921875 53.515625 30.90625 
L 53.515625 0 
L 44.484375 0 
L 44.484375 32.71875 
Q 44.484375 40.625 41.703125 44.40625 
Q 38.921875 48.1875 33.109375 48.1875 
Q 26.21875 48.1875 22.15625 43.53125 
Q 18.109375 38.875 18.109375 30.90625 
L 18.109375 0 
L 9.078125 0 
L 9.078125 54.6875 
L 18.109375 54.6875 
L 18.109375 46.1875 
Q 21.1875 51.21875 25.484375 53.609375 
Q 29.78125 56 35.6875 56 
Q 41.65625 56 45.828125 52.96875 
Q 50 49.953125 52 44.1875 
z
" id="DejaVuSans-109"/>
       <path d="M 56.203125 29.59375 
L 56.203125 25.203125 
L 14.890625 25.203125 
Q 15.484375 15.921875 20.484375 11.0625 
Q 25.484375 6.203125 34.421875 6.203125 
Q 39.59375 6.203125 44.453125 7.46875 
Q 49.3125 8.734375 54.109375 11.28125 
L 54.109375 2.78125 
Q 49.265625 0.734375 44.1875 -0.34375 
Q 39.109375 -1.421875 33.890625 -1.421875 
Q 20.796875 -1.421875 13.15625 6.1875 
Q 5.515625 13.8125 5.515625 26.8125 
Q 5.515625 40.234375 12.765625 48.109375 
Q 20.015625 56 32.328125 56 
Q 43.359375 56 49.78125 48.890625 
Q 56.203125 41.796875 56.203125 29.59375 
z
M 47.21875 32.234375 
Q 47.125 39.59375 43.09375 43.984375 
Q 39.0625 48.390625 32.421875 48.390625 
Q 24.90625 48.390625 20.390625 44.140625 
Q 15.875 39.890625 15.1875 32.171875 
z
" id="DejaVuSans-101"/>
       <path id="DejaVuSans-32"/>
       <path d="M 31 75.875 
Q 24.46875 64.65625 21.28125 53.65625 
Q 18.109375 42.671875 18.109375 31.390625 
Q 18.109375 20.125 21.3125 9.0625 
Q 24.515625 -2 31 -13.1875 
L 23.1875 -13.1875 
Q 15.875 -1.703125 12.234375 9.375 
Q 8.59375 20.453125 8.59375 31.390625 
Q 8.59375 42.28125 12.203125 53.3125 
Q 15.828125 64.359375 23.1875 75.875 
z
" id="DejaVuSans-40"/>
       <path d="M 44.28125 53.078125 
L 44.28125 44.578125 
Q 40.484375 46.53125 36.375 47.5 
Q 32.28125 48.484375 27.875 48.484375 
Q 21.1875 48.484375 17.84375 46.4375 
Q 14.5 44.390625 14.5 40.28125 
Q 14.5 37.15625 16.890625 35.375 
Q 19.28125 33.59375 26.515625 31.984375 
L 29.59375 31.296875 
Q 39.15625 29.25 43.1875 25.515625 
Q 47.21875 21.78125 47.21875 15.09375 
Q 47.21875 7.46875 41.1875 3.015625 
Q 35.15625 -1.421875 24.609375 -1.421875 
Q 20.21875 -1.421875 15.453125 -0.5625 
Q 10.6875 0.296875 5.421875 2 
L 5.421875 11.28125 
Q 10.40625 8.6875 15.234375 7.390625 
Q 20.0625 6.109375 24.8125 6.109375 
Q 31.15625 6.109375 34.5625 8.28125 
Q 37.984375 10.453125 37.984375 14.40625 
Q 37.984375 18.0625 35.515625 20.015625 
Q 33.0625 21.96875 24.703125 23.78125 
L 21.578125 24.515625 
Q 13.234375 26.265625 9.515625 29.90625 
Q 5.8125 33.546875 5.8125 39.890625 
Q 5.8125 47.609375 11.28125 51.796875 
Q 16.75 56 26.8125 56 
Q 31.78125 56 36.171875 55.265625 
Q 40.578125 54.546875 44.28125 53.078125 
z
" id="DejaVuSans-115"/>
       <path d="M 8.015625 75.875 
L 15.828125 75.875 
Q 23.140625 64.359375 26.78125 53.3125 
Q 30.421875 42.28125 30.421875 31.390625 
Q 30.421875 20.453125 26.78125 9.375 
Q 23.140625 -1.703125 15.828125 -13.1875 
L 8.015625 -13.1875 
Q 14.5 -2 17.703125 9.0625 
Q 20.90625 20.125 20.90625 31.390625 
Q 20.90625 42.671875 17.703125 53.65625 
Q 14.5 64.65625 8.015625 75.875 
z
" id="DejaVuSans-41"/>
      </defs>
      <use xlink:href="#DejaVuSans-84"/>
      <use x="57.958984" xlink:href="#DejaVuSans-105"/>
      <use x="85.742188" xlink:href="#DejaVuSans-109"/>
      <use x="183.154297" xlink:href="#DejaVuSans-101"/>
      <use x="244.677734" xlink:href="#DejaVuSans-32"/>
      <use x="276.464844" xlink:href="#DejaVuSans-40"/>
      <use x="315.478516" xlink:href="#DejaVuSans-115"/>
      <use x="367.578125" xlink:href="#DejaVuSans-41"/>
     </g>
    </g>
   </g>
   <g id="matplotlib.axis_2">
    <g id="ytick_1">
     <g id="line2d_7">
      <defs>
       <path d="M 0 0 
L -3.5 0 
" id="m0d2f1da372" style="stroke:#000000;stroke-width:0.8;"/>
      </defs>
      <g>
       <use style="stroke:#000000;stroke-width:0.8;" x="38.482813" xlink:href="#m0d2f1da372" y="191.548072"/>
      </g>
     </g>
     <g id="text_8">
      <!-- −1.0 -->
      <g transform="translate(7.2 195.347291)scale(0.1 -0.1)">
       <defs>
        <path d="M 10.59375 35.5 
L 73.1875 35.5 
L 73.1875 27.203125 
L 10.59375 27.203125 
z
" id="DejaVuSans-8722"/>
       </defs>
       <use xlink:href="#DejaVuSans-8722"/>
       <use x="83.789062" xlink:href="#DejaVuSans-49"/>
       <use x="147.412109" xlink:href="#DejaVuSans-46"/>
       <use x="179.199219" xlink:href="#DejaVuSans-48"/>
      </g>
     </g>
    </g>
    <g id="ytick_2">
     <g id="line2d_8">
      <g>
       <use style="stroke:#000000;stroke-width:0.8;" x="38.482813" xlink:href="#m0d2f1da372" y="149.774036"/>
      </g>
     </g>
     <g id="text_9">
      <!-- −0.5 -->
      <g transform="translate(7.2 153.573255)scale(0.1 -0.1)">
       <defs>
        <path d="M 10.796875 72.90625 
L 49.515625 72.90625 
L 49.515625 64.59375 
L 19.828125 64.59375 
L 19.828125 46.734375 
Q 21.96875 47.46875 24.109375 47.828125 
Q 26.265625 48.1875 28.421875 48.1875 
Q 40.625 48.1875 47.75 41.5 
Q 54.890625 34.8125 54.890625 23.390625 
Q 54.890625 11.625 47.5625 5.09375 
Q 40.234375 -1.421875 26.90625 -1.421875 
Q 22.3125 -1.421875 17.546875 -0.640625 
Q 12.796875 0.140625 7.71875 1.703125 
L 7.71875 11.625 
Q 12.109375 9.234375 16.796875 8.0625 
Q 21.484375 6.890625 26.703125 6.890625 
Q 35.15625 6.890625 40.078125 11.328125 
Q 45.015625 15.765625 45.015625 23.390625 
Q 45.015625 31 40.078125 35.4375 
Q 35.15625 39.890625 26.703125 39.890625 
Q 22.75 39.890625 18.8125 39.015625 
Q 14.890625 38.140625 10.796875 36.28125 
z
" id="DejaVuSans-53"/>
       </defs>
       <use xlink:href="#DejaVuSans-8722"/>
       <use x="83.789062" xlink:href="#DejaVuSans-48"/>
       <use x="147.412109" xlink:href="#DejaVuSans-46"/>
       <use x="179.199219" xlink:href="#DejaVuSans-53"/>
      </g>
     </g>
    </g>
    <g id="ytick_3">
     <g id="line2d_9">
      <g>
       <use style="stroke:#000000;stroke-width:0.8;" x="38.482813" xlink:href="#m0d2f1da372" y="108"/>
      </g>
     </g>
     <g id="text_10">
      <!-- 0.0 -->
      <g transform="translate(15.579688 111.799219)scale(0.1 -0.1)">
       <use xlink:href="#DejaVuSans-48"/>
       <use x="63.623047" xlink:href="#DejaVuSans-46"/>
       <use x="95.410156" xlink:href="#DejaVuSans-48"/>
      </g>
     </g>
    </g>
    <g id="ytick_4">
     <g id="line2d_10">
      <g>
       <use style="stroke:#000000;stroke-width:0.8;" x="38.482813" xlink:href="#m0d2f1da372" y="66.225964"/>
      </g>
     </g>
     <g id="text_11">
      <!-- 0.5 -->
      <g transform="translate(15.579688 70.025183)scale(0.1 -0.1)">
       <use xlink:href="#DejaVuSans-48"/>
       <use x="63.623047" xlink:href="#DejaVuSans-46"/>
       <use x="95.410156" xlink:href="#DejaVuSans-53"/>
      </g>
     </g>
    </g>
    <g id="ytick_5">
     <g id="line2d_11">
      <g>
       <use style="stroke:#000000;stroke-width:0.8;" x="38.482813" xlink:href="#m0d2f1da372" y="24.451928"/>
      </g>
     </g>
     <g id="text_12">
      <!-- 1.0 -->
      <g transform="translate(15.579688 28.251147)scale(0.1 -0.1)">
       <use xlink:href="#DejaVuSans-49"/>
       <use x="63.623047" xlink:href="#DejaVuSans-46"/>
       <use x="95.410156" xlink:href="#DejaVuSans-48"/>
      </g>
     </g>
    </g>
   </g>
   <g id="line2d_12">
    <path clip-path="url(#pd0115d2833)" d="M 55.173722 108 
L 55.696034 23.807536 
L 55.877708 16.363636 
L 55.892847 16.412776 
L 55.960975 17.919013 
L 56.1048 27.787659 
L 56.362172 64.538703 
L 57.202413 196.071492 
L 57.28568 197.593899 
L 57.331099 197.119012 
L 57.437075 192.478884 
L 57.633889 171.832138 
L 58.027515 101.095106 
L 58.504409 29.113094 
L 58.686083 22.023906 
L 58.701223 22.073936 
L 58.76935 23.524666 
L 58.913176 32.942818 
L 59.170547 67.75615 
L 59.988079 187.959863 
L 60.078916 189.660944 
L 60.124335 189.217014 
L 60.230311 184.878149 
L 60.427125 165.617712 
L 60.835891 97.463961 
L 61.290075 36.029717 
L 61.46418 30.210155 
L 61.486889 30.349699 
L 61.570156 32.634585 
L 61.73669 45.124774 
L 62.03948 88.415245 
L 62.675339 178.535591 
L 62.834303 183.49877 
L 62.864582 183.3145 
L 62.955419 180.594456 
L 63.129524 166.825519 
L 63.455023 119.089629 
L 64.037893 37.955363 
L 64.204427 32.50123 
L 64.227137 32.602192 
L 64.302834 34.412907 
L 64.454229 44.576376 
L 64.72674 80.725465 
L 65.461005 183.021508 
L 65.582121 185.789914 
L 65.61997 185.441711 
L 65.718376 181.842473 
L 65.90762 164.714454 
L 66.270968 106.247596 
L 66.78571 32.634448 
L 66.959814 26.339056 
L 66.982524 26.440904 
L 67.058221 28.336786 
L 67.209616 39.065379 
L 67.482127 77.541792 
L 68.239101 191.194668 
L 68.352648 193.976094 
L 68.398066 193.528868 
L 68.504042 189.035087 
L 68.700856 168.812366 
L 69.086913 100.020743 
L 69.578946 25.139793 
L 69.75305 18.406101 
L 69.77576 18.514425 
L 69.851457 20.535943 
L 70.002852 31.972566 
L 70.275363 72.99507 
L 71.047477 196.743593 
L 71.161023 199.636364 
L 71.206441 199.158631 
L 71.312418 194.440866 
L 71.509231 173.32662 
L 71.895288 101.814847 
L 72.387322 23.807536 
L 72.568995 16.363636 
L 72.584135 16.412776 
L 72.652263 17.919013 
L 72.796088 27.787659 
L 73.053459 64.538703 
L 73.893701 196.071492 
L 73.976968 197.593899 
L 74.022386 197.119012 
L 74.128363 192.478884 
L 74.325176 171.832138 
L 74.718803 101.095106 
L 75.195697 29.113094 
L 75.377371 22.023906 
L 75.39251 22.073936 
L 75.460638 23.524666 
L 75.604463 32.942818 
L 75.861834 67.75615 
L 76.679367 187.959863 
L 76.770204 189.660944 
L 76.815622 189.217014 
L 76.921599 184.878149 
L 77.118412 165.617712 
L 77.527178 97.463961 
L 77.981363 36.029717 
L 78.155467 30.210155 
L 78.178176 30.349699 
L 78.261444 32.634585 
L 78.427978 45.124774 
L 78.730768 88.415245 
L 79.366626 178.535591 
L 79.525591 183.49877 
L 79.55587 183.3145 
L 79.646707 180.594456 
L 79.820811 166.825519 
L 80.14631 119.089629 
L 80.72918 37.955363 
L 80.895715 32.50123 
L 80.918424 32.602192 
L 80.994122 34.412907 
L 81.145516 44.576376 
L 81.418027 80.725465 
L 82.152293 183.021508 
L 82.273408 185.789914 
L 82.311257 185.441711 
L 82.409664 181.842473 
L 82.598907 164.714454 
L 82.962255 106.247596 
L 83.476998 32.634448 
L 83.651102 26.339056 
L 83.673811 26.440904 
L 83.749509 28.336786 
L 83.900904 39.065379 
L 84.173414 77.541792 
L 84.930389 191.194668 
L 85.043935 193.976094 
L 85.089354 193.528868 
L 85.19533 189.035087 
L 85.392143 168.812366 
L 85.7782 100.020743 
L 86.270234 25.139793 
L 86.444338 18.406101 
L 86.467047 18.514425 
L 86.542745 20.535943 
L 86.694139 31.972566 
L 86.96665 72.99507 
L 87.738764 196.743593 
L 87.85231 199.636364 
L 87.897729 199.158631 
L 88.003705 194.440866 
L 88.200519 173.32662 
L 88.586576 101.814847 
L 89.078609 23.807536 
L 89.260283 16.363636 
L 89.275423 16.412776 
L 89.34355 17.919013 
L 89.487375 27.787659 
L 89.744747 64.538703 
L 90.584988 196.071492 
L 90.668256 197.593899 
L 90.713674 197.119012 
L 90.81965 192.478884 
L 91.016464 171.832138 
L 91.410091 101.095106 
L 91.886985 29.113094 
L 92.068658 22.023906 
L 92.083798 22.073936 
L 92.151926 23.524666 
L 92.295751 32.942818 
L 92.553122 67.75615 
L 93.370655 187.959863 
L 93.461491 189.660944 
L 93.50691 189.217014 
L 93.612886 184.878149 
L 93.8097 165.617712 
L 94.218466 97.463961 
L 94.672651 36.029717 
L 94.846755 30.210155 
L 94.869464 30.349699 
L 94.952731 32.634585 
L 95.119266 45.124774 
L 95.422055 88.415245 
L 96.057914 178.535591 
L 96.216879 183.49877 
L 96.247158 183.3145 
L 96.337995 180.594456 
L 96.512099 166.825519 
L 96.837598 119.089629 
L 97.420468 37.955363 
L 97.587002 32.50123 
L 97.609712 32.602192 
L 97.685409 34.412907 
L 97.836804 44.576376 
L 98.109315 80.725465 
L 98.84358 183.021508 
L 98.964696 185.789914 
L 99.002545 185.441711 
L 99.100951 181.842473 
L 99.290195 164.714454 
L 99.653543 106.247596 
L 100.168285 32.634448 
L 100.34239 26.339056 
L 100.365099 26.440904 
L 100.440796 28.336786 
L 100.592191 39.065379 
L 100.864702 77.541792 
L 101.621677 191.194668 
L 101.735223 193.976094 
L 101.780641 193.528868 
L 101.886618 189.035087 
L 102.083431 168.812366 
L 102.469488 100.020743 
L 102.961521 25.139793 
L 103.135625 18.406101 
L 103.158335 18.514425 
L 103.234032 20.535943 
L 103.385427 31.972566 
L 103.657938 72.99507 
L 104.430052 196.743593 
L 104.543598 199.636364 
L 104.589017 199.158631 
L 104.694993 194.440866 
L 104.891806 173.32662 
L 105.277863 101.814847 
L 105.769897 23.807536 
L 105.951571 16.363636 
L 105.96671 16.412776 
L 106.034838 17.919013 
L 106.178663 27.787659 
L 106.436034 64.538703 
L 107.276276 196.071492 
L 107.359543 197.593899 
L 107.404962 197.119012 
L 107.510938 192.478884 
L 107.707751 171.832138 
L 108.101378 101.095106 
L 108.578272 29.113094 
L 108.759946 22.023906 
L 108.775085 22.073936 
L 108.843213 23.524666 
L 108.987038 32.942818 
L 109.24441 67.75615 
L 110.061942 187.959863 
L 110.152779 189.660944 
L 110.198198 189.217014 
L 110.304174 184.878149 
L 110.500987 165.617712 
L 110.909754 97.463961 
L 111.363938 36.029717 
L 111.538042 30.210155 
L 111.560752 30.349699 
L 111.644019 32.634585 
L 111.810553 45.124774 
L 112.113343 88.415245 
L 112.749202 178.535591 
L 112.908166 183.49877 
L 112.938445 183.3145 
L 113.029282 180.594456 
L 113.203386 166.825519 
L 113.528885 119.089629 
L 114.111756 37.955363 
L 114.27829 32.50123 
L 114.300999 32.602192 
L 114.376697 34.412907 
L 114.528092 44.576376 
L 114.800602 80.725465 
L 115.534868 183.021508 
L 115.655984 185.789914 
L 115.693832 185.441711 
L 115.792239 181.842473 
L 115.981483 164.714454 
L 116.34483 106.247596 
L 116.859573 32.634448 
L 117.033677 26.339056 
L 117.056386 26.440904 
L 117.132084 28.336786 
L 117.283479 39.065379 
L 117.55599 77.541792 
L 118.312964 191.194668 
L 118.42651 193.976094 
L 118.471929 193.528868 
L 118.577905 189.035087 
L 118.774719 168.812366 
L 119.160776 100.020743 
L 119.652809 25.139793 
L 119.826913 18.406101 
L 119.849622 18.514425 
L 119.92532 20.535943 
L 120.076715 31.972566 
L 120.349225 72.99507 
L 121.121339 196.743593 
L 121.234886 199.636364 
L 121.280304 199.158631 
L 121.386281 194.440866 
L 121.583094 173.32662 
L 121.969151 101.814847 
L 122.461184 23.807536 
L 122.642858 16.363636 
L 122.657998 16.412776 
L 122.726125 17.919013 
L 122.869951 27.787659 
L 123.127322 64.538703 
L 123.967564 196.071492 
L 124.050831 197.593899 
L 124.096249 197.119012 
L 124.202226 192.478884 
L 124.399039 171.832138 
L 124.792666 101.095106 
L 125.26956 29.113094 
L 125.451234 22.023906 
L 125.466373 22.073936 
L 125.534501 23.524666 
L 125.678326 32.942818 
L 125.935697 67.75615 
L 126.75323 187.959863 
L 126.844067 189.660944 
L 126.889485 189.217014 
L 126.995462 184.878149 
L 127.192275 165.617712 
L 127.601041 97.463961 
L 128.055226 36.029717 
L 128.22933 30.210155 
L 128.252039 30.349699 
L 128.335306 32.634585 
L 128.501841 45.124774 
L 128.804631 88.415245 
L 129.440489 178.535591 
L 129.599454 183.49877 
L 129.629733 183.3145 
L 129.72057 180.594456 
L 129.894674 166.825519 
L 130.220173 119.089629 
L 130.803043 37.955363 
L 130.969578 32.50123 
L 130.992287 32.602192 
L 131.067984 34.412907 
L 131.219379 44.576376 
L 131.49189 80.725465 
L 132.226155 183.021508 
L 132.347271 185.789914 
L 132.38512 185.441711 
L 132.483527 181.842473 
L 132.67277 164.714454 
L 133.036118 106.247596 
L 133.550861 32.634448 
L 133.724965 26.339056 
L 133.747674 26.440904 
L 133.823371 28.336786 
L 133.974766 39.065379 
L 134.247277 77.541792 
L 135.004252 191.194668 
L 135.117798 193.976094 
L 135.163216 193.528868 
L 135.269193 189.035087 
L 135.466006 168.812366 
L 135.852063 100.020743 
L 136.344097 25.139793 
L 136.518201 18.406101 
L 136.54091 18.514425 
L 136.616607 20.535943 
L 136.768002 31.972566 
L 137.040513 72.99507 
L 137.812627 196.743593 
L 137.926173 199.636364 
L 137.971592 199.158631 
L 138.077568 194.440866 
L 138.274381 173.32662 
L 138.660438 101.814847 
L 139.152472 23.807536 
L 139.334146 16.363636 
L 139.349285 16.412776 
L 139.417413 17.919013 
L 139.561238 27.787659 
L 139.818609 64.538703 
L 140.658851 196.071492 
L 140.742118 197.593899 
L 140.787537 197.119012 
L 140.893513 192.478884 
L 141.090327 171.832138 
L 141.483953 101.095106 
L 141.960847 29.113094 
L 142.142521 22.023906 
L 142.157661 22.073936 
L 142.225788 23.524666 
L 142.369613 32.942818 
L 142.626985 67.75615 
L 143.444517 187.959863 
L 143.535354 189.660944 
L 143.580773 189.217014 
L 143.686749 184.878149 
L 143.883562 165.617712 
L 144.292329 97.463961 
L 144.746513 36.029717 
L 144.920618 30.210155 
L 144.943327 30.349699 
L 145.026594 32.634585 
L 145.193128 45.124774 
L 145.495918 88.415245 
L 146.131777 178.535591 
L 146.290741 183.49877 
L 146.32102 183.3145 
L 146.411857 180.594456 
L 146.585961 166.825519 
L 146.91146 119.089629 
L 147.494331 37.955363 
L 147.660865 32.50123 
L 147.683574 32.602192 
L 147.759272 34.412907 
L 147.910667 44.576376 
L 148.183178 80.725465 
L 148.917443 183.021508 
L 149.038559 185.789914 
L 149.076407 185.441711 
L 149.174814 181.842473 
L 149.364058 164.714454 
L 149.727406 106.247596 
L 150.242148 32.634448 
L 150.416252 26.339056 
L 150.438962 26.440904 
L 150.514659 28.336786 
L 150.666054 39.065379 
L 150.938565 77.541792 
L 151.695539 191.194668 
L 151.809085 193.976094 
L 151.854504 193.528868 
L 151.96048 189.035087 
L 152.157294 168.812366 
L 152.543351 100.020743 
L 153.035384 25.139793 
L 153.209488 18.406101 
L 153.232197 18.514425 
L 153.307895 20.535943 
L 153.45929 31.972566 
L 153.731801 72.99507 
L 154.503915 196.743593 
L 154.617461 199.636364 
L 154.662879 199.158631 
L 154.768856 194.440866 
L 154.965669 173.32662 
L 155.351726 101.814847 
L 155.843759 23.807536 
L 156.025433 16.363636 
L 156.040573 16.412776 
L 156.108701 17.919013 
L 156.252526 27.787659 
L 156.509897 64.538703 
L 157.350139 196.071492 
L 157.433406 197.593899 
L 157.478824 197.119012 
L 157.584801 192.478884 
L 157.781614 171.832138 
L 158.175241 101.095106 
L 158.652135 29.113094 
L 158.833809 22.023906 
L 158.848948 22.073936 
L 158.917076 23.524666 
L 159.060901 32.942818 
L 159.318272 67.75615 
L 160.135805 187.959863 
L 160.226642 189.660944 
L 160.27206 189.217014 
L 160.378037 184.878149 
L 160.57485 165.617712 
L 160.983616 97.463961 
L 161.437801 36.029717 
L 161.611905 30.210155 
L 161.634614 30.349699 
L 161.717882 32.634585 
L 161.884416 45.124774 
L 162.187206 88.415245 
L 162.823064 178.535591 
L 162.982029 183.49877 
L 163.012308 183.3145 
L 163.103145 180.594456 
L 163.277249 166.825519 
L 163.602748 119.089629 
L 164.185618 37.955363 
L 164.352153 32.50123 
L 164.374862 32.602192 
L 164.450559 34.412907 
L 164.601954 44.576376 
L 164.874465 80.725465 
L 165.60873 183.021508 
L 165.729846 185.789914 
L 165.767695 185.441711 
L 165.866102 181.842473 
L 166.055345 164.714454 
L 166.418693 106.247596 
L 166.933436 32.634448 
L 167.10754 26.339056 
L 167.130249 26.440904 
L 167.205947 28.336786 
L 167.357342 39.065379 
L 167.629852 77.541792 
L 168.386827 191.194668 
L 168.500373 193.976094 
L 168.545791 193.528868 
L 168.651768 189.035087 
L 168.848581 168.812366 
L 169.234638 100.020743 
L 169.726672 25.139793 
L 169.900776 18.406101 
L 169.923485 18.514425 
L 169.999182 20.535943 
L 170.150577 31.972566 
L 170.423088 72.99507 
L 171.195202 196.743593 
L 171.308748 199.636364 
L 171.354167 199.158631 
L 171.460143 194.440866 
L 171.656957 173.32662 
L 172.043014 101.814847 
L 172.535047 23.807536 
L 172.716721 16.363636 
L 172.73186 16.412776 
L 172.799988 17.919013 
L 172.943813 27.787659 
L 173.201185 64.538703 
L 174.041426 196.071492 
L 174.124693 197.593899 
L 174.170112 197.119012 
L 174.276088 192.478884 
L 174.472902 171.832138 
L 174.866528 101.095106 
L 175.343422 29.113094 
L 175.525096 22.023906 
L 175.540236 22.073936 
L 175.608363 23.524666 
L 175.752189 32.942818 
L 176.00956 67.75615 
L 176.827092 187.959863 
L 176.917929 189.660944 
L 176.963348 189.217014 
L 177.069324 184.878149 
L 177.266138 165.617712 
L 177.674904 97.463961 
L 178.129089 36.029717 
L 178.303193 30.210155 
L 178.325902 30.349699 
L 178.409169 32.634585 
L 178.575703 45.124774 
L 178.878493 88.415245 
L 179.514352 178.535591 
L 179.673317 183.49877 
L 179.703595 183.3145 
L 179.794432 180.594456 
L 179.968537 166.825519 
L 180.294036 119.089629 
L 180.876906 37.955363 
L 181.04344 32.50123 
L 181.06615 32.602192 
L 181.141847 34.412907 
L 181.293242 44.576376 
L 181.565753 80.725465 
L 182.300018 183.021508 
L 182.421134 185.789914 
L 182.458983 185.441711 
L 182.557389 181.842473 
L 182.746633 164.714454 
L 183.109981 106.247596 
L 183.624723 32.634448 
L 183.798827 26.339056 
L 183.821537 26.440904 
L 183.897234 28.336786 
L 184.048629 39.065379 
L 184.32114 77.541792 
L 185.078114 191.194668 
L 185.191661 193.976094 
L 185.237079 193.528868 
L 185.343055 189.035087 
L 185.539869 168.812366 
L 185.925926 100.020743 
L 186.417959 25.139793 
L 186.592063 18.406101 
L 186.614773 18.514425 
L 186.69047 20.535943 
L 186.841865 31.972566 
L 187.114376 72.99507 
L 187.88649 196.743593 
L 188.000036 199.636364 
L 188.045454 199.158631 
L 188.151431 194.440866 
L 188.348244 173.32662 
L 188.734301 101.814847 
L 189.226335 23.807536 
L 189.408008 16.363636 
L 189.423148 16.412776 
L 189.491276 17.919013 
L 189.635101 27.787659 
L 189.892472 64.538703 
L 190.732714 196.071492 
L 190.815981 197.593899 
L 190.8614 197.119012 
L 190.967376 192.478884 
L 191.164189 171.832138 
L 191.557816 101.095106 
L 192.03471 29.113094 
L 192.216384 22.023906 
L 192.231523 22.073936 
L 192.299651 23.524666 
L 192.443476 32.942818 
L 192.700848 67.75615 
L 193.51838 187.959863 
L 193.609217 189.660944 
L 193.654635 189.217014 
L 193.760612 184.878149 
L 193.957425 165.617712 
L 194.366191 97.463961 
L 194.820376 36.029717 
L 194.99448 30.210155 
L 195.017189 30.349699 
L 195.100457 32.634585 
L 195.266991 45.124774 
L 195.569781 88.415245 
L 196.205639 178.535591 
L 196.364604 183.49877 
L 196.394883 183.3145 
L 196.48572 180.594456 
L 196.659824 166.825519 
L 196.985323 119.089629 
L 197.568194 37.955363 
L 197.734728 32.50123 
L 197.757437 32.602192 
L 197.833135 34.412907 
L 197.98453 44.576376 
L 198.25704 80.725465 
L 198.991306 183.021508 
L 199.112421 185.789914 
L 199.15027 185.441711 
L 199.248677 181.842473 
L 199.437921 164.714454 
L 199.801268 106.247596 
L 200.316011 32.634448 
L 200.490115 26.339056 
L 200.512824 26.440904 
L 200.588522 28.336786 
L 200.739917 39.065379 
L 201.012427 77.541792 
L 201.769402 191.194668 
L 201.882948 193.976094 
L 201.928367 193.528868 
L 202.034343 189.035087 
L 202.231156 168.812366 
L 202.617213 100.020743 
L 203.109247 25.139793 
L 203.283351 18.406101 
L 203.30606 18.514425 
L 203.381758 20.535943 
L 203.533153 31.972566 
L 203.805663 72.99507 
L 204.577777 196.743593 
L 204.691324 199.636364 
L 204.736742 199.158631 
L 204.842718 194.440866 
L 205.039532 173.32662 
L 205.425589 101.814847 
L 205.917622 23.807536 
L 206.099296 16.363636 
L 206.114436 16.412776 
L 206.182563 17.919013 
L 206.326388 27.787659 
L 206.58376 64.538703 
L 207.424001 196.071492 
L 207.507269 197.593899 
L 207.552687 197.119012 
L 207.658664 192.478884 
L 207.855477 171.832138 
L 208.249104 101.095106 
L 208.725998 29.113094 
L 208.907671 22.023906 
L 208.922811 22.073936 
L 208.990939 23.524666 
L 209.134764 32.942818 
L 209.392135 67.75615 
L 210.209668 187.959863 
L 210.300505 189.660944 
L 210.345923 189.217014 
L 210.451899 184.878149 
L 210.648713 165.617712 
L 211.057479 97.463961 
L 211.511664 36.029717 
L 211.685768 30.210155 
L 211.708477 30.349699 
L 211.791744 32.634585 
L 211.958279 45.124774 
L 212.261068 88.415245 
L 212.896927 178.535591 
L 213.055892 183.49877 
L 213.086171 183.3145 
L 213.177008 180.594456 
L 213.351112 166.825519 
L 213.676611 119.089629 
L 214.259481 37.955363 
L 214.426015 32.50123 
L 214.448725 32.602192 
L 214.524422 34.412907 
L 214.675817 44.576376 
L 214.948328 80.725465 
L 215.682593 183.021508 
L 215.803709 185.789914 
L 215.841558 185.441711 
L 215.939964 181.842473 
L 216.129208 164.714454 
L 216.492556 106.247596 
L 217.007299 32.634448 
L 217.181403 26.339056 
L 217.204112 26.440904 
L 217.279809 28.336786 
L 217.431204 39.065379 
L 217.703715 77.541792 
L 218.46069 191.194668 
L 218.574236 193.976094 
L 218.619654 193.528868 
L 218.725631 189.035087 
L 218.922444 168.812366 
L 219.308501 100.020743 
L 219.800534 25.139793 
L 219.974639 18.406101 
L 219.997348 18.514425 
L 220.073045 20.535943 
L 220.22444 31.972566 
L 220.496951 72.99507 
L 221.269065 196.743593 
L 221.382611 199.636364 
L 221.42803 199.158631 
L 221.534006 194.440866 
L 221.730819 173.32662 
L 222.116876 101.814847 
L 222.60891 23.807536 
L 222.790584 16.363636 
L 222.805723 16.412776 
L 222.873851 17.919013 
L 223.017676 27.787659 
L 223.275047 64.538703 
L 224.115289 196.071492 
L 224.198556 197.593899 
L 224.243975 197.119012 
L 224.349951 192.478884 
L 224.546764 171.832138 
L 224.940391 101.095106 
L 225.417285 29.113094 
L 225.598959 22.023906 
L 225.614099 22.073936 
L 225.682226 23.524666 
L 225.826051 32.942818 
L 226.083423 67.75615 
L 226.900955 187.959863 
L 226.991792 189.660944 
L 227.037211 189.217014 
L 227.143187 184.878149 
L 227.34 165.617712 
L 227.748767 97.463961 
L 228.202951 36.029717 
L 228.377055 30.210155 
L 228.399765 30.349699 
L 228.483032 32.634585 
L 228.649566 45.124774 
L 228.952356 88.415245 
L 229.588215 178.535591 
L 229.747179 183.49877 
L 229.777458 183.3145 
L 229.868295 180.594456 
L 230.042399 166.825519 
L 230.367898 119.089629 
L 230.950769 37.955363 
L 231.117303 32.50123 
L 231.140012 32.602192 
L 231.21571 34.412907 
L 231.367105 44.576376 
L 231.639615 80.725465 
L 232.373881 183.021508 
L 232.494997 185.789914 
L 232.532845 185.441711 
L 232.631252 181.842473 
L 232.820496 164.714454 
L 233.183843 106.247596 
L 233.698586 32.634448 
L 233.87269 26.339056 
L 233.895399 26.440904 
L 233.971097 28.336786 
L 234.122492 39.065379 
L 234.395003 77.541792 
L 235.151977 191.194668 
L 235.265523 193.976094 
L 235.310942 193.528868 
L 235.416918 189.035087 
L 235.613732 168.812366 
L 235.999789 100.020743 
L 236.491822 25.139793 
L 236.665926 18.406101 
L 236.688635 18.514425 
L 236.764333 20.535943 
L 236.915728 31.972566 
L 237.188239 72.99507 
L 237.960352 196.743593 
L 238.073899 199.636364 
L 238.119317 199.158631 
L 238.225294 194.440866 
L 238.422107 173.32662 
L 238.808164 101.814847 
L 239.300197 23.807536 
L 239.481871 16.363636 
L 239.497011 16.412776 
L 239.565138 17.919013 
L 239.708964 27.787659 
L 239.966335 64.538703 
L 240.806577 196.071492 
L 240.889844 197.593899 
L 240.935262 197.119012 
L 241.041239 192.478884 
L 241.238052 171.832138 
L 241.631679 101.095106 
L 242.108573 29.113094 
L 242.290247 22.023906 
L 242.305386 22.073936 
L 242.373514 23.524666 
L 242.517339 32.942818 
L 242.77471 67.75615 
L 243.592243 187.959863 
L 243.68308 189.660944 
L 243.728498 189.217014 
L 243.834475 184.878149 
L 244.031288 165.617712 
L 244.440054 97.463961 
L 244.894239 36.029717 
L 245.068343 30.210155 
L 245.091052 30.349699 
L 245.174319 32.634585 
L 245.340854 45.124774 
L 245.643644 88.415245 
L 246.279502 178.535591 
L 246.438467 183.49877 
L 246.468746 183.3145 
L 246.559583 180.594456 
L 246.733687 166.825519 
L 247.059186 119.089629 
L 247.642056 37.955363 
L 247.808591 32.50123 
L 247.8313 32.602192 
L 247.906997 34.412907 
L 248.058392 44.576376 
L 248.330903 80.725465 
L 249.065168 183.021508 
L 249.186284 185.789914 
L 249.224133 185.441711 
L 249.32254 181.842473 
L 249.511783 164.714454 
L 249.875131 106.247596 
L 250.389874 32.634448 
L 250.563978 26.339056 
L 250.586687 26.440904 
L 250.662384 28.336786 
L 250.813779 39.065379 
L 251.08629 77.541792 
L 251.843265 191.194668 
L 251.956811 193.976094 
L 252.002229 193.528868 
L 252.108206 189.035087 
L 252.305019 168.812366 
L 252.691076 100.020743 
L 253.18311 25.139793 
L 253.357214 18.406101 
L 253.379923 18.514425 
L 253.45562 20.535943 
L 253.607015 31.972566 
L 253.879526 72.99507 
L 254.65164 196.743593 
L 254.765186 199.636364 
L 254.810605 199.158631 
L 254.916581 194.440866 
L 255.113395 173.32662 
L 255.499452 101.814847 
L 255.991485 23.807536 
L 256.173159 16.363636 
L 256.188298 16.412776 
L 256.256426 17.919013 
L 256.400251 27.787659 
L 256.657622 64.538703 
L 257.497864 196.071492 
L 257.581131 197.593899 
L 257.62655 197.119012 
L 257.732526 192.478884 
L 257.92934 171.832138 
L 258.322966 101.095106 
L 258.79986 29.113094 
L 258.981534 22.023906 
L 258.996674 22.073936 
L 259.064801 23.524666 
L 259.208627 32.942818 
L 259.465998 67.75615 
L 260.28353 187.959863 
L 260.374367 189.660944 
L 260.419786 189.217014 
L 260.525762 184.878149 
L 260.722576 165.617712 
L 261.131342 97.463961 
L 261.585526 36.029717 
L 261.759631 30.210155 
L 261.78234 30.349699 
L 261.865607 32.634585 
L 262.032141 45.124774 
L 262.334931 88.415245 
L 262.97079 178.535591 
L 263.129754 183.49877 
L 263.160033 183.3145 
L 263.25087 180.594456 
L 263.424974 166.825519 
L 263.750473 119.089629 
L 264.333344 37.955363 
L 264.499878 32.50123 
L 264.522587 32.602192 
L 264.598285 34.412907 
L 264.74968 44.576376 
L 265.022191 80.725465 
L 265.756456 183.021508 
L 265.877572 185.789914 
L 265.915421 185.441711 
L 266.013827 181.842473 
L 266.203071 164.714454 
L 266.566419 106.247596 
L 267.081161 32.634448 
L 267.255265 26.339056 
L 267.277975 26.440904 
L 267.353672 28.336786 
L 267.505067 39.065379 
L 267.777578 77.541792 
L 268.534552 191.194668 
L 268.648098 193.976094 
L 268.693517 193.528868 
L 268.799493 189.035087 
L 268.996307 168.812366 
L 269.382364 100.020743 
L 269.874397 25.139793 
L 270.048501 18.406101 
L 270.071211 18.514425 
L 270.146908 20.535943 
L 270.298303 31.972566 
L 270.570814 72.99507 
L 271.342928 196.743593 
L 271.456474 199.636364 
L 271.501892 199.158631 
L 271.607869 194.440866 
L 271.804682 173.32662 
L 272.190739 101.814847 
L 272.682773 23.807536 
L 272.864446 16.363636 
L 272.879586 16.412776 
L 272.947714 17.919013 
L 273.091539 27.787659 
L 273.34891 64.538703 
L 274.189152 196.071492 
L 274.272419 197.593899 
L 274.317837 197.119012 
L 274.423814 192.478884 
L 274.620627 171.832138 
L 275.014254 101.095106 
L 275.491148 29.113094 
L 275.672822 22.023906 
L 275.687961 22.073936 
L 275.756089 23.524666 
L 275.899914 32.942818 
L 276.157285 67.75615 
L 276.974818 187.959863 
L 277.065655 189.660944 
L 277.111073 189.217014 
L 277.21705 184.878149 
L 277.413863 165.617712 
L 277.822629 97.463961 
L 278.276814 36.029717 
L 278.450918 30.210155 
L 278.473627 30.349699 
L 278.556895 32.634585 
L 278.723429 45.124774 
L 279.026219 88.415245 
L 279.662077 178.535591 
L 279.821042 183.49877 
L 279.851321 183.3145 
L 279.942158 180.594456 
L 280.116262 166.825519 
L 280.441761 119.089629 
L 281.024631 37.955363 
L 281.191166 32.50123 
L 281.213875 32.602192 
L 281.289572 34.412907 
L 281.440967 44.576376 
L 281.713478 80.725465 
L 282.447743 183.021508 
L 282.568859 185.789914 
L 282.606708 185.441711 
L 282.705115 181.842473 
L 282.894358 164.714454 
L 283.257706 106.247596 
L 283.772449 32.634448 
L 283.946553 26.339056 
L 283.969262 26.440904 
L 284.04496 28.336786 
L 284.196355 39.065379 
L 284.468865 77.541792 
L 285.22584 191.194668 
L 285.339386 193.976094 
L 285.384805 193.528868 
L 285.490781 189.035087 
L 285.687594 168.812366 
L 286.073651 100.020743 
L 286.565685 25.139793 
L 286.739789 18.406101 
L 286.762498 18.514425 
L 286.838196 20.535943 
L 286.98959 31.972566 
L 287.262101 72.99507 
L 288.034215 196.743593 
L 288.147761 199.636364 
L 288.19318 199.158631 
L 288.299156 194.440866 
L 288.49597 173.32662 
L 288.882027 101.814847 
L 289.37406 23.807536 
L 289.555734 16.363636 
L 289.570873 16.412776 
L 289.639001 17.919013 
L 289.782826 27.787659 
L 290.040198 64.538703 
L 290.880439 196.071492 
L 290.963707 197.593899 
L 291.009125 197.119012 
L 291.115101 192.478884 
L 291.311915 171.832138 
L 291.705542 101.095106 
L 292.182435 29.113094 
L 292.364109 22.023906 
L 292.379249 22.073936 
L 292.447377 23.524666 
L 292.591202 32.942818 
L 292.848573 67.75615 
L 293.666105 187.959863 
L 293.756942 189.660944 
L 293.802361 189.217014 
L 293.908337 184.878149 
L 294.105151 165.617712 
L 294.513917 97.463961 
L 294.968102 36.029717 
L 295.142206 30.210155 
L 295.164915 30.349699 
L 295.248182 32.634585 
L 295.414717 45.124774 
L 295.717506 88.415245 
L 296.353365 178.535591 
L 296.51233 183.49877 
L 296.542609 183.3145 
L 296.633445 180.594456 
L 296.80755 166.825519 
L 297.133049 119.089629 
L 297.715919 37.955363 
L 297.882453 32.50123 
L 297.905163 32.602192 
L 297.98086 34.412907 
L 298.132255 44.576376 
L 298.404766 80.725465 
L 299.139031 183.021508 
L 299.260147 185.789914 
L 299.297996 185.441711 
L 299.396402 181.842473 
L 299.585646 164.714454 
L 299.948994 106.247596 
L 300.463736 32.634448 
L 300.637841 26.339056 
L 300.66055 26.440904 
L 300.736247 28.336786 
L 300.887642 39.065379 
L 301.160153 77.541792 
L 301.917127 191.194668 
L 302.030674 193.976094 
L 302.076092 193.528868 
L 302.182069 189.035087 
L 302.378882 168.812366 
L 302.764939 100.020743 
L 303.256972 25.139793 
L 303.431076 18.406101 
L 303.453786 18.514425 
L 303.529483 20.535943 
L 303.680878 31.972566 
L 303.953389 72.99507 
L 304.725503 196.743593 
L 304.839049 199.636364 
L 304.884467 199.158631 
L 304.990444 194.440866 
L 305.187257 173.32662 
L 305.573314 101.814847 
L 306.065348 23.807536 
L 306.247022 16.363636 
L 306.262161 16.412776 
L 306.330289 17.919013 
L 306.474114 27.787659 
L 306.731485 64.538703 
L 307.571727 196.071492 
L 307.654994 197.593899 
L 307.700413 197.119012 
L 307.806389 192.478884 
L 308.003202 171.832138 
L 308.396829 101.095106 
L 308.873723 29.113094 
L 309.055397 22.023906 
L 309.070536 22.073936 
L 309.138664 23.524666 
L 309.282489 32.942818 
L 309.539861 67.75615 
L 310.357393 187.959863 
L 310.44823 189.660944 
L 310.493648 189.217014 
L 310.599625 184.878149 
L 310.796438 165.617712 
L 311.205204 97.463961 
L 311.659389 36.029717 
L 311.833493 30.210155 
L 311.856203 30.349699 
L 311.93947 32.634585 
L 312.106004 45.124774 
L 312.408794 88.415245 
L 313.044652 178.535591 
L 313.203617 183.49877 
L 313.233896 183.3145 
L 313.324733 180.594456 
L 313.498837 166.825519 
L 313.824336 119.089629 
L 314.407207 37.955363 
L 314.573741 32.50123 
L 314.59645 32.602192 
L 314.672148 34.412907 
L 314.823543 44.576376 
L 315.096053 80.725465 
L 315.830319 183.021508 
L 315.951435 185.789914 
L 315.989283 185.441711 
L 316.08769 181.842473 
L 316.276934 164.714454 
L 316.640281 106.247596 
L 317.155024 32.634448 
L 317.329128 26.339056 
L 317.351837 26.440904 
L 317.427535 28.336786 
L 317.57893 39.065379 
L 317.851441 77.541792 
L 318.608415 191.194668 
L 318.721961 193.976094 
L 318.76738 193.528868 
L 318.873356 189.035087 
L 319.070169 168.812366 
L 319.456226 100.020743 
L 319.94826 25.139793 
L 320.122364 18.406101 
L 320.145073 18.514425 
L 320.220771 20.535943 
L 320.372166 31.972566 
L 320.644676 72.99507 
L 321.41679 196.743593 
L 321.530337 199.636364 
L 321.575755 199.158631 
L 321.681731 194.440866 
L 321.878545 173.32662 
L 322.264602 101.814847 
L 322.756635 23.807536 
L 322.938309 16.363636 
L 322.953449 16.412776 
L 323.021576 17.919013 
L 323.165401 27.787659 
L 323.422773 64.538703 
L 324.263014 196.071492 
L 324.346282 197.593899 
L 324.3917 197.119012 
L 324.497677 192.478884 
L 324.69449 171.832138 
L 325.088117 101.095106 
L 325.565011 29.113094 
L 325.746684 22.023906 
L 325.761824 22.073936 
L 325.829952 23.524666 
L 325.973777 32.942818 
L 326.231148 67.75615 
L 327.048681 187.959863 
L 327.139518 189.660944 
L 327.184936 189.217014 
L 327.290912 184.878149 
L 327.487726 165.617712 
L 327.896492 97.463961 
L 328.350677 36.029717 
L 328.524781 30.210155 
L 328.54749 30.349699 
L 328.630757 32.634585 
L 328.797292 45.124774 
L 329.100081 88.415245 
L 329.73594 178.535591 
L 329.894905 183.49877 
L 329.925184 183.3145 
L 330.016021 180.594456 
L 330.190125 166.825519 
L 330.515624 119.089629 
L 331.098494 37.955363 
L 331.265029 32.50123 
L 331.287738 32.602192 
L 331.363435 34.412907 
L 331.51483 44.576376 
L 331.787341 80.725465 
L 332.521606 183.021508 
L 332.642722 185.789914 
L 332.680571 185.441711 
L 332.778978 181.842473 
L 332.968221 164.714454 
L 333.331569 106.247596 
L 333.846312 32.634448 
L 334.020416 26.339056 
L 334.043125 26.440904 
L 334.118822 28.336786 
L 334.270217 39.065379 
L 334.542728 77.541792 
L 335.299703 191.194668 
L 335.413249 193.976094 
L 335.458667 193.528868 
L 335.564644 189.035087 
L 335.761457 168.812366 
L 336.147514 100.020743 
L 336.639547 25.139793 
L 336.813652 18.406101 
L 336.836361 18.514425 
L 336.912058 20.535943 
L 337.063453 31.972566 
L 337.335964 72.99507 
L 338.108078 196.743593 
L 338.221624 199.636364 
L 338.267043 199.158631 
L 338.373019 194.440866 
L 338.569832 173.32662 
L 338.955889 101.814847 
L 339.447923 23.807536 
L 339.629597 16.363636 
L 339.644736 16.412776 
L 339.712864 17.919013 
L 339.856689 27.787659 
L 340.11406 64.538703 
L 340.954302 196.071492 
L 341.037569 197.593899 
L 341.082988 197.119012 
L 341.188964 192.478884 
L 341.385778 171.832138 
L 341.779404 101.095106 
L 342.256298 29.113094 
L 342.437972 22.023906 
L 342.453112 22.073936 
L 342.521239 23.524666 
L 342.665064 32.942818 
L 342.922436 67.75615 
L 343.739968 187.959863 
L 343.830805 189.660944 
L 343.876224 189.217014 
L 343.9822 184.878149 
L 344.179013 165.617712 
L 344.58778 97.463961 
L 345.041964 36.029717 
L 345.216068 30.210155 
L 345.238778 30.349699 
L 345.322045 32.634585 
L 345.488579 45.124774 
L 345.791369 88.415245 
L 346.427228 178.535591 
L 346.586192 183.49877 
L 346.616471 183.3145 
L 346.707308 180.594456 
L 346.881412 166.825519 
L 347.206911 119.089629 
L 347.789782 37.955363 
L 347.956316 32.50123 
L 347.979025 32.602192 
L 348.054723 34.412907 
L 348.206118 44.576376 
L 348.478629 80.725465 
L 349.212894 183.021508 
L 349.33401 185.789914 
L 349.371858 185.441711 
L 349.470265 181.842473 
L 349.659509 164.714454 
L 350.022856 106.247596 
L 350.537599 32.634448 
L 350.711703 26.339056 
L 350.734413 26.440904 
L 350.81011 28.336786 
L 350.961505 39.065379 
L 351.234016 77.541792 
L 351.99099 191.194668 
L 352.104536 193.976094 
L 352.149955 193.528868 
L 352.255931 189.035087 
L 352.452745 168.812366 
L 352.838802 100.020743 
L 353.330835 25.139793 
L 353.504939 18.406101 
L 353.527648 18.514425 
L 353.603346 20.535943 
L 353.754741 31.972566 
L 354.027252 72.99507 
L 354.799366 196.743593 
L 354.912912 199.636364 
L 354.95833 199.158631 
L 355.064307 194.440866 
L 355.26112 173.32662 
L 355.647177 101.814847 
L 356.13921 23.807536 
L 356.320884 16.363636 
L 356.336024 16.412776 
L 356.404151 17.919013 
L 356.547977 27.787659 
L 356.805348 64.538703 
L 357.64559 196.071492 
L 357.728857 197.593899 
L 357.774275 197.119012 
L 357.880252 192.478884 
L 358.077065 171.832138 
L 358.470692 101.095106 
L 358.947586 29.113094 
L 359.12926 22.023906 
L 359.144399 22.073936 
L 359.212527 23.524666 
L 359.356352 32.942818 
L 359.613723 67.75615 
L 360.431256 187.959863 
L 360.522093 189.660944 
L 360.567511 189.217014 
L 360.673488 184.878149 
L 360.870301 165.617712 
L 361.279067 97.463961 
L 361.733252 36.029717 
L 361.907356 30.210155 
L 361.930065 30.349699 
L 362.013332 32.634585 
L 362.179867 45.124774 
L 362.482657 88.415245 
L 363.118515 178.535591 
L 363.27748 183.49877 
L 363.307759 183.3145 
L 363.398596 180.594456 
L 363.5727 166.825519 
L 363.898199 119.089629 
L 364.481069 37.955363 
L 364.647604 32.50123 
L 364.670313 32.602192 
L 364.74601 34.412907 
L 364.897405 44.576376 
L 365.169916 80.725465 
L 365.904181 183.021508 
L 366.025297 185.789914 
L 366.063146 185.441711 
L 366.161553 181.842473 
L 366.350796 164.714454 
L 366.714144 106.247596 
L 367.228887 32.634448 
L 367.402991 26.339056 
L 367.4257 26.440904 
L 367.501398 28.336786 
L 367.652792 39.065379 
L 367.925303 77.541792 
L 368.682278 191.194668 
L 368.795824 193.976094 
L 368.841242 193.528868 
L 368.947219 189.035087 
L 369.144032 168.812366 
L 369.530089 100.020743 
L 370.022123 25.139793 
L 370.196227 18.406101 
L 370.218936 18.514425 
L 370.294633 20.535943 
L 370.446028 31.972566 
L 370.718539 72.99507 
L 371.490653 196.743593 
L 371.604199 199.636364 
L 371.649618 199.158631 
L 371.755594 194.440866 
L 371.952408 173.32662 
L 372.338465 101.814847 
L 372.830498 23.807536 
L 373.012172 16.363636 
L 373.027311 16.412776 
L 373.095439 17.919013 
L 373.239264 27.787659 
L 373.496636 64.538703 
L 374.336877 196.071492 
L 374.420144 197.593899 
L 374.465563 197.119012 
L 374.571539 192.478884 
L 374.768353 171.832138 
L 375.161979 101.095106 
L 375.638873 29.113094 
L 375.820547 22.023906 
L 375.835687 22.073936 
L 375.903814 23.524666 
L 376.04764 32.942818 
L 376.305011 67.75615 
L 377.122543 187.959863 
L 377.21338 189.660944 
L 377.258799 189.217014 
L 377.364775 184.878149 
L 377.561589 165.617712 
L 377.970355 97.463961 
L 378.424539 36.029717 
L 378.598644 30.210155 
L 378.621353 30.349699 
L 378.70462 32.634585 
L 378.871154 45.124774 
L 379.173944 88.415245 
L 379.809803 178.535591 
L 379.968767 183.49877 
L 379.999046 183.3145 
L 380.089883 180.594456 
L 380.263988 166.825519 
L 380.589487 119.089629 
L 381.172357 37.955363 
L 381.338891 32.50123 
L 381.361601 32.602192 
L 381.437298 34.412907 
L 381.588693 44.576376 
L 381.861204 80.725465 
L 382.595469 183.021508 
L 382.716585 185.789914 
L 382.754434 185.441711 
L 382.85284 181.842473 
L 383.042084 164.714454 
L 383.405432 106.247596 
L 383.920174 32.634448 
L 384.094278 26.339056 
L 384.116988 26.440904 
L 384.192685 28.336786 
L 384.34408 39.065379 
L 384.616591 77.541792 
L 385.373565 191.194668 
L 385.487112 193.976094 
L 385.53253 193.528868 
L 385.638506 189.035087 
L 385.83532 168.812366 
L 386.221377 100.020743 
L 386.71341 25.139793 
L 386.887514 18.406101 
L 386.910224 18.514425 
L 386.985921 20.535943 
L 387.137316 31.972566 
L 387.409827 72.99507 
L 388.181941 196.743593 
L 388.295487 199.636364 
L 388.340905 199.158631 
L 388.446882 194.440866 
L 388.643695 173.32662 
L 388.991903 109.547392 
L 388.991903 109.547392 
" style="fill:none;stroke:#1f77b4;stroke-linecap:square;stroke-width:1.5;"/>
   </g>
   <g id="patch_3">
    <path d="M 38.482813 208.8 
L 38.482813 7.2 
" style="fill:none;stroke:#000000;stroke-linecap:square;stroke-linejoin:miter;stroke-width:0.8;"/>
   </g>
   <g id="patch_4">
    <path d="M 405.682812 208.8 
L 405.682812 7.2 
" style="fill:none;stroke:#000000;stroke-linecap:square;stroke-linejoin:miter;stroke-width:0.8;"/>
   </g>
   <g id="patch_5">
    <path d="M 38.482813 208.8 
L 405.682812 208.8 
" style="fill:none;stroke:#000000;stroke-linecap:square;stroke-linejoin:miter;stroke-width:0.8;"/>
   </g>
   <g id="patch_6">
    <path d="M 38.482813 7.2 
L 405.682812 7.2 
" style="fill:none;stroke:#000000;stroke-linecap:square;stroke-linejoin:miter;stroke-width:0.8;"/>
   </g>
   <g id="legend_1">
    <g id="patch_7">
     <path d="M 58.842812 273.312 
L 180.670937 273.312 
Q 182.670937 273.312 182.670937 271.312 
L 182.670937 246.436062 
Q 182.670937 244.436062 180.670937 244.436062 
L 58.842812 244.436062 
Q 56.842812 244.436062 56.842812 246.436062 
L 56.842812 271.312 
Q 56.842812 273.312 58.842812 273.312 
z
" style="fill:#ffffff;opacity:0.8;stroke:#cccccc;stroke-linejoin:miter;"/>
    </g>
    <g id="line2d_13">
     <path d="M 60.842812 259.17325 
L 80.842812 259.17325 
" style="fill:none;stroke:#1f77b4;stroke-linecap:square;stroke-width:1.5;"/>
    </g>
    <g id="line2d_14"/>
    <g id="text_13">
     <!-- Another length -->
     <g transform="translate(88.842812 256.0345)scale(0.1 -0.1)">
      <defs>
       <path d="M 34.1875 63.1875 
L 20.796875 26.90625 
L 47.609375 26.90625 
z
M 28.609375 72.90625 
L 39.796875 72.90625 
L 67.578125 0 
L 57.328125 0 
L 50.6875 18.703125 
L 17.828125 18.703125 
L 11.1875 0 
L 0.78125 0 
z
" id="DejaVuSans-65"/>
       <path d="M 54.890625 33.015625 
L 54.890625 0 
L 45.90625 0 
L 45.90625 32.71875 
Q 45.90625 40.484375 42.875 44.328125 
Q 39.84375 48.1875 33.796875 48.1875 
Q 26.515625 48.1875 22.3125 43.546875 
Q 18.109375 38.921875 18.109375 30.90625 
L 18.109375 0 
L 9.078125 0 
L 9.078125 54.6875 
L 18.109375 54.6875 
L 18.109375 46.1875 
Q 21.34375 51.125 25.703125 53.5625 
Q 30.078125 56 35.796875 56 
Q 45.21875 56 50.046875 50.171875 
Q 54.890625 44.34375 54.890625 33.015625 
z
" id="DejaVuSans-110"/>
       <path d="M 30.609375 48.390625 
Q 23.390625 48.390625 19.1875 42.75 
Q 14.984375 37.109375 14.984375 27.296875 
Q 14.984375 17.484375 19.15625 11.84375 
Q 23.34375 6.203125 30.609375 6.203125 
Q 37.796875 6.203125 41.984375 11.859375 
Q 46.1875 17.53125 46.1875 27.296875 
Q 46.1875 37.015625 41.984375 42.703125 
Q 37.796875 48.390625 30.609375 48.390625 
z
M 30.609375 56 
Q 42.328125 56 49.015625 48.375 
Q 55.71875 40.765625 55.71875 27.296875 
Q 55.71875 13.875 49.015625 6.21875 
Q 42.328125 -1.421875 30.609375 -1.421875 
Q 18.84375 -1.421875 12.171875 6.21875 
Q 5.515625 13.875 5.515625 27.296875 
Q 5.515625 40.765625 12.171875 48.375 
Q 18.84375 56 30.609375 56 
z
" id="DejaVuSans-111"/>
       <path d="M 18.3125 70.21875 
L 18.3125 54.6875 
L 36.8125 54.6875 
L 36.8125 47.703125 
L 18.3125 47.703125 
L 18.3125 18.015625 
Q 18.3125 11.328125 20.140625 9.421875 
Q 21.96875 7.515625 27.59375 7.515625 
L 36.8125 7.515625 
L 36.8125 0 
L 27.59375 0 
Q 17.1875 0 13.234375 3.875 
Q 9.28125 7.765625 9.28125 18.015625 
L 9.28125 47.703125 
L 2.6875 47.703125 
L 2.6875 54.6875 
L 9.28125 54.6875 
L 9.28125 70.21875 
z
" id="DejaVuSans-116"/>
       <path d="M 54.890625 33.015625 
L 54.890625 0 
L 45.90625 0 
L 45.90625 32.71875 
Q 45.90625 40.484375 42.875 44.328125 
Q 39.84375 48.1875 33.796875 48.1875 
Q 26.515625 48.1875 22.3125 43.546875 
Q 18.109375 38.921875 18.109375 30.90625 
L 18.109375 0 
L 9.078125 0 
L 9.078125 75.984375 
L 18.109375 75.984375 
L 18.109375 46.1875 
Q 21.34375 51.125 25.703125 53.5625 
Q 30.078125 56 35.796875 56 
Q 45.21875 56 50.046875 50.171875 
Q 54.890625 44.34375 54.890625 33.015625 
z
" id="DejaVuSans-104"/>
       <path d="M 41.109375 46.296875 
Q 39.59375 47.171875 37.8125 47.578125 
Q 36.03125 48 33.890625 48 
Q 26.265625 48 22.1875 43.046875 
Q 18.109375 38.09375 18.109375 28.8125 
L 18.109375 0 
L 9.078125 0 
L 9.078125 54.6875 
L 18.109375 54.6875 
L 18.109375 46.1875 
Q 20.953125 51.171875 25.484375 53.578125 
Q 30.03125 56 36.53125 56 
Q 37.453125 56 38.578125 55.875 
Q 39.703125 55.765625 41.0625 55.515625 
z
" id="DejaVuSans-114"/>
       <path d="M 9.421875 75.984375 
L 18.40625 75.984375 
L 18.40625 0 
L 9.421875 0 
z
" id="DejaVuSans-108"/>
       <path d="M 45.40625 27.984375 
Q 45.40625 37.75 41.375 43.109375 
Q 37.359375 48.484375 30.078125 48.484375 
Q 22.859375 48.484375 18.828125 43.109375 
Q 14.796875 37.75 14.796875 27.984375 
Q 14.796875 18.265625 18.828125 12.890625 
Q 22.859375 7.515625 30.078125 7.515625 
Q 37.359375 7.515625 41.375 12.890625 
Q 45.40625 18.265625 45.40625 27.984375 
z
M 54.390625 6.78125 
Q 54.390625 -7.171875 48.1875 -13.984375 
Q 42 -20.796875 29.203125 -20.796875 
Q 24.46875 -20.796875 20.265625 -20.09375 
Q 16.0625 -19.390625 12.109375 -17.921875 
L 12.109375 -9.1875 
Q 16.0625 -11.328125 19.921875 -12.34375 
Q 23.78125 -13.375 27.78125 -13.375 
Q 36.625 -13.375 41.015625 -8.765625 
Q 45.40625 -4.15625 45.40625 5.171875 
L 45.40625 9.625 
Q 42.625 4.78125 38.28125 2.390625 
Q 33.9375 0 27.875 0 
Q 17.828125 0 11.671875 7.65625 
Q 5.515625 15.328125 5.515625 27.984375 
Q 5.515625 40.671875 11.671875 48.328125 
Q 17.828125 56 27.875 56 
Q 33.9375 56 38.28125 53.609375 
Q 42.625 51.21875 45.40625 46.390625 
L 45.40625 54.6875 
L 54.390625 54.6875 
z
" id="DejaVuSans-103"/>
      </defs>
      <use xlink:href="#DejaVuSans-65"/>
      <use x="68.408203" xlink:href="#DejaVuSans-110"/>
      <use x="131.787109" xlink:href="#DejaVuSans-111"/>
      <use x="192.96875" xlink:href="#DejaVuSans-116"/>
      <use x="232.177734" xlink:href="#DejaVuSans-104"/>
      <use x="295.556641" xlink:href="#DejaVuSans-101"/>
      <use x="357.080078" xlink:href="#DejaVuSans-114"/>
      <use x="398.193359" xlink:href="#DejaVuSans-32"/>
      <use x="429.980469" xlink:href="#DejaVuSans-108"/>
      <use x="457.763672" xlink:href="#DejaVuSans-101"/>
      <use x="519.287109" xlink:href="#DejaVuSans-110"/>
      <use x="582.666016" xlink:href="#DejaVuSans-103"/>
      <use x="646.142578" xlink:href="#DejaVuSans-116"/>
      <use x="685.351562" xlink:href="#DejaVuSans-104"/>
     </g>
     <!--  + A length [dam] -->
     <g transform="translate(88.842812 267.232312)scale(0.1 -0.1)">
      <defs>
       <path d="M 46 62.703125 
L 46 35.5 
L 73.1875 35.5 
L 73.1875 27.203125 
L 46 27.203125 
L 46 0 
L 37.796875 0 
L 37.796875 27.203125 
L 10.59375 27.203125 
L 10.59375 35.5 
L 37.796875 35.5 
L 37.796875 62.703125 
z
" id="DejaVuSans-43"/>
       <path d="M 8.59375 75.984375 
L 29.296875 75.984375 
L 29.296875 69 
L 17.578125 69 
L 17.578125 -6.203125 
L 29.296875 -6.203125 
L 29.296875 -13.1875 
L 8.59375 -13.1875 
z
" id="DejaVuSans-91"/>
       <path d="M 45.40625 46.390625 
L 45.40625 75.984375 
L 54.390625 75.984375 
L 54.390625 0 
L 45.40625 0 
L 45.40625 8.203125 
Q 42.578125 3.328125 38.25 0.953125 
Q 33.9375 -1.421875 27.875 -1.421875 
Q 17.96875 -1.421875 11.734375 6.484375 
Q 5.515625 14.40625 5.515625 27.296875 
Q 5.515625 40.1875 11.734375 48.09375 
Q 17.96875 56 27.875 56 
Q 33.9375 56 38.25 53.625 
Q 42.578125 51.265625 45.40625 46.390625 
z
M 14.796875 27.296875 
Q 14.796875 17.390625 18.875 11.75 
Q 22.953125 6.109375 30.078125 6.109375 
Q 37.203125 6.109375 41.296875 11.75 
Q 45.40625 17.390625 45.40625 27.296875 
Q 45.40625 37.203125 41.296875 42.84375 
Q 37.203125 48.484375 30.078125 48.484375 
Q 22.953125 48.484375 18.875 42.84375 
Q 14.796875 37.203125 14.796875 27.296875 
z
" id="DejaVuSans-100"/>
       <path d="M 34.28125 27.484375 
Q 23.390625 27.484375 19.1875 25 
Q 14.984375 22.515625 14.984375 16.5 
Q 14.984375 11.71875 18.140625 8.90625 
Q 21.296875 6.109375 26.703125 6.109375 
Q 34.1875 6.109375 38.703125 11.40625 
Q 43.21875 16.703125 43.21875 25.484375 
L 43.21875 27.484375 
z
M 52.203125 31.203125 
L 52.203125 0 
L 43.21875 0 
L 43.21875 8.296875 
Q 40.140625 3.328125 35.546875 0.953125 
Q 30.953125 -1.421875 24.3125 -1.421875 
Q 15.921875 -1.421875 10.953125 3.296875 
Q 6 8.015625 6 15.921875 
Q 6 25.140625 12.171875 29.828125 
Q 18.359375 34.515625 30.609375 34.515625 
L 43.21875 34.515625 
L 43.21875 35.40625 
Q 43.21875 41.609375 39.140625 45 
Q 35.0625 48.390625 27.6875 48.390625 
Q 23 48.390625 18.546875 47.265625 
Q 14.109375 46.140625 10.015625 43.890625 
L 10.015625 52.203125 
Q 14.9375 54.109375 19.578125 55.046875 
Q 24.21875 56 28.609375 56 
Q 40.484375 56 46.34375 49.84375 
Q 52.203125 43.703125 52.203125 31.203125 
z
" id="DejaVuSans-97"/>
       <path d="M 30.421875 75.984375 
L 30.421875 -13.1875 
L 9.71875 -13.1875 
L 9.71875 -6.203125 
L 21.390625 -6.203125 
L 21.390625 69 
L 9.71875 69 
L 9.71875 75.984375 
z
" id="DejaVuSans-93"/>
      </defs>
      <use xlink:href="#DejaVuSans-32"/>
      <use x="31.787109" xlink:href="#DejaVuSans-43"/>
      <use x="115.576172" xlink:href="#DejaVuSans-32"/>
      <use x="147.363281" xlink:href="#DejaVuSans-65"/>
      <use x="215.771484" xlink:href="#DejaVuSans-32"/>
      <use x="247.558594" xlink:href="#DejaVuSans-108"/>
      <use x="275.341797" xlink:href="#DejaVuSans-101"/>
      <use x="336.865234" xlink:href="#DejaVuSans-110"/>
      <use x="400.244141" xlink:href="#DejaVuSans-103"/>
      <use x="463.720703" xlink:href="#DejaVuSans-116"/>
      <use x="502.929688" xlink:href="#DejaVuSans-104"/>
      <use x="566.308594" xlink:href="#DejaVuSans-32"/>
      <use x="598.095703" xlink:href="#DejaVuSans-91"/>
      <use x="637.109375" xlink:href="#DejaVuSans-100"/>
      <use x="700.585938" xlink:href="#DejaVuSans-97"/>
      <use x="761.865234" xlink:href="#DejaVuSans-109"/>
      <use x="859.277344" xlink:href="#DejaVuSans-93"/>
     </g>
    </g>
   </g>
  </g>
 </g>
 <defs>
  <clipPath id="pd0115d2833">
   <rect height="201.6" width="367.2" x="38.482813" y="7.2"/>
  </clipPath>
 </defs>
</svg>
